<svg width="493" height="542" viewBox="0 0 493 542" fill="none" xmlns="http://www.w3.org/2000/svg">
<line x1="143.5" y1="277.057" x2="143.5" y2="541.001" stroke="#FFFACB"/>
<path d="M285.167 142.562C285.167 64.3793 221.554 1 143.083 1C64.6129 1 1 64.3793 1 142.562C1 220.744 64.6129 284.123 143.083 284.123" stroke="#FFFACB"/>
<path d="M263.5 142.56C263.5 208.863 209.552 262.615 143 262.615C76.448 262.615 22.5 208.863 22.5 142.56C22.5 76.2564 76.448 22.5039 143 22.5039C209.552 22.5039 263.5 76.2564 263.5 142.56Z" fill="#FFFACB" stroke="#FFFACB"/>
<path d="M233.833 143.341C233.833 193.503 193.018 234.171 142.667 234.171C92.315 234.171 51.5 193.503 51.5 143.341C51.5 93.1785 92.315 52.5107 142.667 52.5107C193.018 52.5107 233.833 93.1785 233.833 143.341Z" fill="#203B5B" stroke="#FFFACB"/>
<path d="M294.333 145.66C294.333 150.704 290.229 154.793 285.167 154.793C280.104 154.793 276 150.704 276 145.66C276 140.616 280.104 136.527 285.167 136.527C290.229 136.527 294.333 140.616 294.333 145.66Z" fill="#FFFACB"/>
<ellipse cx="143.167" cy="284.189" rx="9.16666" ry="9.13301" fill="#FFFACB"/>
<ellipse cx="144" cy="532.108" rx="9" ry="9.00183" fill="#FFFACB"/>
<path d="M184.784 360.976H177.032V376H175.04V359.2H186.776V376H184.784V360.976ZM190.668 364H191.988L192.348 365.44H192.444C192.812 364.88 193.284 364.456 193.86 364.168C194.452 363.864 195.124 363.712 195.876 363.712C197.476 363.712 198.668 364.184 199.452 365.128C200.236 366.072 200.628 367.616 200.628 369.76C200.628 370.768 200.492 371.68 200.22 372.496C199.964 373.296 199.596 373.976 199.116 374.536C198.636 375.096 198.052 375.528 197.364 375.832C196.692 376.136 195.94 376.288 195.108 376.288C194.516 376.288 194.044 376.248 193.692 376.168C193.356 376.104 192.988 375.984 192.588 375.808V380.8H190.668V364ZM195.516 365.392C194.7 365.392 194.052 365.608 193.572 366.04C193.108 366.456 192.78 367.096 192.588 367.96V373.912C192.876 374.136 193.204 374.312 193.572 374.44C193.94 374.552 194.428 374.608 195.036 374.608C196.14 374.608 197.012 374.2 197.652 373.384C198.308 372.552 198.636 371.336 198.636 369.736C198.636 369.08 198.58 368.488 198.468 367.96C198.356 367.416 198.172 366.96 197.916 366.592C197.676 366.208 197.356 365.912 196.956 365.704C196.572 365.496 196.092 365.392 195.516 365.392ZM211.141 368.896L211.213 367.408H211.141L210.157 368.944L204.757 376H203.653V364H205.573V371.32L205.501 372.736H205.597L206.533 371.248L211.933 364H213.061V376H211.141V368.896ZM226.666 368.872L226.81 366.592H226.69L225.826 368.44L222.922 373.144H222.25L219.226 368.44L218.434 366.592H218.338L218.53 368.848V376H216.754V364H218.65L222.01 369.376L222.706 370.768H222.754L223.474 369.328L226.618 364H228.538V376H226.666V368.872ZM240.983 375.04C240.503 375.424 239.895 375.728 239.159 375.952C238.439 376.176 237.671 376.288 236.855 376.288C235.943 376.288 235.151 376.144 234.479 375.856C233.807 375.552 233.255 375.128 232.823 374.584C232.391 374.024 232.071 373.36 231.863 372.592C231.655 371.824 231.551 370.96 231.551 370C231.551 367.952 232.007 366.392 232.919 365.32C233.831 364.248 235.135 363.712 236.831 363.712C237.375 363.712 237.919 363.776 238.463 363.904C239.007 364.016 239.495 364.24 239.927 364.576C240.359 364.912 240.711 365.392 240.983 366.016C241.255 366.624 241.391 367.432 241.391 368.44C241.391 368.968 241.343 369.552 241.247 370.192H233.543C233.543 370.896 233.615 371.52 233.759 372.064C233.903 372.608 234.127 373.072 234.431 373.456C234.735 373.824 235.127 374.112 235.607 374.32C236.103 374.512 236.703 374.608 237.407 374.608C237.951 374.608 238.495 374.512 239.039 374.32C239.583 374.128 239.991 373.904 240.263 373.648L240.983 375.04ZM236.855 365.392C235.911 365.392 235.151 365.64 234.575 366.136C234.015 366.632 233.679 367.48 233.567 368.68H239.519C239.519 367.464 239.287 366.616 238.823 366.136C238.359 365.64 237.703 365.392 236.855 365.392ZM244.411 364H245.73L246.09 365.44H246.187C246.555 364.88 247.027 364.456 247.603 364.168C248.195 363.864 248.867 363.712 249.618 363.712C251.219 363.712 252.411 364.184 253.195 365.128C253.979 366.072 254.371 367.616 254.371 369.76C254.371 370.768 254.235 371.68 253.963 372.496C253.707 373.296 253.339 373.976 252.859 374.536C252.379 375.096 251.795 375.528 251.107 375.832C250.435 376.136 249.683 376.288 248.851 376.288C248.259 376.288 247.787 376.248 247.435 376.168C247.099 376.104 246.731 375.984 246.331 375.808V380.8H244.411V364ZM249.259 365.392C248.443 365.392 247.795 365.608 247.315 366.04C246.851 366.456 246.523 367.096 246.331 367.96V373.912C246.619 374.136 246.947 374.312 247.315 374.44C247.683 374.552 248.171 374.608 248.779 374.608C249.883 374.608 250.755 374.2 251.395 373.384C252.051 372.552 252.379 371.336 252.379 369.736C252.379 369.08 252.323 368.488 252.211 367.96C252.099 367.416 251.915 366.96 251.659 366.592C251.419 366.208 251.099 365.912 250.699 365.704C250.315 365.496 249.835 365.392 249.259 365.392ZM264.739 370.696H259.315V376H257.395V364H259.315V369.016H264.739V364H266.659V376H264.739V370.696ZM269.684 370C269.684 367.968 270.132 366.416 271.028 365.344C271.94 364.256 273.244 363.712 274.94 363.712C275.836 363.712 276.612 363.864 277.268 364.168C277.94 364.456 278.492 364.88 278.924 365.44C279.356 365.984 279.676 366.648 279.884 367.432C280.092 368.2 280.196 369.056 280.196 370C280.196 372.032 279.74 373.592 278.828 374.68C277.932 375.752 276.636 376.288 274.94 376.288C274.044 376.288 273.26 376.144 272.588 375.856C271.932 375.552 271.388 375.128 270.956 374.584C270.524 374.024 270.204 373.36 269.996 372.592C269.788 371.808 269.684 370.944 269.684 370ZM271.676 370C271.676 370.608 271.732 371.192 271.844 371.752C271.972 372.312 272.164 372.8 272.42 373.216C272.676 373.632 273.012 373.968 273.428 374.224C273.844 374.48 274.348 374.608 274.94 374.608C277.116 374.624 278.204 373.088 278.204 370C278.204 369.376 278.14 368.784 278.012 368.224C277.9 367.664 277.716 367.176 277.46 366.76C277.204 366.344 276.868 366.016 276.452 365.776C276.036 365.52 275.532 365.392 274.94 365.392C272.764 365.376 271.676 366.912 271.676 370ZM297.805 375.208C297.325 375.56 296.757 375.824 296.101 376C295.445 376.192 294.757 376.288 294.037 376.288C293.109 376.288 292.325 376.144 291.685 375.856C291.045 375.552 290.517 375.128 290.101 374.584C289.701 374.024 289.405 373.36 289.213 372.592C289.037 371.808 288.949 370.944 288.949 370C288.949 367.968 289.397 366.416 290.293 365.344C291.189 364.256 292.477 363.712 294.157 363.712C294.925 363.712 295.573 363.776 296.101 363.904C296.645 364.016 297.133 364.184 297.565 364.408L297.013 366.064C296.645 365.856 296.237 365.696 295.789 365.584C295.341 365.456 294.861 365.392 294.349 365.392C292.077 365.392 290.941 366.928 290.941 370C290.941 370.608 290.997 371.192 291.109 371.752C291.237 372.296 291.437 372.784 291.709 373.216C291.997 373.632 292.365 373.968 292.813 374.224C293.277 374.48 293.845 374.608 294.517 374.608C295.093 374.608 295.605 374.52 296.053 374.344C296.517 374.168 296.893 373.968 297.181 373.744L297.805 375.208ZM307.731 365.68H303.963V376H302.043V365.68H298.275V364H307.731V365.68ZM308.59 370C308.59 367.968 309.038 366.416 309.934 365.344C310.846 364.256 312.15 363.712 313.846 363.712C314.742 363.712 315.518 363.864 316.174 364.168C316.846 364.456 317.398 364.88 317.83 365.44C318.262 365.984 318.582 366.648 318.79 367.432C318.998 368.2 319.102 369.056 319.102 370C319.102 372.032 318.646 373.592 317.734 374.68C316.838 375.752 315.542 376.288 313.846 376.288C312.95 376.288 312.166 376.144 311.494 375.856C310.838 375.552 310.294 375.128 309.862 374.584C309.43 374.024 309.11 373.36 308.902 372.592C308.694 371.808 308.59 370.944 308.59 370ZM310.582 370C310.582 370.608 310.638 371.192 310.75 371.752C310.878 372.312 311.07 372.8 311.326 373.216C311.582 373.632 311.918 373.968 312.334 374.224C312.75 374.48 313.254 374.608 313.846 374.608C316.022 374.624 317.11 373.088 317.11 370C317.11 369.376 317.046 368.784 316.918 368.224C316.806 367.664 316.622 367.176 316.366 366.76C316.11 366.344 315.774 366.016 315.358 365.776C314.942 365.52 314.438 365.392 313.846 365.392C311.67 365.376 310.582 366.912 310.582 370ZM328.445 365.68H324.965C324.917 366.352 324.869 367.08 324.821 367.864C324.773 368.632 324.701 369.408 324.605 370.192C324.509 370.96 324.381 371.704 324.221 372.424C324.061 373.128 323.853 373.752 323.597 374.296C323.357 374.84 323.053 375.28 322.685 375.616C322.333 375.936 321.909 376.096 321.413 376.096C321.109 376.096 320.845 376.08 320.621 376.048C320.397 376.016 320.197 375.96 320.021 375.88L320.309 374.272C320.501 374.336 320.709 374.368 320.933 374.368C321.253 374.368 321.541 374.232 321.797 373.96C322.053 373.688 322.277 373.176 322.469 372.424C322.661 371.656 322.821 370.6 322.949 369.256C323.077 367.912 323.165 366.16 323.213 364H330.365V376H328.445V365.68ZM335.979 374.32C336.571 374.416 337.139 374.464 337.683 374.464C338.691 374.464 339.435 374.272 339.915 373.888C340.395 373.488 340.635 372.928 340.635 372.208C340.635 371.568 340.403 371.04 339.939 370.624C339.475 370.208 338.747 370 337.755 370C337.483 370 337.187 370.008 336.867 370.024C336.547 370.04 336.251 370.088 335.979 370.168V374.32ZM335.979 368.584C336.363 368.52 336.731 368.48 337.083 368.464C337.435 368.432 337.771 368.416 338.091 368.416C338.923 368.416 339.627 368.512 340.203 368.704C340.779 368.88 341.243 369.128 341.595 369.448C341.963 369.768 342.227 370.152 342.387 370.6C342.547 371.032 342.627 371.496 342.627 371.992C342.627 373.448 342.187 374.504 341.307 375.16C340.443 375.816 339.091 376.144 337.251 376.144C336.227 376.144 335.163 376.096 334.059 376V364H335.979V368.584ZM348.216 370.6H347.112V376H345.192V364H347.112V369.424L348.144 369.088L351.984 364H354.072L350.352 368.824L349.344 369.616L350.592 370.576L354.6 376H352.224L348.216 370.6ZM355.723 370C355.723 367.968 356.171 366.416 357.067 365.344C357.979 364.256 359.283 363.712 360.979 363.712C361.875 363.712 362.651 363.864 363.307 364.168C363.979 364.456 364.531 364.88 364.963 365.44C365.395 365.984 365.715 366.648 365.923 367.432C366.131 368.2 366.235 369.056 366.235 370C366.235 372.032 365.779 373.592 364.867 374.68C363.971 375.752 362.675 376.288 360.979 376.288C360.083 376.288 359.299 376.144 358.627 375.856C357.971 375.552 357.427 375.128 356.995 374.584C356.563 374.024 356.243 373.36 356.035 372.592C355.827 371.808 355.723 370.944 355.723 370ZM357.715 370C357.715 370.608 357.771 371.192 357.883 371.752C358.011 372.312 358.203 372.8 358.459 373.216C358.715 373.632 359.051 373.968 359.467 374.224C359.883 374.48 360.387 374.608 360.979 374.608C363.155 374.624 364.243 373.088 364.243 370C364.243 369.376 364.179 368.784 364.051 368.224C363.939 367.664 363.755 367.176 363.499 366.76C363.243 366.344 362.907 366.016 362.491 365.776C362.075 365.52 361.571 365.392 360.979 365.392C358.803 365.376 357.715 366.912 357.715 370ZM174.848 395.024C175.408 394.992 175.992 394.952 176.6 394.904C177.224 394.856 177.992 394.832 178.904 394.832C180.488 394.832 181.624 395.08 182.312 395.576C183 396.056 183.344 396.792 183.344 397.784C183.344 398.344 183.176 398.896 182.84 399.44C182.52 399.968 181.984 400.36 181.232 400.616V400.712C182.176 400.888 182.84 401.216 183.224 401.696C183.608 402.176 183.8 402.816 183.8 403.616C183.8 404.864 183.352 405.768 182.456 406.328C181.56 406.888 180.216 407.168 178.424 407.168C177.752 407.168 177.128 407.144 176.552 407.096C175.976 407.064 175.408 407.024 174.848 406.976V395.024ZM176.768 405.392C177.072 405.424 177.368 405.448 177.656 405.464C177.96 405.48 178.312 405.488 178.712 405.488C179.784 405.488 180.576 405.336 181.088 405.032C181.616 404.728 181.88 404.208 181.88 403.472C181.88 402.896 181.656 402.432 181.208 402.08C180.776 401.712 180 401.528 178.88 401.528H176.768V405.392ZM179.12 400.064C179.408 400.064 179.688 400.016 179.96 399.92C180.232 399.824 180.472 399.696 180.68 399.536C180.904 399.36 181.08 399.16 181.208 398.936C181.352 398.712 181.424 398.472 181.424 398.216C181.424 397.576 181.232 397.136 180.848 396.896C180.464 396.64 179.792 396.512 178.832 396.512C178.32 396.512 177.912 396.52 177.608 396.536C177.32 396.552 177.04 396.568 176.768 396.584V400.064H179.12ZM201.407 406.208C200.927 406.56 200.359 406.824 199.703 407C199.047 407.192 198.359 407.288 197.639 407.288C196.711 407.288 195.927 407.144 195.287 406.856C194.647 406.552 194.119 406.128 193.703 405.584C193.303 405.024 193.007 404.36 192.815 403.592C192.639 402.808 192.551 401.944 192.551 401C192.551 398.968 192.999 397.416 193.895 396.344C194.791 395.256 196.079 394.712 197.759 394.712C198.527 394.712 199.175 394.776 199.703 394.904C200.247 395.016 200.735 395.184 201.167 395.408L200.615 397.064C200.247 396.856 199.839 396.696 199.391 396.584C198.943 396.456 198.463 396.392 197.951 396.392C195.679 396.392 194.543 397.928 194.543 401C194.543 401.608 194.599 402.192 194.711 402.752C194.839 403.296 195.039 403.784 195.311 404.216C195.599 404.632 195.967 404.968 196.415 405.224C196.879 405.48 197.447 405.608 198.119 405.608C198.695 405.608 199.207 405.52 199.655 405.344C200.119 405.168 200.495 404.968 200.783 404.744L201.407 406.208ZM204.051 395H205.371L205.731 396.44H205.827C206.195 395.88 206.667 395.456 207.243 395.168C207.835 394.864 208.507 394.712 209.259 394.712C210.859 394.712 212.051 395.184 212.835 396.128C213.619 397.072 214.011 398.616 214.011 400.76C214.011 401.768 213.875 402.68 213.603 403.496C213.347 404.296 212.979 404.976 212.499 405.536C212.019 406.096 211.435 406.528 210.747 406.832C210.075 407.136 209.323 407.288 208.491 407.288C207.899 407.288 207.427 407.248 207.075 407.168C206.739 407.104 206.371 406.984 205.971 406.808V411.8H204.051V395ZM208.899 396.392C208.083 396.392 207.435 396.608 206.955 397.04C206.491 397.456 206.163 398.096 205.971 398.96V404.912C206.259 405.136 206.587 405.312 206.955 405.44C207.323 405.552 207.811 405.608 208.419 405.608C209.523 405.608 210.395 405.2 211.035 404.384C211.691 403.552 212.019 402.336 212.019 400.736C212.019 400.08 211.963 399.488 211.851 398.96C211.739 398.416 211.555 397.96 211.299 397.592C211.059 397.208 210.739 396.912 210.339 396.704C209.955 396.496 209.475 396.392 208.899 396.392ZM225.796 406.04C225.316 406.424 224.708 406.728 223.972 406.952C223.252 407.176 222.484 407.288 221.668 407.288C220.756 407.288 219.964 407.144 219.292 406.856C218.62 406.552 218.068 406.128 217.636 405.584C217.204 405.024 216.884 404.36 216.676 403.592C216.468 402.824 216.364 401.96 216.364 401C216.364 398.952 216.82 397.392 217.732 396.32C218.644 395.248 219.948 394.712 221.644 394.712C222.188 394.712 222.732 394.776 223.276 394.904C223.82 395.016 224.308 395.24 224.74 395.576C225.172 395.912 225.524 396.392 225.796 397.016C226.068 397.624 226.204 398.432 226.204 399.44C226.204 399.968 226.156 400.552 226.06 401.192H218.355C218.355 401.896 218.428 402.52 218.572 403.064C218.716 403.608 218.94 404.072 219.244 404.456C219.548 404.824 219.94 405.112 220.42 405.32C220.916 405.512 221.516 405.608 222.22 405.608C222.764 405.608 223.308 405.512 223.852 405.32C224.396 405.128 224.804 404.904 225.076 404.648L225.796 406.04ZM221.668 396.392C220.724 396.392 219.964 396.64 219.388 397.136C218.828 397.632 218.492 398.48 218.38 399.68H224.332C224.332 398.464 224.1 397.616 223.636 397.136C223.172 396.64 222.516 396.392 221.668 396.392ZM239.292 410.048H237.996L237.636 407H228.612L228.252 410.048H226.956V405.32H228.372C228.5 405.144 228.668 404.832 228.876 404.384C229.084 403.92 229.284 403.28 229.476 402.464C229.684 401.632 229.86 400.608 230.004 399.392C230.164 398.16 230.26 396.696 230.292 395H237.54V405.32H239.292V410.048ZM235.62 405.32V396.68H232.02C231.988 397.352 231.932 398.088 231.852 398.888C231.772 399.672 231.66 400.464 231.516 401.264C231.388 402.048 231.22 402.792 231.012 403.496C230.804 404.2 230.564 404.808 230.292 405.32H235.62ZM249.012 401.696H243.588V407H241.668V395H243.588V400.016H249.012V395H250.932V407H249.012V401.696ZM263.389 406.04C262.909 406.424 262.301 406.728 261.565 406.952C260.845 407.176 260.077 407.288 259.261 407.288C258.349 407.288 257.557 407.144 256.885 406.856C256.213 406.552 255.661 406.128 255.229 405.584C254.797 405.024 254.477 404.36 254.269 403.592C254.061 402.824 253.957 401.96 253.957 401C253.957 398.952 254.413 397.392 255.325 396.32C256.237 395.248 257.541 394.712 259.237 394.712C259.781 394.712 260.325 394.776 260.869 394.904C261.413 395.016 261.901 395.24 262.333 395.576C262.765 395.912 263.117 396.392 263.389 397.016C263.661 397.624 263.797 398.432 263.797 399.44C263.797 399.968 263.749 400.552 263.653 401.192H255.949C255.949 401.896 256.021 402.52 256.165 403.064C256.309 403.608 256.533 404.072 256.837 404.456C257.141 404.824 257.533 405.112 258.013 405.32C258.509 405.512 259.109 405.608 259.813 405.608C260.357 405.608 260.901 405.512 261.445 405.32C261.989 405.128 262.397 404.904 262.669 404.648L263.389 406.04ZM259.261 396.392C258.317 396.392 257.557 396.64 256.981 397.136C256.421 397.632 256.085 398.48 255.973 399.68H261.925C261.925 398.464 261.693 397.616 261.229 397.136C260.765 396.64 260.109 396.392 259.261 396.392ZM276.729 399.872L276.873 397.592H276.753L275.889 399.44L272.985 404.144H272.313L269.289 399.44L268.497 397.592H268.401L268.593 399.848V407H266.817V395H268.713L272.073 400.376L272.769 401.768H272.817L273.537 400.328L276.681 395H278.601V407H276.729V399.872ZM289.836 401.648V400.088H291.516C291.804 400.088 292.084 400.04 292.356 399.944C292.644 399.848 292.9 399.72 293.124 399.56C293.348 399.384 293.524 399.184 293.652 398.96C293.796 398.72 293.868 398.472 293.868 398.216C293.868 397.592 293.652 397.152 293.22 396.896C292.788 396.64 292.14 396.512 291.276 396.512C290.652 396.512 290.076 396.608 289.548 396.8C289.036 396.992 288.636 397.176 288.348 397.352L287.796 395.864C288.276 395.592 288.836 395.352 289.476 395.144C290.132 394.936 290.908 394.832 291.804 394.832C294.46 394.832 295.788 395.816 295.788 397.784C295.788 398.344 295.604 398.896 295.236 399.44C294.884 399.968 294.372 400.344 293.7 400.568V400.664C294.644 400.84 295.3 401.176 295.668 401.672C296.052 402.168 296.244 402.824 296.244 403.64C296.244 404.152 296.14 404.624 295.932 405.056C295.724 405.488 295.412 405.864 294.996 406.184C294.58 406.504 294.052 406.76 293.412 406.952C292.788 407.128 292.06 407.216 291.228 407.216C290.412 407.216 289.732 407.144 289.188 407C288.66 406.856 288.18 406.68 287.748 406.472L288.3 404.888C288.668 405.096 289.108 405.256 289.62 405.368C290.148 405.48 290.716 405.536 291.324 405.536C292.3 405.536 293.044 405.368 293.556 405.032C294.068 404.696 294.324 404.184 294.324 403.496C294.324 402.92 294.084 402.472 293.604 402.152C293.124 401.816 292.332 401.648 291.228 401.648H289.836ZM299.086 395.888C299.694 395.52 300.398 395.248 301.198 395.072C302.014 394.896 302.862 394.808 303.742 394.808C304.574 394.808 305.238 394.92 305.734 395.144C306.246 395.368 306.63 395.664 306.886 396.032C307.158 396.384 307.334 396.776 307.414 397.208C307.51 397.64 307.558 398.072 307.558 398.504C307.558 399.464 307.534 400.4 307.486 401.312C307.438 402.224 307.414 403.088 307.414 403.904C307.414 404.496 307.438 405.056 307.486 405.584C307.534 406.112 307.622 406.6 307.75 407.048H306.334L305.83 405.368H305.71C305.566 405.592 305.382 405.816 305.158 406.04C304.95 406.248 304.694 406.44 304.39 406.616C304.086 406.776 303.734 406.912 303.334 407.024C302.934 407.136 302.478 407.192 301.966 407.192C301.454 407.192 300.974 407.112 300.526 406.952C300.094 406.792 299.718 406.568 299.398 406.28C299.078 405.976 298.822 405.616 298.63 405.2C298.454 404.784 298.366 404.312 298.366 403.784C298.366 403.08 298.51 402.496 298.798 402.032C299.086 401.552 299.486 401.176 299.998 400.904C300.526 400.616 301.15 400.416 301.87 400.304C302.606 400.176 303.414 400.112 304.294 400.112C304.518 400.112 304.734 400.112 304.942 400.112C305.166 400.112 305.39 400.128 305.614 400.16C305.662 399.68 305.686 399.248 305.686 398.864C305.686 397.984 305.51 397.368 305.158 397.016C304.806 396.664 304.166 396.488 303.238 396.488C302.966 396.488 302.67 396.512 302.35 396.56C302.046 396.592 301.726 396.648 301.39 396.728C301.07 396.792 300.758 396.88 300.454 396.992C300.166 397.088 299.91 397.2 299.686 397.328L299.086 395.888ZM302.494 405.512C302.942 405.512 303.342 405.456 303.694 405.344C304.046 405.216 304.35 405.064 304.606 404.888C304.862 404.696 305.07 404.488 305.23 404.264C305.406 404.04 305.534 403.824 305.614 403.616V401.624C305.39 401.608 305.158 401.6 304.918 401.6C304.694 401.584 304.47 401.576 304.246 401.576C303.75 401.576 303.262 401.608 302.782 401.672C302.318 401.72 301.902 401.824 301.534 401.984C301.182 402.128 300.894 402.336 300.67 402.608C300.462 402.864 300.358 403.192 300.358 403.592C300.358 404.152 300.558 404.616 300.958 404.984C301.358 405.336 301.87 405.512 302.494 405.512ZM311.184 395H312.504L312.864 396.44H312.96C313.328 395.88 313.8 395.456 314.376 395.168C314.968 394.864 315.64 394.712 316.392 394.712C317.992 394.712 319.184 395.184 319.968 396.128C320.752 397.072 321.144 398.616 321.144 400.76C321.144 401.768 321.008 402.68 320.736 403.496C320.48 404.296 320.112 404.976 319.632 405.536C319.152 406.096 318.568 406.528 317.88 406.832C317.208 407.136 316.456 407.288 315.624 407.288C315.032 407.288 314.56 407.248 314.208 407.168C313.872 407.104 313.504 406.984 313.104 406.808V411.8H311.184V395ZM316.032 396.392C315.216 396.392 314.568 396.608 314.088 397.04C313.624 397.456 313.296 398.096 313.104 398.96V404.912C313.392 405.136 313.72 405.312 314.088 405.44C314.456 405.552 314.944 405.608 315.552 405.608C316.656 405.608 317.528 405.2 318.168 404.384C318.824 403.552 319.152 402.336 319.152 400.736C319.152 400.08 319.096 399.488 318.984 398.96C318.872 398.416 318.688 397.96 318.432 397.592C318.192 397.208 317.872 396.912 317.472 396.704C317.088 396.496 316.608 396.392 316.032 396.392ZM323.976 395.888C324.584 395.52 325.288 395.248 326.088 395.072C326.904 394.896 327.752 394.808 328.632 394.808C329.464 394.808 330.128 394.92 330.624 395.144C331.136 395.368 331.52 395.664 331.776 396.032C332.048 396.384 332.224 396.776 332.304 397.208C332.4 397.64 332.448 398.072 332.448 398.504C332.448 399.464 332.424 400.4 332.376 401.312C332.328 402.224 332.304 403.088 332.304 403.904C332.304 404.496 332.328 405.056 332.376 405.584C332.424 406.112 332.512 406.6 332.64 407.048H331.224L330.72 405.368H330.6C330.456 405.592 330.272 405.816 330.048 406.04C329.84 406.248 329.584 406.44 329.28 406.616C328.976 406.776 328.624 406.912 328.224 407.024C327.824 407.136 327.368 407.192 326.856 407.192C326.344 407.192 325.864 407.112 325.416 406.952C324.984 406.792 324.608 406.568 324.288 406.28C323.968 405.976 323.712 405.616 323.52 405.2C323.344 404.784 323.256 404.312 323.256 403.784C323.256 403.08 323.4 402.496 323.688 402.032C323.976 401.552 324.376 401.176 324.888 400.904C325.416 400.616 326.04 400.416 326.76 400.304C327.496 400.176 328.304 400.112 329.184 400.112C329.408 400.112 329.624 400.112 329.832 400.112C330.056 400.112 330.28 400.128 330.504 400.16C330.552 399.68 330.576 399.248 330.576 398.864C330.576 397.984 330.4 397.368 330.048 397.016C329.696 396.664 329.056 396.488 328.128 396.488C327.856 396.488 327.56 396.512 327.24 396.56C326.936 396.592 326.616 396.648 326.28 396.728C325.96 396.792 325.648 396.88 325.344 396.992C325.056 397.088 324.8 397.2 324.576 397.328L323.976 395.888ZM327.384 405.512C327.832 405.512 328.232 405.456 328.584 405.344C328.936 405.216 329.24 405.064 329.496 404.888C329.752 404.696 329.96 404.488 330.12 404.264C330.296 404.04 330.424 403.824 330.504 403.616V401.624C330.28 401.608 330.048 401.6 329.808 401.6C329.584 401.584 329.36 401.576 329.136 401.576C328.64 401.576 328.152 401.608 327.672 401.672C327.208 401.72 326.792 401.824 326.424 401.984C326.072 402.128 325.784 402.336 325.56 402.608C325.352 402.864 325.248 403.192 325.248 403.592C325.248 404.152 325.448 404.616 325.848 404.984C326.248 405.336 326.76 405.512 327.384 405.512ZM337.179 397.136C337.707 396.368 338.291 395.832 338.931 395.528C339.571 395.208 340.371 395.048 341.331 395.048C342.803 395.048 343.931 395.528 344.715 396.488C345.515 397.448 345.915 398.864 345.915 400.736C345.915 402.896 345.451 404.528 344.523 405.632C343.611 406.736 342.331 407.288 340.683 407.288C338.923 407.288 337.603 406.68 336.723 405.464C335.843 404.248 335.403 402.336 335.403 399.728C335.403 398.352 335.467 397.176 335.595 396.2C335.739 395.224 335.939 394.4 336.195 393.728C336.467 393.056 336.787 392.52 337.155 392.12C337.539 391.72 337.963 391.408 338.427 391.184C338.907 390.944 339.427 390.776 339.987 390.68C340.547 390.584 341.147 390.504 341.787 390.44C342.619 390.36 343.267 390.272 343.731 390.176C344.211 390.064 344.595 389.872 344.883 389.6L345.099 391.328C344.939 391.472 344.763 391.592 344.571 391.688C344.379 391.784 344.147 391.864 343.875 391.928C343.603 391.992 343.275 392.048 342.891 392.096C342.523 392.144 342.091 392.184 341.595 392.216C340.907 392.264 340.299 392.352 339.771 392.48C339.259 392.592 338.811 392.824 338.427 393.176C338.059 393.512 337.763 394 337.539 394.64C337.331 395.264 337.187 396.096 337.107 397.136H337.179ZM337.395 401.024C337.395 401.632 337.459 402.216 337.587 402.776C337.715 403.336 337.907 403.832 338.163 404.264C338.435 404.68 338.779 405.008 339.195 405.248C339.611 405.488 340.099 405.608 340.659 405.608C341.763 405.608 342.579 405.216 343.107 404.432C343.651 403.632 343.923 402.456 343.923 400.904C343.923 400.296 343.867 399.736 343.755 399.224C343.643 398.712 343.467 398.272 343.227 397.904C342.987 397.52 342.683 397.232 342.315 397.04C341.947 396.832 341.507 396.728 340.995 396.728C339.747 396.712 338.835 397.08 338.259 397.832C337.683 398.568 337.395 399.632 337.395 401.024ZM348.75 395.888C349.358 395.52 350.062 395.248 350.862 395.072C351.678 394.896 352.526 394.808 353.406 394.808C354.238 394.808 354.902 394.92 355.398 395.144C355.91 395.368 356.294 395.664 356.55 396.032C356.822 396.384 356.998 396.776 357.078 397.208C357.174 397.64 357.222 398.072 357.222 398.504C357.222 399.464 357.198 400.4 357.15 401.312C357.102 402.224 357.078 403.088 357.078 403.904C357.078 404.496 357.102 405.056 357.15 405.584C357.198 406.112 357.286 406.6 357.414 407.048H355.998L355.494 405.368H355.374C355.23 405.592 355.046 405.816 354.822 406.04C354.614 406.248 354.358 406.44 354.054 406.616C353.75 406.776 353.398 406.912 352.998 407.024C352.598 407.136 352.142 407.192 351.63 407.192C351.118 407.192 350.638 407.112 350.19 406.952C349.758 406.792 349.382 406.568 349.062 406.28C348.742 405.976 348.486 405.616 348.294 405.2C348.118 404.784 348.03 404.312 348.03 403.784C348.03 403.08 348.174 402.496 348.462 402.032C348.75 401.552 349.15 401.176 349.662 400.904C350.19 400.616 350.814 400.416 351.534 400.304C352.27 400.176 353.078 400.112 353.958 400.112C354.182 400.112 354.398 400.112 354.606 400.112C354.83 400.112 355.054 400.128 355.278 400.16C355.326 399.68 355.35 399.248 355.35 398.864C355.35 397.984 355.174 397.368 354.822 397.016C354.47 396.664 353.83 396.488 352.902 396.488C352.63 396.488 352.334 396.512 352.014 396.56C351.71 396.592 351.39 396.648 351.054 396.728C350.734 396.792 350.422 396.88 350.118 396.992C349.83 397.088 349.574 397.2 349.35 397.328L348.75 395.888ZM352.158 405.512C352.606 405.512 353.006 405.456 353.358 405.344C353.71 405.216 354.014 405.064 354.27 404.888C354.526 404.696 354.734 404.488 354.894 404.264C355.07 404.04 355.198 403.824 355.278 403.616V401.624C355.054 401.608 354.822 401.6 354.582 401.6C354.358 401.584 354.134 401.576 353.91 401.576C353.414 401.576 352.926 401.608 352.446 401.672C351.982 401.72 351.566 401.824 351.198 401.984C350.846 402.128 350.558 402.336 350.334 402.608C350.126 402.864 350.022 403.192 350.022 403.592C350.022 404.152 350.222 404.616 350.622 404.984C351.022 405.336 351.534 405.512 352.158 405.512ZM368.504 396.68H364.736V407H362.816V396.68H359.048V395H368.504V396.68ZM372.331 405.32C372.923 405.416 373.491 405.464 374.035 405.464C375.043 405.464 375.747 405.272 376.147 404.888C376.547 404.488 376.747 403.928 376.747 403.208C376.747 402.568 376.547 402.04 376.147 401.624C375.763 401.208 375.083 401 374.107 401C373.835 401 373.539 401.008 373.219 401.024C372.899 401.04 372.603 401.088 372.331 401.168V405.32ZM372.331 399.584C372.715 399.52 373.083 399.48 373.435 399.464C373.787 399.432 374.123 399.416 374.443 399.416C375.259 399.416 375.939 399.512 376.483 399.704C377.043 399.88 377.491 400.128 377.827 400.448C378.163 400.768 378.395 401.152 378.523 401.6C378.667 402.032 378.739 402.496 378.739 402.992C378.739 404.448 378.331 405.504 377.515 406.16C376.715 406.816 375.411 407.144 373.603 407.144C372.579 407.144 371.515 407.096 370.411 407V395H372.331V399.584ZM380.635 395H382.555V407H380.635V395ZM386.254 395.024C386.814 394.992 387.398 394.952 388.006 394.904C388.63 394.856 389.398 394.832 390.31 394.832C391.894 394.832 393.03 395.08 393.718 395.576C394.406 396.056 394.75 396.792 394.75 397.784C394.75 398.344 394.582 398.896 394.246 399.44C393.926 399.968 393.39 400.36 392.638 400.616V400.712C393.582 400.888 394.246 401.216 394.63 401.696C395.014 402.176 395.206 402.816 395.206 403.616C395.206 404.864 394.758 405.768 393.862 406.328C392.966 406.888 391.622 407.168 389.83 407.168C389.158 407.168 388.534 407.144 387.958 407.096C387.382 407.064 386.814 407.024 386.254 406.976V395.024ZM388.174 405.392C388.478 405.424 388.774 405.448 389.062 405.464C389.366 405.48 389.718 405.488 390.118 405.488C391.19 405.488 391.982 405.336 392.494 405.032C393.022 404.728 393.286 404.208 393.286 403.472C393.286 402.896 393.062 402.432 392.614 402.08C392.182 401.712 391.406 401.528 390.286 401.528H388.174V405.392ZM390.526 400.064C390.814 400.064 391.094 400.016 391.366 399.92C391.638 399.824 391.878 399.696 392.086 399.536C392.31 399.36 392.486 399.16 392.614 398.936C392.758 398.712 392.83 398.472 392.83 398.216C392.83 397.576 392.638 397.136 392.254 396.896C391.87 396.64 391.198 396.512 390.238 396.512C389.726 396.512 389.318 396.52 389.014 396.536C388.726 396.552 388.446 396.568 388.174 396.584V400.064H390.526ZM398.039 395.888C398.647 395.52 399.351 395.248 400.151 395.072C400.967 394.896 401.815 394.808 402.695 394.808C403.527 394.808 404.191 394.92 404.687 395.144C405.199 395.368 405.583 395.664 405.839 396.032C406.111 396.384 406.287 396.776 406.367 397.208C406.463 397.64 406.511 398.072 406.511 398.504C406.511 399.464 406.487 400.4 406.439 401.312C406.391 402.224 406.367 403.088 406.367 403.904C406.367 404.496 406.391 405.056 406.439 405.584C406.487 406.112 406.575 406.6 406.703 407.048H405.287L404.783 405.368H404.663C404.519 405.592 404.335 405.816 404.111 406.04C403.903 406.248 403.647 406.44 403.343 406.616C403.039 406.776 402.687 406.912 402.287 407.024C401.887 407.136 401.431 407.192 400.919 407.192C400.407 407.192 399.927 407.112 399.479 406.952C399.047 406.792 398.671 406.568 398.351 406.28C398.031 405.976 397.775 405.616 397.583 405.2C397.407 404.784 397.319 404.312 397.319 403.784C397.319 403.08 397.463 402.496 397.751 402.032C398.039 401.552 398.439 401.176 398.951 400.904C399.479 400.616 400.103 400.416 400.823 400.304C401.559 400.176 402.367 400.112 403.247 400.112C403.471 400.112 403.687 400.112 403.895 400.112C404.119 400.112 404.343 400.128 404.567 400.16C404.615 399.68 404.639 399.248 404.639 398.864C404.639 397.984 404.463 397.368 404.111 397.016C403.759 396.664 403.119 396.488 402.191 396.488C401.919 396.488 401.623 396.512 401.303 396.56C400.999 396.592 400.679 396.648 400.343 396.728C400.023 396.792 399.711 396.88 399.407 396.992C399.119 397.088 398.863 397.2 398.639 397.328L398.039 395.888ZM401.447 405.512C401.895 405.512 402.295 405.456 402.647 405.344C402.999 405.216 403.303 405.064 403.559 404.888C403.815 404.696 404.023 404.488 404.183 404.264C404.359 404.04 404.487 403.824 404.567 403.616V401.624C404.343 401.608 404.111 401.6 403.871 401.6C403.647 401.584 403.423 401.576 403.199 401.576C402.703 401.576 402.215 401.608 401.735 401.672C401.271 401.72 400.855 401.824 400.487 401.984C400.135 402.128 399.847 402.336 399.623 402.608C399.415 402.864 399.311 403.192 399.311 403.592C399.311 404.152 399.511 404.616 399.911 404.984C400.311 405.336 400.823 405.512 401.447 405.512ZM418.897 406.04C418.417 406.424 417.809 406.728 417.073 406.952C416.353 407.176 415.585 407.288 414.769 407.288C413.857 407.288 413.065 407.144 412.393 406.856C411.721 406.552 411.169 406.128 410.737 405.584C410.305 405.024 409.985 404.36 409.777 403.592C409.569 402.824 409.465 401.96 409.465 401C409.465 398.952 409.921 397.392 410.833 396.32C411.745 395.248 413.049 394.712 414.745 394.712C415.289 394.712 415.833 394.776 416.377 394.904C416.921 395.016 417.409 395.24 417.841 395.576C418.273 395.912 418.625 396.392 418.897 397.016C419.169 397.624 419.305 398.432 419.305 399.44C419.305 399.968 419.257 400.552 419.161 401.192H411.457C411.457 401.896 411.529 402.52 411.673 403.064C411.817 403.608 412.041 404.072 412.345 404.456C412.649 404.824 413.041 405.112 413.521 405.32C414.017 405.512 414.617 405.608 415.321 405.608C415.865 405.608 416.409 405.512 416.953 405.32C417.497 405.128 417.905 404.904 418.177 404.648L418.897 406.04ZM414.769 396.392C413.825 396.392 413.065 396.64 412.489 397.136C411.929 397.632 411.593 398.48 411.481 399.68H417.433C417.433 398.464 417.201 397.616 416.737 397.136C416.273 396.64 415.617 396.392 414.769 396.392ZM429.981 396.68H426.213V407H424.293V396.68H420.525V395H429.981V396.68ZM174.848 438V426H176.768V436.32H180.872V426H182.792V436.32H186.896V426H188.816V438H174.848ZM200.176 427.68H196.408V438H194.488V427.68H190.72V426H200.176V427.68ZM201.89 426.888C202.498 426.52 203.202 426.248 204.002 426.072C204.818 425.896 205.666 425.808 206.546 425.808C207.378 425.808 208.042 425.92 208.538 426.144C209.05 426.368 209.434 426.664 209.69 427.032C209.962 427.384 210.138 427.776 210.218 428.208C210.314 428.64 210.362 429.072 210.362 429.504C210.362 430.464 210.338 431.4 210.29 432.312C210.242 433.224 210.218 434.088 210.218 434.904C210.218 435.496 210.242 436.056 210.29 436.584C210.338 437.112 210.426 437.6 210.554 438.048H209.138L208.634 436.368H208.514C208.37 436.592 208.186 436.816 207.962 437.04C207.754 437.248 207.498 437.44 207.194 437.616C206.89 437.776 206.538 437.912 206.138 438.024C205.738 438.136 205.282 438.192 204.77 438.192C204.258 438.192 203.778 438.112 203.33 437.952C202.898 437.792 202.522 437.568 202.202 437.28C201.882 436.976 201.626 436.616 201.434 436.2C201.258 435.784 201.17 435.312 201.17 434.784C201.17 434.08 201.314 433.496 201.602 433.032C201.89 432.552 202.29 432.176 202.802 431.904C203.33 431.616 203.954 431.416 204.674 431.304C205.41 431.176 206.218 431.112 207.098 431.112C207.322 431.112 207.538 431.112 207.746 431.112C207.97 431.112 208.194 431.128 208.418 431.16C208.466 430.68 208.49 430.248 208.49 429.864C208.49 428.984 208.314 428.368 207.962 428.016C207.61 427.664 206.97 427.488 206.042 427.488C205.77 427.488 205.474 427.512 205.154 427.56C204.85 427.592 204.53 427.648 204.194 427.728C203.874 427.792 203.562 427.88 203.258 427.992C202.97 428.088 202.714 428.2 202.49 428.328L201.89 426.888ZM205.298 436.512C205.746 436.512 206.146 436.456 206.498 436.344C206.85 436.216 207.154 436.064 207.41 435.888C207.666 435.696 207.874 435.488 208.034 435.264C208.21 435.04 208.338 434.824 208.418 434.616V432.624C208.194 432.608 207.962 432.6 207.722 432.6C207.498 432.584 207.274 432.576 207.05 432.576C206.554 432.576 206.066 432.608 205.586 432.672C205.122 432.72 204.706 432.824 204.338 432.984C203.986 433.128 203.698 433.336 203.474 433.608C203.266 433.864 203.162 434.192 203.162 434.592C203.162 435.152 203.362 435.616 203.762 435.984C204.162 436.336 204.674 436.512 205.298 436.512ZM221.645 427.68H217.877V438H215.957V427.68H212.189V426H221.645V427.68ZM230.895 432.696H225.471V438H223.551V426H225.471V431.016H230.895V426H232.815V438H230.895V432.696ZM238.432 436.32C239.024 436.416 239.592 436.464 240.136 436.464C241.144 436.464 241.848 436.272 242.248 435.888C242.648 435.488 242.848 434.928 242.848 434.208C242.848 433.568 242.648 433.04 242.248 432.624C241.864 432.208 241.184 432 240.208 432C239.936 432 239.64 432.008 239.32 432.024C239 432.04 238.704 432.088 238.432 432.168V436.32ZM238.432 430.584C238.816 430.52 239.184 430.48 239.536 430.464C239.888 430.432 240.224 430.416 240.544 430.416C241.36 430.416 242.04 430.512 242.584 430.704C243.144 430.88 243.592 431.128 243.928 431.448C244.264 431.768 244.496 432.152 244.624 432.6C244.768 433.032 244.84 433.496 244.84 433.992C244.84 435.448 244.432 436.504 243.616 437.16C242.816 437.816 241.512 438.144 239.704 438.144C238.68 438.144 237.616 438.096 236.512 438V426H238.432V430.584ZM246.736 426H248.656V438H246.736V426ZM259.844 430.896L259.916 429.408H259.844L258.86 430.944L253.46 438H252.356V426H254.276V433.32L254.204 434.736H254.3L255.236 433.248L260.636 426H261.764V438H259.844V430.896ZM255.116 421.152C255.276 421.888 255.548 422.4 255.932 422.688C256.332 422.976 256.788 423.12 257.3 423.12C257.812 423.12 258.268 422.968 258.668 422.664C259.068 422.36 259.34 421.864 259.484 421.176L260.924 421.632C260.78 422.56 260.364 423.272 259.676 423.768C259.004 424.264 258.196 424.512 257.252 424.512C256.82 424.512 256.388 424.456 255.956 424.344C255.54 424.232 255.164 424.064 254.828 423.84C254.492 423.616 254.204 423.328 253.964 422.976C253.724 422.624 253.564 422.208 253.484 421.728L255.116 421.152ZM280.04 437.208C279.56 437.56 278.992 437.824 278.336 438C277.68 438.192 276.992 438.288 276.272 438.288C275.344 438.288 274.56 438.144 273.92 437.856C273.28 437.552 272.752 437.128 272.336 436.584C271.936 436.024 271.64 435.36 271.448 434.592C271.272 433.808 271.184 432.944 271.184 432C271.184 429.968 271.632 428.416 272.528 427.344C273.424 426.256 274.712 425.712 276.392 425.712C277.16 425.712 277.808 425.776 278.336 425.904C278.88 426.016 279.368 426.184 279.8 426.408L279.248 428.064C278.88 427.856 278.472 427.696 278.024 427.584C277.576 427.456 277.096 427.392 276.584 427.392C274.312 427.392 273.176 428.928 273.176 432C273.176 432.608 273.232 433.192 273.344 433.752C273.472 434.296 273.672 434.784 273.944 435.216C274.232 435.632 274.6 435.968 275.048 436.224C275.512 436.48 276.08 436.608 276.752 436.608C277.328 436.608 277.84 436.52 278.288 436.344C278.752 436.168 279.128 435.968 279.416 435.744L280.04 437.208ZM281.449 432C281.449 429.968 281.897 428.416 282.793 427.344C283.705 426.256 285.009 425.712 286.705 425.712C287.601 425.712 288.377 425.864 289.033 426.168C289.705 426.456 290.257 426.88 290.689 427.44C291.121 427.984 291.441 428.648 291.649 429.432C291.857 430.2 291.961 431.056 291.961 432C291.961 434.032 291.505 435.592 290.593 436.68C289.697 437.752 288.401 438.288 286.705 438.288C285.809 438.288 285.025 438.144 284.353 437.856C283.697 437.552 283.153 437.128 282.721 436.584C282.289 436.024 281.969 435.36 281.761 434.592C281.553 433.808 281.449 432.944 281.449 432ZM283.441 432C283.441 432.608 283.497 433.192 283.609 433.752C283.737 434.312 283.929 434.8 284.185 435.216C284.441 435.632 284.777 435.968 285.193 436.224C285.609 436.48 286.113 436.608 286.705 436.608C288.881 436.624 289.969 435.088 289.969 432C289.969 431.376 289.905 430.784 289.777 430.224C289.665 429.664 289.481 429.176 289.225 428.76C288.969 428.344 288.633 428.016 288.217 427.776C287.801 427.52 287.297 427.392 286.705 427.392C284.529 427.376 283.441 428.912 283.441 432ZM302.27 427.68H298.502V438H296.582V427.68H292.814V426H302.27V427.68ZM304.176 426H305.496L305.856 427.44H305.952C306.32 426.88 306.792 426.456 307.368 426.168C307.96 425.864 308.632 425.712 309.384 425.712C310.984 425.712 312.176 426.184 312.96 427.128C313.744 428.072 314.136 429.616 314.136 431.76C314.136 432.768 314 433.68 313.728 434.496C313.472 435.296 313.104 435.976 312.624 436.536C312.144 437.096 311.56 437.528 310.872 437.832C310.2 438.136 309.448 438.288 308.616 438.288C308.024 438.288 307.552 438.248 307.2 438.168C306.864 438.104 306.496 437.984 306.096 437.808V442.8H304.176V426ZM309.024 427.392C308.208 427.392 307.56 427.608 307.08 428.04C306.616 428.456 306.288 429.096 306.096 429.96V435.912C306.384 436.136 306.712 436.312 307.08 436.44C307.448 436.552 307.936 436.608 308.544 436.608C309.648 436.608 310.52 436.2 311.16 435.384C311.816 434.552 312.144 433.336 312.144 431.736C312.144 431.08 312.088 430.488 311.976 429.96C311.864 429.416 311.68 428.96 311.424 428.592C311.184 428.208 310.864 427.912 310.464 427.704C310.08 427.496 309.6 427.392 309.024 427.392ZM320.407 433.776L321.079 436.08H321.199L321.727 433.752L324.055 426H325.999L322.447 436.776C322.175 437.56 321.903 438.32 321.631 439.056C321.375 439.792 321.087 440.448 320.767 441.024C320.447 441.6 320.087 442.056 319.687 442.392C319.287 442.744 318.823 442.92 318.295 442.92C317.719 442.92 317.247 442.84 316.879 442.68L317.215 441.024C317.423 441.104 317.623 441.144 317.815 441.144C318.263 441.144 318.695 440.904 319.111 440.424C319.527 439.96 319.871 439.152 320.143 438L315.319 426H317.527L320.407 433.776ZM338.339 441.048H337.043L336.683 438H327.659L327.299 441.048H326.003V436.32H327.419C327.547 436.144 327.715 435.832 327.923 435.384C328.131 434.92 328.331 434.28 328.523 433.464C328.731 432.632 328.907 431.608 329.051 430.392C329.211 429.16 329.307 427.696 329.339 426H336.587V436.32H338.339V441.048ZM334.667 436.32V427.68H331.067C331.035 428.352 330.979 429.088 330.899 429.888C330.819 430.672 330.707 431.464 330.563 432.264C330.435 433.048 330.267 433.792 330.059 434.496C329.851 435.2 329.611 435.808 329.339 436.32H334.667ZM348.059 432.696H342.635V438H340.715V426H342.635V431.016H348.059V426H349.979V438H348.059V432.696ZM361.164 430.896L361.236 429.408H361.164L360.18 430.944L354.78 438H353.676V426H355.596V433.32L355.524 434.736H355.62L356.556 433.248L361.956 426H363.084V438H361.164V430.896ZM369.802 432.6H368.698V438H366.778V426H368.698V431.424L369.73 431.088L373.57 426H375.658L371.938 430.824L370.93 431.616L372.178 432.576L376.186 438H373.81L369.802 432.6Z" fill="#BBB5C4"/>
<path d="M182.63 270.34C184.49 270.34 186.14 270.81 187.58 271.75C189.02 272.69 190.14 274 190.94 275.68C191.76 277.36 192.17 279.32 192.17 281.56C192.17 283.84 191.77 285.79 190.97 287.41C190.19 289.03 189.08 290.27 187.64 291.13C186.22 291.99 184.56 292.42 182.66 292.42C181.38 292.42 180.32 292.23 179.48 291.85C178.64 291.45 177.85 290.99 177.11 290.47C176.67 290.19 176.35 290.16 176.15 290.38C175.97 290.6 175.84 291.14 175.76 292H175.07C175.11 291.24 175.14 290.31 175.16 289.21C175.18 288.09 175.19 286.62 175.19 284.8H175.88C176.04 286.02 176.2 286.97 176.36 287.65C176.52 288.33 176.82 288.96 177.26 289.54C177.84 290.34 178.61 290.92 179.57 291.28C180.55 291.64 181.49 291.82 182.39 291.82C183.35 291.82 184.24 291.6 185.06 291.16C185.9 290.7 186.62 290.03 187.22 289.15C187.84 288.27 188.32 287.19 188.66 285.91C189 284.61 189.17 283.12 189.17 281.44C189.17 279.82 189.01 278.36 188.69 277.06C188.39 275.76 187.95 274.65 187.37 273.73C186.81 272.81 186.13 272.11 185.33 271.63C184.55 271.13 183.67 270.88 182.69 270.88C181.65 270.88 180.66 271.07 179.72 271.45C178.8 271.81 178.02 272.4 177.38 273.22C177.1 273.58 176.87 273.94 176.69 274.3C176.53 274.66 176.39 275.1 176.27 275.62C176.15 276.12 176.02 276.8 175.88 277.66H175.19C175.19 275.92 175.18 274.52 175.16 273.46C175.14 272.4 175.11 271.5 175.07 270.76H175.76C175.84 271.62 175.99 272.17 176.21 272.41C176.43 272.63 176.73 272.59 177.11 272.29C177.77 271.77 178.52 271.32 179.36 270.94C180.22 270.54 181.31 270.34 182.63 270.34ZM180.35 279.22C181.03 279.22 181.63 279.34 182.15 279.58C182.69 279.8 183.2 280.06 183.68 280.36C184.16 280.66 184.65 280.93 185.15 281.17C185.65 281.39 186.21 281.5 186.83 281.5C187.33 281.5 187.79 281.38 188.21 281.14C188.65 280.9 189 280.48 189.26 279.88L189.44 280.03C189.18 281.07 188.69 281.85 187.97 282.37C187.27 282.87 186.48 283.12 185.6 283.12C184.94 283.12 184.34 283.01 183.8 282.79C183.28 282.55 182.78 282.28 182.3 281.98C181.82 281.68 181.33 281.42 180.83 281.2C180.33 280.96 179.78 280.84 179.18 280.84C178.68 280.84 178.19 280.97 177.71 281.23C177.25 281.49 176.91 281.92 176.69 282.52L176.24 282.31C176.52 281.27 177.04 280.5 177.8 280C178.58 279.48 179.43 279.22 180.35 279.22ZM207.841 276.13C208.541 276.13 209.031 276.3 209.311 276.64C209.611 276.98 209.761 277.36 209.761 277.78C209.761 278.22 209.621 278.6 209.341 278.92C209.061 279.22 208.671 279.37 208.171 279.37C207.811 279.37 207.501 279.29 207.241 279.13C206.981 278.97 206.781 278.75 206.641 278.47C206.501 278.17 206.431 277.83 206.431 277.45C206.431 277.41 206.431 277.37 206.431 277.33C206.431 277.29 206.431 277.26 206.431 277.24C206.211 277.34 206.011 277.52 205.831 277.78C205.671 278.04 205.501 278.39 205.321 278.83C205.141 279.27 204.931 279.81 204.691 280.45C204.491 280.99 204.261 281.51 204.001 282.01C203.741 282.51 203.381 282.93 202.921 283.27C202.461 283.61 201.831 283.83 201.031 283.93L201.301 283.72C202.501 283.68 203.551 283.81 204.451 284.11C205.371 284.41 206.091 284.97 206.611 285.79C206.951 286.31 207.231 286.95 207.451 287.71C207.691 288.47 207.941 289.14 208.201 289.72C208.421 290.22 208.671 290.61 208.951 290.89C209.251 291.15 209.711 291.31 210.331 291.37V292C210.011 292.06 209.691 292.11 209.371 292.15C209.051 292.19 208.751 292.21 208.471 292.21C207.571 292.21 206.911 292 206.491 291.58C206.071 291.14 205.751 290.55 205.531 289.81C205.431 289.47 205.311 289.06 205.171 288.58C205.031 288.08 204.861 287.58 204.661 287.08C204.461 286.56 204.221 286.11 203.941 285.73C203.501 285.11 202.931 284.71 202.231 284.53C201.531 284.33 200.621 284.25 199.501 284.29V283.78C200.601 283.72 201.451 283.54 202.051 283.24C202.651 282.92 203.111 282.48 203.431 281.92C203.751 281.36 204.041 280.7 204.301 279.94C204.501 279.38 204.721 278.81 204.961 278.23C205.201 277.63 205.541 277.13 205.981 276.73C206.441 276.33 207.061 276.13 207.841 276.13ZM201.601 276.58V277.21C200.881 277.21 200.371 277.36 200.071 277.66C199.771 277.96 199.621 278.53 199.621 279.37V289.21C199.621 290.05 199.771 290.62 200.071 290.92C200.371 291.22 200.881 291.37 201.601 291.37V292C201.281 291.98 200.801 291.96 200.161 291.94C199.521 291.9 198.871 291.88 198.211 291.88C197.551 291.88 196.871 291.9 196.171 291.94C195.491 291.96 194.981 291.98 194.641 292V291.37C195.461 291.37 196.041 291.22 196.381 290.92C196.741 290.62 196.921 290.05 196.921 289.21V279.37C196.921 278.53 196.741 277.96 196.381 277.66C196.041 277.36 195.461 277.21 194.641 277.21V276.58C194.981 276.6 195.491 276.63 196.171 276.67C196.871 276.69 197.551 276.7 198.211 276.7C198.871 276.7 199.521 276.69 200.161 276.67C200.801 276.63 201.281 276.6 201.601 276.58ZM218.72 276.13C220 276.13 221.15 276.41 222.17 276.97C223.19 277.53 224 278.41 224.6 279.61C225.22 280.81 225.53 282.37 225.53 284.29C225.53 286.21 225.22 287.77 224.6 288.97C224 290.15 223.19 291.02 222.17 291.58C221.15 292.14 220 292.42 218.72 292.42C217.46 292.42 216.31 292.14 215.27 291.58C214.25 291.02 213.43 290.15 212.81 288.97C212.21 287.77 211.91 286.21 211.91 284.29C211.91 282.37 212.21 280.81 212.81 279.61C213.43 278.41 214.25 277.53 215.27 276.97C216.31 276.41 217.46 276.13 218.72 276.13ZM218.72 276.73C217.58 276.73 216.64 277.32 215.9 278.5C215.18 279.68 214.82 281.61 214.82 284.29C214.82 286.97 215.18 288.9 215.9 290.08C216.64 291.24 217.58 291.82 218.72 291.82C219.86 291.82 220.79 291.24 221.51 290.08C222.25 288.9 222.62 286.97 222.62 284.29C222.62 281.61 222.25 279.68 221.51 278.5C220.79 277.32 219.86 276.73 218.72 276.73ZM244.396 276.58V277.21C243.576 277.21 242.986 277.36 242.626 277.66C242.286 277.96 242.116 278.53 242.116 279.37V289.21C242.116 290.05 242.286 290.62 242.626 290.92C242.986 291.22 243.576 291.37 244.396 291.37V292C244.056 291.98 243.536 291.96 242.836 291.94C242.136 291.9 241.456 291.88 240.796 291.88C240.136 291.88 239.486 291.9 238.846 291.94C238.226 291.96 237.756 291.98 237.436 292V291.37C238.156 291.37 238.666 291.22 238.966 290.92C239.266 290.62 239.416 290.05 239.416 289.21V279.37C239.416 278.53 239.266 277.96 238.966 277.66C238.666 277.36 238.156 277.21 237.436 277.21V276.58C237.756 276.6 238.226 276.63 238.846 276.67C239.486 276.69 240.136 276.7 240.796 276.7C241.456 276.7 242.136 276.69 242.836 276.67C243.536 276.63 244.056 276.6 244.396 276.58ZM234.766 276.58V277.21C234.046 277.21 233.536 277.36 233.236 277.66C232.936 277.96 232.786 278.53 232.786 279.37V289.21C232.786 290.05 232.936 290.62 233.236 290.92C233.536 291.22 234.046 291.37 234.766 291.37V292C234.446 291.98 233.966 291.96 233.326 291.94C232.706 291.9 232.066 291.88 231.406 291.88C230.746 291.88 230.066 291.9 229.366 291.94C228.666 291.96 228.146 291.98 227.806 292V291.37C228.626 291.37 229.206 291.22 229.546 290.92C229.906 290.62 230.086 290.05 230.086 289.21V279.37C230.086 278.53 229.906 277.96 229.546 277.66C229.206 277.36 228.626 277.21 227.806 277.21V276.58C228.146 276.6 228.666 276.63 229.366 276.67C230.066 276.69 230.746 276.7 231.406 276.7C232.066 276.7 232.706 276.69 233.326 276.67C233.966 276.63 234.446 276.6 234.766 276.58ZM240.256 283.75V284.35H231.796V283.75H240.256ZM253.495 276.13C254.775 276.13 255.925 276.41 256.945 276.97C257.965 277.53 258.775 278.41 259.375 279.61C259.995 280.81 260.305 282.37 260.305 284.29C260.305 286.21 259.995 287.77 259.375 288.97C258.775 290.15 257.965 291.02 256.945 291.58C255.925 292.14 254.775 292.42 253.495 292.42C252.235 292.42 251.085 292.14 250.045 291.58C249.025 291.02 248.205 290.15 247.585 288.97C246.985 287.77 246.685 286.21 246.685 284.29C246.685 282.37 246.985 280.81 247.585 279.61C248.205 278.41 249.025 277.53 250.045 276.97C251.085 276.41 252.235 276.13 253.495 276.13ZM253.495 276.73C252.355 276.73 251.415 277.32 250.675 278.5C249.955 279.68 249.595 281.61 249.595 284.29C249.595 286.97 249.955 288.9 250.675 290.08C251.415 291.24 252.355 291.82 253.495 291.82C254.635 291.82 255.565 291.24 256.285 290.08C257.025 288.9 257.395 286.97 257.395 284.29C257.395 281.61 257.025 279.68 256.285 278.5C255.565 277.32 254.635 276.73 253.495 276.73ZM282.171 276.55V277.15C281.491 277.17 280.971 277.25 280.611 277.39C280.271 277.51 280.041 277.75 279.921 278.11C279.801 278.45 279.741 278.99 279.741 279.73V288.82C279.741 289.54 279.801 290.08 279.921 290.44C280.041 290.8 280.271 291.04 280.611 291.16C280.971 291.28 281.491 291.36 282.171 291.4V292C281.711 291.96 281.151 291.94 280.491 291.94C279.831 291.92 279.151 291.91 278.451 291.91C277.671 291.91 276.941 291.92 276.261 291.94C275.581 291.94 275.031 291.96 274.611 292V291.4C275.291 291.36 275.801 291.28 276.141 291.16C276.501 291.04 276.741 290.8 276.861 290.44C276.981 290.08 277.041 289.54 277.041 288.82V278.29L271.461 292.15H270.981L265.641 278.47V288.82C265.641 289.54 265.701 290.08 265.821 290.44C265.941 290.8 266.171 291.04 266.511 291.16C266.871 291.28 267.391 291.36 268.071 291.4V292C267.711 291.96 267.291 291.94 266.811 291.94C266.351 291.92 265.861 291.91 265.341 291.91C264.841 291.91 264.331 291.92 263.811 291.94C263.311 291.94 262.891 291.96 262.551 292V291.4C263.231 291.36 263.741 291.28 264.081 291.16C264.441 291.04 264.681 290.8 264.801 290.44C264.921 290.08 264.981 289.54 264.981 288.82V279.73C264.981 278.99 264.921 278.45 264.801 278.11C264.681 277.75 264.441 277.51 264.081 277.39C263.741 277.25 263.231 277.17 262.551 277.15V276.55C262.891 276.57 263.311 276.59 263.811 276.61C264.331 276.63 264.841 276.64 265.341 276.64C266.221 276.64 266.991 276.61 267.651 276.55L272.391 289.12L272.031 289.18L277.041 276.64C277.261 276.64 277.481 276.64 277.701 276.64C277.941 276.64 278.191 276.64 278.451 276.64C279.151 276.64 279.821 276.63 280.461 276.61C281.121 276.59 281.691 276.57 282.171 276.55ZM300.92 276.58V277.21C300.1 277.21 299.51 277.36 299.15 277.66C298.81 277.96 298.64 278.53 298.64 279.37V289.21C298.64 290.05 298.81 290.62 299.15 290.92C299.51 291.22 300.1 291.37 300.92 291.37V292C300.58 291.98 300.06 291.96 299.36 291.94C298.66 291.9 297.98 291.88 297.32 291.88C296.66 291.88 296.01 291.9 295.37 291.94C294.75 291.96 294.28 291.98 293.96 292V291.37C294.68 291.37 295.19 291.22 295.49 290.92C295.79 290.62 295.94 290.05 295.94 289.21V279.37C295.94 278.53 295.79 277.96 295.49 277.66C295.19 277.36 294.68 277.21 293.96 277.21V276.58C294.28 276.6 294.75 276.63 295.37 276.67C296.01 276.69 296.66 276.7 297.32 276.7C297.98 276.7 298.66 276.69 299.36 276.67C300.06 276.63 300.58 276.6 300.92 276.58ZM290.84 276.58V277.21C290.12 277.21 289.61 277.36 289.31 277.66C289.01 277.96 288.86 278.53 288.86 279.37V289.21C288.86 290.05 289.01 290.62 289.31 290.92C289.61 291.22 290.12 291.37 290.84 291.37V292C290.52 291.98 290.04 291.96 289.4 291.94C288.78 291.9 288.14 291.88 287.48 291.88C286.82 291.88 286.14 291.9 285.44 291.94C284.74 291.96 284.22 291.98 283.88 292V291.37C284.7 291.37 285.28 291.22 285.62 290.92C285.98 290.62 286.16 290.05 286.16 289.21V279.37C286.16 278.53 285.98 277.96 285.62 277.66C285.28 277.36 284.7 277.21 283.88 277.21V276.58C284.22 276.6 284.74 276.63 285.44 276.67C286.14 276.69 286.82 276.7 287.48 276.7C288.14 276.7 288.78 276.69 289.4 276.67C290.04 276.63 290.52 276.6 290.84 276.58ZM296.24 278.68L296.72 279.01L288.47 290.41L287.99 290.05L296.24 278.68ZM317.089 276.58V277.21C316.269 277.21 315.679 277.36 315.319 277.66C314.979 277.96 314.809 278.53 314.809 279.37V289.21C314.809 290.05 314.959 290.62 315.259 290.92C315.559 291.22 316.069 291.37 316.789 291.37V292C316.469 291.98 315.989 291.96 315.349 291.94C314.729 291.9 314.089 291.88 313.429 291.88C312.769 291.88 312.089 291.9 311.389 291.94C310.689 291.96 310.169 291.98 309.829 292V291.37C310.649 291.37 311.229 291.22 311.569 290.92C311.929 290.62 312.109 290.05 312.109 289.21V279.37C312.109 278.57 311.949 278.01 311.629 277.69C311.309 277.37 310.749 277.21 309.949 277.21C309.049 277.21 308.359 277.38 307.879 277.72C307.419 278.04 307.109 278.46 306.949 278.98C306.789 279.5 306.709 280.06 306.709 280.66C306.709 281.96 307.019 282.94 307.639 283.6C308.259 284.26 309.349 284.61 310.909 284.65C311.409 284.67 311.909 284.68 312.409 284.68C312.909 284.68 313.409 284.68 313.909 284.68L313.969 285.25C312.909 285.25 311.999 285.26 311.239 285.28C310.499 285.3 309.929 285.31 309.529 285.31C308.329 285.31 307.359 285.19 306.619 284.95C305.879 284.69 305.309 284.35 304.909 283.93C304.529 283.51 304.269 283.05 304.129 282.55C304.009 282.05 303.949 281.55 303.949 281.05C303.949 280.19 304.109 279.43 304.429 278.77C304.769 278.09 305.349 277.56 306.169 277.18C306.989 276.78 308.129 276.58 309.589 276.58C310.149 276.58 310.769 276.6 311.449 276.64C312.129 276.68 312.829 276.7 313.549 276.7C314.189 276.7 314.849 276.69 315.529 276.67C316.229 276.63 316.749 276.6 317.089 276.58ZM311.089 284.95V285.28C310.589 285.3 310.069 285.33 309.529 285.37C308.989 285.39 308.519 285.58 308.119 285.94C307.799 286.24 307.559 286.63 307.399 287.11C307.239 287.59 307.099 288.11 306.979 288.67C306.879 289.23 306.719 289.79 306.499 290.35C306.279 290.95 305.959 291.39 305.539 291.67C305.139 291.95 304.429 292.09 303.409 292.09C303.149 292.09 302.879 292.08 302.599 292.06C302.319 292.04 302.009 292.02 301.669 292V291.37C302.249 291.31 302.679 291.23 302.959 291.13C303.259 291.01 303.479 290.84 303.619 290.62C303.759 290.38 303.899 290.07 304.039 289.69C304.359 288.81 304.619 288.13 304.819 287.65C305.019 287.17 305.229 286.8 305.449 286.54C305.669 286.26 305.959 286.02 306.319 285.82C306.559 285.68 306.829 285.56 307.129 285.46C307.449 285.34 307.799 285.24 308.179 285.16C308.579 285.08 309.019 285.02 309.499 284.98C309.999 284.94 310.529 284.93 311.089 284.95ZM335.393 275.05C335.393 276.19 335.403 277.08 335.423 277.72C335.443 278.36 335.473 278.93 335.513 279.43C335.353 279.39 335.043 279.36 334.583 279.34C334.143 279.32 333.633 279.31 333.053 279.31C332.473 279.29 331.903 279.28 331.343 279.28H328.163L327.803 285.07C328.243 284.85 328.733 284.65 329.273 284.47C329.813 284.27 330.493 284.17 331.313 284.17C332.533 284.17 333.533 284.37 334.313 284.77C335.093 285.17 335.673 285.72 336.053 286.42C336.433 287.12 336.623 287.91 336.623 288.79C336.623 289.95 336.333 291 335.753 291.94C335.173 292.88 334.393 293.68 333.413 294.34C332.453 295.02 331.393 295.54 330.233 295.9C329.073 296.26 327.903 296.44 326.723 296.44V295.9C327.603 295.9 328.463 295.75 329.303 295.45C330.143 295.17 330.893 294.74 331.553 294.16C332.233 293.6 332.773 292.9 333.173 292.06C333.573 291.22 333.773 290.23 333.773 289.09C333.773 287.83 333.443 286.85 332.783 286.15C332.143 285.43 331.213 285.07 329.993 285.07C329.473 285.07 329.033 285.12 328.673 285.22C328.333 285.3 327.953 285.42 327.533 285.58L327.233 285.4L327.803 276.46C328.023 276.5 328.273 276.53 328.553 276.55C328.853 276.57 329.143 276.58 329.423 276.58H332.813C333.633 276.58 334.153 276.47 334.373 276.25C334.593 276.01 334.743 275.61 334.823 275.05H335.393ZM346.974 276.13C348.394 276.13 349.644 276.46 350.724 277.12C351.824 277.76 352.684 278.67 353.304 279.85C353.924 281.03 354.234 282.42 354.234 284.02C354.234 285.62 353.914 287.06 353.274 288.34C352.634 289.6 351.744 290.6 350.604 291.34C349.484 292.06 348.164 292.42 346.644 292.42C345.264 292.42 344.024 292.1 342.924 291.46C341.824 290.8 340.954 289.88 340.314 288.7C339.694 287.5 339.384 286.1 339.384 284.5C339.384 282.92 339.694 281.5 340.314 280.24C340.954 278.98 341.844 277.98 342.984 277.24C344.124 276.5 345.454 276.13 346.974 276.13ZM346.704 276.67C345.424 276.67 344.364 277.35 343.524 278.71C342.704 280.07 342.294 281.97 342.294 284.41C342.294 286.21 342.504 287.66 342.924 288.76C343.344 289.84 343.904 290.63 344.604 291.13C345.324 291.63 346.094 291.88 346.914 291.88C348.214 291.88 349.274 291.2 350.094 289.84C350.914 288.46 351.324 286.55 351.324 284.11C351.324 282.31 351.114 280.87 350.694 279.79C350.274 278.69 349.714 277.9 349.014 277.42C348.314 276.92 347.544 276.67 346.704 276.67ZM372.433 276.13C373.853 276.13 375.103 276.46 376.183 277.12C377.283 277.76 378.143 278.67 378.763 279.85C379.383 281.03 379.693 282.42 379.693 284.02C379.693 285.62 379.373 287.06 378.733 288.34C378.093 289.6 377.203 290.6 376.063 291.34C374.943 292.06 373.623 292.42 372.103 292.42C370.723 292.42 369.483 292.1 368.383 291.46C367.283 290.8 366.413 289.88 365.773 288.7C365.153 287.5 364.843 286.1 364.843 284.5C364.843 282.92 365.153 281.5 365.773 280.24C366.413 278.98 367.303 277.98 368.443 277.24C369.583 276.5 370.913 276.13 372.433 276.13ZM372.163 276.67C370.883 276.67 369.823 277.35 368.983 278.71C368.163 280.07 367.753 281.97 367.753 284.41C367.753 286.21 367.963 287.66 368.383 288.76C368.803 289.84 369.363 290.63 370.063 291.13C370.783 291.63 371.553 291.88 372.373 291.88C373.673 291.88 374.733 291.2 375.553 289.84C376.373 288.46 376.783 286.55 376.783 284.11C376.783 282.31 376.573 280.87 376.153 279.79C375.733 278.69 375.173 277.9 374.473 277.42C373.773 276.92 373.003 276.67 372.163 276.67ZM390.421 276.13C391.841 276.13 393.091 276.46 394.171 277.12C395.271 277.76 396.131 278.67 396.751 279.85C397.371 281.03 397.681 282.42 397.681 284.02C397.681 285.62 397.361 287.06 396.721 288.34C396.081 289.6 395.191 290.6 394.051 291.34C392.931 292.06 391.611 292.42 390.091 292.42C388.711 292.42 387.471 292.1 386.371 291.46C385.271 290.8 384.401 289.88 383.761 288.7C383.141 287.5 382.831 286.1 382.831 284.5C382.831 282.92 383.141 281.5 383.761 280.24C384.401 278.98 385.291 277.98 386.431 277.24C387.571 276.5 388.901 276.13 390.421 276.13ZM390.151 276.67C388.871 276.67 387.811 277.35 386.971 278.71C386.151 280.07 385.741 281.97 385.741 284.41C385.741 286.21 385.951 287.66 386.371 288.76C386.791 289.84 387.351 290.63 388.051 291.13C388.771 291.63 389.541 291.88 390.361 291.88C391.661 291.88 392.721 291.2 393.541 289.84C394.361 288.46 394.771 286.55 394.771 284.11C394.771 282.31 394.561 280.87 394.141 279.79C393.721 278.69 393.161 277.9 392.461 277.42C391.761 276.92 390.991 276.67 390.151 276.67ZM408.41 276.13C409.83 276.13 411.08 276.46 412.16 277.12C413.26 277.76 414.12 278.67 414.74 279.85C415.36 281.03 415.67 282.42 415.67 284.02C415.67 285.62 415.35 287.06 414.71 288.34C414.07 289.6 413.18 290.6 412.04 291.34C410.92 292.06 409.6 292.42 408.08 292.42C406.7 292.42 405.46 292.1 404.36 291.46C403.26 290.8 402.39 289.88 401.75 288.7C401.13 287.5 400.82 286.1 400.82 284.5C400.82 282.92 401.13 281.5 401.75 280.24C402.39 278.98 403.28 277.98 404.42 277.24C405.56 276.5 406.89 276.13 408.41 276.13ZM408.14 276.67C406.86 276.67 405.8 277.35 404.96 278.71C404.14 280.07 403.73 281.97 403.73 284.41C403.73 286.21 403.94 287.66 404.36 288.76C404.78 289.84 405.34 290.63 406.04 291.13C406.76 291.63 407.53 291.88 408.35 291.88C409.65 291.88 410.71 291.2 411.53 289.84C412.35 288.46 412.76 286.55 412.76 284.11C412.76 282.31 412.55 280.87 412.13 279.79C411.71 278.69 411.15 277.9 410.45 277.42C409.75 276.92 408.98 276.67 408.14 276.67ZM426.608 273.82V280.9H433.568V281.8H426.608V288.85H425.528V281.8H418.538V280.9H425.528V273.82H426.608ZM178.64 316.22V334.64C178.64 335.5 178.89 336.07 179.39 336.35C179.91 336.65 180.62 336.8 181.52 336.8V337.43C181.08 337.41 180.47 337.38 179.69 337.34C178.91 337.32 178.08 337.31 177.2 337.31C176.58 337.31 175.96 337.32 175.34 337.34C174.74 337.38 174.28 337.41 173.96 337.43V336.8C174.68 336.8 175.19 336.67 175.49 336.41C175.79 336.15 175.94 335.66 175.94 334.94V319.82C175.94 318.92 175.78 318.26 175.46 317.84C175.14 317.4 174.54 317.18 173.66 317.18V316.55C174.3 316.61 174.92 316.64 175.52 316.64C176.1 316.64 176.65 316.61 177.17 316.55C177.71 316.47 178.2 316.36 178.64 316.22ZM183.44 316.13C184.5 316.13 185.45 316.42 186.29 317C187.13 317.56 187.79 318.39 188.27 319.49C188.77 320.59 189.02 321.95 189.02 323.57C189.02 324.65 188.89 325.72 188.63 326.78C188.37 327.82 187.96 328.77 187.4 329.63C186.86 330.47 186.15 331.15 185.27 331.67C184.41 332.17 183.37 332.42 182.15 332.42C181.21 332.42 180.39 332.2 179.69 331.76C179.01 331.32 178.55 330.79 178.31 330.17L178.61 329.75C178.89 330.31 179.29 330.78 179.81 331.16C180.35 331.54 181.02 331.73 181.82 331.73C182.94 331.73 183.81 331.38 184.43 330.68C185.05 329.98 185.48 329.05 185.72 327.89C185.98 326.71 186.11 325.41 186.11 323.99C186.11 322.39 185.98 321.08 185.72 320.06C185.46 319.04 185.07 318.28 184.55 317.78C184.03 317.28 183.39 317.03 182.63 317.03C181.65 317.03 180.76 317.44 179.96 318.26C179.16 319.06 178.65 320.28 178.43 321.92L178.07 321.5C178.29 319.8 178.89 318.48 179.87 317.54C180.87 316.6 182.06 316.13 183.44 316.13ZM204.9 316.55V317.15C204.52 317.19 204.17 317.36 203.85 317.66C203.53 317.96 203.23 318.49 202.95 319.25L198.03 332.15H197.52L192 318.86C191.62 318.08 191.24 317.61 190.86 317.45C190.5 317.27 190.2 317.18 189.96 317.18V316.55C190.4 316.61 190.86 316.66 191.34 316.7C191.82 316.72 192.34 316.73 192.9 316.73C193.52 316.73 194.17 316.71 194.85 316.67C195.55 316.63 196.2 316.59 196.8 316.55V317.18C196.3 317.18 195.85 317.22 195.45 317.3C195.07 317.36 194.83 317.57 194.73 317.93C194.63 318.27 194.75 318.86 195.09 319.7L198.78 328.85L198.6 328.91L202.02 319.97C202.28 319.31 202.38 318.79 202.32 318.41C202.28 318.01 202.08 317.71 201.72 317.51C201.36 317.31 200.82 317.19 200.1 317.15V316.55C200.46 316.57 200.77 316.59 201.03 316.61C201.29 316.61 201.54 316.62 201.78 316.64C202.04 316.64 202.32 316.64 202.62 316.64C203.08 316.64 203.49 316.63 203.85 316.61C204.23 316.59 204.58 316.57 204.9 316.55ZM198.03 332.15L197.01 334.76C196.81 335.26 196.6 335.68 196.38 336.02C196.18 336.36 195.96 336.64 195.72 336.86C195.4 337.16 195.02 337.36 194.58 337.46C194.14 337.58 193.74 337.64 193.38 337.64C193 337.64 192.65 337.57 192.33 337.43C192.03 337.29 191.79 337.08 191.61 336.8C191.43 336.54 191.34 336.22 191.34 335.84C191.34 335.36 191.48 334.97 191.76 334.67C192.04 334.39 192.43 334.25 192.93 334.25C193.35 334.25 193.71 334.37 194.01 334.61C194.31 334.85 194.46 335.2 194.46 335.66C194.46 336 194.38 336.28 194.22 336.5C194.06 336.72 193.87 336.89 193.65 337.01C193.69 337.03 193.72 337.04 193.74 337.04C193.78 337.04 193.81 337.04 193.83 337.04C194.37 337.04 194.85 336.85 195.27 336.47C195.69 336.11 196.06 335.52 196.38 334.7L197.46 331.91L198.03 332.15ZM220.347 308.42L220.797 308.54C220.597 309.2 220.367 309.8 220.107 310.34C219.847 310.88 219.517 311.31 219.117 311.63C218.797 311.89 218.387 312.11 217.887 312.29C217.387 312.47 216.757 312.58 215.997 312.62C215.677 312.64 215.217 312.67 214.617 312.71C214.017 312.75 213.457 312.82 212.937 312.92C212.117 313.06 211.417 313.31 210.837 313.67C210.257 314.01 209.767 314.51 209.367 315.17C208.987 315.83 208.677 316.69 208.437 317.75C208.197 318.81 207.997 320.11 207.837 321.65L209.337 323.48L207.627 322.64C207.927 321.12 208.397 319.94 209.037 319.1C209.697 318.24 210.467 317.63 211.347 317.27C212.227 316.91 213.157 316.73 214.137 316.73C215.717 316.73 216.977 317.09 217.917 317.81C218.857 318.51 219.537 319.43 219.957 320.57C220.397 321.69 220.617 322.9 220.617 324.2C220.617 325.84 220.317 327.28 219.717 328.52C219.117 329.76 218.277 330.72 217.197 331.4C216.137 332.08 214.897 332.42 213.477 332.42C212.517 332.42 211.647 332.25 210.867 331.91C210.087 331.55 209.417 330.99 208.857 330.23C208.297 329.45 207.857 328.44 207.537 327.2C207.237 325.96 207.087 324.44 207.087 322.64C207.087 322.38 207.097 321.95 207.117 321.35C207.137 320.75 207.187 320.06 207.267 319.28C207.347 318.5 207.477 317.7 207.657 316.88C207.837 316.04 208.077 315.24 208.377 314.48C208.677 313.72 209.067 313.08 209.547 312.56C209.947 312.12 210.447 311.75 211.047 311.45C211.647 311.13 212.347 310.9 213.147 310.76C213.767 310.66 214.417 310.59 215.097 310.55C215.777 310.51 216.307 310.48 216.687 310.46C217.807 310.38 218.617 310.18 219.117 309.86C219.617 309.54 220.027 309.06 220.347 308.42ZM214.017 317.36C213.337 317.36 212.687 317.58 212.067 318.02C211.447 318.44 210.937 319.16 210.537 320.18C210.137 321.2 209.937 322.62 209.937 324.44C209.937 326.22 210.127 327.66 210.507 328.76C210.907 329.84 211.417 330.62 212.037 331.1C212.657 331.58 213.307 331.82 213.987 331.82C214.767 331.82 215.397 331.57 215.877 331.07C216.377 330.55 216.757 329.9 217.017 329.12C217.277 328.32 217.457 327.48 217.557 326.6C217.657 325.7 217.707 324.87 217.707 324.11C217.707 321.67 217.357 319.94 216.657 318.92C215.977 317.88 215.097 317.36 214.017 317.36ZM235.954 316.58V317.21C235.134 317.21 234.544 317.36 234.184 317.66C233.844 317.96 233.674 318.53 233.674 319.37V329.21C233.674 330.05 233.844 330.62 234.184 330.92C234.544 331.22 235.134 331.37 235.954 331.37V332C235.614 331.98 235.114 331.96 234.454 331.94C233.794 331.9 233.074 331.88 232.294 331.88C231.514 331.88 230.724 331.9 229.924 331.94C229.144 331.96 228.534 331.98 228.094 332V331.37C228.994 331.37 229.694 331.23 230.194 330.95C230.714 330.65 230.974 330.07 230.974 329.21V319.37C230.974 318.53 230.824 317.96 230.524 317.66C230.224 317.36 229.714 317.21 228.994 317.21H228.724C228.224 317.21 227.894 317.36 227.734 317.66C227.574 317.96 227.454 318.53 227.374 319.37C227.214 321.23 227.014 323.01 226.774 324.71C226.554 326.39 226.174 327.91 225.634 329.27C225.434 329.75 225.184 330.24 224.884 330.74C224.584 331.22 224.214 331.62 223.774 331.94C223.354 332.26 222.844 332.42 222.244 332.42C221.884 332.42 221.544 332.35 221.224 332.21C220.904 332.09 220.644 331.9 220.444 331.64C220.244 331.36 220.144 331.02 220.144 330.62C220.144 330.12 220.294 329.73 220.594 329.45C220.894 329.17 221.284 329.03 221.764 329.03C222.184 329.03 222.534 329.15 222.814 329.39C223.114 329.63 223.264 329.99 223.264 330.47C223.264 330.79 223.174 331.08 222.994 331.34C222.814 331.58 222.524 331.78 222.124 331.94C222.164 331.96 222.214 331.97 222.274 331.97C222.354 331.97 222.404 331.97 222.424 331.97C222.924 331.97 223.344 331.81 223.684 331.49C224.044 331.15 224.344 330.76 224.584 330.32C224.844 329.86 225.034 329.46 225.154 329.12C225.474 328.28 225.744 327.34 225.964 326.3C226.184 325.26 226.364 324.15 226.504 322.97C226.644 321.79 226.754 320.59 226.834 319.37C226.894 318.53 226.714 317.96 226.294 317.66C225.894 317.36 225.284 317.21 224.464 317.21V316.58C224.624 316.6 224.874 316.63 225.214 316.67C225.574 316.69 226.004 316.7 226.504 316.7C226.904 316.7 227.314 316.7 227.734 316.7C228.174 316.7 228.614 316.7 229.054 316.7C229.434 316.7 229.784 316.7 230.104 316.7C230.424 316.7 230.764 316.7 231.124 316.7C231.484 316.7 231.884 316.7 232.324 316.7C232.784 316.7 233.244 316.69 233.704 316.67C234.184 316.65 234.624 316.63 235.024 316.61C235.424 316.59 235.734 316.58 235.954 316.58ZM244.998 316.13C246.758 316.13 248.128 316.67 249.108 317.75C250.108 318.81 250.608 320.47 250.608 322.73H240.018L239.988 322.16H247.728C247.768 321.18 247.688 320.28 247.488 319.46C247.288 318.62 246.968 317.95 246.528 317.45C246.108 316.95 245.558 316.7 244.878 316.7C243.958 316.7 243.138 317.16 242.418 318.08C241.718 319 241.298 320.46 241.158 322.46L241.248 322.58C241.208 322.88 241.178 323.21 241.158 323.57C241.138 323.93 241.128 324.29 241.128 324.65C241.128 326.01 241.348 327.18 241.788 328.16C242.228 329.14 242.798 329.89 243.498 330.41C244.218 330.91 244.958 331.16 245.718 331.16C246.318 331.16 246.888 331.07 247.428 330.89C247.968 330.69 248.468 330.37 248.928 329.93C249.388 329.49 249.788 328.9 250.128 328.16L250.728 328.4C250.508 329.06 250.148 329.7 249.648 330.32C249.148 330.94 248.518 331.45 247.758 331.85C246.998 332.23 246.118 332.42 245.118 332.42C243.678 332.42 242.438 332.09 241.398 331.43C240.378 330.77 239.588 329.86 239.028 328.7C238.488 327.52 238.218 326.17 238.218 324.65C238.218 322.89 238.498 321.38 239.058 320.12C239.618 318.84 240.408 317.86 241.428 317.18C242.448 316.48 243.638 316.13 244.998 316.13ZM269.924 316.58V317.21C269.104 317.21 268.514 317.36 268.154 317.66C267.814 317.96 267.644 318.53 267.644 319.37V329.21C267.644 330.05 267.814 330.62 268.154 330.92C268.514 331.22 269.104 331.37 269.924 331.37V332C269.584 331.98 269.064 331.96 268.364 331.94C267.664 331.9 266.984 331.88 266.324 331.88C265.664 331.88 265.014 331.9 264.374 331.94C263.754 331.96 263.284 331.98 262.964 332V331.37C263.684 331.37 264.194 331.22 264.494 330.92C264.794 330.62 264.944 330.05 264.944 329.21V319.37C264.944 318.53 264.794 317.96 264.494 317.66C264.194 317.36 263.684 317.21 262.964 317.21V316.58C263.284 316.6 263.754 316.63 264.374 316.67C265.014 316.69 265.664 316.7 266.324 316.7C266.984 316.7 267.664 316.69 268.364 316.67C269.064 316.63 269.584 316.6 269.924 316.58ZM259.844 316.58V317.21C259.124 317.21 258.614 317.36 258.314 317.66C258.014 317.96 257.864 318.53 257.864 319.37V329.21C257.864 330.05 258.014 330.62 258.314 330.92C258.614 331.22 259.124 331.37 259.844 331.37V332C259.524 331.98 259.044 331.96 258.404 331.94C257.784 331.9 257.144 331.88 256.484 331.88C255.824 331.88 255.144 331.9 254.444 331.94C253.744 331.96 253.224 331.98 252.884 332V331.37C253.704 331.37 254.284 331.22 254.624 330.92C254.984 330.62 255.164 330.05 255.164 329.21V319.37C255.164 318.53 254.984 317.96 254.624 317.66C254.284 317.36 253.704 317.21 252.884 317.21V316.58C253.224 316.6 253.744 316.63 254.444 316.67C255.144 316.69 255.824 316.7 256.484 316.7C257.144 316.7 257.784 316.69 258.404 316.67C259.044 316.63 259.524 316.6 259.844 316.58ZM265.244 318.68L265.724 319.01L257.474 330.41L256.994 330.05L265.244 318.68ZM265.274 308.18C265.734 308.18 266.114 308.33 266.414 308.63C266.714 308.93 266.864 309.31 266.864 309.77C266.864 310.19 266.734 310.59 266.474 310.97C266.214 311.33 265.874 311.65 265.454 311.93C265.034 312.21 264.494 312.46 263.834 312.68C263.174 312.9 262.344 313.01 261.344 313.01C260.364 313.01 259.534 312.9 258.854 312.68C258.194 312.46 257.654 312.21 257.234 311.93C256.814 311.65 256.474 311.33 256.214 310.97C255.954 310.59 255.824 310.19 255.824 309.77C255.824 309.31 255.974 308.93 256.274 308.63C256.574 308.33 256.954 308.18 257.414 308.18C257.874 308.18 258.264 308.32 258.584 308.6C258.904 308.88 259.064 309.28 259.064 309.8C259.064 310.22 258.944 310.56 258.704 310.82C258.484 311.08 258.184 311.25 257.804 311.33C258.204 311.77 258.754 312.06 259.454 312.2C260.174 312.34 260.804 312.41 261.344 312.41C261.884 312.41 262.504 312.34 263.204 312.2C263.924 312.06 264.484 311.77 264.884 311.33C264.504 311.25 264.194 311.08 263.954 310.82C263.734 310.56 263.624 310.22 263.624 309.8C263.624 309.28 263.784 308.88 264.104 308.6C264.444 308.32 264.834 308.18 265.274 308.18Z" fill="#BBB5C4"/>
<path d="M176.398 186H120.584C101.5 184.5 96.4907 180 94.4907 159.676V120.324C96.8628 100 100.491 96.4324 120.584 94H176.398C197.991 96 200.991 100.5 202.491 120.324L202.491 140V159.676C200.119 180.5 197.491 184 176.398 186ZM120.584 96.4324C104.621 96.4324 96.9907 105 96.8628 120.324V159.676C96.8628 175.754 104.621 183.568 120.584 183.568H176.398C192.36 183.568 200.119 175.754 200.119 159.676V120.324C200.119 104.246 192.36 96.4324 176.398 96.4324H120.584Z" fill="#FFFACB"/>
<path d="M148.491 161.081C136.937 161.081 127.56 151.637 127.56 140C127.56 128.363 136.937 118.919 148.491 118.919C160.044 118.919 169.421 128.363 169.421 140C169.421 151.637 160.044 161.081 148.491 161.081ZM148.491 121C141.57 121 130.491 125.5 129.491 140C129.991 153 141.57 159 148.491 159C161.991 158 167.491 146.971 167.491 140C168.491 132.5 159.491 120 148.491 121Z" fill="#FFFACB"/>
<path d="M115.491 158C114.944 158 114.491 156.117 114.491 153.846V126.154C114.491 123.883 114.944 122 115.491 122C116.037 122 116.491 123.883 116.491 126.154V153.846C116.491 156.117 116.037 158 115.491 158Z" fill="#FFFACB"/>
<path d="M181.491 158C180.944 158 180.491 156.117 180.491 153.846V126.154C180.491 123.883 180.944 122 181.491 122C182.037 122 182.491 123.883 182.491 126.154V153.846C182.491 156.117 182.037 158 181.491 158Z" fill="#FFFACB"/>
<path d="M142.243 140.264H144.139V132.368C144.811 132.24 145.507 132.144 146.227 132.08C146.947 132 147.707 131.96 148.507 131.96C149.339 131.96 150.139 132.032 150.907 132.176C151.675 132.32 152.347 132.584 152.923 132.968C153.499 133.352 153.955 133.88 154.291 134.552C154.643 135.224 154.819 136.088 154.819 137.144C154.819 138.12 154.651 138.944 154.315 139.616C153.979 140.288 153.531 140.84 152.971 141.272C152.411 141.688 151.771 141.992 151.051 142.184C150.331 142.36 149.579 142.448 148.795 142.448H147.163V143.84H151.003V146.024H147.163V149H144.139V146.024H142.243V143.84H144.139V142.448H142.243V140.264ZM147.163 140.192H148.411C148.843 140.192 149.251 140.144 149.635 140.048C150.035 139.936 150.379 139.768 150.667 139.544C150.955 139.32 151.179 139.024 151.339 138.656C151.515 138.272 151.603 137.816 151.603 137.288C151.603 136.312 151.339 135.624 150.811 135.224C150.283 134.808 149.603 134.6 148.771 134.6C148.451 134.6 148.147 134.616 147.859 134.648C147.571 134.664 147.339 134.688 147.163 134.72V140.192Z" fill="#FFFACB"/>
</svg>
