<svg width="481" height="540" viewBox="0 0 481 540" fill="none" xmlns="http://www.w3.org/2000/svg">
<line x1="142.614" y1="276" x2="142.614" y2="539.89" stroke="#D4B0B0"/>
<path d="M284.393 141.533C284.393 63.3664 220.73 0 142.197 0C63.6641 0 0.000732422 63.3664 0.000732422 141.533C0.000732422 219.699 63.6641 283.066 142.197 283.066" stroke="#D4B0B0"/>
<ellipse cx="142.113" cy="141.531" rx="121.096" ry="120.531" fill="#D5B0B0"/>
<ellipse cx="141.78" cy="142.311" rx="91.7395" ry="91.3115" fill="#203B5B"/>
<path d="M293.567 144.631C293.567 149.674 289.46 153.762 284.393 153.762C279.327 153.762 275.219 149.674 275.219 144.631C275.219 139.588 279.327 135.5 284.393 135.5C289.46 135.5 293.567 139.588 293.567 144.631Z" fill="#D4B0B0"/>
<ellipse cx="142.28" cy="283.131" rx="9.17395" ry="9.13115" fill="#D4B0B0"/>
<path d="M187.59 283.76C187.51 284.46 187.45 285.14 187.41 285.8C187.39 286.46 187.38 286.96 187.38 287.3C187.38 287.66 187.39 288.01 187.41 288.35C187.43 288.67 187.45 288.94 187.47 289.16H186.78C186.66 287.98 186.49 287.05 186.27 286.37C186.05 285.67 185.67 285.18 185.13 284.9C184.61 284.6 183.82 284.45 182.76 284.45H181.17C180.49 284.45 179.97 284.51 179.61 284.63C179.27 284.73 179.04 284.96 178.92 285.32C178.8 285.66 178.74 286.2 178.74 286.94V301.82C178.74 302.52 178.78 303.06 178.86 303.44C178.96 303.82 179.15 304.08 179.43 304.22C179.73 304.34 180.17 304.4 180.75 304.4C182.13 304.4 183.17 304.15 183.87 303.65C184.59 303.13 185.08 302.44 185.34 301.58C185.6 300.7 185.73 299.74 185.73 298.7C185.73 297.38 185.56 296.3 185.22 295.46C184.9 294.6 184.35 293.97 183.57 293.57C182.81 293.15 181.78 292.94 180.48 292.94C180.26 292.94 179.9 292.95 179.4 292.97C178.92 292.97 178.45 292.98 177.99 293C177.53 293 177.21 293 177.03 293L176.97 292.43C177.91 292.43 178.81 292.42 179.67 292.4C180.53 292.38 181.14 292.37 181.5 292.37C182.7 292.37 183.75 292.53 184.65 292.85C185.57 293.15 186.33 293.58 186.93 294.14C187.53 294.7 187.98 295.37 188.28 296.15C188.58 296.91 188.73 297.75 188.73 298.67C188.73 299.45 188.61 300.22 188.37 300.98C188.13 301.72 187.71 302.4 187.11 303.02C186.53 303.62 185.73 304.1 184.71 304.46C183.69 304.82 182.4 305 180.84 305C180.32 305 179.8 304.99 179.28 304.97C178.78 304.93 178.04 304.91 177.06 304.91C176.5 304.91 175.87 304.92 175.17 304.94C174.49 304.94 173.94 304.96 173.52 305V304.4C174.2 304.36 174.71 304.28 175.05 304.16C175.41 304.04 175.65 303.8 175.77 303.44C175.89 303.08 175.95 302.54 175.95 301.82V286.94C175.95 286.2 175.89 285.66 175.77 285.32C175.65 284.96 175.41 284.72 175.05 284.6C174.71 284.46 174.2 284.38 173.52 284.36V283.76C174.26 283.78 175.04 283.8 175.86 283.82C176.68 283.82 177.49 283.83 178.29 283.85C179.09 283.85 179.83 283.85 180.51 283.85C181.21 283.85 181.78 283.85 182.22 283.85C183 283.85 183.89 283.85 184.89 283.85C185.89 283.83 186.79 283.8 187.59 283.76ZM198.351 289.13C199.631 289.13 200.781 289.41 201.801 289.97C202.821 290.53 203.631 291.41 204.231 292.61C204.851 293.81 205.161 295.37 205.161 297.29C205.161 299.21 204.851 300.77 204.231 301.97C203.631 303.15 202.821 304.02 201.801 304.58C200.781 305.14 199.631 305.42 198.351 305.42C197.091 305.42 195.941 305.14 194.901 304.58C193.881 304.02 193.061 303.15 192.441 301.97C191.841 300.77 191.541 299.21 191.541 297.29C191.541 295.37 191.841 293.81 192.441 292.61C193.061 291.41 193.881 290.53 194.901 289.97C195.941 289.41 197.091 289.13 198.351 289.13ZM198.351 289.73C197.211 289.73 196.271 290.32 195.531 291.5C194.811 292.68 194.451 294.61 194.451 297.29C194.451 299.97 194.811 301.9 195.531 303.08C196.271 304.24 197.211 304.82 198.351 304.82C199.491 304.82 200.421 304.24 201.141 303.08C201.881 301.9 202.251 299.97 202.251 297.29C202.251 294.61 201.881 292.68 201.141 291.5C200.421 290.32 199.491 289.73 198.351 289.73ZM220.506 289.58V290.21C219.686 290.21 219.096 290.36 218.736 290.66C218.396 290.96 218.226 291.53 218.226 292.37V302.21C218.226 303.05 218.396 303.62 218.736 303.92C219.096 304.22 219.686 304.37 220.506 304.37V305C220.166 304.98 219.666 304.96 219.006 304.94C218.346 304.9 217.626 304.88 216.846 304.88C216.066 304.88 215.276 304.9 214.476 304.94C213.696 304.96 213.086 304.98 212.646 305V304.37C213.546 304.37 214.246 304.23 214.746 303.95C215.266 303.65 215.526 303.07 215.526 302.21V292.37C215.526 291.53 215.376 290.96 215.076 290.66C214.776 290.36 214.266 290.21 213.546 290.21H213.276C212.776 290.21 212.446 290.36 212.286 290.66C212.126 290.96 212.006 291.53 211.926 292.37C211.766 294.23 211.566 296.01 211.326 297.71C211.106 299.39 210.726 300.91 210.186 302.27C209.986 302.75 209.736 303.24 209.436 303.74C209.136 304.22 208.766 304.62 208.326 304.94C207.906 305.26 207.396 305.42 206.796 305.42C206.436 305.42 206.096 305.35 205.776 305.21C205.456 305.09 205.196 304.9 204.996 304.64C204.796 304.36 204.696 304.02 204.696 303.62C204.696 303.12 204.846 302.73 205.146 302.45C205.446 302.17 205.836 302.03 206.316 302.03C206.736 302.03 207.086 302.15 207.366 302.39C207.666 302.63 207.816 302.99 207.816 303.47C207.816 303.79 207.726 304.08 207.546 304.34C207.366 304.58 207.076 304.78 206.676 304.94C206.716 304.96 206.766 304.97 206.826 304.97C206.906 304.97 206.956 304.97 206.976 304.97C207.476 304.97 207.896 304.81 208.236 304.49C208.596 304.15 208.896 303.76 209.136 303.32C209.396 302.86 209.586 302.46 209.706 302.12C210.026 301.28 210.296 300.34 210.516 299.3C210.736 298.26 210.916 297.15 211.056 295.97C211.196 294.79 211.306 293.59 211.386 292.37C211.446 291.53 211.266 290.96 210.846 290.66C210.446 290.36 209.836 290.21 209.016 290.21V289.58C209.176 289.6 209.426 289.63 209.766 289.67C210.126 289.69 210.556 289.7 211.056 289.7C211.456 289.7 211.866 289.7 212.286 289.7C212.726 289.7 213.166 289.7 213.606 289.7C213.986 289.7 214.336 289.7 214.656 289.7C214.976 289.7 215.316 289.7 215.676 289.7C216.036 289.7 216.436 289.7 216.876 289.7C217.336 289.7 217.796 289.69 218.256 289.67C218.736 289.65 219.176 289.63 219.576 289.61C219.976 289.59 220.286 289.58 220.506 289.58ZM229.551 289.13C231.311 289.13 232.681 289.67 233.661 290.75C234.661 291.81 235.161 293.47 235.161 295.73H224.571L224.541 295.16H232.281C232.321 294.18 232.241 293.28 232.041 292.46C231.841 291.62 231.521 290.95 231.081 290.45C230.661 289.95 230.111 289.7 229.431 289.7C228.511 289.7 227.691 290.16 226.971 291.08C226.271 292 225.851 293.46 225.711 295.46L225.801 295.58C225.761 295.88 225.731 296.21 225.711 296.57C225.691 296.93 225.681 297.29 225.681 297.65C225.681 299.01 225.901 300.18 226.341 301.16C226.781 302.14 227.351 302.89 228.051 303.41C228.771 303.91 229.511 304.16 230.271 304.16C230.871 304.16 231.441 304.07 231.981 303.89C232.521 303.69 233.021 303.37 233.481 302.93C233.941 302.49 234.341 301.9 234.681 301.16L235.281 301.4C235.061 302.06 234.701 302.7 234.201 303.32C233.701 303.94 233.071 304.45 232.311 304.85C231.551 305.23 230.671 305.42 229.671 305.42C228.231 305.42 226.991 305.09 225.951 304.43C224.931 303.77 224.141 302.86 223.581 301.7C223.041 300.52 222.771 299.17 222.771 297.65C222.771 295.89 223.051 294.38 223.611 293.12C224.171 291.84 224.961 290.86 225.981 290.18C227.001 289.48 228.191 289.13 229.551 289.13ZM244.726 289.13C246.486 289.13 247.856 289.67 248.836 290.75C249.836 291.81 250.336 293.47 250.336 295.73H239.746L239.716 295.16H247.456C247.496 294.18 247.416 293.28 247.216 292.46C247.016 291.62 246.696 290.95 246.256 290.45C245.836 289.95 245.286 289.7 244.606 289.7C243.686 289.7 242.866 290.16 242.146 291.08C241.446 292 241.026 293.46 240.886 295.46L240.976 295.58C240.936 295.88 240.906 296.21 240.886 296.57C240.866 296.93 240.856 297.29 240.856 297.65C240.856 299.01 241.076 300.18 241.516 301.16C241.956 302.14 242.526 302.89 243.226 303.41C243.946 303.91 244.686 304.16 245.446 304.16C246.046 304.16 246.616 304.07 247.156 303.89C247.696 303.69 248.196 303.37 248.656 302.93C249.116 302.49 249.516 301.9 249.856 301.16L250.456 301.4C250.236 302.06 249.876 302.7 249.376 303.32C248.876 303.94 248.246 304.45 247.486 304.85C246.726 305.23 245.846 305.42 244.846 305.42C243.406 305.42 242.166 305.09 241.126 304.43C240.106 303.77 239.316 302.86 238.756 301.7C238.216 300.52 237.946 299.17 237.946 297.65C237.946 295.89 238.226 294.38 238.786 293.12C239.346 291.84 240.136 290.86 241.156 290.18C242.176 289.48 243.366 289.13 244.726 289.13ZM266.533 289.13C267.913 289.13 269.003 289.46 269.803 290.12C270.623 290.76 271.033 291.69 271.033 292.91C271.033 293.71 270.843 294.47 270.463 295.19C270.103 295.89 269.623 296.57 269.023 297.23C268.423 297.87 267.783 298.5 267.103 299.12C266.423 299.72 265.763 300.32 265.123 300.92C264.483 301.5 263.943 302.09 263.503 302.69H269.593C270.413 302.69 270.933 302.58 271.153 302.36C271.373 302.12 271.523 301.72 271.603 301.16H272.113C272.113 302.22 272.123 303.04 272.143 303.62C272.163 304.18 272.193 304.69 272.233 305.15C272.053 305.11 271.723 305.08 271.243 305.06C270.763 305.04 270.213 305.02 269.593 305C268.973 305 268.363 305 267.763 305H260.743V304.49C261.343 303.83 262.063 303.13 262.903 302.39C263.743 301.63 264.553 300.81 265.333 299.93C266.133 299.03 266.793 298.06 267.313 297.02C267.853 295.96 268.123 294.81 268.123 293.57C268.123 292.43 267.853 291.61 267.313 291.11C266.793 290.59 266.063 290.33 265.123 290.33C264.323 290.33 263.583 290.57 262.903 291.05C262.223 291.51 261.623 292.21 261.103 293.15L260.623 292.88C260.923 292.24 261.323 291.64 261.823 291.08C262.343 290.5 262.983 290.03 263.743 289.67C264.523 289.31 265.453 289.13 266.533 289.13ZM282.718 289.13C284.138 289.13 285.388 289.46 286.468 290.12C287.568 290.76 288.428 291.67 289.048 292.85C289.668 294.03 289.978 295.42 289.978 297.02C289.978 298.62 289.658 300.06 289.018 301.34C288.378 302.6 287.488 303.6 286.348 304.34C285.228 305.06 283.908 305.42 282.388 305.42C281.008 305.42 279.768 305.1 278.668 304.46C277.568 303.8 276.698 302.88 276.058 301.7C275.438 300.5 275.128 299.1 275.128 297.5C275.128 295.92 275.438 294.5 276.058 293.24C276.698 291.98 277.588 290.98 278.728 290.24C279.868 289.5 281.198 289.13 282.718 289.13ZM282.448 289.67C281.168 289.67 280.108 290.35 279.268 291.71C278.448 293.07 278.038 294.97 278.038 297.41C278.038 299.21 278.248 300.66 278.668 301.76C279.088 302.84 279.648 303.63 280.348 304.13C281.068 304.63 281.838 304.88 282.658 304.88C283.958 304.88 285.018 304.2 285.838 302.84C286.658 301.46 287.068 299.55 287.068 297.11C287.068 295.31 286.858 293.87 286.438 292.79C286.018 291.69 285.458 290.9 284.758 290.42C284.058 289.92 283.288 289.67 282.448 289.67ZM300.917 286.82V293.9H307.877V294.8H300.917V301.85H299.837V294.8H292.847V293.9H299.837V286.82H300.917ZM332.655 289.58V290.21C331.835 290.21 331.245 290.36 330.885 290.66C330.545 290.96 330.375 291.53 330.375 292.37V302.21C330.375 303.05 330.545 303.62 330.885 303.92C331.245 304.22 331.835 304.37 332.655 304.37V305C332.315 304.98 331.815 304.96 331.155 304.94C330.495 304.9 329.775 304.88 328.995 304.88C328.215 304.88 327.425 304.9 326.625 304.94C325.845 304.96 325.235 304.98 324.795 305V304.37C325.695 304.37 326.395 304.23 326.895 303.95C327.415 303.65 327.675 303.07 327.675 302.21V292.37C327.675 291.53 327.525 290.96 327.225 290.66C326.925 290.36 326.415 290.21 325.695 290.21H325.425C324.925 290.21 324.595 290.36 324.435 290.66C324.275 290.96 324.155 291.53 324.075 292.37C323.915 294.23 323.715 296.01 323.475 297.71C323.255 299.39 322.875 300.91 322.335 302.27C322.135 302.75 321.885 303.24 321.585 303.74C321.285 304.22 320.915 304.62 320.475 304.94C320.055 305.26 319.545 305.42 318.945 305.42C318.585 305.42 318.245 305.35 317.925 305.21C317.605 305.09 317.345 304.9 317.145 304.64C316.945 304.36 316.845 304.02 316.845 303.62C316.845 303.12 316.995 302.73 317.295 302.45C317.595 302.17 317.985 302.03 318.465 302.03C318.885 302.03 319.235 302.15 319.515 302.39C319.815 302.63 319.965 302.99 319.965 303.47C319.965 303.79 319.875 304.08 319.695 304.34C319.515 304.58 319.225 304.78 318.825 304.94C318.865 304.96 318.915 304.97 318.975 304.97C319.055 304.97 319.105 304.97 319.125 304.97C319.625 304.97 320.045 304.81 320.385 304.49C320.745 304.15 321.045 303.76 321.285 303.32C321.545 302.86 321.735 302.46 321.855 302.12C322.175 301.28 322.445 300.34 322.665 299.3C322.885 298.26 323.065 297.15 323.205 295.97C323.345 294.79 323.455 293.59 323.535 292.37C323.595 291.53 323.415 290.96 322.995 290.66C322.595 290.36 321.985 290.21 321.165 290.21V289.58C321.325 289.6 321.575 289.63 321.915 289.67C322.275 289.69 322.705 289.7 323.205 289.7C323.605 289.7 324.015 289.7 324.435 289.7C324.875 289.7 325.315 289.7 325.755 289.7C326.135 289.7 326.485 289.7 326.805 289.7C327.125 289.7 327.465 289.7 327.825 289.7C328.185 289.7 328.585 289.7 329.025 289.7C329.485 289.7 329.945 289.69 330.405 289.67C330.885 289.65 331.325 289.63 331.725 289.61C332.125 289.59 332.435 289.58 332.655 289.58ZM341.699 289.13C343.459 289.13 344.829 289.67 345.809 290.75C346.809 291.81 347.309 293.47 347.309 295.73H336.719L336.689 295.16H344.429C344.469 294.18 344.389 293.28 344.189 292.46C343.989 291.62 343.669 290.95 343.229 290.45C342.809 289.95 342.259 289.7 341.579 289.7C340.659 289.7 339.839 290.16 339.119 291.08C338.419 292 337.999 293.46 337.859 295.46L337.949 295.58C337.909 295.88 337.879 296.21 337.859 296.57C337.839 296.93 337.829 297.29 337.829 297.65C337.829 299.01 338.049 300.18 338.489 301.16C338.929 302.14 339.499 302.89 340.199 303.41C340.919 303.91 341.659 304.16 342.419 304.16C343.019 304.16 343.589 304.07 344.129 303.89C344.669 303.69 345.169 303.37 345.629 302.93C346.089 302.49 346.489 301.9 346.829 301.16L347.429 301.4C347.209 302.06 346.849 302.7 346.349 303.32C345.849 303.94 345.219 304.45 344.459 304.85C343.699 305.23 342.819 305.42 341.819 305.42C340.379 305.42 339.139 305.09 338.099 304.43C337.079 303.77 336.289 302.86 335.729 301.7C335.189 300.52 334.919 299.17 334.919 297.65C334.919 295.89 335.199 294.38 335.759 293.12C336.319 291.84 337.109 290.86 338.129 290.18C339.149 289.48 340.339 289.13 341.699 289.13ZM364.375 289.58C364.295 290.28 364.235 290.95 364.195 291.59C364.175 292.23 364.165 292.72 364.165 293.06C364.165 293.42 364.175 293.77 364.195 294.11C364.215 294.43 364.235 294.7 364.255 294.92H363.565C363.465 293.54 363.255 292.51 362.935 291.83C362.615 291.15 362.175 290.71 361.615 290.51C361.055 290.29 360.365 290.18 359.545 290.18H358.375V301.91C358.375 302.89 358.655 303.55 359.215 303.89C359.795 304.21 360.575 304.37 361.555 304.37V305C361.095 304.98 360.455 304.96 359.635 304.94C358.835 304.9 357.965 304.88 357.025 304.88C356.105 304.88 355.235 304.9 354.415 304.94C353.595 304.96 352.955 304.98 352.495 305V304.37C353.495 304.37 354.275 304.21 354.835 303.89C355.395 303.55 355.675 302.89 355.675 301.91V290.18H354.205C353.385 290.18 352.715 290.29 352.195 290.51C351.695 290.73 351.305 291.18 351.025 291.86C350.765 292.54 350.585 293.57 350.485 294.95H349.795C349.835 294.73 349.855 294.46 349.855 294.14C349.875 293.8 349.885 293.45 349.885 293.09C349.885 292.75 349.865 292.26 349.825 291.62C349.805 290.98 349.755 290.31 349.675 289.61H352.555C353.235 289.61 353.955 289.62 354.715 289.64C355.495 289.66 356.255 289.67 356.995 289.67C357.755 289.67 358.525 289.66 359.305 289.64C360.085 289.6 360.815 289.58 361.495 289.58H364.375ZM180.48 329.13C181.76 329.13 182.91 329.41 183.93 329.97C184.95 330.53 185.76 331.41 186.36 332.61C186.98 333.81 187.29 335.37 187.29 337.29C187.29 339.21 186.98 340.77 186.36 341.97C185.76 343.15 184.95 344.02 183.93 344.58C182.91 345.14 181.76 345.42 180.48 345.42C179.22 345.42 178.07 345.14 177.03 344.58C176.01 344.02 175.19 343.15 174.57 341.97C173.97 340.77 173.67 339.21 173.67 337.29C173.67 335.37 173.97 333.81 174.57 332.61C175.19 331.41 176.01 330.53 177.03 329.97C178.07 329.41 179.22 329.13 180.48 329.13ZM180.48 329.73C179.34 329.73 178.4 330.32 177.66 331.5C176.94 332.68 176.58 334.61 176.58 337.29C176.58 339.97 176.94 341.9 177.66 343.08C178.4 344.24 179.34 344.82 180.48 344.82C181.62 344.82 182.55 344.24 183.27 343.08C184.01 341.9 184.38 339.97 184.38 337.29C184.38 334.61 184.01 332.68 183.27 331.5C182.55 330.32 181.62 329.73 180.48 329.73ZM206.155 329.58V330.21C205.335 330.21 204.745 330.36 204.385 330.66C204.045 330.96 203.875 331.53 203.875 332.37V342.21C203.875 343.05 204.045 343.62 204.385 343.92C204.745 344.22 205.335 344.37 206.155 344.37V345C205.815 344.98 205.295 344.96 204.595 344.94C203.895 344.9 203.215 344.88 202.555 344.88C201.895 344.88 201.245 344.9 200.605 344.94C199.985 344.96 199.515 344.98 199.195 345V344.37C199.915 344.37 200.425 344.22 200.725 343.92C201.025 343.62 201.175 343.05 201.175 342.21V332.37C201.175 331.53 201.025 330.96 200.725 330.66C200.425 330.36 199.915 330.21 199.195 330.21H196.525C195.805 330.21 195.295 330.36 194.995 330.66C194.695 330.96 194.545 331.53 194.545 332.37V342.21C194.545 343.05 194.695 343.62 194.995 343.92C195.295 344.22 195.805 344.37 196.525 344.37V345C196.205 344.98 195.725 344.96 195.085 344.94C194.465 344.9 193.825 344.88 193.165 344.88C192.505 344.88 191.825 344.9 191.125 344.94C190.425 344.96 189.905 344.98 189.565 345V344.37C190.385 344.37 190.965 344.22 191.305 343.92C191.665 343.62 191.845 343.05 191.845 342.21V332.37C191.845 331.53 191.665 330.96 191.305 330.66C190.965 330.36 190.385 330.21 189.565 330.21V329.58C189.905 329.6 190.425 329.63 191.125 329.67C191.825 329.69 192.505 329.7 193.165 329.7C194.125 329.7 194.975 329.68 195.715 329.64C196.475 329.6 197.245 329.58 198.025 329.58C198.805 329.58 199.515 329.6 200.155 329.64C200.795 329.68 201.595 329.7 202.555 329.7C203.215 329.7 203.895 329.69 204.595 329.67C205.295 329.63 205.815 329.6 206.155 329.58ZM215.105 329.58V330.21C214.285 330.21 213.695 330.36 213.335 330.66C212.995 330.96 212.825 331.53 212.825 332.37V342.21C212.825 343.01 212.915 343.57 213.095 343.89C213.295 344.21 213.635 344.37 214.115 344.37C215.195 344.37 216.015 344.19 216.575 343.83C217.155 343.47 217.555 342.99 217.775 342.39C217.995 341.79 218.105 341.15 218.105 340.47C218.105 339.09 217.715 338.09 216.935 337.47C216.175 336.83 214.905 336.51 213.125 336.51C212.785 336.51 212.435 336.51 212.075 336.51C211.715 336.51 211.365 336.51 211.025 336.51L210.965 336C211.625 336 212.275 336 212.915 336C213.575 336 214.235 336 214.895 336C217.075 336 218.625 336.41 219.545 337.23C220.465 338.03 220.925 339.05 220.925 340.29C220.925 341.03 220.715 341.76 220.295 342.48C219.895 343.2 219.215 343.8 218.255 344.28C217.315 344.76 216.045 345 214.445 345C214.025 345 213.545 344.98 213.005 344.94C212.465 344.9 211.925 344.88 211.385 344.88C210.765 344.88 210.105 344.9 209.405 344.94C208.705 344.96 208.185 344.98 207.845 345V344.37C208.665 344.37 209.245 344.22 209.585 343.92C209.945 343.62 210.125 343.05 210.125 342.21V332.37C210.125 331.53 209.975 330.96 209.675 330.66C209.375 330.36 208.865 330.21 208.145 330.21V329.58C208.465 329.6 208.935 329.63 209.555 329.67C210.195 329.69 210.845 329.7 211.505 329.7C212.165 329.7 212.845 329.69 213.545 329.67C214.245 329.63 214.765 329.6 215.105 329.58ZM228.665 329.58V330.21C227.945 330.21 227.435 330.36 227.135 330.66C226.835 330.96 226.685 331.53 226.685 332.37V342.21C226.685 343.05 226.855 343.62 227.195 343.92C227.555 344.22 228.145 344.37 228.965 344.37V345C228.625 344.98 228.095 344.96 227.375 344.94C226.655 344.9 225.965 344.88 225.305 344.88C224.705 344.88 224.085 344.9 223.445 344.94C222.805 344.96 222.325 344.98 222.005 345V344.37C222.725 344.37 223.235 344.22 223.535 343.92C223.835 343.62 223.985 343.05 223.985 342.21V332.37C223.985 331.53 223.835 330.96 223.535 330.66C223.235 330.36 222.725 330.21 222.005 330.21V329.58C222.325 329.6 222.805 329.63 223.445 329.67C224.085 329.69 224.705 329.7 225.305 329.7C225.965 329.7 226.605 329.69 227.225 329.67C227.865 329.63 228.345 329.6 228.665 329.58ZM245.43 329.58C245.35 330.28 245.29 330.95 245.25 331.59C245.23 332.23 245.22 332.72 245.22 333.06C245.22 333.42 245.23 333.77 245.25 334.11C245.27 334.43 245.29 334.7 245.31 334.92H244.62C244.52 333.54 244.31 332.51 243.99 331.83C243.67 331.15 243.23 330.71 242.67 330.51C242.11 330.29 241.42 330.18 240.6 330.18H239.43V341.91C239.43 342.89 239.71 343.55 240.27 343.89C240.85 344.21 241.63 344.37 242.61 344.37V345C242.15 344.98 241.51 344.96 240.69 344.94C239.89 344.9 239.02 344.88 238.08 344.88C237.16 344.88 236.29 344.9 235.47 344.94C234.65 344.96 234.01 344.98 233.55 345V344.37C234.55 344.37 235.33 344.21 235.89 343.89C236.45 343.55 236.73 342.89 236.73 341.91V330.18H235.26C234.44 330.18 233.77 330.29 233.25 330.51C232.75 330.73 232.36 331.18 232.08 331.86C231.82 332.54 231.64 333.57 231.54 334.95H230.85C230.89 334.73 230.91 334.46 230.91 334.14C230.93 333.8 230.94 333.45 230.94 333.09C230.94 332.75 230.92 332.26 230.88 331.62C230.86 330.98 230.81 330.31 230.73 329.61H233.61C234.29 329.61 235.01 329.62 235.77 329.64C236.55 329.66 237.31 329.67 238.05 329.67C238.81 329.67 239.58 329.66 240.36 329.64C241.14 329.6 241.87 329.58 242.55 329.58H245.43ZM251.511 345.21C250.691 345.21 249.981 345.06 249.381 344.76C248.781 344.44 248.321 344 248.001 343.44C247.701 342.88 247.551 342.23 247.551 341.49C247.551 340.61 247.751 339.89 248.151 339.33C248.571 338.77 249.101 338.32 249.741 337.98C250.381 337.64 251.051 337.36 251.751 337.14C252.471 336.9 253.151 336.68 253.791 336.48C254.431 336.26 254.951 336.01 255.351 335.73C255.771 335.45 255.981 335.08 255.981 334.62V332.76C255.981 331.92 255.851 331.28 255.591 330.84C255.351 330.4 255.021 330.11 254.601 329.97C254.181 329.81 253.711 329.73 253.191 329.73C252.691 329.73 252.151 329.8 251.571 329.94C251.011 330.08 250.561 330.37 250.221 330.81C250.601 330.89 250.931 331.09 251.211 331.41C251.491 331.73 251.631 332.14 251.631 332.64C251.631 333.14 251.471 333.54 251.151 333.84C250.831 334.12 250.421 334.26 249.921 334.26C249.341 334.26 248.911 334.08 248.631 333.72C248.371 333.34 248.241 332.92 248.241 332.46C248.241 331.94 248.371 331.52 248.631 331.2C248.891 330.88 249.221 330.58 249.621 330.3C250.081 329.98 250.671 329.71 251.391 329.49C252.131 329.25 252.961 329.13 253.881 329.13C254.701 329.13 255.401 329.23 255.981 329.43C256.561 329.61 257.041 329.88 257.421 330.24C257.941 330.72 258.281 331.31 258.441 332.01C258.601 332.69 258.681 333.51 258.681 334.47V342.81C258.681 343.31 258.751 343.67 258.891 343.89C259.051 344.11 259.291 344.22 259.611 344.22C259.831 344.22 260.041 344.17 260.241 344.07C260.441 343.97 260.681 343.81 260.961 343.59L261.291 344.1C260.871 344.42 260.471 344.69 260.091 344.91C259.711 345.11 259.201 345.21 258.561 345.21C257.981 345.21 257.501 345.11 257.121 344.91C256.741 344.71 256.451 344.42 256.251 344.04C256.071 343.64 255.981 343.14 255.981 342.54C255.441 343.44 254.791 344.11 254.031 344.55C253.291 344.99 252.451 345.21 251.511 345.21ZM252.591 344.01C253.251 344.01 253.861 343.82 254.421 343.44C255.001 343.06 255.521 342.49 255.981 341.73V335.85C255.741 336.19 255.391 336.48 254.931 336.72C254.471 336.94 253.971 337.17 253.431 337.41C252.891 337.63 252.371 337.9 251.871 338.22C251.391 338.52 250.991 338.92 250.671 339.42C250.351 339.92 250.191 340.57 250.191 341.37C250.191 342.17 250.401 342.81 250.821 343.29C251.261 343.77 251.851 344.01 252.591 344.01ZM274.433 329.22V347.64C274.433 348.5 274.683 349.07 275.183 349.35C275.703 349.65 276.413 349.8 277.313 349.8V350.43C276.873 350.41 276.263 350.38 275.483 350.34C274.703 350.32 273.873 350.31 272.993 350.31C272.373 350.31 271.753 350.32 271.133 350.34C270.533 350.38 270.073 350.41 269.753 350.43V349.8C270.473 349.8 270.983 349.67 271.283 349.41C271.583 349.15 271.733 348.66 271.733 347.94V332.82C271.733 331.92 271.573 331.26 271.253 330.84C270.933 330.4 270.333 330.18 269.453 330.18V329.55C270.093 329.61 270.713 329.64 271.313 329.64C271.893 329.64 272.443 329.61 272.963 329.55C273.503 329.47 273.993 329.36 274.433 329.22ZM279.233 329.13C280.293 329.13 281.243 329.42 282.083 330C282.923 330.56 283.583 331.39 284.063 332.49C284.563 333.59 284.813 334.95 284.813 336.57C284.813 337.65 284.683 338.72 284.423 339.78C284.163 340.82 283.753 341.77 283.193 342.63C282.653 343.47 281.943 344.15 281.063 344.67C280.203 345.17 279.163 345.42 277.943 345.42C277.003 345.42 276.183 345.2 275.483 344.76C274.803 344.32 274.343 343.79 274.103 343.17L274.403 342.75C274.683 343.31 275.083 343.78 275.603 344.16C276.143 344.54 276.813 344.73 277.613 344.73C278.733 344.73 279.603 344.38 280.223 343.68C280.843 342.98 281.273 342.05 281.513 340.89C281.773 339.71 281.903 338.41 281.903 336.99C281.903 335.39 281.773 334.08 281.513 333.06C281.253 332.04 280.863 331.28 280.343 330.78C279.823 330.28 279.183 330.03 278.423 330.03C277.443 330.03 276.553 330.44 275.753 331.26C274.953 332.06 274.443 333.28 274.223 334.92L273.863 334.5C274.083 332.8 274.683 331.48 275.663 330.54C276.663 329.6 277.853 329.13 279.233 329.13ZM291.355 345.21C290.535 345.21 289.825 345.06 289.225 344.76C288.625 344.44 288.165 344 287.845 343.44C287.545 342.88 287.395 342.23 287.395 341.49C287.395 340.61 287.595 339.89 287.995 339.33C288.415 338.77 288.945 338.32 289.585 337.98C290.225 337.64 290.895 337.36 291.595 337.14C292.315 336.9 292.995 336.68 293.635 336.48C294.275 336.26 294.795 336.01 295.195 335.73C295.615 335.45 295.825 335.08 295.825 334.62V332.76C295.825 331.92 295.695 331.28 295.435 330.84C295.195 330.4 294.865 330.11 294.445 329.97C294.025 329.81 293.555 329.73 293.035 329.73C292.535 329.73 291.995 329.8 291.415 329.94C290.855 330.08 290.405 330.37 290.065 330.81C290.445 330.89 290.775 331.09 291.055 331.41C291.335 331.73 291.475 332.14 291.475 332.64C291.475 333.14 291.315 333.54 290.995 333.84C290.675 334.12 290.265 334.26 289.765 334.26C289.185 334.26 288.755 334.08 288.475 333.72C288.215 333.34 288.085 332.92 288.085 332.46C288.085 331.94 288.215 331.52 288.475 331.2C288.735 330.88 289.065 330.58 289.465 330.3C289.925 329.98 290.515 329.71 291.235 329.49C291.975 329.25 292.805 329.13 293.725 329.13C294.545 329.13 295.245 329.23 295.825 329.43C296.405 329.61 296.885 329.88 297.265 330.24C297.785 330.72 298.125 331.31 298.285 332.01C298.445 332.69 298.525 333.51 298.525 334.47V342.81C298.525 343.31 298.595 343.67 298.735 343.89C298.895 344.11 299.135 344.22 299.455 344.22C299.675 344.22 299.885 344.17 300.085 344.07C300.285 343.97 300.525 343.81 300.805 343.59L301.135 344.1C300.715 344.42 300.315 344.69 299.935 344.91C299.555 345.11 299.045 345.21 298.405 345.21C297.825 345.21 297.345 345.11 296.965 344.91C296.585 344.71 296.295 344.42 296.095 344.04C295.915 343.64 295.825 343.14 295.825 342.54C295.285 343.44 294.635 344.11 293.875 344.55C293.135 344.99 292.295 345.21 291.355 345.21ZM292.435 344.01C293.095 344.01 293.705 343.82 294.265 343.44C294.845 343.06 295.365 342.49 295.825 341.73V335.85C295.585 336.19 295.235 336.48 294.775 336.72C294.315 336.94 293.815 337.17 293.275 337.41C292.735 337.63 292.215 337.9 291.715 338.22C291.235 338.52 290.835 338.92 290.515 339.42C290.195 339.92 290.035 340.57 290.035 341.37C290.035 342.17 290.245 342.81 290.665 343.29C291.105 343.77 291.695 344.01 292.435 344.01ZM316.316 321.42L316.766 321.54C316.566 322.2 316.336 322.8 316.076 323.34C315.816 323.88 315.486 324.31 315.086 324.63C314.766 324.89 314.356 325.11 313.856 325.29C313.356 325.47 312.726 325.58 311.966 325.62C311.646 325.64 311.186 325.67 310.586 325.71C309.986 325.75 309.426 325.82 308.906 325.92C308.086 326.06 307.386 326.31 306.806 326.67C306.226 327.01 305.736 327.51 305.336 328.17C304.956 328.83 304.646 329.69 304.406 330.75C304.166 331.81 303.966 333.11 303.806 334.65L305.306 336.48L303.596 335.64C303.896 334.12 304.366 332.94 305.006 332.1C305.666 331.24 306.436 330.63 307.316 330.27C308.196 329.91 309.126 329.73 310.106 329.73C311.686 329.73 312.946 330.09 313.886 330.81C314.826 331.51 315.506 332.43 315.926 333.57C316.366 334.69 316.586 335.9 316.586 337.2C316.586 338.84 316.286 340.28 315.686 341.52C315.086 342.76 314.246 343.72 313.166 344.4C312.106 345.08 310.866 345.42 309.446 345.42C308.486 345.42 307.616 345.25 306.836 344.91C306.056 344.55 305.386 343.99 304.826 343.23C304.266 342.45 303.826 341.44 303.506 340.2C303.206 338.96 303.056 337.44 303.056 335.64C303.056 335.38 303.066 334.95 303.086 334.35C303.106 333.75 303.156 333.06 303.236 332.28C303.316 331.5 303.446 330.7 303.626 329.88C303.806 329.04 304.046 328.24 304.346 327.48C304.646 326.72 305.036 326.08 305.516 325.56C305.916 325.12 306.416 324.75 307.016 324.45C307.616 324.13 308.316 323.9 309.116 323.76C309.736 323.66 310.386 323.59 311.066 323.55C311.746 323.51 312.276 323.48 312.656 323.46C313.776 323.38 314.586 323.18 315.086 322.86C315.586 322.54 315.996 322.06 316.316 321.42ZM309.986 330.36C309.306 330.36 308.656 330.58 308.036 331.02C307.416 331.44 306.906 332.16 306.506 333.18C306.106 334.2 305.906 335.62 305.906 337.44C305.906 339.22 306.096 340.66 306.476 341.76C306.876 342.84 307.386 343.62 308.006 344.1C308.626 344.58 309.276 344.82 309.956 344.82C310.736 344.82 311.366 344.57 311.846 344.07C312.346 343.55 312.726 342.9 312.986 342.12C313.246 341.32 313.426 340.48 313.526 339.6C313.626 338.7 313.676 337.87 313.676 337.11C313.676 334.67 313.326 332.94 312.626 331.92C311.946 330.88 311.066 330.36 309.986 330.36ZM326.202 329.13C327.482 329.13 328.632 329.41 329.652 329.97C330.672 330.53 331.482 331.41 332.082 332.61C332.702 333.81 333.012 335.37 333.012 337.29C333.012 339.21 332.702 340.77 332.082 341.97C331.482 343.15 330.672 344.02 329.652 344.58C328.632 345.14 327.482 345.42 326.202 345.42C324.942 345.42 323.792 345.14 322.752 344.58C321.732 344.02 320.912 343.15 320.292 341.97C319.692 340.77 319.392 339.21 319.392 337.29C319.392 335.37 319.692 333.81 320.292 332.61C320.912 331.41 321.732 330.53 322.752 329.97C323.792 329.41 324.942 329.13 326.202 329.13ZM326.202 329.73C325.062 329.73 324.122 330.32 323.382 331.5C322.662 332.68 322.302 334.61 322.302 337.29C322.302 339.97 322.662 341.9 323.382 343.08C324.122 344.24 325.062 344.82 326.202 344.82C327.342 344.82 328.272 344.24 328.992 343.08C329.732 341.9 330.102 339.97 330.102 337.29C330.102 334.61 329.732 332.68 328.992 331.5C328.272 330.32 327.342 329.73 326.202 329.73ZM350.078 329.58C349.998 330.28 349.938 330.95 349.898 331.59C349.878 332.23 349.868 332.72 349.868 333.06C349.868 333.42 349.878 333.77 349.898 334.11C349.918 334.43 349.938 334.7 349.958 334.92H349.268C349.168 333.54 348.958 332.51 348.638 331.83C348.318 331.15 347.878 330.71 347.318 330.51C346.758 330.29 346.068 330.18 345.248 330.18H344.078V341.91C344.078 342.89 344.358 343.55 344.918 343.89C345.498 344.21 346.278 344.37 347.258 344.37V345C346.798 344.98 346.158 344.96 345.338 344.94C344.538 344.9 343.668 344.88 342.728 344.88C341.808 344.88 340.938 344.9 340.118 344.94C339.298 344.96 338.658 344.98 338.198 345V344.37C339.198 344.37 339.978 344.21 340.538 343.89C341.098 343.55 341.378 342.89 341.378 341.91V330.18H339.908C339.088 330.18 338.418 330.29 337.898 330.51C337.398 330.73 337.008 331.18 336.728 331.86C336.468 332.54 336.288 333.57 336.188 334.95H335.498C335.538 334.73 335.558 334.46 335.558 334.14C335.578 333.8 335.588 333.45 335.588 333.09C335.588 332.75 335.568 332.26 335.528 331.62C335.508 330.98 335.458 330.31 335.378 329.61H338.258C338.938 329.61 339.658 329.62 340.418 329.64C341.198 329.66 341.958 329.67 342.698 329.67C343.458 329.67 344.228 329.66 345.008 329.64C345.788 329.6 346.518 329.58 347.198 329.58H350.078ZM359.099 329.58V330.21C358.279 330.21 357.689 330.36 357.329 330.66C356.989 330.96 356.819 331.53 356.819 332.37V342.21C356.819 343.01 356.909 343.57 357.089 343.89C357.289 344.21 357.629 344.37 358.109 344.37C359.189 344.37 360.009 344.19 360.569 343.83C361.149 343.47 361.549 342.99 361.769 342.39C361.989 341.79 362.099 341.15 362.099 340.47C362.099 339.09 361.709 338.09 360.929 337.47C360.169 336.83 358.899 336.51 357.119 336.51C356.779 336.51 356.429 336.51 356.069 336.51C355.709 336.51 355.359 336.51 355.019 336.51L354.959 336C355.619 336 356.269 336 356.909 336C357.569 336 358.229 336 358.889 336C361.069 336 362.619 336.41 363.539 337.23C364.459 338.03 364.919 339.05 364.919 340.29C364.919 341.03 364.709 341.76 364.289 342.48C363.889 343.2 363.209 343.8 362.249 344.28C361.309 344.76 360.039 345 358.439 345C358.019 345 357.539 344.98 356.999 344.94C356.459 344.9 355.919 344.88 355.379 344.88C354.759 344.88 354.099 344.9 353.399 344.94C352.699 344.96 352.179 344.98 351.839 345V344.37C352.659 344.37 353.239 344.22 353.579 343.92C353.939 343.62 354.119 343.05 354.119 342.21V332.37C354.119 331.53 353.969 330.96 353.669 330.66C353.369 330.36 352.859 330.21 352.139 330.21V329.58C352.459 329.6 352.929 329.63 353.549 329.67C354.189 329.69 354.839 329.7 355.499 329.7C356.159 329.7 356.839 329.69 357.539 329.67C358.239 329.63 358.759 329.6 359.099 329.58ZM372.659 329.58V330.21C371.939 330.21 371.429 330.36 371.129 330.66C370.829 330.96 370.679 331.53 370.679 332.37V342.21C370.679 343.05 370.849 343.62 371.189 343.92C371.549 344.22 372.139 344.37 372.959 344.37V345C372.619 344.98 372.089 344.96 371.369 344.94C370.649 344.9 369.959 344.88 369.299 344.88C368.699 344.88 368.079 344.9 367.439 344.94C366.799 344.96 366.319 344.98 365.999 345V344.37C366.719 344.37 367.229 344.22 367.529 343.92C367.829 343.62 367.979 343.05 367.979 342.21V332.37C367.979 331.53 367.829 330.96 367.529 330.66C367.229 330.36 366.719 330.21 365.999 330.21V329.58C366.319 329.6 366.799 329.63 367.439 329.67C368.079 329.69 368.699 329.7 369.299 329.7C369.959 329.7 370.599 329.69 371.219 329.67C371.859 329.63 372.339 329.6 372.659 329.58Z" fill="#BBB5C4"/>
<path d="M173.604 385.6C173.604 382.8 174.196 380.656 175.38 379.168C176.564 377.664 178.252 376.912 180.444 376.912C181.628 376.912 182.652 377.12 183.516 377.536C184.38 377.952 185.092 378.544 185.652 379.312C186.228 380.064 186.652 380.976 186.924 382.048C187.196 383.104 187.332 384.288 187.332 385.6C187.332 388.4 186.732 390.552 185.532 392.056C184.348 393.544 182.652 394.288 180.444 394.288C179.276 394.288 178.26 394.08 177.396 393.664C176.548 393.248 175.836 392.664 175.26 391.912C174.7 391.144 174.284 390.232 174.012 389.176C173.74 388.104 173.604 386.912 173.604 385.6ZM175.716 385.6C175.716 386.528 175.804 387.408 175.98 388.24C176.172 389.072 176.46 389.808 176.844 390.448C177.228 391.072 177.716 391.576 178.308 391.96C178.916 392.328 179.628 392.512 180.444 392.512C181.932 392.512 183.1 391.952 183.948 390.832C184.796 389.696 185.22 387.952 185.22 385.6C185.22 384.688 185.124 383.816 184.932 382.984C184.756 382.136 184.468 381.4 184.068 380.776C183.684 380.136 183.188 379.632 182.58 379.264C181.988 378.88 181.276 378.688 180.444 378.688C178.972 378.688 177.812 379.256 176.964 380.392C176.132 381.512 175.716 383.248 175.716 385.6ZM197.738 383.68H192.434V394H190.514V382H199.658V394H197.738V383.68ZM205.278 392.32C205.87 392.416 206.438 392.464 206.982 392.464C207.99 392.464 208.694 392.272 209.094 391.888C209.494 391.488 209.694 390.928 209.694 390.208C209.694 389.568 209.494 389.04 209.094 388.624C208.71 388.208 208.03 388 207.054 388C206.782 388 206.486 388.008 206.166 388.024C205.846 388.04 205.55 388.088 205.278 388.168V392.32ZM205.278 386.584C205.662 386.52 206.03 386.48 206.382 386.464C206.734 386.432 207.07 386.416 207.39 386.416C208.206 386.416 208.886 386.512 209.43 386.704C209.99 386.88 210.438 387.128 210.774 387.448C211.11 387.768 211.342 388.152 211.47 388.6C211.614 389.032 211.686 389.496 211.686 389.992C211.686 391.448 211.278 392.504 210.462 393.16C209.662 393.816 208.358 394.144 206.55 394.144C205.526 394.144 204.462 394.096 203.358 394V382H205.278V386.584ZM213.582 382H215.502V394H213.582V382ZM226.858 383.68H223.09V394H221.17V383.68H217.402V382H226.858V383.68ZM234.412 382H235.732L236.092 383.44H236.188C236.556 382.88 237.028 382.456 237.604 382.168C238.196 381.864 238.868 381.712 239.62 381.712C241.22 381.712 242.412 382.184 243.196 383.128C243.98 384.072 244.372 385.616 244.372 387.76C244.372 388.768 244.236 389.68 243.964 390.496C243.708 391.296 243.34 391.976 242.86 392.536C242.38 393.096 241.796 393.528 241.108 393.832C240.436 394.136 239.684 394.288 238.852 394.288C238.26 394.288 237.788 394.248 237.436 394.168C237.1 394.104 236.732 393.984 236.332 393.808V398.8H234.412V382ZM239.26 383.392C238.444 383.392 237.796 383.608 237.316 384.04C236.852 384.456 236.524 385.096 236.332 385.96V391.912C236.62 392.136 236.948 392.312 237.316 392.44C237.684 392.552 238.172 392.608 238.78 392.608C239.884 392.608 240.756 392.2 241.396 391.384C242.052 390.552 242.38 389.336 242.38 387.736C242.38 387.08 242.324 386.488 242.212 385.96C242.1 385.416 241.916 384.96 241.66 384.592C241.42 384.208 241.1 383.912 240.7 383.704C240.316 383.496 239.836 383.392 239.26 383.392ZM247.205 382.888C247.813 382.52 248.517 382.248 249.317 382.072C250.133 381.896 250.981 381.808 251.861 381.808C252.693 381.808 253.357 381.92 253.853 382.144C254.365 382.368 254.749 382.664 255.005 383.032C255.277 383.384 255.453 383.776 255.533 384.208C255.629 384.64 255.677 385.072 255.677 385.504C255.677 386.464 255.653 387.4 255.605 388.312C255.557 389.224 255.533 390.088 255.533 390.904C255.533 391.496 255.557 392.056 255.605 392.584C255.653 393.112 255.741 393.6 255.869 394.048H254.453L253.949 392.368H253.829C253.685 392.592 253.501 392.816 253.277 393.04C253.069 393.248 252.813 393.44 252.509 393.616C252.205 393.776 251.853 393.912 251.453 394.024C251.053 394.136 250.597 394.192 250.085 394.192C249.573 394.192 249.093 394.112 248.645 393.952C248.213 393.792 247.837 393.568 247.517 393.28C247.197 392.976 246.941 392.616 246.749 392.2C246.573 391.784 246.485 391.312 246.485 390.784C246.485 390.08 246.629 389.496 246.917 389.032C247.205 388.552 247.605 388.176 248.117 387.904C248.645 387.616 249.269 387.416 249.989 387.304C250.725 387.176 251.533 387.112 252.413 387.112C252.637 387.112 252.853 387.112 253.061 387.112C253.285 387.112 253.509 387.128 253.733 387.16C253.781 386.68 253.805 386.248 253.805 385.864C253.805 384.984 253.629 384.368 253.277 384.016C252.925 383.664 252.285 383.488 251.357 383.488C251.085 383.488 250.789 383.512 250.469 383.56C250.165 383.592 249.845 383.648 249.509 383.728C249.189 383.792 248.877 383.88 248.573 383.992C248.285 384.088 248.029 384.2 247.805 384.328L247.205 382.888ZM250.613 392.512C251.061 392.512 251.461 392.456 251.813 392.344C252.165 392.216 252.469 392.064 252.725 391.888C252.981 391.696 253.189 391.488 253.349 391.264C253.525 391.04 253.653 390.824 253.733 390.616V388.624C253.509 388.608 253.277 388.6 253.037 388.6C252.813 388.584 252.589 388.576 252.365 388.576C251.869 388.576 251.381 388.608 250.901 388.672C250.437 388.72 250.021 388.824 249.653 388.984C249.301 389.128 249.013 389.336 248.789 389.608C248.581 389.864 248.477 390.192 248.477 390.592C248.477 391.152 248.677 391.616 249.077 391.984C249.477 392.336 249.989 392.512 250.613 392.512ZM260.407 384.136C260.935 383.368 261.519 382.832 262.159 382.528C262.799 382.208 263.599 382.048 264.559 382.048C266.031 382.048 267.159 382.528 267.943 383.488C268.743 384.448 269.143 385.864 269.143 387.736C269.143 389.896 268.679 391.528 267.751 392.632C266.839 393.736 265.559 394.288 263.911 394.288C262.151 394.288 260.831 393.68 259.951 392.464C259.071 391.248 258.631 389.336 258.631 386.728C258.631 385.352 258.695 384.176 258.823 383.2C258.967 382.224 259.167 381.4 259.423 380.728C259.695 380.056 260.015 379.52 260.383 379.12C260.767 378.72 261.191 378.408 261.655 378.184C262.135 377.944 262.655 377.776 263.215 377.68C263.775 377.584 264.375 377.504 265.015 377.44C265.847 377.36 266.495 377.272 266.959 377.176C267.439 377.064 267.823 376.872 268.111 376.6L268.327 378.328C268.167 378.472 267.991 378.592 267.799 378.688C267.607 378.784 267.375 378.864 267.103 378.928C266.831 378.992 266.503 379.048 266.119 379.096C265.751 379.144 265.319 379.184 264.823 379.216C264.135 379.264 263.527 379.352 262.999 379.48C262.487 379.592 262.039 379.824 261.655 380.176C261.287 380.512 260.991 381 260.767 381.64C260.559 382.264 260.415 383.096 260.335 384.136H260.407ZM260.623 388.024C260.623 388.632 260.687 389.216 260.815 389.776C260.943 390.336 261.135 390.832 261.391 391.264C261.663 391.68 262.007 392.008 262.423 392.248C262.839 392.488 263.327 392.608 263.887 392.608C264.991 392.608 265.807 392.216 266.335 391.432C266.879 390.632 267.151 389.456 267.151 387.904C267.151 387.296 267.095 386.736 266.983 386.224C266.871 385.712 266.695 385.272 266.455 384.904C266.215 384.52 265.911 384.232 265.543 384.04C265.175 383.832 264.735 383.728 264.223 383.728C262.975 383.712 262.063 384.08 261.487 384.832C260.911 385.568 260.623 386.632 260.623 388.024ZM271.498 388C271.498 385.968 271.946 384.416 272.842 383.344C273.754 382.256 275.058 381.712 276.754 381.712C277.65 381.712 278.426 381.864 279.082 382.168C279.754 382.456 280.306 382.88 280.738 383.44C281.17 383.984 281.49 384.648 281.698 385.432C281.906 386.2 282.01 387.056 282.01 388C282.01 390.032 281.554 391.592 280.642 392.68C279.746 393.752 278.45 394.288 276.754 394.288C275.858 394.288 275.074 394.144 274.402 393.856C273.746 393.552 273.202 393.128 272.77 392.584C272.338 392.024 272.018 391.36 271.81 390.592C271.602 389.808 271.498 388.944 271.498 388ZM273.49 388C273.49 388.608 273.546 389.192 273.658 389.752C273.786 390.312 273.978 390.8 274.234 391.216C274.49 391.632 274.826 391.968 275.242 392.224C275.658 392.48 276.162 392.608 276.754 392.608C278.93 392.624 280.018 391.088 280.018 388C280.018 387.376 279.954 386.784 279.826 386.224C279.714 385.664 279.53 385.176 279.274 384.76C279.018 384.344 278.682 384.016 278.266 383.776C277.85 383.52 277.346 383.392 276.754 383.392C274.578 383.376 273.49 384.912 273.49 388ZM292.318 383.68H288.55V394H286.63V383.68H282.862V382H292.318V383.68ZM296.145 392.32C296.737 392.416 297.305 392.464 297.849 392.464C298.857 392.464 299.561 392.272 299.961 391.888C300.361 391.488 300.561 390.928 300.561 390.208C300.561 389.568 300.361 389.04 299.961 388.624C299.577 388.208 298.897 388 297.921 388C297.649 388 297.353 388.008 297.033 388.024C296.713 388.04 296.417 388.088 296.145 388.168V392.32ZM296.145 386.584C296.529 386.52 296.897 386.48 297.249 386.464C297.601 386.432 297.937 386.416 298.257 386.416C299.073 386.416 299.753 386.512 300.297 386.704C300.857 386.88 301.305 387.128 301.641 387.448C301.977 387.768 302.209 388.152 302.337 388.6C302.481 389.032 302.553 389.496 302.553 389.992C302.553 391.448 302.145 392.504 301.329 393.16C300.529 393.816 299.225 394.144 297.417 394.144C296.393 394.144 295.329 394.096 294.225 394V382H296.145V386.584ZM304.449 382H306.369V394H304.449V382ZM174.108 413.024C174.668 412.992 175.252 412.952 175.86 412.904C176.484 412.856 177.252 412.832 178.164 412.832C179.748 412.832 180.884 413.08 181.572 413.576C182.26 414.056 182.604 414.792 182.604 415.784C182.604 416.344 182.436 416.896 182.1 417.44C181.78 417.968 181.244 418.36 180.492 418.616V418.712C181.436 418.888 182.1 419.216 182.484 419.696C182.868 420.176 183.06 420.816 183.06 421.616C183.06 422.864 182.612 423.768 181.716 424.328C180.82 424.888 179.476 425.168 177.684 425.168C177.012 425.168 176.388 425.144 175.812 425.096C175.236 425.064 174.668 425.024 174.108 424.976V413.024ZM176.028 423.392C176.332 423.424 176.628 423.448 176.916 423.464C177.22 423.48 177.572 423.488 177.972 423.488C179.044 423.488 179.836 423.336 180.348 423.032C180.876 422.728 181.14 422.208 181.14 421.472C181.14 420.896 180.916 420.432 180.468 420.08C180.036 419.712 179.26 419.528 178.14 419.528H176.028V423.392ZM178.38 418.064C178.668 418.064 178.948 418.016 179.22 417.92C179.492 417.824 179.732 417.696 179.94 417.536C180.164 417.36 180.34 417.16 180.468 416.936C180.612 416.712 180.684 416.472 180.684 416.216C180.684 415.576 180.492 415.136 180.108 414.896C179.724 414.64 179.052 414.512 178.092 414.512C177.58 414.512 177.172 414.52 176.868 414.536C176.58 414.552 176.3 414.568 176.028 414.584V418.064H178.38ZM199.491 414.68H194.403V425H192.483V413H199.491V414.68ZM200.295 419C200.295 416.968 200.743 415.416 201.639 414.344C202.551 413.256 203.855 412.712 205.551 412.712C206.447 412.712 207.223 412.864 207.879 413.168C208.551 413.456 209.103 413.88 209.535 414.44C209.967 414.984 210.287 415.648 210.495 416.432C210.703 417.2 210.807 418.056 210.807 419C210.807 421.032 210.351 422.592 209.439 423.68C208.543 424.752 207.247 425.288 205.551 425.288C204.655 425.288 203.871 425.144 203.199 424.856C202.543 424.552 201.999 424.128 201.567 423.584C201.135 423.024 200.815 422.36 200.607 421.592C200.399 420.808 200.295 419.944 200.295 419ZM202.287 419C202.287 419.608 202.343 420.192 202.455 420.752C202.583 421.312 202.775 421.8 203.031 422.216C203.287 422.632 203.623 422.968 204.039 423.224C204.455 423.48 204.959 423.608 205.551 423.608C207.727 423.624 208.815 422.088 208.815 419C208.815 418.376 208.751 417.784 208.623 417.224C208.511 416.664 208.327 416.176 208.071 415.76C207.815 415.344 207.479 415.016 207.063 414.776C206.647 414.52 206.143 414.392 205.551 414.392C203.375 414.376 202.287 415.912 202.287 419ZM222.018 424.208C221.538 424.56 220.97 424.824 220.314 425C219.658 425.192 218.97 425.288 218.25 425.288C217.322 425.288 216.538 425.144 215.898 424.856C215.258 424.552 214.73 424.128 214.314 423.584C213.914 423.024 213.618 422.36 213.426 421.592C213.25 420.808 213.162 419.944 213.162 419C213.162 416.968 213.61 415.416 214.506 414.344C215.402 413.256 216.69 412.712 218.37 412.712C219.138 412.712 219.786 412.776 220.314 412.904C220.858 413.016 221.346 413.184 221.778 413.408L221.226 415.064C220.858 414.856 220.45 414.696 220.002 414.584C219.554 414.456 219.074 414.392 218.562 414.392C216.29 414.392 215.154 415.928 215.154 419C215.154 419.608 215.21 420.192 215.322 420.752C215.45 421.296 215.65 421.784 215.922 422.216C216.21 422.632 216.578 422.968 217.026 423.224C217.49 423.48 218.058 423.608 218.73 423.608C219.306 423.608 219.818 423.52 220.266 423.344C220.73 423.168 221.106 422.968 221.394 422.744L222.018 424.208ZM227.862 420.776L228.534 423.08H228.654L229.182 420.752L231.51 413H233.454L229.902 423.776C229.63 424.56 229.358 425.32 229.086 426.056C228.83 426.792 228.542 427.448 228.222 428.024C227.902 428.6 227.542 429.056 227.142 429.392C226.742 429.744 226.278 429.92 225.75 429.92C225.174 429.92 224.702 429.84 224.334 429.68L224.67 428.024C224.878 428.104 225.078 428.144 225.27 428.144C225.718 428.144 226.15 427.904 226.566 427.424C226.982 426.96 227.326 426.152 227.598 425L222.774 413H224.982L227.862 420.776ZM245.794 428.048H244.498L244.138 425H235.114L234.754 428.048H233.458V423.32H234.874C235.002 423.144 235.17 422.832 235.378 422.384C235.586 421.92 235.786 421.28 235.978 420.464C236.186 419.632 236.362 418.608 236.506 417.392C236.666 416.16 236.762 414.696 236.794 413H244.042V423.32H245.794V428.048ZM242.122 423.32V414.68H238.522C238.49 415.352 238.434 416.088 238.354 416.888C238.274 417.672 238.162 418.464 238.018 419.264C237.89 420.048 237.722 420.792 237.514 421.496C237.306 422.2 237.066 422.808 236.794 423.32H242.122ZM247.978 413.888C248.586 413.52 249.29 413.248 250.09 413.072C250.906 412.896 251.754 412.808 252.634 412.808C253.466 412.808 254.13 412.92 254.626 413.144C255.138 413.368 255.522 413.664 255.778 414.032C256.05 414.384 256.226 414.776 256.306 415.208C256.402 415.64 256.45 416.072 256.45 416.504C256.45 417.464 256.426 418.4 256.378 419.312C256.33 420.224 256.306 421.088 256.306 421.904C256.306 422.496 256.33 423.056 256.378 423.584C256.426 424.112 256.514 424.6 256.642 425.048H255.226L254.722 423.368H254.602C254.458 423.592 254.274 423.816 254.05 424.04C253.842 424.248 253.586 424.44 253.282 424.616C252.978 424.776 252.626 424.912 252.226 425.024C251.826 425.136 251.37 425.192 250.858 425.192C250.346 425.192 249.866 425.112 249.418 424.952C248.986 424.792 248.61 424.568 248.29 424.28C247.97 423.976 247.714 423.616 247.522 423.2C247.346 422.784 247.258 422.312 247.258 421.784C247.258 421.08 247.402 420.496 247.69 420.032C247.978 419.552 248.378 419.176 248.89 418.904C249.418 418.616 250.042 418.416 250.762 418.304C251.498 418.176 252.306 418.112 253.186 418.112C253.41 418.112 253.626 418.112 253.834 418.112C254.058 418.112 254.282 418.128 254.506 418.16C254.554 417.68 254.578 417.248 254.578 416.864C254.578 415.984 254.402 415.368 254.05 415.016C253.698 414.664 253.058 414.488 252.13 414.488C251.858 414.488 251.562 414.512 251.242 414.56C250.938 414.592 250.618 414.648 250.282 414.728C249.962 414.792 249.65 414.88 249.346 414.992C249.058 415.088 248.802 415.2 248.578 415.328L247.978 413.888ZM251.386 423.512C251.834 423.512 252.234 423.456 252.586 423.344C252.938 423.216 253.242 423.064 253.498 422.888C253.754 422.696 253.962 422.488 254.122 422.264C254.298 422.04 254.426 421.824 254.506 421.616V419.624C254.282 419.608 254.05 419.6 253.81 419.6C253.586 419.584 253.362 419.576 253.138 419.576C252.642 419.576 252.154 419.608 251.674 419.672C251.21 419.72 250.794 419.824 250.426 419.984C250.074 420.128 249.786 420.336 249.562 420.608C249.354 420.864 249.25 421.192 249.25 421.592C249.25 422.152 249.45 422.616 249.85 422.984C250.25 423.336 250.762 423.512 251.386 423.512ZM260.077 413H261.397L261.757 414.44H261.853C262.221 413.88 262.693 413.456 263.269 413.168C263.861 412.864 264.533 412.712 265.285 412.712C266.885 412.712 268.077 413.184 268.861 414.128C269.645 415.072 270.037 416.616 270.037 418.76C270.037 419.768 269.901 420.68 269.629 421.496C269.373 422.296 269.005 422.976 268.525 423.536C268.045 424.096 267.461 424.528 266.773 424.832C266.101 425.136 265.349 425.288 264.517 425.288C263.925 425.288 263.453 425.248 263.101 425.168C262.765 425.104 262.397 424.984 261.997 424.808V429.8H260.077V413ZM264.925 414.392C264.109 414.392 263.461 414.608 262.981 415.04C262.517 415.456 262.189 416.096 261.997 416.96V422.912C262.285 423.136 262.613 423.312 262.981 423.44C263.349 423.552 263.837 423.608 264.445 423.608C265.549 423.608 266.421 423.2 267.061 422.384C267.717 421.552 268.045 420.336 268.045 418.736C268.045 418.08 267.989 417.488 267.877 416.96C267.765 416.416 267.581 415.96 267.325 415.592C267.085 415.208 266.765 414.912 266.365 414.704C265.981 414.496 265.501 414.392 264.925 414.392ZM281.245 424.208C280.765 424.56 280.197 424.824 279.541 425C278.885 425.192 278.197 425.288 277.477 425.288C276.549 425.288 275.765 425.144 275.125 424.856C274.485 424.552 273.957 424.128 273.541 423.584C273.141 423.024 272.845 422.36 272.653 421.592C272.477 420.808 272.389 419.944 272.389 419C272.389 416.968 272.837 415.416 273.733 414.344C274.629 413.256 275.917 412.712 277.597 412.712C278.365 412.712 279.013 412.776 279.541 412.904C280.085 413.016 280.573 413.184 281.005 413.408L280.453 415.064C280.085 414.856 279.677 414.696 279.229 414.584C278.781 414.456 278.301 414.392 277.789 414.392C275.517 414.392 274.381 415.928 274.381 419C274.381 419.608 274.437 420.192 274.549 420.752C274.677 421.296 274.877 421.784 275.149 422.216C275.437 422.632 275.805 422.968 276.253 423.224C276.717 423.48 277.285 423.608 277.957 423.608C278.533 423.608 279.045 423.52 279.493 423.344C279.957 423.168 280.333 422.968 280.621 422.744L281.245 424.208ZM291.17 414.68H287.402V425H285.482V414.68H281.714V413H291.17V414.68ZM293.077 413.024C293.637 412.992 294.221 412.952 294.829 412.904C295.453 412.856 296.221 412.832 297.133 412.832C298.717 412.832 299.853 413.08 300.541 413.576C301.229 414.056 301.573 414.792 301.573 415.784C301.573 416.344 301.405 416.896 301.069 417.44C300.749 417.968 300.213 418.36 299.461 418.616V418.712C300.405 418.888 301.069 419.216 301.453 419.696C301.837 420.176 302.029 420.816 302.029 421.616C302.029 422.864 301.581 423.768 300.685 424.328C299.789 424.888 298.445 425.168 296.653 425.168C295.981 425.168 295.357 425.144 294.781 425.096C294.205 425.064 293.637 425.024 293.077 424.976V413.024ZM294.997 423.392C295.301 423.424 295.597 423.448 295.885 423.464C296.189 423.48 296.541 423.488 296.941 423.488C298.013 423.488 298.805 423.336 299.317 423.032C299.845 422.728 300.109 422.208 300.109 421.472C300.109 420.896 299.885 420.432 299.437 420.08C299.005 419.712 298.229 419.528 297.109 419.528H294.997V423.392ZM297.349 418.064C297.637 418.064 297.917 418.016 298.189 417.92C298.461 417.824 298.701 417.696 298.909 417.536C299.133 417.36 299.309 417.16 299.437 416.936C299.581 416.712 299.653 416.472 299.653 416.216C299.653 415.576 299.461 415.136 299.077 414.896C298.693 414.64 298.021 414.512 297.061 414.512C296.549 414.512 296.141 414.52 295.837 414.536C295.549 414.552 295.269 414.568 294.997 414.584V418.064H297.349ZM313.813 424.04C313.333 424.424 312.725 424.728 311.989 424.952C311.269 425.176 310.501 425.288 309.685 425.288C308.773 425.288 307.981 425.144 307.309 424.856C306.637 424.552 306.085 424.128 305.653 423.584C305.221 423.024 304.901 422.36 304.693 421.592C304.485 420.824 304.381 419.96 304.381 419C304.381 416.952 304.837 415.392 305.749 414.32C306.661 413.248 307.965 412.712 309.661 412.712C310.205 412.712 310.749 412.776 311.293 412.904C311.837 413.016 312.325 413.24 312.757 413.576C313.189 413.912 313.541 414.392 313.813 415.016C314.085 415.624 314.221 416.432 314.221 417.44C314.221 417.968 314.173 418.552 314.077 419.192H306.373C306.373 419.896 306.445 420.52 306.589 421.064C306.733 421.608 306.957 422.072 307.261 422.456C307.565 422.824 307.957 423.112 308.437 423.32C308.933 423.512 309.533 423.608 310.237 423.608C310.781 423.608 311.325 423.512 311.869 423.32C312.413 423.128 312.821 422.904 313.093 422.648L313.813 424.04ZM309.685 414.392C308.741 414.392 307.981 414.64 307.405 415.136C306.845 415.632 306.509 416.48 306.397 417.68H312.349C312.349 416.464 312.117 415.616 311.653 415.136C311.189 414.64 310.533 414.392 309.685 414.392ZM324.585 419.696H319.161V425H317.241V413H319.161V418.016H324.585V413H326.505V425H324.585V419.696ZM337.546 419.696H332.122V425H330.202V413H332.122V418.016H337.546V413H339.466V425H337.546V419.696ZM345.082 423.32C345.674 423.416 346.242 423.464 346.786 423.464C347.794 423.464 348.498 423.272 348.898 422.888C349.298 422.488 349.498 421.928 349.498 421.208C349.498 420.568 349.298 420.04 348.898 419.624C348.514 419.208 347.834 419 346.858 419C346.586 419 346.29 419.008 345.97 419.024C345.65 419.04 345.354 419.088 345.082 419.168V423.32ZM345.082 417.584C345.466 417.52 345.834 417.48 346.186 417.464C346.538 417.432 346.874 417.416 347.194 417.416C348.01 417.416 348.69 417.512 349.234 417.704C349.794 417.88 350.242 418.128 350.578 418.448C350.914 418.768 351.146 419.152 351.274 419.6C351.418 420.032 351.49 420.496 351.49 420.992C351.49 422.448 351.082 423.504 350.266 424.16C349.466 424.816 348.162 425.144 346.354 425.144C345.33 425.144 344.266 425.096 343.162 425V413H345.082V417.584ZM353.386 413H355.306V425H353.386V413ZM362.15 418.856L358.118 413H360.47L362.75 416.312L363.422 417.68L364.118 416.312L366.446 413H368.606L364.55 418.76L368.846 425H366.566L364.022 421.352L363.302 419.912L362.558 421.352L359.966 425H357.83L362.15 418.856ZM181.596 448.896L181.668 447.408H181.596L180.612 448.944L175.212 456H174.108V444H176.028V451.32L175.956 452.736H176.052L176.988 451.248L182.388 444H183.516V456H181.596V448.896ZM194.856 444V447.264C194.856 447.696 194.88 448.088 194.928 448.44C194.976 448.776 195.072 449.072 195.216 449.328C195.36 449.568 195.568 449.76 195.84 449.904C196.112 450.032 196.472 450.096 196.92 450.096C197.64 450.096 198.232 450.016 198.696 449.856C199.16 449.696 199.512 449.52 199.752 449.328V444H201.672V456H199.752V450.96C199.496 451.12 199.112 451.296 198.6 451.488C198.104 451.68 197.416 451.776 196.536 451.776C195.944 451.776 195.424 451.712 194.976 451.584C194.528 451.456 194.152 451.232 193.848 450.912C193.544 450.592 193.312 450.168 193.152 449.64C193.008 449.112 192.936 448.448 192.936 447.648V444H194.856ZM205.181 444.888C205.789 444.52 206.493 444.248 207.293 444.072C208.109 443.896 208.957 443.808 209.837 443.808C210.669 443.808 211.333 443.92 211.829 444.144C212.341 444.368 212.725 444.664 212.981 445.032C213.253 445.384 213.429 445.776 213.509 446.208C213.605 446.64 213.653 447.072 213.653 447.504C213.653 448.464 213.629 449.4 213.581 450.312C213.533 451.224 213.509 452.088 213.509 452.904C213.509 453.496 213.533 454.056 213.581 454.584C213.629 455.112 213.717 455.6 213.845 456.048H212.429L211.925 454.368H211.805C211.661 454.592 211.477 454.816 211.253 455.04C211.045 455.248 210.789 455.44 210.485 455.616C210.181 455.776 209.829 455.912 209.429 456.024C209.029 456.136 208.573 456.192 208.061 456.192C207.549 456.192 207.069 456.112 206.621 455.952C206.189 455.792 205.813 455.568 205.493 455.28C205.173 454.976 204.917 454.616 204.725 454.2C204.549 453.784 204.461 453.312 204.461 452.784C204.461 452.08 204.605 451.496 204.893 451.032C205.181 450.552 205.581 450.176 206.093 449.904C206.621 449.616 207.245 449.416 207.965 449.304C208.701 449.176 209.509 449.112 210.389 449.112C210.613 449.112 210.829 449.112 211.037 449.112C211.261 449.112 211.485 449.128 211.709 449.16C211.757 448.68 211.781 448.248 211.781 447.864C211.781 446.984 211.605 446.368 211.253 446.016C210.901 445.664 210.261 445.488 209.333 445.488C209.061 445.488 208.765 445.512 208.445 445.56C208.141 445.592 207.821 445.648 207.485 445.728C207.165 445.792 206.853 445.88 206.549 445.992C206.261 446.088 206.005 446.2 205.781 446.328L205.181 444.888ZM208.589 454.512C209.037 454.512 209.437 454.456 209.789 454.344C210.141 454.216 210.445 454.064 210.701 453.888C210.957 453.696 211.165 453.488 211.325 453.264C211.501 453.04 211.629 452.824 211.709 452.616V450.624C211.485 450.608 211.253 450.6 211.013 450.6C210.789 450.584 210.565 450.576 210.341 450.576C209.845 450.576 209.357 450.608 208.877 450.672C208.413 450.72 207.997 450.824 207.629 450.984C207.277 451.128 206.989 451.336 206.765 451.608C206.557 451.864 206.453 452.192 206.453 452.592C206.453 453.152 206.653 453.616 207.053 453.984C207.453 454.336 207.965 454.512 208.589 454.512ZM225.464 455.208C224.984 455.56 224.416 455.824 223.76 456C223.104 456.192 222.416 456.288 221.696 456.288C220.768 456.288 219.984 456.144 219.344 455.856C218.704 455.552 218.176 455.128 217.76 454.584C217.36 454.024 217.064 453.36 216.872 452.592C216.696 451.808 216.608 450.944 216.608 450C216.608 447.968 217.056 446.416 217.952 445.344C218.848 444.256 220.136 443.712 221.816 443.712C222.584 443.712 223.232 443.776 223.76 443.904C224.304 444.016 224.792 444.184 225.224 444.408L224.672 446.064C224.304 445.856 223.896 445.696 223.448 445.584C223 445.456 222.52 445.392 222.008 445.392C219.736 445.392 218.6 446.928 218.6 450C218.6 450.608 218.656 451.192 218.768 451.752C218.896 452.296 219.096 452.784 219.368 453.216C219.656 453.632 220.024 453.968 220.472 454.224C220.936 454.48 221.504 454.608 222.176 454.608C222.752 454.608 223.264 454.52 223.712 454.344C224.176 454.168 224.552 453.968 224.84 453.744L225.464 455.208ZM235.389 445.68H231.621V456H229.701V445.68H225.933V444H235.389V445.68ZM244.639 450.696H239.215V456H237.295V444H239.215V449.016H244.639V444H246.559V456H244.639V450.696ZM252.176 454.32C252.768 454.416 253.336 454.464 253.88 454.464C254.888 454.464 255.592 454.272 255.992 453.888C256.392 453.488 256.592 452.928 256.592 452.208C256.592 451.568 256.392 451.04 255.992 450.624C255.608 450.208 254.928 450 253.952 450C253.68 450 253.384 450.008 253.064 450.024C252.744 450.04 252.448 450.088 252.176 450.168V454.32ZM252.176 448.584C252.56 448.52 252.928 448.48 253.28 448.464C253.632 448.432 253.968 448.416 254.288 448.416C255.104 448.416 255.784 448.512 256.328 448.704C256.888 448.88 257.336 449.128 257.672 449.448C258.008 449.768 258.24 450.152 258.368 450.6C258.512 451.032 258.584 451.496 258.584 451.992C258.584 453.448 258.176 454.504 257.36 455.16C256.56 455.816 255.256 456.144 253.448 456.144C252.424 456.144 251.36 456.096 250.256 456V444H252.176V448.584ZM260.48 444H262.4V456H260.48V444ZM269.244 449.856L265.212 444H267.564L269.844 447.312L270.516 448.68L271.212 447.312L273.54 444H275.7L271.644 449.76L275.94 456H273.66L271.116 452.352L270.396 450.912L269.652 452.352L267.06 456H264.924L269.244 449.856ZM291.418 445.68H286.114V456H284.194V444H293.338V456H291.418V445.68ZM297.037 444H298.357L298.717 445.44H298.813C299.181 444.88 299.653 444.456 300.229 444.168C300.821 443.864 301.493 443.712 302.245 443.712C303.845 443.712 305.037 444.184 305.821 445.128C306.605 446.072 306.997 447.616 306.997 449.76C306.997 450.768 306.861 451.68 306.589 452.496C306.333 453.296 305.965 453.976 305.485 454.536C305.005 455.096 304.421 455.528 303.733 455.832C303.061 456.136 302.309 456.288 301.477 456.288C300.885 456.288 300.413 456.248 300.061 456.168C299.725 456.104 299.357 455.984 298.957 455.808V460.8H297.037V444ZM301.885 445.392C301.069 445.392 300.421 445.608 299.941 446.04C299.477 446.456 299.149 447.096 298.957 447.96V453.912C299.245 454.136 299.573 454.312 299.941 454.44C300.309 454.552 300.797 454.608 301.405 454.608C302.509 454.608 303.381 454.2 304.021 453.384C304.677 452.552 305.005 451.336 305.005 449.736C305.005 449.08 304.949 448.488 304.837 447.96C304.725 447.416 304.541 446.96 304.285 446.592C304.045 446.208 303.725 445.912 303.325 445.704C302.941 445.496 302.461 445.392 301.885 445.392ZM318.782 455.04C318.302 455.424 317.694 455.728 316.958 455.952C316.238 456.176 315.47 456.288 314.654 456.288C313.742 456.288 312.95 456.144 312.278 455.856C311.606 455.552 311.054 455.128 310.622 454.584C310.19 454.024 309.87 453.36 309.662 452.592C309.454 451.824 309.35 450.96 309.35 450C309.35 447.952 309.806 446.392 310.718 445.32C311.63 444.248 312.934 443.712 314.63 443.712C315.174 443.712 315.718 443.776 316.262 443.904C316.806 444.016 317.294 444.24 317.726 444.576C318.158 444.912 318.51 445.392 318.782 446.016C319.054 446.624 319.19 447.432 319.19 448.44C319.19 448.968 319.142 449.552 319.046 450.192H311.342C311.342 450.896 311.414 451.52 311.558 452.064C311.702 452.608 311.926 453.072 312.23 453.456C312.534 453.824 312.926 454.112 313.406 454.32C313.902 454.512 314.502 454.608 315.206 454.608C315.75 454.608 316.294 454.512 316.838 454.32C317.382 454.128 317.79 453.904 318.062 453.648L318.782 455.04ZM314.654 445.392C313.71 445.392 312.95 445.64 312.374 446.136C311.814 446.632 311.478 447.48 311.366 448.68H317.318C317.318 447.464 317.086 446.616 316.622 446.136C316.158 445.64 315.502 445.392 314.654 445.392ZM332.278 459.048H330.982L330.622 456H321.598L321.238 459.048H319.942V454.32H321.358C321.486 454.144 321.654 453.832 321.862 453.384C322.07 452.92 322.27 452.28 322.462 451.464C322.67 450.632 322.846 449.608 322.99 448.392C323.15 447.16 323.246 445.696 323.278 444H330.526V454.32H332.278V459.048ZM328.606 454.32V445.68H325.006C324.974 446.352 324.918 447.088 324.838 447.888C324.758 448.672 324.646 449.464 324.502 450.264C324.374 451.048 324.206 451.792 323.998 452.496C323.79 453.2 323.55 453.808 323.278 454.32H328.606ZM341.879 445.68H336.575V456H334.655V444H343.799V456H341.879V445.68ZM347.498 444H348.818L349.178 445.44H349.274C349.642 444.88 350.114 444.456 350.69 444.168C351.282 443.864 351.954 443.712 352.706 443.712C354.306 443.712 355.498 444.184 356.282 445.128C357.066 446.072 357.458 447.616 357.458 449.76C357.458 450.768 357.322 451.68 357.05 452.496C356.794 453.296 356.426 453.976 355.946 454.536C355.466 455.096 354.882 455.528 354.194 455.832C353.522 456.136 352.77 456.288 351.938 456.288C351.346 456.288 350.874 456.248 350.522 456.168C350.186 456.104 349.818 455.984 349.418 455.808V460.8H347.498V444ZM352.346 445.392C351.53 445.392 350.882 445.608 350.402 446.04C349.938 446.456 349.61 447.096 349.418 447.96V453.912C349.706 454.136 350.034 454.312 350.402 454.44C350.77 454.552 351.258 454.608 351.866 454.608C352.97 454.608 353.842 454.2 354.482 453.384C355.138 452.552 355.466 451.336 355.466 449.736C355.466 449.08 355.41 448.488 355.298 447.96C355.186 447.416 355.002 446.96 354.746 446.592C354.506 446.208 354.186 445.912 353.786 445.704C353.402 445.496 352.922 445.392 352.346 445.392ZM367.971 448.896L368.043 447.408H367.971L366.987 448.944L361.587 456H360.483V444H362.403V451.32L362.331 452.736H362.427L363.363 451.248L368.763 444H369.891V456H367.971V448.896ZM379.56 451.032L377.712 451.32L374.544 456H372.216L375.096 451.896L376.056 451.008C375.224 450.88 374.512 450.544 373.92 450C373.344 449.456 373.056 448.72 373.056 447.792C373.056 447.072 373.176 446.456 373.416 445.944C373.672 445.432 374.032 445.008 374.496 444.672C374.96 444.336 375.512 444.096 376.152 443.952C376.792 443.792 377.512 443.712 378.312 443.712C378.904 443.712 379.456 443.752 379.968 443.832C380.48 443.912 380.984 444 381.48 444.096V456H379.56V451.032ZM379.56 445.632C379.352 445.552 379.12 445.496 378.864 445.464C378.608 445.416 378.384 445.392 378.192 445.392C377.168 445.392 376.384 445.576 375.84 445.944C375.312 446.312 375.048 446.896 375.048 447.696C375.048 448.416 375.328 448.976 375.888 449.376C376.464 449.76 377.216 449.952 378.144 449.952C378.16 449.952 378.184 449.952 378.216 449.952C378.248 449.952 378.312 449.952 378.408 449.952C378.504 449.952 378.64 449.952 378.816 449.952C378.992 449.936 379.24 449.92 379.56 449.904V445.632ZM392.631 445.68H388.863V456H386.943V445.68H383.175V444H392.631V445.68ZM402.025 448.896L402.097 447.408H402.025L401.041 448.944L395.641 456H394.537V444H396.457V451.32L396.385 452.736H396.481L397.417 451.248L402.817 444H403.945V456H402.025V448.896ZM413.615 451.032L411.767 451.32L408.599 456H406.271L409.151 451.896L410.111 451.008C409.279 450.88 408.567 450.544 407.975 450C407.399 449.456 407.111 448.72 407.111 447.792C407.111 447.072 407.231 446.456 407.471 445.944C407.727 445.432 408.087 445.008 408.551 444.672C409.015 444.336 409.567 444.096 410.207 443.952C410.847 443.792 411.567 443.712 412.367 443.712C412.959 443.712 413.511 443.752 414.023 443.832C414.535 443.912 415.039 444 415.535 444.096V456H413.615V451.032ZM413.615 445.632C413.407 445.552 413.175 445.496 412.919 445.464C412.663 445.416 412.439 445.392 412.247 445.392C411.223 445.392 410.439 445.576 409.895 445.944C409.367 446.312 409.103 446.896 409.103 447.696C409.103 448.416 409.383 448.976 409.943 449.376C410.519 449.76 411.271 449.952 412.199 449.952C412.215 449.952 412.239 449.952 412.271 449.952C412.303 449.952 412.367 449.952 412.463 449.952C412.559 449.952 412.695 449.952 412.871 449.952C413.047 449.936 413.295 449.92 413.615 449.904V445.632ZM422.174 449.856L418.142 444H420.494L422.774 447.312L423.446 448.68L424.142 447.312L426.47 444H428.63L424.574 449.76L428.87 456H426.59L424.046 452.352L423.326 450.912L422.582 452.352L419.99 456H417.854L422.174 449.856Z" fill="#BBB5C4"/>
<ellipse cx="143.114" cy="531" rx="9.00715" ry="9" fill="#D4B0B0"/>
<path d="M169.537 189.305C166.971 189.305 163.678 188.482 159.562 186.063L145.083 177.498C143.582 176.627 140.676 176.627 139.224 177.498L124.696 186.063C116.125 191.143 111.089 189.111 108.813 187.466C106.586 185.821 103.099 181.611 105.375 171.934L108.813 157.079C109.201 155.531 108.426 152.87 107.264 151.708L95.2542 139.709C89.2496 133.709 89.7338 128.58 90.5571 126.064C91.3803 123.548 93.9952 119.096 102.324 117.693L117.772 115.128C119.224 114.887 121.307 113.338 121.936 112.032L130.507 94.9514C134.381 87.1613 139.466 86 142.129 86C144.792 86 149.877 87.1613 153.751 94.9514L162.274 111.983C162.952 113.29 165.034 114.838 166.487 115.08L181.934 117.645C190.312 119.048 192.926 123.499 193.701 126.015C194.476 128.532 194.96 133.66 189.004 139.66L176.995 151.708C175.833 152.87 175.106 155.483 175.445 157.079L178.883 171.934C181.111 181.611 177.673 185.821 175.445 187.466C174.235 188.337 172.298 189.305 169.537 189.305ZM142.008 174.405C144.381 174.405 145.09 174.782 146.979 175.895L161.138 184.338C169.091 189.801 173.045 186.057 174.062 185.331C175.078 184.605 178.109 178.65 177.044 173.908L173.577 158.512C172.657 154.496 172.54 152.524 175.445 149.572L187.494 137.652C189.867 135.281 192.21 131.196 191.471 127.719C190.719 122.753 187.24 120.766 182.269 119.773L166.363 117.289C162.635 116.66 162.387 116.296 160.399 113.316L151.452 96.4298C147.973 89.9733 143.703 88.4833 142.008 88.4833C138.529 88.9799 135.049 89.9733 132.564 96.4298L123.617 113.316C121.132 115.799 121.629 115.303 118.392 116.793L102.486 119.773C99.1934 120.305 95.5276 121.263 92.5453 126.726C91.5512 132.189 94.6459 135.33 97.0187 137.652L108.948 149.572C111.853 152.475 112.111 153.502 111.191 157.519L108.209 172.418C105.723 179.371 109.522 185.337 110.538 186.063C115.167 188.808 118.859 186.806 123.12 184.338L137.037 175.895C138.878 174.782 139.635 174.405 142.008 174.405Z" fill="#D4B0B0"/>
</svg>
