<svg width="482" height="542" viewBox="0 0 482 542" fill="none" xmlns="http://www.w3.org/2000/svg">
<line x1="143.921" y1="277.057" x2="143.921" y2="541.001" stroke="#FFFACB"/>
<path d="M285.701 142.562C285.701 64.3793 222.037 1 143.504 1C64.9715 1 1.30811 64.3793 1.30811 142.562C1.30811 220.744 64.9715 284.123 143.504 284.123" stroke="#FFFACB"/>
<path d="M264.017 142.56C264.017 208.862 210.026 262.615 143.421 262.615C76.8153 262.615 22.8247 208.862 22.8247 142.56C22.8247 76.2568 76.8153 22.5039 143.421 22.5039C210.026 22.5039 264.017 76.2568 264.017 142.56Z" fill="#FFFACB" stroke="#FFFACB"/>
<path d="M234.327 143.341C234.327 193.503 193.48 234.171 143.087 234.171C92.6951 234.171 51.8479 193.503 51.8479 143.341C51.8479 93.1789 92.6951 52.5107 143.087 52.5107C193.48 52.5107 234.327 93.1789 234.327 143.341Z" fill="#203B5B" stroke="#FFFACB"/>
<path d="M294.875 145.66C294.875 150.704 290.767 154.793 285.701 154.793C280.634 154.793 276.527 150.704 276.527 145.66C276.527 140.616 280.634 136.527 285.701 136.527C290.767 136.527 294.875 140.616 294.875 145.66Z" fill="#FFFACB"/>
<ellipse cx="143.588" cy="284.189" rx="9.17395" ry="9.13301" fill="#FFFACB"/>
<ellipse cx="144.422" cy="532.108" rx="9.00715" ry="9.00183" fill="#FFFACB"/>
<path d="M172.842 186H116.984C97.8849 184.5 92.8717 180 90.8701 159.676V120.324C93.2441 100 96.8749 96.4324 116.984 94H172.842C194.452 96 197.455 100.5 198.956 120.324L198.956 140V159.676C196.582 180.5 193.952 184 172.842 186ZM116.984 96.4324C101.008 96.4324 93.3721 105 93.2441 120.324V159.676C93.2441 175.754 101.008 183.568 116.984 183.568H172.842C188.818 183.568 196.582 175.754 196.582 159.676V120.324C196.582 104.246 188.818 96.4324 172.842 96.4324H116.984Z" fill="#FFFACB"/>
<path d="M144.913 161.081C133.35 161.081 123.966 151.637 123.966 140C123.966 128.363 133.35 118.919 144.913 118.919C156.476 118.919 165.86 128.363 165.86 140C165.86 151.637 156.476 161.081 144.913 161.081ZM144.913 121C137.986 121 126.899 125.5 125.898 140C126.398 153 137.986 159 144.913 159C158.424 158 163.928 146.971 163.928 140C164.929 132.5 155.922 120 144.913 121Z" fill="#FFFACB"/>
<path d="M111.887 158C111.34 158 110.886 156.117 110.886 153.846V126.154C110.886 123.883 111.34 122 111.887 122C112.434 122 112.888 123.883 112.888 126.154V153.846C112.888 156.117 112.434 158 111.887 158Z" fill="#FFFACB"/>
<path d="M177.939 158C177.392 158 176.938 156.117 176.938 153.846V126.154C176.938 123.883 177.392 122 177.939 122C178.486 122 178.94 123.883 178.94 126.154V153.846C178.94 156.117 178.486 158 177.939 158Z" fill="#FFFACB"/>
<path d="M148 142.545H136.182V140.045H148C149.091 140.045 149.992 139.856 150.705 139.477C151.417 139.091 151.947 138.568 152.295 137.909C152.644 137.242 152.818 136.485 152.818 135.636C152.818 134.788 152.644 134.034 152.295 133.375C151.947 132.708 151.417 132.186 150.705 131.807C149.992 131.42 149.091 131.227 148 131.227H142.682V152H139.864V128.727H148C149.727 128.727 151.152 129.042 152.273 129.67C153.394 130.299 154.227 131.136 154.773 132.182C155.318 133.227 155.591 134.379 155.591 135.636C155.591 136.894 155.318 138.045 154.773 139.091C154.227 140.136 153.394 140.973 152.273 141.602C151.152 142.231 149.727 142.545 148 142.545ZM147.818 144.727V147.227H136.182V144.727H147.818Z" fill="#FFFACB"/>
<path d="M185.229 387.976H177.477V403H175.485V386.2H187.221V403H185.229V387.976ZM191.113 391H192.433L192.793 392.44H192.889C193.257 391.88 193.729 391.456 194.305 391.168C194.897 390.864 195.569 390.712 196.321 390.712C197.921 390.712 199.113 391.184 199.897 392.128C200.681 393.072 201.073 394.616 201.073 396.76C201.073 397.768 200.937 398.68 200.665 399.496C200.409 400.296 200.041 400.976 199.561 401.536C199.081 402.096 198.497 402.528 197.809 402.832C197.137 403.136 196.385 403.288 195.553 403.288C194.961 403.288 194.489 403.248 194.137 403.168C193.801 403.104 193.433 402.984 193.033 402.808V407.8H191.113V391ZM195.961 392.392C195.145 392.392 194.497 392.608 194.017 393.04C193.553 393.456 193.225 394.096 193.033 394.96V400.912C193.321 401.136 193.649 401.312 194.017 401.44C194.385 401.552 194.873 401.608 195.481 401.608C196.585 401.608 197.457 401.2 198.097 400.384C198.753 399.552 199.081 398.336 199.081 396.736C199.081 396.08 199.025 395.488 198.913 394.96C198.801 394.416 198.617 393.96 198.361 393.592C198.121 393.208 197.801 392.912 197.401 392.704C197.017 392.496 196.537 392.392 195.961 392.392ZM211.586 395.896L211.658 394.408H211.586L210.602 395.944L205.202 403H204.098V391H206.018V398.32L205.946 399.736H206.042L206.978 398.248L212.378 391H213.506V403H211.586V395.896ZM227.111 395.872L227.255 393.592H227.135L226.271 395.44L223.367 400.144H222.695L219.671 395.44L218.879 393.592H218.783L218.975 395.848V403H217.199V391H219.095L222.455 396.376L223.151 397.768H223.199L223.919 396.328L227.063 391H228.983V403H227.111V395.872ZM241.428 402.04C240.948 402.424 240.34 402.728 239.604 402.952C238.884 403.176 238.116 403.288 237.3 403.288C236.388 403.288 235.596 403.144 234.924 402.856C234.252 402.552 233.7 402.128 233.268 401.584C232.836 401.024 232.516 400.36 232.308 399.592C232.1 398.824 231.996 397.96 231.996 397C231.996 394.952 232.452 393.392 233.364 392.32C234.276 391.248 235.58 390.712 237.276 390.712C237.82 390.712 238.364 390.776 238.908 390.904C239.452 391.016 239.94 391.24 240.372 391.576C240.804 391.912 241.156 392.392 241.428 393.016C241.7 393.624 241.836 394.432 241.836 395.44C241.836 395.968 241.788 396.552 241.692 397.192H233.988C233.988 397.896 234.06 398.52 234.204 399.064C234.348 399.608 234.572 400.072 234.876 400.456C235.18 400.824 235.572 401.112 236.052 401.32C236.548 401.512 237.148 401.608 237.852 401.608C238.396 401.608 238.94 401.512 239.484 401.32C240.028 401.128 240.436 400.904 240.708 400.648L241.428 402.04ZM237.3 392.392C236.356 392.392 235.596 392.64 235.02 393.136C234.46 393.632 234.124 394.48 234.012 395.68H239.964C239.964 394.464 239.732 393.616 239.268 393.136C238.804 392.64 238.148 392.392 237.3 392.392ZM244.855 391H246.175L246.535 392.44H246.631C246.999 391.88 247.471 391.456 248.047 391.168C248.639 390.864 249.311 390.712 250.063 390.712C251.663 390.712 252.855 391.184 253.639 392.128C254.423 393.072 254.815 394.616 254.815 396.76C254.815 397.768 254.679 398.68 254.407 399.496C254.151 400.296 253.783 400.976 253.303 401.536C252.823 402.096 252.239 402.528 251.551 402.832C250.879 403.136 250.127 403.288 249.295 403.288C248.703 403.288 248.231 403.248 247.879 403.168C247.543 403.104 247.175 402.984 246.775 402.808V407.8H244.855V391ZM249.703 392.392C248.887 392.392 248.239 392.608 247.759 393.04C247.295 393.456 246.967 394.096 246.775 394.96V400.912C247.063 401.136 247.391 401.312 247.759 401.44C248.127 401.552 248.615 401.608 249.223 401.608C250.327 401.608 251.199 401.2 251.839 400.384C252.495 399.552 252.823 398.336 252.823 396.736C252.823 396.08 252.767 395.488 252.655 394.96C252.543 394.416 252.359 393.96 252.103 393.592C251.863 393.208 251.543 392.912 251.143 392.704C250.759 392.496 250.279 392.392 249.703 392.392ZM265.184 397.696H259.76V403H257.84V391H259.76V396.016H265.184V391H267.104V403H265.184V397.696ZM270.129 397C270.129 394.968 270.577 393.416 271.473 392.344C272.385 391.256 273.689 390.712 275.385 390.712C276.281 390.712 277.057 390.864 277.713 391.168C278.385 391.456 278.937 391.88 279.369 392.44C279.801 392.984 280.121 393.648 280.329 394.432C280.537 395.2 280.641 396.056 280.641 397C280.641 399.032 280.185 400.592 279.273 401.68C278.377 402.752 277.081 403.288 275.385 403.288C274.489 403.288 273.705 403.144 273.033 402.856C272.377 402.552 271.833 402.128 271.401 401.584C270.969 401.024 270.649 400.36 270.441 399.592C270.233 398.808 270.129 397.944 270.129 397ZM272.121 397C272.121 397.608 272.177 398.192 272.289 398.752C272.417 399.312 272.609 399.8 272.865 400.216C273.121 400.632 273.457 400.968 273.873 401.224C274.289 401.48 274.793 401.608 275.385 401.608C277.561 401.624 278.649 400.088 278.649 397C278.649 396.376 278.585 395.784 278.457 395.224C278.345 394.664 278.161 394.176 277.905 393.76C277.649 393.344 277.313 393.016 276.897 392.776C276.481 392.52 275.977 392.392 275.385 392.392C273.209 392.376 272.121 393.912 272.121 397ZM298.25 402.208C297.77 402.56 297.202 402.824 296.546 403C295.89 403.192 295.202 403.288 294.482 403.288C293.554 403.288 292.77 403.144 292.13 402.856C291.49 402.552 290.962 402.128 290.546 401.584C290.146 401.024 289.85 400.36 289.658 399.592C289.482 398.808 289.394 397.944 289.394 397C289.394 394.968 289.842 393.416 290.738 392.344C291.634 391.256 292.922 390.712 294.602 390.712C295.37 390.712 296.018 390.776 296.546 390.904C297.09 391.016 297.578 391.184 298.01 391.408L297.458 393.064C297.09 392.856 296.682 392.696 296.234 392.584C295.786 392.456 295.306 392.392 294.794 392.392C292.522 392.392 291.386 393.928 291.386 397C291.386 397.608 291.442 398.192 291.554 398.752C291.682 399.296 291.882 399.784 292.154 400.216C292.442 400.632 292.81 400.968 293.258 401.224C293.722 401.48 294.29 401.608 294.962 401.608C295.538 401.608 296.05 401.52 296.498 401.344C296.962 401.168 297.338 400.968 297.626 400.744L298.25 402.208ZM308.175 392.68H304.407V403H302.487V392.68H298.719V391H308.175V392.68ZM309.035 397C309.035 394.968 309.483 393.416 310.379 392.344C311.291 391.256 312.595 390.712 314.291 390.712C315.187 390.712 315.963 390.864 316.619 391.168C317.291 391.456 317.843 391.88 318.275 392.44C318.707 392.984 319.027 393.648 319.235 394.432C319.443 395.2 319.547 396.056 319.547 397C319.547 399.032 319.091 400.592 318.179 401.68C317.283 402.752 315.987 403.288 314.291 403.288C313.395 403.288 312.611 403.144 311.939 402.856C311.283 402.552 310.739 402.128 310.307 401.584C309.875 401.024 309.555 400.36 309.347 399.592C309.139 398.808 309.035 397.944 309.035 397ZM311.027 397C311.027 397.608 311.083 398.192 311.195 398.752C311.323 399.312 311.515 399.8 311.771 400.216C312.027 400.632 312.363 400.968 312.779 401.224C313.195 401.48 313.699 401.608 314.291 401.608C316.467 401.624 317.555 400.088 317.555 397C317.555 396.376 317.491 395.784 317.363 395.224C317.251 394.664 317.067 394.176 316.811 393.76C316.555 393.344 316.219 393.016 315.803 392.776C315.387 392.52 314.883 392.392 314.291 392.392C312.115 392.376 311.027 393.912 311.027 397ZM328.889 392.68H325.409C325.361 393.352 325.313 394.08 325.265 394.864C325.217 395.632 325.145 396.408 325.049 397.192C324.953 397.96 324.825 398.704 324.665 399.424C324.505 400.128 324.297 400.752 324.041 401.296C323.801 401.84 323.497 402.28 323.129 402.616C322.777 402.936 322.353 403.096 321.857 403.096C321.553 403.096 321.289 403.08 321.065 403.048C320.841 403.016 320.641 402.96 320.465 402.88L320.753 401.272C320.945 401.336 321.153 401.368 321.377 401.368C321.697 401.368 321.985 401.232 322.241 400.96C322.497 400.688 322.721 400.176 322.913 399.424C323.105 398.656 323.265 397.6 323.393 396.256C323.521 394.912 323.609 393.16 323.657 391H330.809V403H328.889V392.68ZM336.424 401.32C337.016 401.416 337.584 401.464 338.128 401.464C339.136 401.464 339.88 401.272 340.36 400.888C340.84 400.488 341.08 399.928 341.08 399.208C341.08 398.568 340.848 398.04 340.384 397.624C339.92 397.208 339.192 397 338.2 397C337.928 397 337.632 397.008 337.312 397.024C336.992 397.04 336.696 397.088 336.424 397.168V401.32ZM336.424 395.584C336.808 395.52 337.176 395.48 337.528 395.464C337.88 395.432 338.216 395.416 338.536 395.416C339.368 395.416 340.072 395.512 340.648 395.704C341.224 395.88 341.688 396.128 342.04 396.448C342.408 396.768 342.672 397.152 342.832 397.6C342.992 398.032 343.072 398.496 343.072 398.992C343.072 400.448 342.632 401.504 341.752 402.16C340.888 402.816 339.536 403.144 337.696 403.144C336.672 403.144 335.608 403.096 334.504 403V391H336.424V395.584ZM348.661 397.6H347.557V403H345.637V391H347.557V396.424L348.589 396.088L352.429 391H354.517L350.797 395.824L349.789 396.616L351.037 397.576L355.045 403H352.669L348.661 397.6ZM356.168 397C356.168 394.968 356.616 393.416 357.512 392.344C358.424 391.256 359.728 390.712 361.424 390.712C362.32 390.712 363.096 390.864 363.752 391.168C364.424 391.456 364.976 391.88 365.408 392.44C365.84 392.984 366.16 393.648 366.368 394.432C366.576 395.2 366.68 396.056 366.68 397C366.68 399.032 366.224 400.592 365.312 401.68C364.416 402.752 363.12 403.288 361.424 403.288C360.528 403.288 359.744 403.144 359.072 402.856C358.416 402.552 357.872 402.128 357.44 401.584C357.008 401.024 356.688 400.36 356.48 399.592C356.272 398.808 356.168 397.944 356.168 397ZM358.16 397C358.16 397.608 358.216 398.192 358.328 398.752C358.456 399.312 358.648 399.8 358.904 400.216C359.16 400.632 359.496 400.968 359.912 401.224C360.328 401.48 360.832 401.608 361.424 401.608C363.6 401.624 364.688 400.088 364.688 397C364.688 396.376 364.624 395.784 364.496 395.224C364.384 394.664 364.2 394.176 363.944 393.76C363.688 393.344 363.352 393.016 362.936 392.776C362.52 392.52 362.016 392.392 361.424 392.392C359.248 392.376 358.16 393.912 358.16 397ZM175.293 422.024C175.853 421.992 176.437 421.952 177.045 421.904C177.669 421.856 178.437 421.832 179.349 421.832C180.933 421.832 182.069 422.08 182.757 422.576C183.445 423.056 183.789 423.792 183.789 424.784C183.789 425.344 183.621 425.896 183.285 426.44C182.965 426.968 182.429 427.36 181.677 427.616V427.712C182.621 427.888 183.285 428.216 183.669 428.696C184.053 429.176 184.245 429.816 184.245 430.616C184.245 431.864 183.797 432.768 182.901 433.328C182.005 433.888 180.661 434.168 178.869 434.168C178.197 434.168 177.573 434.144 176.997 434.096C176.421 434.064 175.853 434.024 175.293 433.976V422.024ZM177.213 432.392C177.517 432.424 177.813 432.448 178.101 432.464C178.405 432.48 178.757 432.488 179.157 432.488C180.229 432.488 181.021 432.336 181.533 432.032C182.061 431.728 182.325 431.208 182.325 430.472C182.325 429.896 182.101 429.432 181.653 429.08C181.221 428.712 180.445 428.528 179.325 428.528H177.213V432.392ZM179.565 427.064C179.853 427.064 180.133 427.016 180.405 426.92C180.677 426.824 180.917 426.696 181.125 426.536C181.349 426.36 181.525 426.16 181.653 425.936C181.797 425.712 181.869 425.472 181.869 425.216C181.869 424.576 181.677 424.136 181.293 423.896C180.909 423.64 180.237 423.512 179.277 423.512C178.765 423.512 178.357 423.52 178.053 423.536C177.765 423.552 177.485 423.568 177.213 423.584V427.064H179.565ZM201.852 433.208C201.372 433.56 200.804 433.824 200.148 434C199.492 434.192 198.804 434.288 198.084 434.288C197.156 434.288 196.372 434.144 195.732 433.856C195.092 433.552 194.564 433.128 194.148 432.584C193.748 432.024 193.452 431.36 193.26 430.592C193.084 429.808 192.996 428.944 192.996 428C192.996 425.968 193.444 424.416 194.34 423.344C195.236 422.256 196.524 421.712 198.204 421.712C198.972 421.712 199.62 421.776 200.148 421.904C200.692 422.016 201.18 422.184 201.612 422.408L201.06 424.064C200.692 423.856 200.284 423.696 199.836 423.584C199.388 423.456 198.908 423.392 198.396 423.392C196.124 423.392 194.988 424.928 194.988 428C194.988 428.608 195.044 429.192 195.156 429.752C195.284 430.296 195.484 430.784 195.756 431.216C196.044 431.632 196.412 431.968 196.86 432.224C197.324 432.48 197.892 432.608 198.564 432.608C199.14 432.608 199.652 432.52 200.1 432.344C200.564 432.168 200.94 431.968 201.228 431.744L201.852 433.208ZM204.496 422H205.816L206.176 423.44H206.272C206.64 422.88 207.112 422.456 207.688 422.168C208.28 421.864 208.952 421.712 209.704 421.712C211.304 421.712 212.496 422.184 213.28 423.128C214.064 424.072 214.456 425.616 214.456 427.76C214.456 428.768 214.32 429.68 214.048 430.496C213.792 431.296 213.424 431.976 212.944 432.536C212.464 433.096 211.88 433.528 211.192 433.832C210.52 434.136 209.768 434.288 208.936 434.288C208.344 434.288 207.872 434.248 207.52 434.168C207.184 434.104 206.816 433.984 206.416 433.808V438.8H204.496V422ZM209.344 423.392C208.528 423.392 207.88 423.608 207.4 424.04C206.936 424.456 206.608 425.096 206.416 425.96V431.912C206.704 432.136 207.032 432.312 207.4 432.44C207.768 432.552 208.256 432.608 208.864 432.608C209.968 432.608 210.84 432.2 211.48 431.384C212.136 430.552 212.464 429.336 212.464 427.736C212.464 427.08 212.408 426.488 212.296 425.96C212.184 425.416 212 424.96 211.744 424.592C211.504 424.208 211.184 423.912 210.784 423.704C210.4 423.496 209.92 423.392 209.344 423.392ZM226.24 433.04C225.76 433.424 225.152 433.728 224.416 433.952C223.696 434.176 222.928 434.288 222.112 434.288C221.2 434.288 220.408 434.144 219.736 433.856C219.064 433.552 218.512 433.128 218.08 432.584C217.648 432.024 217.328 431.36 217.12 430.592C216.912 429.824 216.808 428.96 216.808 428C216.808 425.952 217.264 424.392 218.176 423.32C219.088 422.248 220.392 421.712 222.088 421.712C222.632 421.712 223.176 421.776 223.72 421.904C224.264 422.016 224.752 422.24 225.184 422.576C225.616 422.912 225.968 423.392 226.24 424.016C226.512 424.624 226.648 425.432 226.648 426.44C226.648 426.968 226.6 427.552 226.504 428.192H218.8C218.8 428.896 218.872 429.52 219.016 430.064C219.16 430.608 219.384 431.072 219.688 431.456C219.992 431.824 220.384 432.112 220.864 432.32C221.36 432.512 221.96 432.608 222.664 432.608C223.208 432.608 223.752 432.512 224.296 432.32C224.84 432.128 225.248 431.904 225.52 431.648L226.24 433.04ZM222.112 423.392C221.168 423.392 220.408 423.64 219.832 424.136C219.272 424.632 218.936 425.48 218.824 426.68H224.776C224.776 425.464 224.544 424.616 224.08 424.136C223.616 423.64 222.96 423.392 222.112 423.392ZM239.737 437.048H238.441L238.081 434H229.057L228.697 437.048H227.401V432.32H228.817C228.945 432.144 229.113 431.832 229.321 431.384C229.529 430.92 229.729 430.28 229.921 429.464C230.129 428.632 230.305 427.608 230.449 426.392C230.609 425.16 230.705 423.696 230.737 422H237.985V432.32H239.737V437.048ZM236.065 432.32V423.68H232.465C232.433 424.352 232.377 425.088 232.297 425.888C232.217 426.672 232.105 427.464 231.961 428.264C231.833 429.048 231.665 429.792 231.457 430.496C231.249 431.2 231.009 431.808 230.737 432.32H236.065ZM249.457 428.696H244.033V434H242.113V422H244.033V427.016H249.457V422H251.377V434H249.457V428.696ZM263.834 433.04C263.354 433.424 262.746 433.728 262.01 433.952C261.29 434.176 260.522 434.288 259.706 434.288C258.794 434.288 258.002 434.144 257.33 433.856C256.658 433.552 256.106 433.128 255.674 432.584C255.242 432.024 254.922 431.36 254.714 430.592C254.506 429.824 254.402 428.96 254.402 428C254.402 425.952 254.858 424.392 255.77 423.32C256.682 422.248 257.986 421.712 259.682 421.712C260.226 421.712 260.77 421.776 261.314 421.904C261.858 422.016 262.346 422.24 262.778 422.576C263.21 422.912 263.562 423.392 263.834 424.016C264.106 424.624 264.242 425.432 264.242 426.44C264.242 426.968 264.194 427.552 264.098 428.192H256.394C256.394 428.896 256.466 429.52 256.61 430.064C256.754 430.608 256.978 431.072 257.282 431.456C257.586 431.824 257.978 432.112 258.458 432.32C258.954 432.512 259.554 432.608 260.258 432.608C260.802 432.608 261.346 432.512 261.89 432.32C262.434 432.128 262.842 431.904 263.114 431.648L263.834 433.04ZM259.706 423.392C258.762 423.392 258.002 423.64 257.426 424.136C256.866 424.632 256.53 425.48 256.418 426.68H262.37C262.37 425.464 262.138 424.616 261.674 424.136C261.21 423.64 260.554 423.392 259.706 423.392ZM277.174 426.872L277.318 424.592H277.198L276.334 426.44L273.43 431.144H272.758L269.734 426.44L268.942 424.592H268.846L269.038 426.848V434H267.262V422H269.158L272.518 427.376L273.214 428.768H273.262L273.982 427.328L277.126 422H279.046V434H277.174V426.872ZM290.281 428.648V427.088H291.961C292.249 427.088 292.529 427.04 292.801 426.944C293.089 426.848 293.345 426.72 293.569 426.56C293.793 426.384 293.969 426.184 294.097 425.96C294.241 425.72 294.313 425.472 294.313 425.216C294.313 424.592 294.097 424.152 293.665 423.896C293.233 423.64 292.585 423.512 291.721 423.512C291.097 423.512 290.521 423.608 289.993 423.8C289.481 423.992 289.081 424.176 288.793 424.352L288.241 422.864C288.721 422.592 289.281 422.352 289.921 422.144C290.577 421.936 291.353 421.832 292.249 421.832C294.905 421.832 296.233 422.816 296.233 424.784C296.233 425.344 296.049 425.896 295.681 426.44C295.329 426.968 294.817 427.344 294.145 427.568V427.664C295.089 427.84 295.745 428.176 296.113 428.672C296.497 429.168 296.689 429.824 296.689 430.64C296.689 431.152 296.585 431.624 296.377 432.056C296.169 432.488 295.857 432.864 295.441 433.184C295.025 433.504 294.497 433.76 293.857 433.952C293.233 434.128 292.505 434.216 291.673 434.216C290.857 434.216 290.177 434.144 289.633 434C289.105 433.856 288.625 433.68 288.193 433.472L288.745 431.888C289.113 432.096 289.553 432.256 290.065 432.368C290.593 432.48 291.161 432.536 291.769 432.536C292.745 432.536 293.489 432.368 294.001 432.032C294.513 431.696 294.769 431.184 294.769 430.496C294.769 429.92 294.529 429.472 294.049 429.152C293.569 428.816 292.777 428.648 291.673 428.648H290.281ZM299.531 422.888C300.139 422.52 300.843 422.248 301.643 422.072C302.459 421.896 303.307 421.808 304.187 421.808C305.019 421.808 305.683 421.92 306.179 422.144C306.691 422.368 307.075 422.664 307.331 423.032C307.603 423.384 307.779 423.776 307.859 424.208C307.955 424.64 308.003 425.072 308.003 425.504C308.003 426.464 307.979 427.4 307.931 428.312C307.883 429.224 307.859 430.088 307.859 430.904C307.859 431.496 307.883 432.056 307.931 432.584C307.979 433.112 308.067 433.6 308.195 434.048H306.779L306.275 432.368H306.155C306.011 432.592 305.827 432.816 305.603 433.04C305.395 433.248 305.139 433.44 304.835 433.616C304.531 433.776 304.179 433.912 303.779 434.024C303.379 434.136 302.923 434.192 302.411 434.192C301.899 434.192 301.419 434.112 300.971 433.952C300.539 433.792 300.163 433.568 299.843 433.28C299.523 432.976 299.267 432.616 299.075 432.2C298.899 431.784 298.811 431.312 298.811 430.784C298.811 430.08 298.955 429.496 299.243 429.032C299.531 428.552 299.931 428.176 300.443 427.904C300.971 427.616 301.595 427.416 302.315 427.304C303.051 427.176 303.859 427.112 304.739 427.112C304.963 427.112 305.179 427.112 305.387 427.112C305.611 427.112 305.835 427.128 306.059 427.16C306.107 426.68 306.131 426.248 306.131 425.864C306.131 424.984 305.955 424.368 305.603 424.016C305.251 423.664 304.611 423.488 303.683 423.488C303.411 423.488 303.115 423.512 302.795 423.56C302.491 423.592 302.171 423.648 301.835 423.728C301.515 423.792 301.203 423.88 300.899 423.992C300.611 424.088 300.355 424.2 300.131 424.328L299.531 422.888ZM302.939 432.512C303.387 432.512 303.787 432.456 304.139 432.344C304.491 432.216 304.795 432.064 305.051 431.888C305.307 431.696 305.515 431.488 305.675 431.264C305.851 431.04 305.979 430.824 306.059 430.616V428.624C305.835 428.608 305.603 428.6 305.363 428.6C305.139 428.584 304.915 428.576 304.691 428.576C304.195 428.576 303.707 428.608 303.227 428.672C302.763 428.72 302.347 428.824 301.979 428.984C301.627 429.128 301.339 429.336 301.115 429.608C300.907 429.864 300.803 430.192 300.803 430.592C300.803 431.152 301.003 431.616 301.403 431.984C301.803 432.336 302.315 432.512 302.939 432.512ZM311.629 422H312.949L313.309 423.44H313.405C313.773 422.88 314.245 422.456 314.821 422.168C315.413 421.864 316.085 421.712 316.837 421.712C318.437 421.712 319.629 422.184 320.413 423.128C321.197 424.072 321.589 425.616 321.589 427.76C321.589 428.768 321.453 429.68 321.181 430.496C320.925 431.296 320.557 431.976 320.077 432.536C319.597 433.096 319.013 433.528 318.325 433.832C317.653 434.136 316.901 434.288 316.069 434.288C315.477 434.288 315.005 434.248 314.653 434.168C314.317 434.104 313.949 433.984 313.549 433.808V438.8H311.629V422ZM316.477 423.392C315.661 423.392 315.013 423.608 314.533 424.04C314.069 424.456 313.741 425.096 313.549 425.96V431.912C313.837 432.136 314.165 432.312 314.533 432.44C314.901 432.552 315.389 432.608 315.997 432.608C317.101 432.608 317.973 432.2 318.613 431.384C319.269 430.552 319.597 429.336 319.597 427.736C319.597 427.08 319.541 426.488 319.429 425.96C319.317 425.416 319.133 424.96 318.877 424.592C318.637 424.208 318.317 423.912 317.917 423.704C317.533 423.496 317.053 423.392 316.477 423.392ZM324.421 422.888C325.029 422.52 325.733 422.248 326.533 422.072C327.349 421.896 328.197 421.808 329.077 421.808C329.909 421.808 330.573 421.92 331.069 422.144C331.581 422.368 331.965 422.664 332.221 423.032C332.493 423.384 332.669 423.776 332.749 424.208C332.845 424.64 332.893 425.072 332.893 425.504C332.893 426.464 332.869 427.4 332.821 428.312C332.773 429.224 332.749 430.088 332.749 430.904C332.749 431.496 332.773 432.056 332.821 432.584C332.869 433.112 332.957 433.6 333.085 434.048H331.669L331.165 432.368H331.045C330.901 432.592 330.717 432.816 330.493 433.04C330.285 433.248 330.029 433.44 329.725 433.616C329.421 433.776 329.069 433.912 328.669 434.024C328.269 434.136 327.813 434.192 327.301 434.192C326.789 434.192 326.309 434.112 325.861 433.952C325.429 433.792 325.053 433.568 324.733 433.28C324.413 432.976 324.157 432.616 323.965 432.2C323.789 431.784 323.701 431.312 323.701 430.784C323.701 430.08 323.845 429.496 324.133 429.032C324.421 428.552 324.821 428.176 325.333 427.904C325.861 427.616 326.485 427.416 327.205 427.304C327.941 427.176 328.749 427.112 329.629 427.112C329.853 427.112 330.069 427.112 330.277 427.112C330.501 427.112 330.725 427.128 330.949 427.16C330.997 426.68 331.021 426.248 331.021 425.864C331.021 424.984 330.845 424.368 330.493 424.016C330.141 423.664 329.501 423.488 328.573 423.488C328.301 423.488 328.005 423.512 327.685 423.56C327.381 423.592 327.061 423.648 326.725 423.728C326.405 423.792 326.093 423.88 325.789 423.992C325.501 424.088 325.245 424.2 325.021 424.328L324.421 422.888ZM327.829 432.512C328.277 432.512 328.677 432.456 329.029 432.344C329.381 432.216 329.685 432.064 329.941 431.888C330.197 431.696 330.405 431.488 330.565 431.264C330.741 431.04 330.869 430.824 330.949 430.616V428.624C330.725 428.608 330.493 428.6 330.253 428.6C330.029 428.584 329.805 428.576 329.581 428.576C329.085 428.576 328.597 428.608 328.117 428.672C327.653 428.72 327.237 428.824 326.869 428.984C326.517 429.128 326.229 429.336 326.005 429.608C325.797 429.864 325.693 430.192 325.693 430.592C325.693 431.152 325.893 431.616 326.293 431.984C326.693 432.336 327.205 432.512 327.829 432.512ZM337.623 424.136C338.151 423.368 338.735 422.832 339.375 422.528C340.015 422.208 340.815 422.048 341.775 422.048C343.247 422.048 344.375 422.528 345.159 423.488C345.959 424.448 346.359 425.864 346.359 427.736C346.359 429.896 345.895 431.528 344.967 432.632C344.055 433.736 342.775 434.288 341.127 434.288C339.367 434.288 338.047 433.68 337.167 432.464C336.287 431.248 335.847 429.336 335.847 426.728C335.847 425.352 335.911 424.176 336.039 423.2C336.183 422.224 336.383 421.4 336.639 420.728C336.911 420.056 337.231 419.52 337.599 419.12C337.983 418.72 338.407 418.408 338.871 418.184C339.351 417.944 339.871 417.776 340.431 417.68C340.991 417.584 341.591 417.504 342.231 417.44C343.063 417.36 343.711 417.272 344.175 417.176C344.655 417.064 345.039 416.872 345.327 416.6L345.543 418.328C345.383 418.472 345.207 418.592 345.015 418.688C344.823 418.784 344.591 418.864 344.319 418.928C344.047 418.992 343.719 419.048 343.335 419.096C342.967 419.144 342.535 419.184 342.039 419.216C341.351 419.264 340.743 419.352 340.215 419.48C339.703 419.592 339.255 419.824 338.871 420.176C338.503 420.512 338.207 421 337.983 421.64C337.775 422.264 337.631 423.096 337.551 424.136H337.623ZM337.839 428.024C337.839 428.632 337.903 429.216 338.031 429.776C338.159 430.336 338.351 430.832 338.607 431.264C338.879 431.68 339.223 432.008 339.639 432.248C340.055 432.488 340.543 432.608 341.103 432.608C342.207 432.608 343.023 432.216 343.551 431.432C344.095 430.632 344.367 429.456 344.367 427.904C344.367 427.296 344.311 426.736 344.199 426.224C344.087 425.712 343.911 425.272 343.671 424.904C343.431 424.52 343.127 424.232 342.759 424.04C342.391 423.832 341.951 423.728 341.439 423.728C340.191 423.712 339.279 424.08 338.703 424.832C338.127 425.568 337.839 426.632 337.839 428.024ZM349.195 422.888C349.803 422.52 350.507 422.248 351.307 422.072C352.123 421.896 352.971 421.808 353.851 421.808C354.683 421.808 355.347 421.92 355.843 422.144C356.355 422.368 356.739 422.664 356.995 423.032C357.267 423.384 357.443 423.776 357.523 424.208C357.619 424.64 357.667 425.072 357.667 425.504C357.667 426.464 357.643 427.4 357.595 428.312C357.547 429.224 357.523 430.088 357.523 430.904C357.523 431.496 357.547 432.056 357.595 432.584C357.643 433.112 357.731 433.6 357.859 434.048H356.443L355.939 432.368H355.819C355.675 432.592 355.491 432.816 355.267 433.04C355.059 433.248 354.803 433.44 354.499 433.616C354.195 433.776 353.843 433.912 353.443 434.024C353.043 434.136 352.587 434.192 352.075 434.192C351.563 434.192 351.083 434.112 350.635 433.952C350.203 433.792 349.827 433.568 349.507 433.28C349.187 432.976 348.931 432.616 348.739 432.2C348.563 431.784 348.475 431.312 348.475 430.784C348.475 430.08 348.619 429.496 348.907 429.032C349.195 428.552 349.595 428.176 350.107 427.904C350.635 427.616 351.259 427.416 351.979 427.304C352.715 427.176 353.523 427.112 354.403 427.112C354.627 427.112 354.843 427.112 355.051 427.112C355.275 427.112 355.499 427.128 355.723 427.16C355.771 426.68 355.795 426.248 355.795 425.864C355.795 424.984 355.619 424.368 355.267 424.016C354.915 423.664 354.275 423.488 353.347 423.488C353.075 423.488 352.779 423.512 352.459 423.56C352.155 423.592 351.835 423.648 351.499 423.728C351.179 423.792 350.867 423.88 350.563 423.992C350.275 424.088 350.019 424.2 349.795 424.328L349.195 422.888ZM352.603 432.512C353.051 432.512 353.451 432.456 353.803 432.344C354.155 432.216 354.459 432.064 354.715 431.888C354.971 431.696 355.179 431.488 355.339 431.264C355.515 431.04 355.643 430.824 355.723 430.616V428.624C355.499 428.608 355.267 428.6 355.027 428.6C354.803 428.584 354.579 428.576 354.355 428.576C353.859 428.576 353.371 428.608 352.891 428.672C352.427 428.72 352.011 428.824 351.643 428.984C351.291 429.128 351.003 429.336 350.779 429.608C350.571 429.864 350.467 430.192 350.467 430.592C350.467 431.152 350.667 431.616 351.067 431.984C351.467 432.336 351.979 432.512 352.603 432.512ZM368.949 423.68H365.181V434H363.261V423.68H359.493V422H368.949V423.68ZM372.775 432.32C373.367 432.416 373.935 432.464 374.479 432.464C375.487 432.464 376.191 432.272 376.591 431.888C376.991 431.488 377.191 430.928 377.191 430.208C377.191 429.568 376.991 429.04 376.591 428.624C376.207 428.208 375.527 428 374.551 428C374.279 428 373.983 428.008 373.663 428.024C373.343 428.04 373.047 428.088 372.775 428.168V432.32ZM372.775 426.584C373.159 426.52 373.527 426.48 373.879 426.464C374.231 426.432 374.567 426.416 374.887 426.416C375.703 426.416 376.383 426.512 376.927 426.704C377.487 426.88 377.935 427.128 378.271 427.448C378.607 427.768 378.839 428.152 378.967 428.6C379.111 429.032 379.183 429.496 379.183 429.992C379.183 431.448 378.775 432.504 377.959 433.16C377.159 433.816 375.855 434.144 374.047 434.144C373.023 434.144 371.959 434.096 370.855 434V422H372.775V426.584ZM381.079 422H382.999V434H381.079V422ZM386.699 422.024C387.259 421.992 387.843 421.952 388.451 421.904C389.075 421.856 389.843 421.832 390.755 421.832C392.339 421.832 393.475 422.08 394.163 422.576C394.851 423.056 395.195 423.792 395.195 424.784C395.195 425.344 395.027 425.896 394.691 426.44C394.371 426.968 393.835 427.36 393.083 427.616V427.712C394.027 427.888 394.691 428.216 395.075 428.696C395.459 429.176 395.651 429.816 395.651 430.616C395.651 431.864 395.203 432.768 394.307 433.328C393.411 433.888 392.067 434.168 390.275 434.168C389.603 434.168 388.979 434.144 388.403 434.096C387.827 434.064 387.259 434.024 386.699 433.976V422.024ZM388.619 432.392C388.923 432.424 389.219 432.448 389.507 432.464C389.811 432.48 390.163 432.488 390.563 432.488C391.635 432.488 392.427 432.336 392.939 432.032C393.467 431.728 393.731 431.208 393.731 430.472C393.731 429.896 393.507 429.432 393.059 429.08C392.627 428.712 391.851 428.528 390.731 428.528H388.619V432.392ZM390.971 427.064C391.259 427.064 391.539 427.016 391.811 426.92C392.083 426.824 392.323 426.696 392.531 426.536C392.755 426.36 392.931 426.16 393.059 425.936C393.203 425.712 393.275 425.472 393.275 425.216C393.275 424.576 393.083 424.136 392.699 423.896C392.315 423.64 391.643 423.512 390.683 423.512C390.171 423.512 389.763 423.52 389.459 423.536C389.171 423.552 388.891 423.568 388.619 423.584V427.064H390.971ZM398.484 422.888C399.092 422.52 399.796 422.248 400.596 422.072C401.412 421.896 402.26 421.808 403.14 421.808C403.972 421.808 404.636 421.92 405.132 422.144C405.644 422.368 406.028 422.664 406.284 423.032C406.556 423.384 406.732 423.776 406.812 424.208C406.908 424.64 406.956 425.072 406.956 425.504C406.956 426.464 406.932 427.4 406.884 428.312C406.836 429.224 406.812 430.088 406.812 430.904C406.812 431.496 406.836 432.056 406.884 432.584C406.932 433.112 407.02 433.6 407.148 434.048H405.732L405.228 432.368H405.108C404.964 432.592 404.78 432.816 404.556 433.04C404.348 433.248 404.092 433.44 403.788 433.616C403.484 433.776 403.132 433.912 402.732 434.024C402.332 434.136 401.876 434.192 401.364 434.192C400.852 434.192 400.372 434.112 399.924 433.952C399.492 433.792 399.116 433.568 398.796 433.28C398.476 432.976 398.22 432.616 398.028 432.2C397.852 431.784 397.764 431.312 397.764 430.784C397.764 430.08 397.908 429.496 398.196 429.032C398.484 428.552 398.884 428.176 399.396 427.904C399.924 427.616 400.548 427.416 401.268 427.304C402.004 427.176 402.812 427.112 403.692 427.112C403.916 427.112 404.132 427.112 404.34 427.112C404.564 427.112 404.788 427.128 405.012 427.16C405.06 426.68 405.084 426.248 405.084 425.864C405.084 424.984 404.908 424.368 404.556 424.016C404.204 423.664 403.564 423.488 402.636 423.488C402.364 423.488 402.068 423.512 401.748 423.56C401.444 423.592 401.124 423.648 400.788 423.728C400.468 423.792 400.156 423.88 399.852 423.992C399.564 424.088 399.308 424.2 399.084 424.328L398.484 422.888ZM401.892 432.512C402.34 432.512 402.74 432.456 403.092 432.344C403.444 432.216 403.748 432.064 404.004 431.888C404.26 431.696 404.468 431.488 404.628 431.264C404.804 431.04 404.932 430.824 405.012 430.616V428.624C404.788 428.608 404.556 428.6 404.316 428.6C404.092 428.584 403.868 428.576 403.644 428.576C403.148 428.576 402.66 428.608 402.18 428.672C401.716 428.72 401.3 428.824 400.932 428.984C400.58 429.128 400.292 429.336 400.068 429.608C399.86 429.864 399.756 430.192 399.756 430.592C399.756 431.152 399.956 431.616 400.356 431.984C400.756 432.336 401.268 432.512 401.892 432.512ZM419.342 433.04C418.862 433.424 418.254 433.728 417.518 433.952C416.798 434.176 416.03 434.288 415.214 434.288C414.302 434.288 413.51 434.144 412.838 433.856C412.166 433.552 411.614 433.128 411.182 432.584C410.75 432.024 410.43 431.36 410.222 430.592C410.014 429.824 409.91 428.96 409.91 428C409.91 425.952 410.366 424.392 411.278 423.32C412.19 422.248 413.494 421.712 415.19 421.712C415.734 421.712 416.278 421.776 416.822 421.904C417.366 422.016 417.854 422.24 418.286 422.576C418.718 422.912 419.07 423.392 419.342 424.016C419.614 424.624 419.75 425.432 419.75 426.44C419.75 426.968 419.702 427.552 419.606 428.192H411.902C411.902 428.896 411.974 429.52 412.118 430.064C412.262 430.608 412.486 431.072 412.79 431.456C413.094 431.824 413.486 432.112 413.966 432.32C414.462 432.512 415.062 432.608 415.766 432.608C416.31 432.608 416.854 432.512 417.398 432.32C417.942 432.128 418.35 431.904 418.622 431.648L419.342 433.04ZM415.214 423.392C414.27 423.392 413.51 423.64 412.934 424.136C412.374 424.632 412.038 425.48 411.926 426.68H417.878C417.878 425.464 417.646 424.616 417.182 424.136C416.718 423.64 416.062 423.392 415.214 423.392ZM430.425 423.68H426.657V434H424.737V423.68H420.969V422H430.425V423.68ZM175.293 465V453H177.213V463.32H181.317V453H183.237V463.32H187.341V453H189.261V465H175.293ZM200.621 454.68H196.853V465H194.933V454.68H191.165V453H200.621V454.68ZM202.335 453.888C202.943 453.52 203.647 453.248 204.447 453.072C205.263 452.896 206.111 452.808 206.991 452.808C207.823 452.808 208.487 452.92 208.983 453.144C209.495 453.368 209.879 453.664 210.135 454.032C210.407 454.384 210.583 454.776 210.663 455.208C210.759 455.64 210.807 456.072 210.807 456.504C210.807 457.464 210.783 458.4 210.735 459.312C210.687 460.224 210.663 461.088 210.663 461.904C210.663 462.496 210.687 463.056 210.735 463.584C210.783 464.112 210.871 464.6 210.999 465.048H209.583L209.079 463.368H208.959C208.815 463.592 208.631 463.816 208.407 464.04C208.199 464.248 207.943 464.44 207.639 464.616C207.335 464.776 206.983 464.912 206.583 465.024C206.183 465.136 205.727 465.192 205.215 465.192C204.703 465.192 204.223 465.112 203.775 464.952C203.343 464.792 202.967 464.568 202.647 464.28C202.327 463.976 202.071 463.616 201.879 463.2C201.703 462.784 201.615 462.312 201.615 461.784C201.615 461.08 201.759 460.496 202.047 460.032C202.335 459.552 202.735 459.176 203.247 458.904C203.775 458.616 204.399 458.416 205.119 458.304C205.855 458.176 206.663 458.112 207.543 458.112C207.767 458.112 207.983 458.112 208.191 458.112C208.415 458.112 208.639 458.128 208.863 458.16C208.911 457.68 208.935 457.248 208.935 456.864C208.935 455.984 208.759 455.368 208.407 455.016C208.055 454.664 207.415 454.488 206.487 454.488C206.215 454.488 205.919 454.512 205.599 454.56C205.295 454.592 204.975 454.648 204.639 454.728C204.319 454.792 204.007 454.88 203.703 454.992C203.415 455.088 203.159 455.2 202.935 455.328L202.335 453.888ZM205.743 463.512C206.191 463.512 206.591 463.456 206.943 463.344C207.295 463.216 207.599 463.064 207.855 462.888C208.111 462.696 208.319 462.488 208.479 462.264C208.655 462.04 208.783 461.824 208.863 461.616V459.624C208.639 459.608 208.407 459.6 208.167 459.6C207.943 459.584 207.719 459.576 207.495 459.576C206.999 459.576 206.511 459.608 206.031 459.672C205.567 459.72 205.151 459.824 204.783 459.984C204.431 460.128 204.143 460.336 203.919 460.608C203.711 460.864 203.607 461.192 203.607 461.592C203.607 462.152 203.807 462.616 204.207 462.984C204.607 463.336 205.119 463.512 205.743 463.512ZM222.089 454.68H218.321V465H216.401V454.68H212.633V453H222.089V454.68ZM231.34 459.696H225.916V465H223.996V453H225.916V458.016H231.34V453H233.26V465H231.34V459.696ZM238.877 463.32C239.469 463.416 240.037 463.464 240.581 463.464C241.589 463.464 242.293 463.272 242.693 462.888C243.093 462.488 243.293 461.928 243.293 461.208C243.293 460.568 243.093 460.04 242.693 459.624C242.309 459.208 241.629 459 240.653 459C240.381 459 240.085 459.008 239.765 459.024C239.445 459.04 239.149 459.088 238.877 459.168V463.32ZM238.877 457.584C239.261 457.52 239.629 457.48 239.981 457.464C240.333 457.432 240.669 457.416 240.989 457.416C241.805 457.416 242.485 457.512 243.029 457.704C243.589 457.88 244.037 458.128 244.373 458.448C244.709 458.768 244.941 459.152 245.069 459.6C245.213 460.032 245.285 460.496 245.285 460.992C245.285 462.448 244.877 463.504 244.061 464.16C243.261 464.816 241.957 465.144 240.149 465.144C239.125 465.144 238.061 465.096 236.957 465V453H238.877V457.584ZM247.181 453H249.101V465H247.181V453ZM260.289 457.896L260.361 456.408H260.289L259.305 457.944L253.905 465H252.801V453H254.721V460.32L254.649 461.736H254.745L255.681 460.248L261.081 453H262.209V465H260.289V457.896ZM255.561 448.152C255.721 448.888 255.993 449.4 256.377 449.688C256.777 449.976 257.233 450.12 257.745 450.12C258.257 450.12 258.713 449.968 259.113 449.664C259.513 449.36 259.785 448.864 259.929 448.176L261.369 448.632C261.225 449.56 260.809 450.272 260.121 450.768C259.449 451.264 258.641 451.512 257.697 451.512C257.265 451.512 256.833 451.456 256.401 451.344C255.985 451.232 255.609 451.064 255.273 450.84C254.937 450.616 254.649 450.328 254.409 449.976C254.169 449.624 254.009 449.208 253.929 448.728L255.561 448.152ZM280.485 464.208C280.005 464.56 279.437 464.824 278.781 465C278.125 465.192 277.437 465.288 276.717 465.288C275.789 465.288 275.005 465.144 274.365 464.856C273.725 464.552 273.197 464.128 272.781 463.584C272.381 463.024 272.085 462.36 271.893 461.592C271.717 460.808 271.629 459.944 271.629 459C271.629 456.968 272.077 455.416 272.973 454.344C273.869 453.256 275.157 452.712 276.837 452.712C277.605 452.712 278.253 452.776 278.781 452.904C279.325 453.016 279.813 453.184 280.245 453.408L279.693 455.064C279.325 454.856 278.917 454.696 278.469 454.584C278.021 454.456 277.541 454.392 277.029 454.392C274.757 454.392 273.621 455.928 273.621 459C273.621 459.608 273.677 460.192 273.789 460.752C273.917 461.296 274.117 461.784 274.389 462.216C274.677 462.632 275.045 462.968 275.493 463.224C275.957 463.48 276.525 463.608 277.197 463.608C277.773 463.608 278.285 463.52 278.733 463.344C279.197 463.168 279.573 462.968 279.861 462.744L280.485 464.208ZM281.894 459C281.894 456.968 282.342 455.416 283.238 454.344C284.15 453.256 285.454 452.712 287.15 452.712C288.046 452.712 288.822 452.864 289.478 453.168C290.15 453.456 290.702 453.88 291.134 454.44C291.566 454.984 291.886 455.648 292.094 456.432C292.302 457.2 292.406 458.056 292.406 459C292.406 461.032 291.95 462.592 291.038 463.68C290.142 464.752 288.846 465.288 287.15 465.288C286.254 465.288 285.47 465.144 284.798 464.856C284.142 464.552 283.598 464.128 283.166 463.584C282.734 463.024 282.414 462.36 282.206 461.592C281.998 460.808 281.894 459.944 281.894 459ZM283.886 459C283.886 459.608 283.942 460.192 284.054 460.752C284.182 461.312 284.374 461.8 284.63 462.216C284.886 462.632 285.222 462.968 285.638 463.224C286.054 463.48 286.558 463.608 287.15 463.608C289.326 463.624 290.414 462.088 290.414 459C290.414 458.376 290.35 457.784 290.222 457.224C290.11 456.664 289.926 456.176 289.67 455.76C289.414 455.344 289.078 455.016 288.662 454.776C288.246 454.52 287.742 454.392 287.15 454.392C284.974 454.376 283.886 455.912 283.886 459ZM302.714 454.68H298.946V465H297.026V454.68H293.258V453H302.714V454.68ZM304.621 453H305.941L306.301 454.44H306.397C306.765 453.88 307.237 453.456 307.813 453.168C308.405 452.864 309.077 452.712 309.829 452.712C311.429 452.712 312.621 453.184 313.405 454.128C314.189 455.072 314.581 456.616 314.581 458.76C314.581 459.768 314.445 460.68 314.173 461.496C313.917 462.296 313.549 462.976 313.069 463.536C312.589 464.096 312.005 464.528 311.317 464.832C310.645 465.136 309.893 465.288 309.061 465.288C308.469 465.288 307.997 465.248 307.645 465.168C307.309 465.104 306.941 464.984 306.541 464.808V469.8H304.621V453ZM309.469 454.392C308.653 454.392 308.005 454.608 307.525 455.04C307.061 455.456 306.733 456.096 306.541 456.96V462.912C306.829 463.136 307.157 463.312 307.525 463.44C307.893 463.552 308.381 463.608 308.989 463.608C310.093 463.608 310.965 463.2 311.605 462.384C312.261 461.552 312.589 460.336 312.589 458.736C312.589 458.08 312.533 457.488 312.421 456.96C312.309 456.416 312.125 455.96 311.869 455.592C311.629 455.208 311.309 454.912 310.909 454.704C310.525 454.496 310.045 454.392 309.469 454.392ZM320.852 460.776L321.524 463.08H321.644L322.172 460.752L324.5 453H326.444L322.892 463.776C322.62 464.56 322.348 465.32 322.076 466.056C321.82 466.792 321.532 467.448 321.212 468.024C320.892 468.6 320.532 469.056 320.132 469.392C319.732 469.744 319.268 469.92 318.74 469.92C318.164 469.92 317.692 469.84 317.324 469.68L317.66 468.024C317.868 468.104 318.068 468.144 318.26 468.144C318.708 468.144 319.14 467.904 319.556 467.424C319.972 466.96 320.316 466.152 320.588 465L315.764 453H317.972L320.852 460.776ZM338.784 468.048H337.488L337.128 465H328.104L327.744 468.048H326.448V463.32H327.864C327.992 463.144 328.16 462.832 328.368 462.384C328.576 461.92 328.776 461.28 328.968 460.464C329.176 459.632 329.352 458.608 329.496 457.392C329.656 456.16 329.752 454.696 329.784 453H337.032V463.32H338.784V468.048ZM335.112 463.32V454.68H331.512C331.48 455.352 331.424 456.088 331.344 456.888C331.264 457.672 331.152 458.464 331.008 459.264C330.88 460.048 330.712 460.792 330.504 461.496C330.296 462.2 330.056 462.808 329.784 463.32H335.112ZM348.504 459.696H343.08V465H341.16V453H343.08V458.016H348.504V453H350.424V465H348.504V459.696ZM361.609 457.896L361.681 456.408H361.609L360.625 457.944L355.225 465H354.121V453H356.041V460.32L355.969 461.736H356.065L357.001 460.248L362.401 453H363.529V465H361.609V457.896ZM370.247 459.6H369.143V465H367.223V453H369.143V458.424L370.175 458.088L374.015 453H376.103L372.383 457.824L371.375 458.616L372.623 459.576L376.631 465H374.255L370.247 459.6Z" fill="#BBB5C4"/>
<path d="M183.075 284.34C184.935 284.34 186.585 284.81 188.025 285.75C189.465 286.69 190.585 288 191.385 289.68C192.205 291.36 192.615 293.32 192.615 295.56C192.615 297.84 192.215 299.79 191.415 301.41C190.635 303.03 189.525 304.27 188.085 305.13C186.665 305.99 185.005 306.42 183.105 306.42C181.825 306.42 180.765 306.23 179.925 305.85C179.085 305.45 178.295 304.99 177.555 304.47C177.115 304.19 176.795 304.16 176.595 304.38C176.415 304.6 176.285 305.14 176.205 306H175.515C175.555 305.24 175.585 304.31 175.605 303.21C175.625 302.09 175.635 300.62 175.635 298.8H176.325C176.485 300.02 176.645 300.97 176.805 301.65C176.965 302.33 177.265 302.96 177.705 303.54C178.285 304.34 179.055 304.92 180.015 305.28C180.995 305.64 181.935 305.82 182.835 305.82C183.795 305.82 184.685 305.6 185.505 305.16C186.345 304.7 187.065 304.03 187.665 303.15C188.285 302.27 188.765 301.19 189.105 299.91C189.445 298.61 189.615 297.12 189.615 295.44C189.615 293.82 189.455 292.36 189.135 291.06C188.835 289.76 188.395 288.65 187.815 287.73C187.255 286.81 186.575 286.11 185.775 285.63C184.995 285.13 184.115 284.88 183.135 284.88C182.095 284.88 181.105 285.07 180.165 285.45C179.245 285.81 178.465 286.4 177.825 287.22C177.545 287.58 177.315 287.94 177.135 288.3C176.975 288.66 176.835 289.1 176.715 289.62C176.595 290.12 176.465 290.8 176.325 291.66H175.635C175.635 289.92 175.625 288.52 175.605 287.46C175.585 286.4 175.555 285.5 175.515 284.76H176.205C176.285 285.62 176.435 286.17 176.655 286.41C176.875 286.63 177.175 286.59 177.555 286.29C178.215 285.77 178.965 285.32 179.805 284.94C180.665 284.54 181.755 284.34 183.075 284.34ZM180.795 293.22C181.475 293.22 182.075 293.34 182.595 293.58C183.135 293.8 183.645 294.06 184.125 294.36C184.605 294.66 185.095 294.93 185.595 295.17C186.095 295.39 186.655 295.5 187.275 295.5C187.775 295.5 188.235 295.38 188.655 295.14C189.095 294.9 189.445 294.48 189.705 293.88L189.885 294.03C189.625 295.07 189.135 295.85 188.415 296.37C187.715 296.87 186.925 297.12 186.045 297.12C185.385 297.12 184.785 297.01 184.245 296.79C183.725 296.55 183.225 296.28 182.745 295.98C182.265 295.68 181.775 295.42 181.275 295.2C180.775 294.96 180.225 294.84 179.625 294.84C179.125 294.84 178.635 294.97 178.155 295.23C177.695 295.49 177.355 295.92 177.135 296.52L176.685 296.31C176.965 295.27 177.485 294.5 178.245 294C179.025 293.48 179.875 293.22 180.795 293.22ZM208.286 290.13C208.986 290.13 209.476 290.3 209.756 290.64C210.056 290.98 210.206 291.36 210.206 291.78C210.206 292.22 210.066 292.6 209.786 292.92C209.506 293.22 209.116 293.37 208.616 293.37C208.256 293.37 207.946 293.29 207.686 293.13C207.426 292.97 207.226 292.75 207.086 292.47C206.946 292.17 206.876 291.83 206.876 291.45C206.876 291.41 206.876 291.37 206.876 291.33C206.876 291.29 206.876 291.26 206.876 291.24C206.656 291.34 206.456 291.52 206.276 291.78C206.116 292.04 205.946 292.39 205.766 292.83C205.586 293.27 205.376 293.81 205.136 294.45C204.936 294.99 204.706 295.51 204.446 296.01C204.186 296.51 203.826 296.93 203.366 297.27C202.906 297.61 202.276 297.83 201.476 297.93L201.746 297.72C202.946 297.68 203.996 297.81 204.896 298.11C205.816 298.41 206.536 298.97 207.056 299.79C207.396 300.31 207.676 300.95 207.896 301.71C208.136 302.47 208.386 303.14 208.646 303.72C208.866 304.22 209.116 304.61 209.396 304.89C209.696 305.15 210.156 305.31 210.776 305.37V306C210.456 306.06 210.136 306.11 209.816 306.15C209.496 306.19 209.196 306.21 208.916 306.21C208.016 306.21 207.356 306 206.936 305.58C206.516 305.14 206.196 304.55 205.976 303.81C205.876 303.47 205.756 303.06 205.616 302.58C205.476 302.08 205.306 301.58 205.106 301.08C204.906 300.56 204.666 300.11 204.386 299.73C203.946 299.11 203.376 298.71 202.676 298.53C201.976 298.33 201.066 298.25 199.946 298.29V297.78C201.046 297.72 201.896 297.54 202.496 297.24C203.096 296.92 203.556 296.48 203.876 295.92C204.196 295.36 204.486 294.7 204.746 293.94C204.946 293.38 205.166 292.81 205.406 292.23C205.646 291.63 205.986 291.13 206.426 290.73C206.886 290.33 207.506 290.13 208.286 290.13ZM202.046 290.58V291.21C201.326 291.21 200.816 291.36 200.516 291.66C200.216 291.96 200.066 292.53 200.066 293.37V303.21C200.066 304.05 200.216 304.62 200.516 304.92C200.816 305.22 201.326 305.37 202.046 305.37V306C201.726 305.98 201.246 305.96 200.606 305.94C199.966 305.9 199.316 305.88 198.656 305.88C197.996 305.88 197.316 305.9 196.616 305.94C195.936 305.96 195.426 305.98 195.086 306V305.37C195.906 305.37 196.486 305.22 196.826 304.92C197.186 304.62 197.366 304.05 197.366 303.21V293.37C197.366 292.53 197.186 291.96 196.826 291.66C196.486 291.36 195.906 291.21 195.086 291.21V290.58C195.426 290.6 195.936 290.63 196.616 290.67C197.316 290.69 197.996 290.7 198.656 290.7C199.316 290.7 199.966 290.69 200.606 290.67C201.246 290.63 201.726 290.6 202.046 290.58ZM219.165 290.13C220.445 290.13 221.595 290.41 222.615 290.97C223.635 291.53 224.445 292.41 225.045 293.61C225.665 294.81 225.975 296.37 225.975 298.29C225.975 300.21 225.665 301.77 225.045 302.97C224.445 304.15 223.635 305.02 222.615 305.58C221.595 306.14 220.445 306.42 219.165 306.42C217.905 306.42 216.755 306.14 215.715 305.58C214.695 305.02 213.875 304.15 213.255 302.97C212.655 301.77 212.355 300.21 212.355 298.29C212.355 296.37 212.655 294.81 213.255 293.61C213.875 292.41 214.695 291.53 215.715 290.97C216.755 290.41 217.905 290.13 219.165 290.13ZM219.165 290.73C218.025 290.73 217.085 291.32 216.345 292.5C215.625 293.68 215.265 295.61 215.265 298.29C215.265 300.97 215.625 302.9 216.345 304.08C217.085 305.24 218.025 305.82 219.165 305.82C220.305 305.82 221.235 305.24 221.955 304.08C222.695 302.9 223.065 300.97 223.065 298.29C223.065 295.61 222.695 293.68 221.955 292.5C221.235 291.32 220.305 290.73 219.165 290.73ZM244.84 290.58V291.21C244.02 291.21 243.43 291.36 243.07 291.66C242.73 291.96 242.56 292.53 242.56 293.37V303.21C242.56 304.05 242.73 304.62 243.07 304.92C243.43 305.22 244.02 305.37 244.84 305.37V306C244.5 305.98 243.98 305.96 243.28 305.94C242.58 305.9 241.9 305.88 241.24 305.88C240.58 305.88 239.93 305.9 239.29 305.94C238.67 305.96 238.2 305.98 237.88 306V305.37C238.6 305.37 239.11 305.22 239.41 304.92C239.71 304.62 239.86 304.05 239.86 303.21V293.37C239.86 292.53 239.71 291.96 239.41 291.66C239.11 291.36 238.6 291.21 237.88 291.21V290.58C238.2 290.6 238.67 290.63 239.29 290.67C239.93 290.69 240.58 290.7 241.24 290.7C241.9 290.7 242.58 290.69 243.28 290.67C243.98 290.63 244.5 290.6 244.84 290.58ZM235.21 290.58V291.21C234.49 291.21 233.98 291.36 233.68 291.66C233.38 291.96 233.23 292.53 233.23 293.37V303.21C233.23 304.05 233.38 304.62 233.68 304.92C233.98 305.22 234.49 305.37 235.21 305.37V306C234.89 305.98 234.41 305.96 233.77 305.94C233.15 305.9 232.51 305.88 231.85 305.88C231.19 305.88 230.51 305.9 229.81 305.94C229.11 305.96 228.59 305.98 228.25 306V305.37C229.07 305.37 229.65 305.22 229.99 304.92C230.35 304.62 230.53 304.05 230.53 303.21V293.37C230.53 292.53 230.35 291.96 229.99 291.66C229.65 291.36 229.07 291.21 228.25 291.21V290.58C228.59 290.6 229.11 290.63 229.81 290.67C230.51 290.69 231.19 290.7 231.85 290.7C232.51 290.7 233.15 290.69 233.77 290.67C234.41 290.63 234.89 290.6 235.21 290.58ZM240.7 297.75V298.35H232.24V297.75H240.7ZM253.94 290.13C255.22 290.13 256.37 290.41 257.39 290.97C258.41 291.53 259.22 292.41 259.82 293.61C260.44 294.81 260.75 296.37 260.75 298.29C260.75 300.21 260.44 301.77 259.82 302.97C259.22 304.15 258.41 305.02 257.39 305.58C256.37 306.14 255.22 306.42 253.94 306.42C252.68 306.42 251.53 306.14 250.49 305.58C249.47 305.02 248.65 304.15 248.03 302.97C247.43 301.77 247.13 300.21 247.13 298.29C247.13 296.37 247.43 294.81 248.03 293.61C248.65 292.41 249.47 291.53 250.49 290.97C251.53 290.41 252.68 290.13 253.94 290.13ZM253.94 290.73C252.8 290.73 251.86 291.32 251.12 292.5C250.4 293.68 250.04 295.61 250.04 298.29C250.04 300.97 250.4 302.9 251.12 304.08C251.86 305.24 252.8 305.82 253.94 305.82C255.08 305.82 256.01 305.24 256.73 304.08C257.47 302.9 257.84 300.97 257.84 298.29C257.84 295.61 257.47 293.68 256.73 292.5C256.01 291.32 255.08 290.73 253.94 290.73ZM282.616 290.55V291.15C281.936 291.17 281.416 291.25 281.056 291.39C280.716 291.51 280.486 291.75 280.366 292.11C280.246 292.45 280.186 292.99 280.186 293.73V302.82C280.186 303.54 280.246 304.08 280.366 304.44C280.486 304.8 280.716 305.04 281.056 305.16C281.416 305.28 281.936 305.36 282.616 305.4V306C282.156 305.96 281.596 305.94 280.936 305.94C280.276 305.92 279.596 305.91 278.896 305.91C278.116 305.91 277.386 305.92 276.706 305.94C276.026 305.94 275.476 305.96 275.056 306V305.4C275.736 305.36 276.246 305.28 276.586 305.16C276.946 305.04 277.186 304.8 277.306 304.44C277.426 304.08 277.486 303.54 277.486 302.82V292.29L271.906 306.15H271.426L266.086 292.47V302.82C266.086 303.54 266.146 304.08 266.266 304.44C266.386 304.8 266.616 305.04 266.956 305.16C267.316 305.28 267.836 305.36 268.516 305.4V306C268.156 305.96 267.736 305.94 267.256 305.94C266.796 305.92 266.306 305.91 265.786 305.91C265.286 305.91 264.776 305.92 264.256 305.94C263.756 305.94 263.336 305.96 262.996 306V305.4C263.676 305.36 264.186 305.28 264.526 305.16C264.886 305.04 265.126 304.8 265.246 304.44C265.366 304.08 265.426 303.54 265.426 302.82V293.73C265.426 292.99 265.366 292.45 265.246 292.11C265.126 291.75 264.886 291.51 264.526 291.39C264.186 291.25 263.676 291.17 262.996 291.15V290.55C263.336 290.57 263.756 290.59 264.256 290.61C264.776 290.63 265.286 290.64 265.786 290.64C266.666 290.64 267.436 290.61 268.096 290.55L272.836 303.12L272.476 303.18L277.486 290.64C277.706 290.64 277.926 290.64 278.146 290.64C278.386 290.64 278.636 290.64 278.896 290.64C279.596 290.64 280.266 290.63 280.906 290.61C281.566 290.59 282.136 290.57 282.616 290.55ZM301.365 290.58V291.21C300.545 291.21 299.955 291.36 299.595 291.66C299.255 291.96 299.085 292.53 299.085 293.37V303.21C299.085 304.05 299.255 304.62 299.595 304.92C299.955 305.22 300.545 305.37 301.365 305.37V306C301.025 305.98 300.505 305.96 299.805 305.94C299.105 305.9 298.425 305.88 297.765 305.88C297.105 305.88 296.455 305.9 295.815 305.94C295.195 305.96 294.725 305.98 294.405 306V305.37C295.125 305.37 295.635 305.22 295.935 304.92C296.235 304.62 296.385 304.05 296.385 303.21V293.37C296.385 292.53 296.235 291.96 295.935 291.66C295.635 291.36 295.125 291.21 294.405 291.21V290.58C294.725 290.6 295.195 290.63 295.815 290.67C296.455 290.69 297.105 290.7 297.765 290.7C298.425 290.7 299.105 290.69 299.805 290.67C300.505 290.63 301.025 290.6 301.365 290.58ZM291.285 290.58V291.21C290.565 291.21 290.055 291.36 289.755 291.66C289.455 291.96 289.305 292.53 289.305 293.37V303.21C289.305 304.05 289.455 304.62 289.755 304.92C290.055 305.22 290.565 305.37 291.285 305.37V306C290.965 305.98 290.485 305.96 289.845 305.94C289.225 305.9 288.585 305.88 287.925 305.88C287.265 305.88 286.585 305.9 285.885 305.94C285.185 305.96 284.665 305.98 284.325 306V305.37C285.145 305.37 285.725 305.22 286.065 304.92C286.425 304.62 286.605 304.05 286.605 303.21V293.37C286.605 292.53 286.425 291.96 286.065 291.66C285.725 291.36 285.145 291.21 284.325 291.21V290.58C284.665 290.6 285.185 290.63 285.885 290.67C286.585 290.69 287.265 290.7 287.925 290.7C288.585 290.7 289.225 290.69 289.845 290.67C290.485 290.63 290.965 290.6 291.285 290.58ZM296.685 292.68L297.165 293.01L288.915 304.41L288.435 304.05L296.685 292.68ZM317.534 290.58V291.21C316.714 291.21 316.124 291.36 315.764 291.66C315.424 291.96 315.254 292.53 315.254 293.37V303.21C315.254 304.05 315.404 304.62 315.704 304.92C316.004 305.22 316.514 305.37 317.234 305.37V306C316.914 305.98 316.434 305.96 315.794 305.94C315.174 305.9 314.534 305.88 313.874 305.88C313.214 305.88 312.534 305.9 311.834 305.94C311.134 305.96 310.614 305.98 310.274 306V305.37C311.094 305.37 311.674 305.22 312.014 304.92C312.374 304.62 312.554 304.05 312.554 303.21V293.37C312.554 292.57 312.394 292.01 312.074 291.69C311.754 291.37 311.194 291.21 310.394 291.21C309.494 291.21 308.804 291.38 308.324 291.72C307.864 292.04 307.554 292.46 307.394 292.98C307.234 293.5 307.154 294.06 307.154 294.66C307.154 295.96 307.464 296.94 308.084 297.6C308.704 298.26 309.794 298.61 311.354 298.65C311.854 298.67 312.354 298.68 312.854 298.68C313.354 298.68 313.854 298.68 314.354 298.68L314.414 299.25C313.354 299.25 312.444 299.26 311.684 299.28C310.944 299.3 310.374 299.31 309.974 299.31C308.774 299.31 307.804 299.19 307.064 298.95C306.324 298.69 305.754 298.35 305.354 297.93C304.974 297.51 304.714 297.05 304.574 296.55C304.454 296.05 304.394 295.55 304.394 295.05C304.394 294.19 304.554 293.43 304.874 292.77C305.214 292.09 305.794 291.56 306.614 291.18C307.434 290.78 308.574 290.58 310.034 290.58C310.594 290.58 311.214 290.6 311.894 290.64C312.574 290.68 313.274 290.7 313.994 290.7C314.634 290.7 315.294 290.69 315.974 290.67C316.674 290.63 317.194 290.6 317.534 290.58ZM311.534 298.95V299.28C311.034 299.3 310.514 299.33 309.974 299.37C309.434 299.39 308.964 299.58 308.564 299.94C308.244 300.24 308.004 300.63 307.844 301.11C307.684 301.59 307.544 302.11 307.424 302.67C307.324 303.23 307.164 303.79 306.944 304.35C306.724 304.95 306.404 305.39 305.984 305.67C305.584 305.95 304.874 306.09 303.854 306.09C303.594 306.09 303.324 306.08 303.044 306.06C302.764 306.04 302.454 306.02 302.114 306V305.37C302.694 305.31 303.124 305.23 303.404 305.13C303.704 305.01 303.924 304.84 304.064 304.62C304.204 304.38 304.344 304.07 304.484 303.69C304.804 302.81 305.064 302.13 305.264 301.65C305.464 301.17 305.674 300.8 305.894 300.54C306.114 300.26 306.404 300.02 306.764 299.82C307.004 299.68 307.274 299.56 307.574 299.46C307.894 299.34 308.244 299.24 308.624 299.16C309.024 299.08 309.464 299.02 309.944 298.98C310.444 298.94 310.974 298.93 311.534 298.95ZM335.838 289.05C335.838 290.19 335.848 291.08 335.868 291.72C335.888 292.36 335.918 292.93 335.958 293.43C335.798 293.39 335.488 293.36 335.028 293.34C334.588 293.32 334.078 293.31 333.498 293.31C332.918 293.29 332.348 293.28 331.788 293.28H328.608L328.248 299.07C328.688 298.85 329.178 298.65 329.718 298.47C330.258 298.27 330.938 298.17 331.758 298.17C332.978 298.17 333.978 298.37 334.758 298.77C335.538 299.17 336.118 299.72 336.498 300.42C336.878 301.12 337.068 301.91 337.068 302.79C337.068 303.95 336.778 305 336.198 305.94C335.618 306.88 334.838 307.68 333.858 308.34C332.898 309.02 331.838 309.54 330.678 309.9C329.518 310.26 328.348 310.44 327.168 310.44V309.9C328.048 309.9 328.908 309.75 329.748 309.45C330.588 309.17 331.338 308.74 331.998 308.16C332.678 307.6 333.218 306.9 333.618 306.06C334.018 305.22 334.218 304.23 334.218 303.09C334.218 301.83 333.888 300.85 333.228 300.15C332.588 299.43 331.658 299.07 330.438 299.07C329.918 299.07 329.478 299.12 329.118 299.22C328.778 299.3 328.398 299.42 327.978 299.58L327.678 299.4L328.248 290.46C328.468 290.5 328.718 290.53 328.998 290.55C329.298 290.57 329.588 290.58 329.868 290.58H333.258C334.078 290.58 334.598 290.47 334.818 290.25C335.038 290.01 335.188 289.61 335.268 289.05H335.838ZM347.419 290.13C348.839 290.13 350.089 290.46 351.169 291.12C352.269 291.76 353.129 292.67 353.749 293.85C354.369 295.03 354.679 296.42 354.679 298.02C354.679 299.62 354.359 301.06 353.719 302.34C353.079 303.6 352.189 304.6 351.049 305.34C349.929 306.06 348.609 306.42 347.089 306.42C345.709 306.42 344.469 306.1 343.369 305.46C342.269 304.8 341.399 303.88 340.759 302.7C340.139 301.5 339.829 300.1 339.829 298.5C339.829 296.92 340.139 295.5 340.759 294.24C341.399 292.98 342.289 291.98 343.429 291.24C344.569 290.5 345.899 290.13 347.419 290.13ZM347.149 290.67C345.869 290.67 344.809 291.35 343.969 292.71C343.149 294.07 342.739 295.97 342.739 298.41C342.739 300.21 342.949 301.66 343.369 302.76C343.789 303.84 344.349 304.63 345.049 305.13C345.769 305.63 346.539 305.88 347.359 305.88C348.659 305.88 349.719 305.2 350.539 303.84C351.359 302.46 351.769 300.55 351.769 298.11C351.769 296.31 351.559 294.87 351.139 293.79C350.719 292.69 350.159 291.9 349.459 291.42C348.759 290.92 347.989 290.67 347.149 290.67ZM372.878 290.13C374.298 290.13 375.548 290.46 376.628 291.12C377.728 291.76 378.588 292.67 379.208 293.85C379.828 295.03 380.138 296.42 380.138 298.02C380.138 299.62 379.818 301.06 379.178 302.34C378.538 303.6 377.648 304.6 376.508 305.34C375.388 306.06 374.068 306.42 372.548 306.42C371.168 306.42 369.928 306.1 368.828 305.46C367.728 304.8 366.858 303.88 366.218 302.7C365.598 301.5 365.288 300.1 365.288 298.5C365.288 296.92 365.598 295.5 366.218 294.24C366.858 292.98 367.748 291.98 368.888 291.24C370.028 290.5 371.358 290.13 372.878 290.13ZM372.608 290.67C371.328 290.67 370.268 291.35 369.428 292.71C368.608 294.07 368.198 295.97 368.198 298.41C368.198 300.21 368.408 301.66 368.828 302.76C369.248 303.84 369.808 304.63 370.508 305.13C371.228 305.63 371.998 305.88 372.818 305.88C374.118 305.88 375.178 305.2 375.998 303.84C376.818 302.46 377.228 300.55 377.228 298.11C377.228 296.31 377.018 294.87 376.598 293.79C376.178 292.69 375.618 291.9 374.918 291.42C374.218 290.92 373.448 290.67 372.608 290.67ZM390.866 290.13C392.286 290.13 393.536 290.46 394.616 291.12C395.716 291.76 396.576 292.67 397.196 293.85C397.816 295.03 398.126 296.42 398.126 298.02C398.126 299.62 397.806 301.06 397.166 302.34C396.526 303.6 395.636 304.6 394.496 305.34C393.376 306.06 392.056 306.42 390.536 306.42C389.156 306.42 387.916 306.1 386.816 305.46C385.716 304.8 384.846 303.88 384.206 302.7C383.586 301.5 383.276 300.1 383.276 298.5C383.276 296.92 383.586 295.5 384.206 294.24C384.846 292.98 385.736 291.98 386.876 291.24C388.016 290.5 389.346 290.13 390.866 290.13ZM390.596 290.67C389.316 290.67 388.256 291.35 387.416 292.71C386.596 294.07 386.186 295.97 386.186 298.41C386.186 300.21 386.396 301.66 386.816 302.76C387.236 303.84 387.796 304.63 388.496 305.13C389.216 305.63 389.986 305.88 390.806 305.88C392.106 305.88 393.166 305.2 393.986 303.84C394.806 302.46 395.216 300.55 395.216 298.11C395.216 296.31 395.006 294.87 394.586 293.79C394.166 292.69 393.606 291.9 392.906 291.42C392.206 290.92 391.436 290.67 390.596 290.67ZM408.855 290.13C410.275 290.13 411.525 290.46 412.605 291.12C413.705 291.76 414.565 292.67 415.185 293.85C415.805 295.03 416.115 296.42 416.115 298.02C416.115 299.62 415.795 301.06 415.155 302.34C414.515 303.6 413.625 304.6 412.485 305.34C411.365 306.06 410.045 306.42 408.525 306.42C407.145 306.42 405.905 306.1 404.805 305.46C403.705 304.8 402.835 303.88 402.195 302.7C401.575 301.5 401.265 300.1 401.265 298.5C401.265 296.92 401.575 295.5 402.195 294.24C402.835 292.98 403.725 291.98 404.865 291.24C406.005 290.5 407.335 290.13 408.855 290.13ZM408.585 290.67C407.305 290.67 406.245 291.35 405.405 292.71C404.585 294.07 404.175 295.97 404.175 298.41C404.175 300.21 404.385 301.66 404.805 302.76C405.225 303.84 405.785 304.63 406.485 305.13C407.205 305.63 407.975 305.88 408.795 305.88C410.095 305.88 411.155 305.2 411.975 303.84C412.795 302.46 413.205 300.55 413.205 298.11C413.205 296.31 412.995 294.87 412.575 293.79C412.155 292.69 411.595 291.9 410.895 291.42C410.195 290.92 409.425 290.67 408.585 290.67ZM427.053 287.82V294.9H434.013V295.8H427.053V302.85H425.973V295.8H418.983V294.9H425.973V287.82H427.053ZM179.085 330.22V348.64C179.085 349.5 179.335 350.07 179.835 350.35C180.355 350.65 181.065 350.8 181.965 350.8V351.43C181.525 351.41 180.915 351.38 180.135 351.34C179.355 351.32 178.525 351.31 177.645 351.31C177.025 351.31 176.405 351.32 175.785 351.34C175.185 351.38 174.725 351.41 174.405 351.43V350.8C175.125 350.8 175.635 350.67 175.935 350.41C176.235 350.15 176.385 349.66 176.385 348.94V333.82C176.385 332.92 176.225 332.26 175.905 331.84C175.585 331.4 174.985 331.18 174.105 331.18V330.55C174.745 330.61 175.365 330.64 175.965 330.64C176.545 330.64 177.095 330.61 177.615 330.55C178.155 330.47 178.645 330.36 179.085 330.22ZM183.885 330.13C184.945 330.13 185.895 330.42 186.735 331C187.575 331.56 188.235 332.39 188.715 333.49C189.215 334.59 189.465 335.95 189.465 337.57C189.465 338.65 189.335 339.72 189.075 340.78C188.815 341.82 188.405 342.77 187.845 343.63C187.305 344.47 186.595 345.15 185.715 345.67C184.855 346.17 183.815 346.42 182.595 346.42C181.655 346.42 180.835 346.2 180.135 345.76C179.455 345.32 178.995 344.79 178.755 344.17L179.055 343.75C179.335 344.31 179.735 344.78 180.255 345.16C180.795 345.54 181.465 345.73 182.265 345.73C183.385 345.73 184.255 345.38 184.875 344.68C185.495 343.98 185.925 343.05 186.165 341.89C186.425 340.71 186.555 339.41 186.555 337.99C186.555 336.39 186.425 335.08 186.165 334.06C185.905 333.04 185.515 332.28 184.995 331.78C184.475 331.28 183.835 331.03 183.075 331.03C182.095 331.03 181.205 331.44 180.405 332.26C179.605 333.06 179.095 334.28 178.875 335.92L178.515 335.5C178.735 333.8 179.335 332.48 180.315 331.54C181.315 330.6 182.505 330.13 183.885 330.13ZM205.345 330.55V331.15C204.965 331.19 204.615 331.36 204.295 331.66C203.975 331.96 203.675 332.49 203.395 333.25L198.475 346.15H197.965L192.445 332.86C192.065 332.08 191.685 331.61 191.305 331.45C190.945 331.27 190.645 331.18 190.405 331.18V330.55C190.845 330.61 191.305 330.66 191.785 330.7C192.265 330.72 192.785 330.73 193.345 330.73C193.965 330.73 194.615 330.71 195.295 330.67C195.995 330.63 196.645 330.59 197.245 330.55V331.18C196.745 331.18 196.295 331.22 195.895 331.3C195.515 331.36 195.275 331.57 195.175 331.93C195.075 332.27 195.195 332.86 195.535 333.7L199.225 342.85L199.045 342.91L202.465 333.97C202.725 333.31 202.825 332.79 202.765 332.41C202.725 332.01 202.525 331.71 202.165 331.51C201.805 331.31 201.265 331.19 200.545 331.15V330.55C200.905 330.57 201.215 330.59 201.475 330.61C201.735 330.61 201.985 330.62 202.225 330.64C202.485 330.64 202.765 330.64 203.065 330.64C203.525 330.64 203.935 330.63 204.295 330.61C204.675 330.59 205.025 330.57 205.345 330.55ZM198.475 346.15L197.455 348.76C197.255 349.26 197.045 349.68 196.825 350.02C196.625 350.36 196.405 350.64 196.165 350.86C195.845 351.16 195.465 351.36 195.025 351.46C194.585 351.58 194.185 351.64 193.825 351.64C193.445 351.64 193.095 351.57 192.775 351.43C192.475 351.29 192.235 351.08 192.055 350.8C191.875 350.54 191.785 350.22 191.785 349.84C191.785 349.36 191.925 348.97 192.205 348.67C192.485 348.39 192.875 348.25 193.375 348.25C193.795 348.25 194.155 348.37 194.455 348.61C194.755 348.85 194.905 349.2 194.905 349.66C194.905 350 194.825 350.28 194.665 350.5C194.505 350.72 194.315 350.89 194.095 351.01C194.135 351.03 194.165 351.04 194.185 351.04C194.225 351.04 194.255 351.04 194.275 351.04C194.815 351.04 195.295 350.85 195.715 350.47C196.135 350.11 196.505 349.52 196.825 348.7L197.905 345.91L198.475 346.15ZM220.792 322.42L221.242 322.54C221.042 323.2 220.812 323.8 220.552 324.34C220.292 324.88 219.962 325.31 219.562 325.63C219.242 325.89 218.832 326.11 218.332 326.29C217.832 326.47 217.202 326.58 216.442 326.62C216.122 326.64 215.662 326.67 215.062 326.71C214.462 326.75 213.902 326.82 213.382 326.92C212.562 327.06 211.862 327.31 211.282 327.67C210.702 328.01 210.212 328.51 209.812 329.17C209.432 329.83 209.122 330.69 208.882 331.75C208.642 332.81 208.442 334.11 208.282 335.65L209.782 337.48L208.072 336.64C208.372 335.12 208.842 333.94 209.482 333.1C210.142 332.24 210.912 331.63 211.792 331.27C212.672 330.91 213.602 330.73 214.582 330.73C216.162 330.73 217.422 331.09 218.362 331.81C219.302 332.51 219.982 333.43 220.402 334.57C220.842 335.69 221.062 336.9 221.062 338.2C221.062 339.84 220.762 341.28 220.162 342.52C219.562 343.76 218.722 344.72 217.642 345.4C216.582 346.08 215.342 346.42 213.922 346.42C212.962 346.42 212.092 346.25 211.312 345.91C210.532 345.55 209.862 344.99 209.302 344.23C208.742 343.45 208.302 342.44 207.982 341.2C207.682 339.96 207.532 338.44 207.532 336.64C207.532 336.38 207.542 335.95 207.562 335.35C207.582 334.75 207.632 334.06 207.712 333.28C207.792 332.5 207.922 331.7 208.102 330.88C208.282 330.04 208.522 329.24 208.822 328.48C209.122 327.72 209.512 327.08 209.992 326.56C210.392 326.12 210.892 325.75 211.492 325.45C212.092 325.13 212.792 324.9 213.592 324.76C214.212 324.66 214.862 324.59 215.542 324.55C216.222 324.51 216.752 324.48 217.132 324.46C218.252 324.38 219.062 324.18 219.562 323.86C220.062 323.54 220.472 323.06 220.792 322.42ZM214.462 331.36C213.782 331.36 213.132 331.58 212.512 332.02C211.892 332.44 211.382 333.16 210.982 334.18C210.582 335.2 210.382 336.62 210.382 338.44C210.382 340.22 210.572 341.66 210.952 342.76C211.352 343.84 211.862 344.62 212.482 345.1C213.102 345.58 213.752 345.82 214.432 345.82C215.212 345.82 215.842 345.57 216.322 345.07C216.822 344.55 217.202 343.9 217.462 343.12C217.722 342.32 217.902 341.48 218.002 340.6C218.102 339.7 218.152 338.87 218.152 338.11C218.152 335.67 217.802 333.94 217.102 332.92C216.422 331.88 215.542 331.36 214.462 331.36ZM236.398 330.58V331.21C235.578 331.21 234.988 331.36 234.628 331.66C234.288 331.96 234.118 332.53 234.118 333.37V343.21C234.118 344.05 234.288 344.62 234.628 344.92C234.988 345.22 235.578 345.37 236.398 345.37V346C236.058 345.98 235.558 345.96 234.898 345.94C234.238 345.9 233.518 345.88 232.738 345.88C231.958 345.88 231.168 345.9 230.368 345.94C229.588 345.96 228.978 345.98 228.538 346V345.37C229.438 345.37 230.138 345.23 230.638 344.95C231.158 344.65 231.418 344.07 231.418 343.21V333.37C231.418 332.53 231.268 331.96 230.968 331.66C230.668 331.36 230.158 331.21 229.438 331.21H229.168C228.668 331.21 228.338 331.36 228.178 331.66C228.018 331.96 227.898 332.53 227.818 333.37C227.658 335.23 227.458 337.01 227.218 338.71C226.998 340.39 226.618 341.91 226.078 343.27C225.878 343.75 225.628 344.24 225.328 344.74C225.028 345.22 224.658 345.62 224.218 345.94C223.798 346.26 223.288 346.42 222.688 346.42C222.328 346.42 221.988 346.35 221.668 346.21C221.348 346.09 221.088 345.9 220.888 345.64C220.688 345.36 220.588 345.02 220.588 344.62C220.588 344.12 220.738 343.73 221.038 343.45C221.338 343.17 221.728 343.03 222.208 343.03C222.628 343.03 222.978 343.15 223.258 343.39C223.558 343.63 223.708 343.99 223.708 344.47C223.708 344.79 223.618 345.08 223.438 345.34C223.258 345.58 222.968 345.78 222.568 345.94C222.608 345.96 222.658 345.97 222.718 345.97C222.798 345.97 222.848 345.97 222.868 345.97C223.368 345.97 223.788 345.81 224.128 345.49C224.488 345.15 224.788 344.76 225.028 344.32C225.288 343.86 225.478 343.46 225.598 343.12C225.918 342.28 226.188 341.34 226.408 340.3C226.628 339.26 226.808 338.15 226.948 336.97C227.088 335.79 227.198 334.59 227.278 333.37C227.338 332.53 227.158 331.96 226.738 331.66C226.338 331.36 225.728 331.21 224.908 331.21V330.58C225.068 330.6 225.318 330.63 225.658 330.67C226.018 330.69 226.448 330.7 226.948 330.7C227.348 330.7 227.758 330.7 228.178 330.7C228.618 330.7 229.058 330.7 229.498 330.7C229.878 330.7 230.228 330.7 230.548 330.7C230.868 330.7 231.208 330.7 231.568 330.7C231.928 330.7 232.328 330.7 232.768 330.7C233.228 330.7 233.688 330.69 234.148 330.67C234.628 330.65 235.068 330.63 235.468 330.61C235.868 330.59 236.178 330.58 236.398 330.58ZM245.443 330.13C247.203 330.13 248.573 330.67 249.553 331.75C250.553 332.81 251.053 334.47 251.053 336.73H240.463L240.433 336.16H248.173C248.213 335.18 248.133 334.28 247.933 333.46C247.733 332.62 247.413 331.95 246.973 331.45C246.553 330.95 246.003 330.7 245.323 330.7C244.403 330.7 243.583 331.16 242.863 332.08C242.163 333 241.743 334.46 241.603 336.46L241.693 336.58C241.653 336.88 241.623 337.21 241.603 337.57C241.583 337.93 241.573 338.29 241.573 338.65C241.573 340.01 241.793 341.18 242.233 342.16C242.673 343.14 243.243 343.89 243.943 344.41C244.663 344.91 245.403 345.16 246.163 345.16C246.763 345.16 247.333 345.07 247.873 344.89C248.413 344.69 248.913 344.37 249.373 343.93C249.833 343.49 250.233 342.9 250.573 342.16L251.173 342.4C250.953 343.06 250.593 343.7 250.093 344.32C249.593 344.94 248.963 345.45 248.203 345.85C247.443 346.23 246.563 346.42 245.563 346.42C244.123 346.42 242.883 346.09 241.843 345.43C240.823 344.77 240.033 343.86 239.473 342.7C238.933 341.52 238.663 340.17 238.663 338.65C238.663 336.89 238.943 335.38 239.503 334.12C240.063 332.84 240.853 331.86 241.873 331.18C242.893 330.48 244.083 330.13 245.443 330.13ZM270.368 330.58V331.21C269.548 331.21 268.958 331.36 268.598 331.66C268.258 331.96 268.088 332.53 268.088 333.37V343.21C268.088 344.05 268.258 344.62 268.598 344.92C268.958 345.22 269.548 345.37 270.368 345.37V346C270.028 345.98 269.508 345.96 268.808 345.94C268.108 345.9 267.428 345.88 266.768 345.88C266.108 345.88 265.458 345.9 264.818 345.94C264.198 345.96 263.728 345.98 263.408 346V345.37C264.128 345.37 264.638 345.22 264.938 344.92C265.238 344.62 265.388 344.05 265.388 343.21V333.37C265.388 332.53 265.238 331.96 264.938 331.66C264.638 331.36 264.128 331.21 263.408 331.21V330.58C263.728 330.6 264.198 330.63 264.818 330.67C265.458 330.69 266.108 330.7 266.768 330.7C267.428 330.7 268.108 330.69 268.808 330.67C269.508 330.63 270.028 330.6 270.368 330.58ZM260.288 330.58V331.21C259.568 331.21 259.058 331.36 258.758 331.66C258.458 331.96 258.308 332.53 258.308 333.37V343.21C258.308 344.05 258.458 344.62 258.758 344.92C259.058 345.22 259.568 345.37 260.288 345.37V346C259.968 345.98 259.488 345.96 258.848 345.94C258.228 345.9 257.588 345.88 256.928 345.88C256.268 345.88 255.588 345.9 254.888 345.94C254.188 345.96 253.668 345.98 253.328 346V345.37C254.148 345.37 254.728 345.22 255.068 344.92C255.428 344.62 255.608 344.05 255.608 343.21V333.37C255.608 332.53 255.428 331.96 255.068 331.66C254.728 331.36 254.148 331.21 253.328 331.21V330.58C253.668 330.6 254.188 330.63 254.888 330.67C255.588 330.69 256.268 330.7 256.928 330.7C257.588 330.7 258.228 330.69 258.848 330.67C259.488 330.63 259.968 330.6 260.288 330.58ZM265.688 332.68L266.168 333.01L257.918 344.41L257.438 344.05L265.688 332.68ZM265.718 322.18C266.178 322.18 266.558 322.33 266.858 322.63C267.158 322.93 267.308 323.31 267.308 323.77C267.308 324.19 267.178 324.59 266.918 324.97C266.658 325.33 266.318 325.65 265.898 325.93C265.478 326.21 264.938 326.46 264.278 326.68C263.618 326.9 262.788 327.01 261.788 327.01C260.808 327.01 259.978 326.9 259.298 326.68C258.638 326.46 258.098 326.21 257.678 325.93C257.258 325.65 256.918 325.33 256.658 324.97C256.398 324.59 256.268 324.19 256.268 323.77C256.268 323.31 256.418 322.93 256.718 322.63C257.018 322.33 257.398 322.18 257.858 322.18C258.318 322.18 258.708 322.32 259.028 322.6C259.348 322.88 259.508 323.28 259.508 323.8C259.508 324.22 259.388 324.56 259.148 324.82C258.928 325.08 258.628 325.25 258.248 325.33C258.648 325.77 259.198 326.06 259.898 326.2C260.618 326.34 261.248 326.41 261.788 326.41C262.328 326.41 262.948 326.34 263.648 326.2C264.368 326.06 264.928 325.77 265.328 325.33C264.948 325.25 264.638 325.08 264.398 324.82C264.178 324.56 264.068 324.22 264.068 323.8C264.068 323.28 264.228 322.88 264.548 322.6C264.888 322.32 265.278 322.18 265.718 322.18Z" fill="#BBB5C4"/>
</svg>
