<svg width="481" height="541" viewBox="0 0 481 541" fill="none" xmlns="http://www.w3.org/2000/svg">
<line x1="143.231" y1="277" x2="143.231" y2="540.89" stroke="#8ED9CB"/>
<path d="M285.011 142.533C285.011 64.3664 221.348 1 142.815 1C64.282 1 0.618652 64.3664 0.618652 142.533C0.618652 220.699 64.282 284.066 142.815 284.066" stroke="#8ED9CB"/>
<ellipse cx="142.731" cy="142.531" rx="121.096" ry="120.531" fill="#8ED9CB"/>
<path d="M233.637 143.311C233.637 193.463 192.79 234.123 142.398 234.123C92.0055 234.123 51.1584 193.463 51.1584 143.311C51.1584 93.1599 92.0055 52.5 142.398 52.5C192.79 52.5 233.637 93.1599 233.637 143.311Z" fill="#203B5B" stroke="#8ED9CB"/>
<path d="M294.185 145.631C294.185 150.674 290.078 154.762 285.011 154.762C279.944 154.762 275.837 150.674 275.837 145.631C275.837 140.588 279.944 136.5 285.011 136.5C290.078 136.5 294.185 140.588 294.185 145.631Z" fill="#8ED9CB"/>
<ellipse cx="142.898" cy="284.131" rx="9.17394" ry="9.13115" fill="#8ED9CB"/>
<ellipse cx="143.732" cy="532" rx="9.00715" ry="9" fill="#8ED9CB"/>
<path d="M183.553 306V305.4C184.233 305.36 184.743 305.28 185.083 305.16C185.443 305.04 185.683 304.8 185.803 304.44C185.923 304.08 185.983 303.54 185.983 302.82V287.94C185.983 287.2 185.923 286.66 185.803 286.32C185.683 285.96 185.443 285.72 185.083 285.6C184.743 285.46 184.233 285.38 183.553 285.36V284.76C184.013 284.78 184.593 284.8 185.293 284.82C185.993 284.84 186.683 284.85 187.363 284.85C188.143 284.85 188.873 284.84 189.553 284.82C190.233 284.8 190.783 284.78 191.203 284.76V285.36C190.523 285.38 190.003 285.46 189.643 285.6C189.303 285.72 189.073 285.96 188.953 286.32C188.833 286.66 188.773 287.2 188.773 287.94V302.82C188.773 303.54 188.833 304.08 188.953 304.44C189.073 304.8 189.303 305.04 189.643 305.16C190.003 305.28 190.523 305.36 191.203 305.4V306C190.783 305.96 190.233 305.94 189.553 305.94C188.873 305.92 188.143 305.91 187.363 305.91C186.683 305.91 185.993 305.92 185.293 305.94C184.593 305.94 184.013 305.96 183.553 306ZM171.013 306V305.4C171.693 305.36 172.203 305.28 172.543 305.16C172.903 305.04 173.143 304.8 173.263 304.44C173.383 304.08 173.443 303.54 173.443 302.82V287.94C173.443 287.2 173.383 286.66 173.263 286.32C173.143 285.96 172.903 285.72 172.543 285.6C172.203 285.46 171.693 285.38 171.013 285.36V284.76C171.433 284.78 171.983 284.8 172.663 284.82C173.343 284.84 174.073 284.85 174.853 284.85C175.553 284.85 176.243 284.84 176.923 284.82C177.623 284.8 178.203 284.78 178.663 284.76V285.36C177.983 285.38 177.463 285.46 177.103 285.6C176.763 285.72 176.533 285.96 176.413 286.32C176.293 286.66 176.233 287.2 176.233 287.94V302.82C176.233 303.54 176.293 304.08 176.413 304.44C176.533 304.8 176.763 305.04 177.103 305.16C177.463 305.28 177.983 305.36 178.663 305.4V306C178.203 305.96 177.623 305.94 176.923 305.94C176.243 305.92 175.553 305.91 174.853 305.91C174.073 305.91 173.343 305.92 172.663 305.94C171.983 305.94 171.433 305.96 171.013 306ZM175.183 295.62V295.02H187.033V295.62H175.183ZM200.091 290.13C201.851 290.13 203.221 290.67 204.201 291.75C205.201 292.81 205.701 294.47 205.701 296.73H195.111L195.081 296.16H202.821C202.861 295.18 202.781 294.28 202.581 293.46C202.381 292.62 202.061 291.95 201.621 291.45C201.201 290.95 200.651 290.7 199.971 290.7C199.051 290.7 198.231 291.16 197.511 292.08C196.811 293 196.391 294.46 196.251 296.46L196.341 296.58C196.301 296.88 196.271 297.21 196.251 297.57C196.231 297.93 196.221 298.29 196.221 298.65C196.221 300.01 196.441 301.18 196.881 302.16C197.321 303.14 197.891 303.89 198.591 304.41C199.311 304.91 200.051 305.16 200.811 305.16C201.411 305.16 201.981 305.07 202.521 304.89C203.061 304.69 203.561 304.37 204.021 303.93C204.481 303.49 204.881 302.9 205.221 302.16L205.821 302.4C205.601 303.06 205.241 303.7 204.741 304.32C204.241 304.94 203.611 305.45 202.851 305.85C202.091 306.23 201.211 306.42 200.211 306.42C198.771 306.42 197.531 306.09 196.491 305.43C195.471 304.77 194.681 303.86 194.121 302.7C193.581 301.52 193.311 300.17 193.311 298.65C193.311 296.89 193.591 295.38 194.151 294.12C194.711 292.84 195.501 291.86 196.521 291.18C197.541 290.48 198.731 290.13 200.091 290.13ZM232.037 290.58V291.21C231.217 291.21 230.627 291.36 230.267 291.66C229.927 291.96 229.757 292.53 229.757 293.37V303.21C229.757 304.05 229.927 304.62 230.267 304.92C230.627 305.22 231.217 305.37 232.037 305.37V306C231.697 305.98 231.177 305.96 230.477 305.94C229.777 305.9 229.097 305.88 228.437 305.88C227.777 305.88 227.127 305.9 226.487 305.94C225.867 305.96 225.397 305.98 225.077 306V305.37C225.797 305.37 226.307 305.22 226.607 304.92C226.907 304.62 227.057 304.05 227.057 303.21V293.37C227.057 292.53 226.907 291.96 226.607 291.66C226.307 291.36 225.797 291.21 225.077 291.21V290.58C225.397 290.6 225.867 290.63 226.487 290.67C227.127 290.69 227.777 290.7 228.437 290.7C229.097 290.7 229.777 290.69 230.477 290.67C231.177 290.63 231.697 290.6 232.037 290.58ZM222.407 290.58V291.21C221.687 291.21 221.177 291.36 220.877 291.66C220.577 291.96 220.427 292.53 220.427 293.37V303.21C220.427 304.05 220.577 304.62 220.877 304.92C221.177 305.22 221.687 305.37 222.407 305.37V306C222.087 305.98 221.607 305.96 220.967 305.94C220.347 305.9 219.707 305.88 219.047 305.88C218.387 305.88 217.707 305.9 217.007 305.94C216.307 305.96 215.787 305.98 215.447 306V305.37C216.267 305.37 216.847 305.22 217.187 304.92C217.547 304.62 217.727 304.05 217.727 303.21V293.37C217.727 292.53 217.547 291.96 217.187 291.66C216.847 291.36 216.267 291.21 215.447 291.21V290.58C215.787 290.6 216.307 290.63 217.007 290.67C217.707 290.69 218.387 290.7 219.047 290.7C219.707 290.7 220.347 290.69 220.967 290.67C221.607 290.63 222.087 290.6 222.407 290.58ZM227.897 297.75V298.35H219.437V297.75H227.897ZM238.047 306.21C237.227 306.21 236.517 306.06 235.917 305.76C235.317 305.44 234.857 305 234.537 304.44C234.237 303.88 234.087 303.23 234.087 302.49C234.087 301.61 234.287 300.89 234.687 300.33C235.107 299.77 235.637 299.32 236.277 298.98C236.917 298.64 237.587 298.36 238.287 298.14C239.007 297.9 239.687 297.68 240.327 297.48C240.967 297.26 241.487 297.01 241.887 296.73C242.307 296.45 242.517 296.08 242.517 295.62V293.76C242.517 292.92 242.387 292.28 242.127 291.84C241.887 291.4 241.557 291.11 241.137 290.97C240.717 290.81 240.247 290.73 239.727 290.73C239.227 290.73 238.687 290.8 238.107 290.94C237.547 291.08 237.097 291.37 236.757 291.81C237.137 291.89 237.467 292.09 237.747 292.41C238.027 292.73 238.167 293.14 238.167 293.64C238.167 294.14 238.007 294.54 237.687 294.84C237.367 295.12 236.957 295.26 236.457 295.26C235.877 295.26 235.447 295.08 235.167 294.72C234.907 294.34 234.777 293.92 234.777 293.46C234.777 292.94 234.907 292.52 235.167 292.2C235.427 291.88 235.757 291.58 236.157 291.3C236.617 290.98 237.207 290.71 237.927 290.49C238.667 290.25 239.497 290.13 240.417 290.13C241.237 290.13 241.937 290.23 242.517 290.43C243.097 290.61 243.577 290.88 243.957 291.24C244.477 291.72 244.817 292.31 244.977 293.01C245.137 293.69 245.217 294.51 245.217 295.47V303.81C245.217 304.31 245.287 304.67 245.427 304.89C245.587 305.11 245.827 305.22 246.147 305.22C246.367 305.22 246.577 305.17 246.777 305.07C246.977 304.97 247.217 304.81 247.497 304.59L247.827 305.1C247.407 305.42 247.007 305.69 246.627 305.91C246.247 306.11 245.737 306.21 245.097 306.21C244.517 306.21 244.037 306.11 243.657 305.91C243.277 305.71 242.987 305.42 242.787 305.04C242.607 304.64 242.517 304.14 242.517 303.54C241.977 304.44 241.327 305.11 240.567 305.55C239.827 305.99 238.987 306.21 238.047 306.21ZM239.127 305.01C239.787 305.01 240.397 304.82 240.957 304.44C241.537 304.06 242.057 303.49 242.517 302.73V296.85C242.277 297.19 241.927 297.48 241.467 297.72C241.007 297.94 240.507 298.17 239.967 298.41C239.427 298.63 238.907 298.9 238.407 299.22C237.927 299.52 237.527 299.92 237.207 300.42C236.887 300.92 236.727 301.57 236.727 302.37C236.727 303.17 236.937 303.81 237.357 304.29C237.797 304.77 238.387 305.01 239.127 305.01ZM262.588 290.58V291.21C261.768 291.21 261.178 291.36 260.818 291.66C260.478 291.96 260.308 292.53 260.308 293.37V303.21C260.308 304.05 260.468 304.62 260.788 304.92C261.128 305.22 261.838 305.37 262.918 305.37C262.838 306.07 262.778 306.74 262.738 307.38C262.718 308.02 262.708 308.51 262.708 308.85C262.708 309.21 262.718 309.55 262.738 309.87C262.758 310.21 262.778 310.49 262.798 310.71H262.108C262.008 309.53 261.868 308.58 261.688 307.86C261.528 307.16 261.238 306.65 260.818 306.33C260.418 306.03 259.808 305.88 258.988 305.88C258.508 305.88 258.058 305.89 257.638 305.91C257.218 305.91 256.758 305.92 256.258 305.94C255.778 305.96 255.198 305.98 254.518 306C253.838 306 252.998 306 251.998 306C251.178 306 250.558 306.14 250.138 306.42C249.738 306.72 249.448 307.21 249.268 307.89C249.108 308.59 248.978 309.53 248.878 310.71H248.188C248.228 310.49 248.248 310.21 248.248 309.87C248.268 309.55 248.278 309.21 248.278 308.85C248.278 308.51 248.258 308.02 248.218 307.38C248.198 306.74 248.148 306.07 248.068 305.37H255.628C256.348 305.37 256.858 305.22 257.158 304.92C257.458 304.62 257.608 304.05 257.608 303.21V293.37C257.608 292.53 257.458 291.96 257.158 291.66C256.858 291.36 256.348 291.21 255.628 291.21H255.358C254.638 291.21 254.148 291.36 253.888 291.66C253.628 291.96 253.458 292.53 253.378 293.37C253.298 294.45 253.188 295.59 253.048 296.79C252.928 297.97 252.758 299.12 252.538 300.24C252.318 301.36 252.018 302.37 251.638 303.27C251.418 303.81 251.128 304.33 250.768 304.83C250.408 305.31 249.908 305.61 249.268 305.73L248.638 305.37C249.278 305.37 249.808 305.14 250.228 304.68C250.648 304.2 250.958 303.68 251.158 303.12C251.498 302.24 251.768 301.27 251.968 300.21C252.188 299.15 252.368 298.04 252.508 296.88C252.648 295.72 252.758 294.55 252.838 293.37C252.898 292.53 252.718 291.96 252.298 291.66C251.898 291.36 251.288 291.21 250.468 291.21V290.58C250.628 290.6 250.878 290.63 251.218 290.67C251.578 290.69 252.008 290.7 252.508 290.7C253.008 290.7 253.518 290.68 254.038 290.64C254.578 290.6 255.128 290.58 255.688 290.58C256.248 290.58 256.758 290.6 257.218 290.64C257.698 290.68 258.278 290.7 258.958 290.7C259.658 290.7 260.348 290.69 261.028 290.67C261.728 290.63 262.248 290.6 262.588 290.58ZM271.811 290.13C273.091 290.13 274.241 290.41 275.261 290.97C276.281 291.53 277.091 292.41 277.691 293.61C278.311 294.81 278.621 296.37 278.621 298.29C278.621 300.21 278.311 301.77 277.691 302.97C277.091 304.15 276.281 305.02 275.261 305.58C274.241 306.14 273.091 306.42 271.811 306.42C270.551 306.42 269.401 306.14 268.361 305.58C267.341 305.02 266.521 304.15 265.901 302.97C265.301 301.77 265.001 300.21 265.001 298.29C265.001 296.37 265.301 294.81 265.901 293.61C266.521 292.41 267.341 291.53 268.361 290.97C269.401 290.41 270.551 290.13 271.811 290.13ZM271.811 290.73C270.671 290.73 269.731 291.32 268.991 292.5C268.271 293.68 267.911 295.61 267.911 298.29C267.911 300.97 268.271 302.9 268.991 304.08C269.731 305.24 270.671 305.82 271.811 305.82C272.951 305.82 273.881 305.24 274.601 304.08C275.341 302.9 275.711 300.97 275.711 298.29C275.711 295.61 275.341 293.68 274.601 292.5C273.881 291.32 272.951 290.73 271.811 290.73ZM304.957 290.58V291.21C304.137 291.21 303.547 291.36 303.187 291.66C302.847 291.96 302.677 292.53 302.677 293.37V303.21C302.677 304.05 302.847 304.62 303.187 304.92C303.547 305.22 304.137 305.37 304.957 305.37V306C304.617 305.98 304.097 305.96 303.397 305.94C302.697 305.9 302.017 305.88 301.357 305.88C300.697 305.88 300.047 305.9 299.407 305.94C298.787 305.96 298.317 305.98 297.997 306V305.37C298.717 305.37 299.227 305.22 299.527 304.92C299.827 304.62 299.977 304.05 299.977 303.21V293.37C299.977 292.53 299.827 291.96 299.527 291.66C299.227 291.36 298.717 291.21 297.997 291.21H295.327C294.607 291.21 294.097 291.36 293.797 291.66C293.497 291.96 293.347 292.53 293.347 293.37V303.21C293.347 304.05 293.497 304.62 293.797 304.92C294.097 305.22 294.607 305.37 295.327 305.37V306C295.007 305.98 294.527 305.96 293.887 305.94C293.267 305.9 292.627 305.88 291.967 305.88C291.307 305.88 290.627 305.9 289.927 305.94C289.227 305.96 288.707 305.98 288.367 306V305.37C289.187 305.37 289.767 305.22 290.107 304.92C290.467 304.62 290.647 304.05 290.647 303.21V293.37C290.647 292.53 290.467 291.96 290.107 291.66C289.767 291.36 289.187 291.21 288.367 291.21V290.58C288.707 290.6 289.227 290.63 289.927 290.67C290.627 290.69 291.307 290.7 291.967 290.7C292.927 290.7 293.777 290.68 294.517 290.64C295.277 290.6 296.047 290.58 296.827 290.58C297.607 290.58 298.317 290.6 298.957 290.64C299.597 290.68 300.397 290.7 301.357 290.7C302.017 290.7 302.697 290.69 303.397 290.67C304.097 290.63 304.617 290.6 304.957 290.58ZM321.857 290.58V291.21C321.037 291.21 320.447 291.36 320.087 291.66C319.747 291.96 319.577 292.53 319.577 293.37V303.21C319.577 304.05 319.747 304.62 320.087 304.92C320.447 305.22 321.037 305.37 321.857 305.37V306C321.517 305.98 321.017 305.96 320.357 305.94C319.697 305.9 318.977 305.88 318.197 305.88C317.417 305.88 316.627 305.9 315.827 305.94C315.047 305.96 314.437 305.98 313.997 306V305.37C314.897 305.37 315.597 305.23 316.097 304.95C316.617 304.65 316.877 304.07 316.877 303.21V293.37C316.877 292.53 316.727 291.96 316.427 291.66C316.127 291.36 315.617 291.21 314.897 291.21H314.627C314.127 291.21 313.797 291.36 313.637 291.66C313.477 291.96 313.357 292.53 313.277 293.37C313.117 295.23 312.917 297.01 312.677 298.71C312.457 300.39 312.077 301.91 311.537 303.27C311.337 303.75 311.087 304.24 310.787 304.74C310.487 305.22 310.117 305.62 309.677 305.94C309.257 306.26 308.747 306.42 308.147 306.42C307.787 306.42 307.447 306.35 307.127 306.21C306.807 306.09 306.547 305.9 306.347 305.64C306.147 305.36 306.047 305.02 306.047 304.62C306.047 304.12 306.197 303.73 306.497 303.45C306.797 303.17 307.187 303.03 307.667 303.03C308.087 303.03 308.437 303.15 308.717 303.39C309.017 303.63 309.167 303.99 309.167 304.47C309.167 304.79 309.077 305.08 308.897 305.34C308.717 305.58 308.427 305.78 308.027 305.94C308.067 305.96 308.117 305.97 308.177 305.97C308.257 305.97 308.307 305.97 308.327 305.97C308.827 305.97 309.247 305.81 309.587 305.49C309.947 305.15 310.247 304.76 310.487 304.32C310.747 303.86 310.937 303.46 311.057 303.12C311.377 302.28 311.647 301.34 311.867 300.3C312.087 299.26 312.267 298.15 312.407 296.97C312.547 295.79 312.657 294.59 312.737 293.37C312.797 292.53 312.617 291.96 312.197 291.66C311.797 291.36 311.187 291.21 310.367 291.21V290.58C310.527 290.6 310.777 290.63 311.117 290.67C311.477 290.69 311.907 290.7 312.407 290.7C312.807 290.7 313.217 290.7 313.637 290.7C314.077 290.7 314.517 290.7 314.957 290.7C315.337 290.7 315.687 290.7 316.007 290.7C316.327 290.7 316.667 290.7 317.027 290.7C317.387 290.7 317.787 290.7 318.227 290.7C318.687 290.7 319.147 290.69 319.607 290.67C320.087 290.65 320.527 290.63 320.927 290.61C321.327 290.59 321.637 290.58 321.857 290.58ZM327.871 306.21C327.051 306.21 326.341 306.06 325.741 305.76C325.141 305.44 324.681 305 324.361 304.44C324.061 303.88 323.911 303.23 323.911 302.49C323.911 301.61 324.111 300.89 324.511 300.33C324.931 299.77 325.461 299.32 326.101 298.98C326.741 298.64 327.411 298.36 328.111 298.14C328.831 297.9 329.511 297.68 330.151 297.48C330.791 297.26 331.311 297.01 331.711 296.73C332.131 296.45 332.341 296.08 332.341 295.62V293.76C332.341 292.92 332.211 292.28 331.951 291.84C331.711 291.4 331.381 291.11 330.961 290.97C330.541 290.81 330.071 290.73 329.551 290.73C329.051 290.73 328.511 290.8 327.931 290.94C327.371 291.08 326.921 291.37 326.581 291.81C326.961 291.89 327.291 292.09 327.571 292.41C327.851 292.73 327.991 293.14 327.991 293.64C327.991 294.14 327.831 294.54 327.511 294.84C327.191 295.12 326.781 295.26 326.281 295.26C325.701 295.26 325.271 295.08 324.991 294.72C324.731 294.34 324.601 293.92 324.601 293.46C324.601 292.94 324.731 292.52 324.991 292.2C325.251 291.88 325.581 291.58 325.981 291.3C326.441 290.98 327.031 290.71 327.751 290.49C328.491 290.25 329.321 290.13 330.241 290.13C331.061 290.13 331.761 290.23 332.341 290.43C332.921 290.61 333.401 290.88 333.781 291.24C334.301 291.72 334.641 292.31 334.801 293.01C334.961 293.69 335.041 294.51 335.041 295.47V303.81C335.041 304.31 335.111 304.67 335.251 304.89C335.411 305.11 335.651 305.22 335.971 305.22C336.191 305.22 336.401 305.17 336.601 305.07C336.801 304.97 337.041 304.81 337.321 304.59L337.651 305.1C337.231 305.42 336.831 305.69 336.451 305.91C336.071 306.11 335.561 306.21 334.921 306.21C334.341 306.21 333.861 306.11 333.481 305.91C333.101 305.71 332.811 305.42 332.611 305.04C332.431 304.64 332.341 304.14 332.341 303.54C331.801 304.44 331.151 305.11 330.391 305.55C329.651 305.99 328.811 306.21 327.871 306.21ZM328.951 305.01C329.611 305.01 330.221 304.82 330.781 304.44C331.361 304.06 331.881 303.49 332.341 302.73V296.85C332.101 297.19 331.751 297.48 331.291 297.72C330.831 297.94 330.331 298.17 329.791 298.41C329.251 298.63 328.731 298.9 328.231 299.22C327.751 299.52 327.351 299.92 327.031 300.42C326.711 300.92 326.551 301.57 326.551 302.37C326.551 303.17 326.761 303.81 327.181 304.29C327.621 304.77 328.211 305.01 328.951 305.01ZM353.343 290.58C353.263 291.28 353.203 291.95 353.163 292.59C353.143 293.23 353.133 293.72 353.133 294.06C353.133 294.42 353.143 294.77 353.163 295.11C353.183 295.43 353.203 295.7 353.223 295.92H352.533C352.433 294.54 352.223 293.51 351.903 292.83C351.583 292.15 351.143 291.71 350.583 291.51C350.023 291.29 349.333 291.18 348.513 291.18H347.343V302.91C347.343 303.89 347.623 304.55 348.183 304.89C348.763 305.21 349.543 305.37 350.523 305.37V306C350.063 305.98 349.423 305.96 348.603 305.94C347.803 305.9 346.933 305.88 345.993 305.88C345.073 305.88 344.203 305.9 343.383 305.94C342.563 305.96 341.923 305.98 341.463 306V305.37C342.463 305.37 343.243 305.21 343.803 304.89C344.363 304.55 344.643 303.89 344.643 302.91V291.18H343.173C342.353 291.18 341.683 291.29 341.163 291.51C340.663 291.73 340.273 292.18 339.993 292.86C339.733 293.54 339.553 294.57 339.453 295.95H338.763C338.803 295.73 338.823 295.46 338.823 295.14C338.843 294.8 338.853 294.45 338.853 294.09C338.853 293.75 338.833 293.26 338.793 292.62C338.773 291.98 338.723 291.31 338.643 290.61H341.523C342.203 290.61 342.923 290.62 343.683 290.64C344.463 290.66 345.223 290.67 345.963 290.67C346.723 290.67 347.493 290.66 348.273 290.64C349.053 290.6 349.783 290.58 350.463 290.58H353.343ZM372.204 290.58V291.21C371.384 291.21 370.794 291.36 370.434 291.66C370.094 291.96 369.924 292.53 369.924 293.37V303.21C369.924 304.05 370.094 304.62 370.434 304.92C370.794 305.22 371.384 305.37 372.204 305.37V306C371.864 305.98 371.344 305.96 370.644 305.94C369.944 305.9 369.264 305.88 368.604 305.88C367.944 305.88 367.294 305.9 366.654 305.94C366.034 305.96 365.564 305.98 365.244 306V305.37C365.964 305.37 366.474 305.22 366.774 304.92C367.074 304.62 367.224 304.05 367.224 303.21V293.37C367.224 292.53 367.074 291.96 366.774 291.66C366.474 291.36 365.964 291.21 365.244 291.21V290.58C365.564 290.6 366.034 290.63 366.654 290.67C367.294 290.69 367.944 290.7 368.604 290.7C369.264 290.7 369.944 290.69 370.644 290.67C371.344 290.63 371.864 290.6 372.204 290.58ZM362.124 290.58V291.21C361.404 291.21 360.894 291.36 360.594 291.66C360.294 291.96 360.144 292.53 360.144 293.37V303.21C360.144 304.05 360.294 304.62 360.594 304.92C360.894 305.22 361.404 305.37 362.124 305.37V306C361.804 305.98 361.324 305.96 360.684 305.94C360.064 305.9 359.424 305.88 358.764 305.88C358.104 305.88 357.424 305.9 356.724 305.94C356.024 305.96 355.504 305.98 355.164 306V305.37C355.984 305.37 356.564 305.22 356.904 304.92C357.264 304.62 357.444 304.05 357.444 303.21V293.37C357.444 292.53 357.264 291.96 356.904 291.66C356.564 291.36 355.984 291.21 355.164 291.21V290.58C355.504 290.6 356.024 290.63 356.724 290.67C357.424 290.69 358.104 290.7 358.764 290.7C359.424 290.7 360.064 290.69 360.684 290.67C361.324 290.63 361.804 290.6 362.124 290.58ZM367.524 292.68L368.004 293.01L359.754 304.41L359.274 304.05L367.524 292.68ZM388.733 290.58C388.653 291.28 388.593 291.95 388.553 292.59C388.533 293.23 388.523 293.72 388.523 294.06C388.523 294.42 388.533 294.77 388.553 295.11C388.573 295.43 388.593 295.7 388.613 295.92H387.923C387.823 294.54 387.613 293.51 387.293 292.83C386.973 292.15 386.533 291.71 385.973 291.51C385.413 291.29 384.723 291.18 383.903 291.18H382.733V302.91C382.733 303.89 383.013 304.55 383.573 304.89C384.153 305.21 384.933 305.37 385.913 305.37V306C385.453 305.98 384.813 305.96 383.993 305.94C383.193 305.9 382.323 305.88 381.383 305.88C380.463 305.88 379.593 305.9 378.773 305.94C377.953 305.96 377.313 305.98 376.853 306V305.37C377.853 305.37 378.633 305.21 379.193 304.89C379.753 304.55 380.033 303.89 380.033 302.91V291.18H378.563C377.743 291.18 377.073 291.29 376.553 291.51C376.053 291.73 375.663 292.18 375.383 292.86C375.123 293.54 374.943 294.57 374.843 295.95H374.153C374.193 295.73 374.213 295.46 374.213 295.14C374.233 294.8 374.243 294.45 374.243 294.09C374.243 293.75 374.223 293.26 374.183 292.62C374.163 291.98 374.113 291.31 374.033 290.61H376.913C377.593 290.61 378.313 290.62 379.073 290.64C379.853 290.66 380.613 290.67 381.353 290.67C382.113 290.67 382.883 290.66 383.663 290.64C384.443 290.6 385.173 290.58 385.853 290.58H388.733ZM397.755 290.58V291.21C396.935 291.21 396.345 291.36 395.985 291.66C395.645 291.96 395.475 292.53 395.475 293.37V303.21C395.475 304.01 395.635 304.57 395.955 304.89C396.295 305.21 396.865 305.37 397.665 305.37C398.745 305.37 399.565 305.19 400.125 304.83C400.705 304.47 401.105 303.99 401.325 303.39C401.545 302.79 401.655 302.15 401.655 301.47C401.655 300.09 401.265 299.09 400.485 298.47C399.725 297.83 398.455 297.51 396.675 297.51C396.175 297.51 395.675 297.51 395.175 297.51C394.675 297.51 394.175 297.51 393.675 297.51L393.615 297C394.435 297 395.245 297 396.045 297C396.845 297 397.645 297 398.445 297C400.625 297 402.175 297.41 403.095 298.23C404.015 299.03 404.475 300.05 404.475 301.29C404.475 302.03 404.265 302.76 403.845 303.48C403.445 304.2 402.765 304.8 401.805 305.28C400.865 305.76 399.595 306 397.995 306C397.435 306 396.815 305.98 396.135 305.94C395.455 305.9 394.755 305.88 394.035 305.88C393.415 305.88 392.755 305.9 392.055 305.94C391.355 305.96 390.835 305.98 390.495 306V305.37C391.315 305.37 391.895 305.22 392.235 304.92C392.595 304.62 392.775 304.05 392.775 303.21V293.37C392.775 292.53 392.625 291.96 392.325 291.66C392.025 291.36 391.515 291.21 390.795 291.21V290.58C391.115 290.6 391.585 290.63 392.205 290.67C392.845 290.69 393.495 290.7 394.155 290.7C394.815 290.7 395.495 290.69 396.195 290.67C396.895 290.63 397.415 290.6 397.755 290.58ZM178.123 330.13C178.763 330.13 179.383 330.21 179.983 330.37C180.583 330.53 181.123 330.77 181.603 331.09C182.063 331.39 182.413 331.74 182.653 332.14C182.893 332.52 183.013 332.94 183.013 333.4C183.013 333.94 182.863 334.36 182.563 334.66C182.263 334.94 181.883 335.08 181.423 335.08C180.983 335.08 180.593 334.95 180.253 334.69C179.933 334.43 179.773 334.06 179.773 333.58C179.773 333.12 179.893 332.75 180.133 332.47C180.393 332.19 180.693 332.01 181.033 331.93C180.833 331.57 180.473 331.27 179.953 331.03C179.453 330.79 178.913 330.67 178.333 330.67C177.833 330.67 177.333 330.79 176.833 331.03C176.333 331.27 175.873 331.67 175.453 332.23C175.033 332.77 174.693 333.52 174.433 334.48C174.173 335.42 174.043 336.6 174.043 338.02C174.043 339.78 174.243 341.18 174.643 342.22C175.043 343.26 175.563 344.01 176.203 344.47C176.863 344.91 177.583 345.13 178.363 345.13C178.883 345.13 179.413 345.03 179.953 344.83C180.493 344.63 181.003 344.31 181.483 343.87C181.963 343.41 182.373 342.8 182.713 342.04L183.283 342.25C183.083 342.89 182.753 343.54 182.293 344.2C181.833 344.84 181.233 345.37 180.493 345.79C179.753 346.21 178.843 346.42 177.763 346.42C176.523 346.42 175.403 346.1 174.403 345.46C173.403 344.82 172.603 343.91 172.003 342.73C171.423 341.53 171.133 340.11 171.133 338.47C171.133 336.83 171.423 335.39 172.003 334.15C172.603 332.89 173.433 331.91 174.493 331.21C175.553 330.49 176.763 330.13 178.123 330.13ZM200.003 330.58C199.923 331.28 199.863 331.95 199.823 332.59C199.803 333.23 199.793 333.72 199.793 334.06C199.793 334.42 199.803 334.77 199.823 335.11C199.843 335.43 199.863 335.7 199.883 335.92H199.193C199.093 334.54 198.883 333.51 198.563 332.83C198.243 332.15 197.803 331.71 197.243 331.51C196.683 331.29 195.993 331.18 195.173 331.18H194.003V342.91C194.003 343.89 194.283 344.55 194.843 344.89C195.423 345.21 196.203 345.37 197.183 345.37V346C196.723 345.98 196.083 345.96 195.263 345.94C194.463 345.9 193.593 345.88 192.653 345.88C191.733 345.88 190.863 345.9 190.043 345.94C189.223 345.96 188.583 345.98 188.123 346V345.37C189.123 345.37 189.903 345.21 190.463 344.89C191.023 344.55 191.303 343.89 191.303 342.91V331.18H189.833C189.013 331.18 188.343 331.29 187.823 331.51C187.323 331.73 186.933 332.18 186.653 332.86C186.393 333.54 186.213 334.57 186.113 335.95H185.423C185.463 335.73 185.483 335.46 185.483 335.14C185.503 334.8 185.513 334.45 185.513 334.09C185.513 333.75 185.493 333.26 185.453 332.62C185.433 331.98 185.383 331.31 185.303 330.61H188.183C188.863 330.61 189.583 330.62 190.343 330.64C191.123 330.66 191.883 330.67 192.623 330.67C193.383 330.67 194.153 330.66 194.933 330.64C195.713 330.6 196.443 330.58 197.123 330.58H200.003ZM206.594 330.22V348.64C206.594 349.5 206.844 350.07 207.344 350.35C207.864 350.65 208.574 350.8 209.474 350.8V351.43C209.034 351.41 208.424 351.38 207.644 351.34C206.864 351.32 206.034 351.31 205.154 351.31C204.534 351.31 203.914 351.32 203.294 351.34C202.694 351.38 202.234 351.41 201.914 351.43V350.8C202.634 350.8 203.144 350.67 203.444 350.41C203.744 350.15 203.894 349.66 203.894 348.94V333.82C203.894 332.92 203.734 332.26 203.414 331.84C203.094 331.4 202.494 331.18 201.614 331.18V330.55C202.254 330.61 202.874 330.64 203.474 330.64C204.054 330.64 204.604 330.61 205.124 330.55C205.664 330.47 206.154 330.36 206.594 330.22ZM211.394 330.13C212.454 330.13 213.404 330.42 214.244 331C215.084 331.56 215.744 332.39 216.224 333.49C216.724 334.59 216.974 335.95 216.974 337.57C216.974 338.65 216.844 339.72 216.584 340.78C216.324 341.82 215.914 342.77 215.354 343.63C214.814 344.47 214.104 345.15 213.224 345.67C212.364 346.17 211.324 346.42 210.104 346.42C209.164 346.42 208.344 346.2 207.644 345.76C206.964 345.32 206.504 344.79 206.264 344.17L206.564 343.75C206.844 344.31 207.244 344.78 207.764 345.16C208.304 345.54 208.974 345.73 209.774 345.73C210.894 345.73 211.764 345.38 212.384 344.68C213.004 343.98 213.434 343.05 213.674 341.89C213.934 340.71 214.064 339.41 214.064 337.99C214.064 336.39 213.934 335.08 213.674 334.06C213.414 333.04 213.024 332.28 212.504 331.78C211.984 331.28 211.344 331.03 210.584 331.03C209.604 331.03 208.714 331.44 207.914 332.26C207.114 333.06 206.604 334.28 206.384 335.92L206.024 335.5C206.244 333.8 206.844 332.48 207.824 331.54C208.824 330.6 210.014 330.13 211.394 330.13ZM223.516 346.21C222.696 346.21 221.986 346.06 221.386 345.76C220.786 345.44 220.326 345 220.006 344.44C219.706 343.88 219.556 343.23 219.556 342.49C219.556 341.61 219.756 340.89 220.156 340.33C220.576 339.77 221.106 339.32 221.746 338.98C222.386 338.64 223.056 338.36 223.756 338.14C224.476 337.9 225.156 337.68 225.796 337.48C226.436 337.26 226.956 337.01 227.356 336.73C227.776 336.45 227.986 336.08 227.986 335.62V333.76C227.986 332.92 227.856 332.28 227.596 331.84C227.356 331.4 227.026 331.11 226.606 330.97C226.186 330.81 225.716 330.73 225.196 330.73C224.696 330.73 224.156 330.8 223.576 330.94C223.016 331.08 222.566 331.37 222.226 331.81C222.606 331.89 222.936 332.09 223.216 332.41C223.496 332.73 223.636 333.14 223.636 333.64C223.636 334.14 223.476 334.54 223.156 334.84C222.836 335.12 222.426 335.26 221.926 335.26C221.346 335.26 220.916 335.08 220.636 334.72C220.376 334.34 220.246 333.92 220.246 333.46C220.246 332.94 220.376 332.52 220.636 332.2C220.896 331.88 221.226 331.58 221.626 331.3C222.086 330.98 222.676 330.71 223.396 330.49C224.136 330.25 224.966 330.13 225.886 330.13C226.706 330.13 227.406 330.23 227.986 330.43C228.566 330.61 229.046 330.88 229.426 331.24C229.946 331.72 230.286 332.31 230.446 333.01C230.606 333.69 230.686 334.51 230.686 335.47V343.81C230.686 344.31 230.756 344.67 230.896 344.89C231.056 345.11 231.296 345.22 231.616 345.22C231.836 345.22 232.046 345.17 232.246 345.07C232.446 344.97 232.686 344.81 232.966 344.59L233.296 345.1C232.876 345.42 232.476 345.69 232.096 345.91C231.716 346.11 231.206 346.21 230.566 346.21C229.986 346.21 229.506 346.11 229.126 345.91C228.746 345.71 228.456 345.42 228.256 345.04C228.076 344.64 227.986 344.14 227.986 343.54C227.446 344.44 226.796 345.11 226.036 345.55C225.296 345.99 224.456 346.21 223.516 346.21ZM224.596 345.01C225.256 345.01 225.866 344.82 226.426 344.44C227.006 344.06 227.526 343.49 227.986 342.73V336.85C227.746 337.19 227.396 337.48 226.936 337.72C226.476 337.94 225.976 338.17 225.436 338.41C224.896 338.63 224.376 338.9 223.876 339.22C223.396 339.52 222.996 339.92 222.676 340.42C222.356 340.92 222.196 341.57 222.196 342.37C222.196 343.17 222.406 343.81 222.826 344.29C223.266 344.77 223.856 345.01 224.596 345.01ZM239.687 330.55V331.18C239.307 331.18 238.987 331.27 238.727 331.45C238.467 331.63 238.437 331.88 238.637 332.2L246.647 343.87C246.987 344.37 247.287 344.73 247.547 344.95C247.807 345.15 248.127 345.29 248.507 345.37V346C248.307 345.98 247.997 345.96 247.577 345.94C247.177 345.9 246.777 345.88 246.377 345.88C245.757 345.88 245.087 345.9 244.367 345.94C243.667 345.96 243.157 345.98 242.837 346V345.37C243.237 345.37 243.567 345.28 243.827 345.1C244.087 344.9 244.107 344.65 243.887 344.35L235.877 332.68C235.477 332.1 235.157 331.72 234.917 331.54C234.677 331.34 234.377 331.22 234.017 331.18V330.55C234.217 330.57 234.527 330.6 234.947 330.64C235.367 330.66 235.767 330.67 236.147 330.67C236.787 330.67 237.457 330.66 238.157 330.64C238.857 330.6 239.367 330.57 239.687 330.55ZM240.497 338.17C240.497 338.17 240.517 338.24 240.557 338.38C240.597 338.5 240.637 338.63 240.677 338.77C240.737 338.91 240.767 338.98 240.767 338.98L238.277 342.22C237.757 342.9 237.477 343.47 237.437 343.93C237.417 344.39 237.607 344.74 238.007 344.98C238.407 345.2 238.957 345.34 239.657 345.4V346C239.317 345.98 238.937 345.97 238.517 345.97C238.097 345.95 237.687 345.94 237.287 345.94C236.907 345.92 236.557 345.91 236.237 345.91C235.777 345.91 235.357 345.92 234.977 345.94C234.617 345.94 234.277 345.96 233.957 346V345.4C234.337 345.36 234.727 345.19 235.127 344.89C235.547 344.57 236.037 344.04 236.597 343.3L240.497 338.17ZM247.907 330.55V331.15C247.527 331.19 247.107 331.39 246.647 331.75C246.207 332.09 245.747 332.59 245.267 333.25L241.817 338.02C241.817 338.02 241.797 337.96 241.757 337.84C241.717 337.7 241.677 337.57 241.637 337.45C241.597 337.31 241.577 337.24 241.577 337.24L243.917 333.97C244.357 333.35 244.637 332.84 244.757 332.44C244.877 332.04 244.807 331.74 244.547 331.54C244.307 331.32 243.827 331.19 243.107 331.15V330.55C243.627 330.57 244.057 330.59 244.397 330.61C244.757 330.63 245.167 330.64 245.627 330.64C246.087 330.64 246.497 330.63 246.857 330.61C247.237 330.59 247.587 330.57 247.907 330.55ZM256.606 330.13C257.886 330.13 259.036 330.41 260.056 330.97C261.076 331.53 261.886 332.41 262.486 333.61C263.106 334.81 263.416 336.37 263.416 338.29C263.416 340.21 263.106 341.77 262.486 342.97C261.886 344.15 261.076 345.02 260.056 345.58C259.036 346.14 257.886 346.42 256.606 346.42C255.346 346.42 254.196 346.14 253.156 345.58C252.136 345.02 251.316 344.15 250.696 342.97C250.096 341.77 249.796 340.21 249.796 338.29C249.796 336.37 250.096 334.81 250.696 333.61C251.316 332.41 252.136 331.53 253.156 330.97C254.196 330.41 255.346 330.13 256.606 330.13ZM256.606 330.73C255.466 330.73 254.526 331.32 253.786 332.5C253.066 333.68 252.706 335.61 252.706 338.29C252.706 340.97 253.066 342.9 253.786 344.08C254.526 345.24 255.466 345.82 256.606 345.82C257.746 345.82 258.676 345.24 259.396 344.08C260.136 342.9 260.506 340.97 260.506 338.29C260.506 335.61 260.136 333.68 259.396 332.5C258.676 331.32 257.746 330.73 256.606 330.73ZM273.161 330.58C274.641 330.58 275.801 330.73 276.641 331.03C277.501 331.33 278.111 331.76 278.471 332.32C278.831 332.86 279.011 333.49 279.011 334.21C279.011 335.25 278.461 336.16 277.361 336.94C276.281 337.72 274.641 338.11 272.441 338.11C272.441 338.11 272.391 338.09 272.291 338.05C272.211 338.01 272.121 337.97 272.021 337.93C271.921 337.89 271.871 337.87 271.871 337.87C273.071 337.85 273.981 337.72 274.601 337.48C275.241 337.22 275.671 336.84 275.891 336.34C276.131 335.84 276.251 335.21 276.251 334.45C276.251 333.83 276.161 333.28 275.981 332.8C275.821 332.3 275.491 331.91 274.991 331.63C274.511 331.35 273.801 331.21 272.861 331.21C272.061 331.21 271.491 331.37 271.151 331.69C270.831 331.99 270.671 332.55 270.671 333.37V343.21C270.671 344.05 270.831 344.62 271.151 344.92C271.491 345.22 272.091 345.37 272.951 345.37C274.071 345.37 274.931 345.2 275.531 344.86C276.151 344.52 276.571 344.07 276.791 343.51C277.031 342.95 277.151 342.34 277.151 341.68C277.151 340.4 276.791 339.53 276.071 339.07C275.371 338.61 274.471 338.38 273.371 338.38H268.811C268.811 338.38 268.811 338.3 268.811 338.14C268.811 337.96 268.811 337.87 268.811 337.87H273.101L273.371 337.93C274.971 337.93 276.251 338.08 277.211 338.38C278.191 338.66 278.891 339.08 279.311 339.64C279.751 340.18 279.971 340.85 279.971 341.65C279.971 342.45 279.751 343.18 279.311 343.84C278.891 344.5 278.191 345.03 277.211 345.43C276.231 345.81 274.911 346 273.251 346C272.631 346 271.991 345.98 271.331 345.94C270.671 345.9 269.971 345.88 269.231 345.88C268.611 345.88 267.951 345.9 267.251 345.94C266.551 345.96 266.031 345.98 265.691 346V345.37C266.511 345.37 267.091 345.22 267.431 344.92C267.791 344.62 267.971 344.05 267.971 343.21V333.37C267.971 332.53 267.791 331.96 267.431 331.66C267.091 331.36 266.511 331.21 265.691 331.21V330.58C266.031 330.6 266.551 330.63 267.251 330.67C267.951 330.69 268.611 330.7 269.231 330.7C269.951 330.7 270.651 330.68 271.331 330.64C272.011 330.6 272.621 330.58 273.161 330.58ZM289.268 330.58V331.21C288.448 331.21 287.858 331.36 287.498 331.66C287.158 331.96 286.988 332.53 286.988 333.37V343.21C286.988 344.01 287.078 344.57 287.258 344.89C287.458 345.21 287.798 345.37 288.278 345.37C289.358 345.37 290.178 345.19 290.738 344.83C291.318 344.47 291.718 343.99 291.938 343.39C292.158 342.79 292.268 342.15 292.268 341.47C292.268 340.09 291.878 339.09 291.098 338.47C290.338 337.83 289.068 337.51 287.288 337.51C286.948 337.51 286.598 337.51 286.238 337.51C285.878 337.51 285.528 337.51 285.188 337.51L285.128 337C285.788 337 286.438 337 287.078 337C287.738 337 288.398 337 289.058 337C291.238 337 292.788 337.41 293.708 338.23C294.628 339.03 295.088 340.05 295.088 341.29C295.088 342.03 294.878 342.76 294.458 343.48C294.058 344.2 293.378 344.8 292.418 345.28C291.478 345.76 290.208 346 288.608 346C288.188 346 287.708 345.98 287.168 345.94C286.628 345.9 286.088 345.88 285.548 345.88C284.928 345.88 284.268 345.9 283.568 345.94C282.868 345.96 282.348 345.98 282.008 346V345.37C282.828 345.37 283.408 345.22 283.748 344.92C284.108 344.62 284.288 344.05 284.288 343.21V333.37C284.288 332.53 284.138 331.96 283.838 331.66C283.538 331.36 283.028 331.21 282.308 331.21V330.58C282.628 330.6 283.098 330.63 283.718 330.67C284.358 330.69 285.008 330.7 285.668 330.7C286.328 330.7 287.008 330.69 287.708 330.67C288.408 330.63 288.928 330.6 289.268 330.58ZM302.828 330.58V331.21C302.108 331.21 301.598 331.36 301.298 331.66C300.998 331.96 300.848 332.53 300.848 333.37V343.21C300.848 344.05 301.018 344.62 301.358 344.92C301.718 345.22 302.308 345.37 303.128 345.37V346C302.788 345.98 302.258 345.96 301.538 345.94C300.818 345.9 300.128 345.88 299.468 345.88C298.868 345.88 298.248 345.9 297.608 345.94C296.968 345.96 296.488 345.98 296.168 346V345.37C296.888 345.37 297.398 345.22 297.698 344.92C297.998 344.62 298.148 344.05 298.148 343.21V333.37C298.148 332.53 297.998 331.96 297.698 331.66C297.398 331.36 296.888 331.21 296.168 331.21V330.58C296.488 330.6 296.968 330.63 297.608 330.67C298.248 330.69 298.868 330.7 299.468 330.7C300.128 330.7 300.768 330.69 301.388 330.67C302.028 330.63 302.508 330.6 302.828 330.58ZM312.093 330.13C313.853 330.13 315.223 330.67 316.203 331.75C317.203 332.81 317.703 334.47 317.703 336.73H307.113L307.083 336.16H314.823C314.863 335.18 314.783 334.28 314.583 333.46C314.383 332.62 314.063 331.95 313.623 331.45C313.203 330.95 312.653 330.7 311.973 330.7C311.053 330.7 310.233 331.16 309.513 332.08C308.813 333 308.393 334.46 308.253 336.46L308.343 336.58C308.303 336.88 308.273 337.21 308.253 337.57C308.233 337.93 308.223 338.29 308.223 338.65C308.223 340.01 308.443 341.18 308.883 342.16C309.323 343.14 309.893 343.89 310.593 344.41C311.313 344.91 312.053 345.16 312.813 345.16C313.413 345.16 313.983 345.07 314.523 344.89C315.063 344.69 315.563 344.37 316.023 343.93C316.483 343.49 316.883 342.9 317.223 342.16L317.823 342.4C317.603 343.06 317.243 343.7 316.743 344.32C316.243 344.94 315.613 345.45 314.853 345.85C314.093 346.23 313.213 346.42 312.213 346.42C310.773 346.42 309.533 346.09 308.493 345.43C307.473 344.77 306.683 343.86 306.123 342.7C305.583 341.52 305.313 340.17 305.313 338.65C305.313 336.89 305.593 335.38 306.153 334.12C306.713 332.84 307.503 331.86 308.523 331.18C309.543 330.48 310.733 330.13 312.093 330.13ZM334.919 330.58C336.399 330.58 337.559 330.73 338.399 331.03C339.259 331.33 339.869 331.76 340.229 332.32C340.589 332.86 340.769 333.49 340.769 334.21C340.769 335.25 340.219 336.16 339.119 336.94C338.039 337.72 336.399 338.11 334.199 338.11C334.199 338.11 334.149 338.09 334.049 338.05C333.969 338.01 333.879 337.97 333.779 337.93C333.679 337.89 333.629 337.87 333.629 337.87C334.829 337.85 335.739 337.72 336.359 337.48C336.999 337.22 337.429 336.84 337.649 336.34C337.889 335.84 338.009 335.21 338.009 334.45C338.009 333.83 337.919 333.28 337.739 332.8C337.579 332.3 337.249 331.91 336.749 331.63C336.269 331.35 335.559 331.21 334.619 331.21C333.819 331.21 333.249 331.37 332.909 331.69C332.589 331.99 332.429 332.55 332.429 333.37V343.21C332.429 344.05 332.589 344.62 332.909 344.92C333.249 345.22 333.849 345.37 334.709 345.37C335.829 345.37 336.689 345.2 337.289 344.86C337.909 344.52 338.329 344.07 338.549 343.51C338.789 342.95 338.909 342.34 338.909 341.68C338.909 340.4 338.549 339.53 337.829 339.07C337.129 338.61 336.229 338.38 335.129 338.38H330.569C330.569 338.38 330.569 338.3 330.569 338.14C330.569 337.96 330.569 337.87 330.569 337.87H334.859L335.129 337.93C336.729 337.93 338.009 338.08 338.969 338.38C339.949 338.66 340.649 339.08 341.069 339.64C341.509 340.18 341.729 340.85 341.729 341.65C341.729 342.45 341.509 343.18 341.069 343.84C340.649 344.5 339.949 345.03 338.969 345.43C337.989 345.81 336.669 346 335.009 346C334.389 346 333.749 345.98 333.089 345.94C332.429 345.9 331.729 345.88 330.989 345.88C330.369 345.88 329.709 345.9 329.009 345.94C328.309 345.96 327.789 345.98 327.449 346V345.37C328.269 345.37 328.849 345.22 329.189 344.92C329.549 344.62 329.729 344.05 329.729 343.21V333.37C329.729 332.53 329.549 331.96 329.189 331.66C328.849 331.36 328.269 331.21 327.449 331.21V330.58C327.789 330.6 328.309 330.63 329.009 330.67C329.709 330.69 330.369 330.7 330.989 330.7C331.709 330.7 332.409 330.68 333.089 330.64C333.769 330.6 334.379 330.58 334.919 330.58ZM350.486 330.13C351.386 330.13 352.166 330.28 352.826 330.58C353.486 330.88 353.996 331.29 354.356 331.81C354.716 332.33 354.896 332.94 354.896 333.64C354.896 334.46 354.656 335.15 354.176 335.71C353.696 336.25 353.106 336.69 352.406 337.03C351.706 337.35 351.016 337.59 350.336 337.75C351.436 337.79 352.386 337.97 353.186 338.29C354.006 338.59 354.636 339.03 355.076 339.61C355.536 340.17 355.766 340.88 355.766 341.74C355.766 342.7 355.466 343.53 354.866 344.23C354.266 344.93 353.466 345.47 352.466 345.85C351.486 346.23 350.426 346.42 349.286 346.42C348.426 346.42 347.676 346.31 347.036 346.09C346.416 345.89 345.876 345.64 345.416 345.34C345.016 345.06 344.676 344.75 344.396 344.41C344.136 344.07 344.006 343.68 344.006 343.24C344.006 342.76 344.156 342.37 344.456 342.07C344.756 341.77 345.136 341.62 345.596 341.62C346.056 341.62 346.446 341.76 346.766 342.04C347.086 342.32 347.246 342.72 347.246 343.24C347.246 343.66 347.126 344 346.886 344.26C346.666 344.52 346.366 344.69 345.986 344.77C346.166 345.07 346.596 345.34 347.276 345.58C347.956 345.8 348.636 345.91 349.316 345.91C350.536 345.91 351.456 345.54 352.076 344.8C352.696 344.06 353.006 343.12 353.006 341.98C353.006 340.86 352.726 339.93 352.166 339.19C351.626 338.43 350.856 338.04 349.856 338.02C349.656 338.12 349.446 338.21 349.226 338.29C349.026 338.37 348.816 338.41 348.596 338.41C348.156 338.41 347.936 338.24 347.936 337.9C347.936 337.58 348.166 337.42 348.626 337.42C348.826 337.42 349.036 337.44 349.256 337.48C349.476 337.52 349.686 337.56 349.886 337.6C350.806 337.32 351.426 336.85 351.746 336.19C352.066 335.53 352.226 334.8 352.226 334C352.226 333.02 352.036 332.23 351.656 331.63C351.276 331.01 350.686 330.7 349.886 330.7C349.166 330.7 348.476 330.92 347.816 331.36C347.156 331.78 346.616 332.38 346.196 333.16C345.796 333.94 345.606 334.85 345.626 335.89H344.936C344.976 334.93 344.986 334.1 344.966 333.4C344.946 332.68 344.916 332.07 344.876 331.57C344.856 331.07 344.826 330.67 344.786 330.37H345.476C345.536 330.81 345.606 331.14 345.686 331.36C345.786 331.58 345.936 331.69 346.136 331.69C346.256 331.69 346.396 331.64 346.556 331.54C346.736 331.44 346.936 331.32 347.156 331.18C347.516 330.94 347.946 330.71 348.446 330.49C348.966 330.25 349.646 330.13 350.486 330.13ZM374.42 330.58V331.21C373.6 331.21 373.01 331.36 372.65 331.66C372.31 331.96 372.14 332.53 372.14 333.37V343.21C372.14 344.05 372.31 344.62 372.65 344.92C373.01 345.22 373.6 345.37 374.42 345.37V346C374.08 345.98 373.56 345.96 372.86 345.94C372.16 345.9 371.48 345.88 370.82 345.88C370.16 345.88 369.51 345.9 368.87 345.94C368.25 345.96 367.78 345.98 367.46 346V345.37C368.18 345.37 368.69 345.22 368.99 344.92C369.29 344.62 369.44 344.05 369.44 343.21V333.37C369.44 332.53 369.29 331.96 368.99 331.66C368.69 331.36 368.18 331.21 367.46 331.21V330.58C367.78 330.6 368.25 330.63 368.87 330.67C369.51 330.69 370.16 330.7 370.82 330.7C371.48 330.7 372.16 330.69 372.86 330.67C373.56 330.63 374.08 330.6 374.42 330.58ZM364.79 330.58V331.21C364.07 331.21 363.56 331.36 363.26 331.66C362.96 331.96 362.81 332.53 362.81 333.37V343.21C362.81 344.05 362.96 344.62 363.26 344.92C363.56 345.22 364.07 345.37 364.79 345.37V346C364.47 345.98 363.99 345.96 363.35 345.94C362.73 345.9 362.09 345.88 361.43 345.88C360.77 345.88 360.09 345.9 359.39 345.94C358.69 345.96 358.17 345.98 357.83 346V345.37C358.65 345.37 359.23 345.22 359.57 344.92C359.93 344.62 360.11 344.05 360.11 343.21V333.37C360.11 332.53 359.93 331.96 359.57 331.66C359.23 331.36 358.65 331.21 357.83 331.21V330.58C358.17 330.6 358.69 330.63 359.39 330.67C360.09 330.69 360.77 330.7 361.43 330.7C362.09 330.7 362.73 330.69 363.35 330.67C363.99 330.63 364.47 330.6 364.79 330.58ZM370.28 337.75V338.35H361.82V337.75H370.28ZM383.52 330.13C384.8 330.13 385.95 330.41 386.97 330.97C387.99 331.53 388.8 332.41 389.4 333.61C390.02 334.81 390.33 336.37 390.33 338.29C390.33 340.21 390.02 341.77 389.4 342.97C388.8 344.15 387.99 345.02 386.97 345.58C385.95 346.14 384.8 346.42 383.52 346.42C382.26 346.42 381.11 346.14 380.07 345.58C379.05 345.02 378.23 344.15 377.61 342.97C377.01 341.77 376.71 340.21 376.71 338.29C376.71 336.37 377.01 334.81 377.61 333.61C378.23 332.41 379.05 331.53 380.07 330.97C381.11 330.41 382.26 330.13 383.52 330.13ZM383.52 330.73C382.38 330.73 381.44 331.32 380.7 332.5C379.98 333.68 379.62 335.61 379.62 338.29C379.62 340.97 379.98 342.9 380.7 344.08C381.44 345.24 382.38 345.82 383.52 345.82C384.66 345.82 385.59 345.24 386.31 344.08C387.05 342.9 387.42 340.97 387.42 338.29C387.42 335.61 387.05 333.68 386.31 332.5C385.59 331.32 384.66 330.73 383.52 330.73ZM400.105 330.13C400.745 330.13 401.365 330.21 401.965 330.37C402.565 330.53 403.105 330.77 403.585 331.09C404.045 331.39 404.395 331.74 404.635 332.14C404.875 332.52 404.995 332.94 404.995 333.4C404.995 333.94 404.845 334.36 404.545 334.66C404.245 334.94 403.865 335.08 403.405 335.08C402.965 335.08 402.575 334.95 402.235 334.69C401.915 334.43 401.755 334.06 401.755 333.58C401.755 333.12 401.875 332.75 402.115 332.47C402.375 332.19 402.675 332.01 403.015 331.93C402.815 331.57 402.455 331.27 401.935 331.03C401.435 330.79 400.895 330.67 400.315 330.67C399.815 330.67 399.315 330.79 398.815 331.03C398.315 331.27 397.855 331.67 397.435 332.23C397.015 332.77 396.675 333.52 396.415 334.48C396.155 335.42 396.025 336.6 396.025 338.02C396.025 339.78 396.225 341.18 396.625 342.22C397.025 343.26 397.545 344.01 398.185 344.47C398.845 344.91 399.565 345.13 400.345 345.13C400.865 345.13 401.395 345.03 401.935 344.83C402.475 344.63 402.985 344.31 403.465 343.87C403.945 343.41 404.355 342.8 404.695 342.04L405.265 342.25C405.065 342.89 404.735 343.54 404.275 344.2C403.815 344.84 403.215 345.37 402.475 345.79C401.735 346.21 400.825 346.42 399.745 346.42C398.505 346.42 397.385 346.1 396.385 345.46C395.385 344.82 394.585 343.91 393.985 342.73C393.405 341.53 393.115 340.11 393.115 338.47C393.115 336.83 393.405 335.39 393.985 334.15C394.585 332.89 395.415 331.91 396.475 331.21C397.535 330.49 398.745 330.13 400.105 330.13ZM414.395 330.58V331.21C413.575 331.21 412.985 331.36 412.625 331.66C412.285 331.96 412.115 332.53 412.115 333.37V343.21C412.115 344.01 412.205 344.57 412.385 344.89C412.585 345.21 412.925 345.37 413.405 345.37C414.485 345.37 415.305 345.19 415.865 344.83C416.445 344.47 416.845 343.99 417.065 343.39C417.285 342.79 417.395 342.15 417.395 341.47C417.395 340.09 417.005 339.09 416.225 338.47C415.465 337.83 414.195 337.51 412.415 337.51C412.075 337.51 411.725 337.51 411.365 337.51C411.005 337.51 410.655 337.51 410.315 337.51L410.255 337C410.915 337 411.565 337 412.205 337C412.865 337 413.525 337 414.185 337C416.365 337 417.915 337.41 418.835 338.23C419.755 339.03 420.215 340.05 420.215 341.29C420.215 342.03 420.005 342.76 419.585 343.48C419.185 344.2 418.505 344.8 417.545 345.28C416.605 345.76 415.335 346 413.735 346C413.315 346 412.835 345.98 412.295 345.94C411.755 345.9 411.215 345.88 410.675 345.88C410.055 345.88 409.395 345.9 408.695 345.94C407.995 345.96 407.475 345.98 407.135 346V345.37C407.955 345.37 408.535 345.22 408.875 344.92C409.235 344.62 409.415 344.05 409.415 343.21V333.37C409.415 332.53 409.265 331.96 408.965 331.66C408.665 331.36 408.155 331.21 407.435 331.21V330.58C407.755 330.6 408.225 330.63 408.845 330.67C409.485 330.69 410.135 330.7 410.795 330.7C411.455 330.7 412.135 330.69 412.835 330.67C413.535 330.63 414.055 330.6 414.395 330.58ZM427.955 330.58V331.21C427.235 331.21 426.725 331.36 426.425 331.66C426.125 331.96 425.975 332.53 425.975 333.37V343.21C425.975 344.05 426.145 344.62 426.485 344.92C426.845 345.22 427.435 345.37 428.255 345.37V346C427.915 345.98 427.385 345.96 426.665 345.94C425.945 345.9 425.255 345.88 424.595 345.88C423.995 345.88 423.375 345.9 422.735 345.94C422.095 345.96 421.615 345.98 421.295 346V345.37C422.015 345.37 422.525 345.22 422.825 344.92C423.125 344.62 423.275 344.05 423.275 343.21V333.37C423.275 332.53 423.125 331.96 422.825 331.66C422.525 331.36 422.015 331.21 421.295 331.21V330.58C421.615 330.6 422.095 330.63 422.735 330.67C423.375 330.69 423.995 330.7 424.595 330.7C425.255 330.7 425.895 330.69 426.515 330.67C427.155 330.63 427.635 330.6 427.955 330.58Z" fill="#BBB5C4"/>
<path d="M171.793 386.2H180.937V387.976H173.785V393.472H180.337V395.248H173.785V401.224H181.057V403H171.793V386.2ZM192.652 402.208C192.172 402.56 191.604 402.824 190.948 403C190.292 403.192 189.604 403.288 188.884 403.288C187.956 403.288 187.172 403.144 186.532 402.856C185.892 402.552 185.364 402.128 184.948 401.584C184.548 401.024 184.252 400.36 184.06 399.592C183.884 398.808 183.796 397.944 183.796 397C183.796 394.968 184.244 393.416 185.14 392.344C186.036 391.256 187.324 390.712 189.004 390.712C189.772 390.712 190.42 390.776 190.948 390.904C191.492 391.016 191.98 391.184 192.412 391.408L191.86 393.064C191.492 392.856 191.084 392.696 190.636 392.584C190.188 392.456 189.708 392.392 189.196 392.392C186.924 392.392 185.788 393.928 185.788 397C185.788 397.608 185.844 398.192 185.956 398.752C186.084 399.296 186.284 399.784 186.556 400.216C186.844 400.632 187.212 400.968 187.66 401.224C188.124 401.48 188.692 401.608 189.364 401.608C189.94 401.608 190.452 401.52 190.9 401.344C191.364 401.168 191.74 400.968 192.028 400.744L192.652 402.208ZM201.729 392.68H198.249C198.201 393.352 198.153 394.08 198.105 394.864C198.057 395.632 197.985 396.408 197.889 397.192C197.793 397.96 197.665 398.704 197.505 399.424C197.345 400.128 197.137 400.752 196.881 401.296C196.641 401.84 196.337 402.28 195.969 402.616C195.617 402.936 195.193 403.096 194.697 403.096C194.393 403.096 194.129 403.08 193.905 403.048C193.681 403.016 193.481 402.96 193.305 402.88L193.593 401.272C193.785 401.336 193.993 401.368 194.217 401.368C194.537 401.368 194.825 401.232 195.081 400.96C195.337 400.688 195.561 400.176 195.753 399.424C195.945 398.656 196.105 397.6 196.233 396.256C196.361 394.912 196.449 393.16 196.497 391H203.649V403H201.729V392.68ZM214.831 395.896L214.903 394.408H214.831L213.847 395.944L208.447 403H207.343V391H209.263V398.32L209.191 399.736H209.287L210.223 398.248L215.623 391H216.751V403H214.831V395.896ZM226.843 391.024C227.403 390.992 227.987 390.952 228.595 390.904C229.219 390.856 229.987 390.832 230.899 390.832C232.483 390.832 233.619 391.08 234.307 391.576C234.995 392.056 235.339 392.792 235.339 393.784C235.339 394.344 235.171 394.896 234.835 395.44C234.515 395.968 233.979 396.36 233.227 396.616V396.712C234.171 396.888 234.835 397.216 235.219 397.696C235.603 398.176 235.795 398.816 235.795 399.616C235.795 400.864 235.347 401.768 234.451 402.328C233.555 402.888 232.211 403.168 230.419 403.168C229.747 403.168 229.123 403.144 228.547 403.096C227.971 403.064 227.403 403.024 226.843 402.976V391.024ZM228.763 401.392C229.067 401.424 229.363 401.448 229.651 401.464C229.955 401.48 230.307 401.488 230.707 401.488C231.779 401.488 232.571 401.336 233.083 401.032C233.611 400.728 233.875 400.208 233.875 399.472C233.875 398.896 233.651 398.432 233.203 398.08C232.771 397.712 231.995 397.528 230.875 397.528H228.763V401.392ZM231.115 396.064C231.403 396.064 231.683 396.016 231.955 395.92C232.227 395.824 232.467 395.696 232.675 395.536C232.899 395.36 233.075 395.16 233.203 394.936C233.347 394.712 233.419 394.472 233.419 394.216C233.419 393.576 233.227 393.136 232.843 392.896C232.459 392.64 231.787 392.512 230.827 392.512C230.315 392.512 229.907 392.52 229.603 392.536C229.315 392.552 229.035 392.568 228.763 392.584V396.064H231.115ZM240.74 401.32C241.332 401.416 241.9 401.464 242.444 401.464C243.452 401.464 244.156 401.272 244.556 400.888C244.956 400.488 245.156 399.928 245.156 399.208C245.156 398.568 244.956 398.04 244.556 397.624C244.172 397.208 243.492 397 242.516 397C242.244 397 241.948 397.008 241.628 397.024C241.308 397.04 241.012 397.088 240.74 397.168V401.32ZM240.74 395.584C241.124 395.52 241.492 395.48 241.844 395.464C242.196 395.432 242.532 395.416 242.852 395.416C243.668 395.416 244.348 395.512 244.892 395.704C245.452 395.88 245.9 396.128 246.236 396.448C246.572 396.768 246.804 397.152 246.932 397.6C247.076 398.032 247.148 398.496 247.148 398.992C247.148 400.448 246.74 401.504 245.924 402.16C245.124 402.816 243.82 403.144 242.012 403.144C240.988 403.144 239.924 403.096 238.82 403V391H240.74V395.584ZM249.044 391H250.964V403H249.044V391ZM255.767 393.136C256.295 392.368 256.879 391.832 257.519 391.528C258.159 391.208 258.959 391.048 259.919 391.048C261.391 391.048 262.519 391.528 263.303 392.488C264.103 393.448 264.503 394.864 264.503 396.736C264.503 398.896 264.039 400.528 263.111 401.632C262.199 402.736 260.919 403.288 259.271 403.288C257.511 403.288 256.191 402.68 255.311 401.464C254.431 400.248 253.991 398.336 253.991 395.728C253.991 394.352 254.055 393.176 254.183 392.2C254.327 391.224 254.527 390.4 254.783 389.728C255.055 389.056 255.375 388.52 255.743 388.12C256.127 387.72 256.551 387.408 257.015 387.184C257.495 386.944 258.015 386.776 258.575 386.68C259.135 386.584 259.735 386.504 260.375 386.44C261.207 386.36 261.855 386.272 262.319 386.176C262.799 386.064 263.183 385.872 263.471 385.6L263.687 387.328C263.527 387.472 263.351 387.592 263.159 387.688C262.967 387.784 262.735 387.864 262.463 387.928C262.191 387.992 261.863 388.048 261.479 388.096C261.111 388.144 260.679 388.184 260.183 388.216C259.495 388.264 258.887 388.352 258.359 388.48C257.847 388.592 257.399 388.824 257.015 389.176C256.647 389.512 256.351 390 256.127 390.64C255.919 391.264 255.775 392.096 255.695 393.136H255.767ZM255.983 397.024C255.983 397.632 256.047 398.216 256.175 398.776C256.303 399.336 256.495 399.832 256.751 400.264C257.023 400.68 257.367 401.008 257.783 401.248C258.199 401.488 258.687 401.608 259.247 401.608C260.351 401.608 261.167 401.216 261.695 400.432C262.239 399.632 262.511 398.456 262.511 396.904C262.511 396.296 262.455 395.736 262.343 395.224C262.231 394.712 262.055 394.272 261.815 393.904C261.575 393.52 261.271 393.232 260.903 393.04C260.535 392.832 260.095 392.728 259.583 392.728C258.335 392.712 257.423 393.08 256.847 393.832C256.271 394.568 255.983 395.632 255.983 397.024ZM267.531 391H268.851L269.211 392.44H269.307C269.675 391.88 270.147 391.456 270.723 391.168C271.315 390.864 271.987 390.712 272.739 390.712C274.339 390.712 275.531 391.184 276.315 392.128C277.099 393.072 277.491 394.616 277.491 396.76C277.491 397.768 277.355 398.68 277.083 399.496C276.827 400.296 276.459 400.976 275.979 401.536C275.499 402.096 274.915 402.528 274.227 402.832C273.555 403.136 272.803 403.288 271.971 403.288C271.379 403.288 270.907 403.248 270.555 403.168C270.219 403.104 269.851 402.984 269.451 402.808V407.8H267.531V391ZM272.379 392.392C271.563 392.392 270.915 392.608 270.435 393.04C269.971 393.456 269.643 394.096 269.451 394.96V400.912C269.739 401.136 270.067 401.312 270.435 401.44C270.803 401.552 271.291 401.608 271.899 401.608C273.003 401.608 273.875 401.2 274.515 400.384C275.171 399.552 275.499 398.336 275.499 396.736C275.499 396.08 275.443 395.488 275.331 394.96C275.219 394.416 275.035 393.96 274.779 393.592C274.539 393.208 274.219 392.912 273.819 392.704C273.435 392.496 272.955 392.392 272.379 392.392ZM280.323 391.888C280.931 391.52 281.635 391.248 282.435 391.072C283.251 390.896 284.099 390.808 284.979 390.808C285.811 390.808 286.475 390.92 286.971 391.144C287.483 391.368 287.867 391.664 288.123 392.032C288.395 392.384 288.571 392.776 288.651 393.208C288.747 393.64 288.795 394.072 288.795 394.504C288.795 395.464 288.771 396.4 288.723 397.312C288.675 398.224 288.651 399.088 288.651 399.904C288.651 400.496 288.675 401.056 288.723 401.584C288.771 402.112 288.859 402.6 288.987 403.048H287.571L287.067 401.368H286.947C286.803 401.592 286.619 401.816 286.395 402.04C286.187 402.248 285.931 402.44 285.627 402.616C285.323 402.776 284.971 402.912 284.571 403.024C284.171 403.136 283.715 403.192 283.203 403.192C282.691 403.192 282.211 403.112 281.763 402.952C281.331 402.792 280.955 402.568 280.635 402.28C280.315 401.976 280.059 401.616 279.867 401.2C279.691 400.784 279.603 400.312 279.603 399.784C279.603 399.08 279.747 398.496 280.035 398.032C280.323 397.552 280.723 397.176 281.235 396.904C281.763 396.616 282.387 396.416 283.107 396.304C283.843 396.176 284.651 396.112 285.531 396.112C285.755 396.112 285.971 396.112 286.179 396.112C286.403 396.112 286.627 396.128 286.851 396.16C286.899 395.68 286.923 395.248 286.923 394.864C286.923 393.984 286.747 393.368 286.395 393.016C286.043 392.664 285.403 392.488 284.475 392.488C284.203 392.488 283.907 392.512 283.587 392.56C283.283 392.592 282.963 392.648 282.627 392.728C282.307 392.792 281.995 392.88 281.691 392.992C281.403 393.088 281.147 393.2 280.923 393.328L280.323 391.888ZM283.731 401.512C284.179 401.512 284.579 401.456 284.931 401.344C285.283 401.216 285.587 401.064 285.843 400.888C286.099 400.696 286.307 400.488 286.467 400.264C286.643 400.04 286.771 399.824 286.851 399.616V397.624C286.627 397.608 286.395 397.6 286.155 397.6C285.931 397.584 285.707 397.576 285.483 397.576C284.987 397.576 284.499 397.608 284.019 397.672C283.555 397.72 283.139 397.824 282.771 397.984C282.419 398.128 282.131 398.336 281.907 398.608C281.699 398.864 281.595 399.192 281.595 399.592C281.595 400.152 281.795 400.616 282.195 400.984C282.595 401.336 283.107 401.512 283.731 401.512ZM300.077 392.68H296.309V403H294.389V392.68H290.621V391H300.077V392.68ZM303.904 401.32C304.496 401.416 305.064 401.464 305.608 401.464C306.616 401.464 307.36 401.272 307.84 400.888C308.32 400.488 308.56 399.928 308.56 399.208C308.56 398.568 308.328 398.04 307.864 397.624C307.4 397.208 306.672 397 305.68 397C305.408 397 305.112 397.008 304.792 397.024C304.472 397.04 304.176 397.088 303.904 397.168V401.32ZM303.904 395.584C304.288 395.52 304.656 395.48 305.008 395.464C305.36 395.432 305.696 395.416 306.016 395.416C306.848 395.416 307.552 395.512 308.128 395.704C308.704 395.88 309.168 396.128 309.52 396.448C309.888 396.768 310.152 397.152 310.312 397.6C310.472 398.032 310.552 398.496 310.552 398.992C310.552 400.448 310.112 401.504 309.232 402.16C308.368 402.816 307.016 403.144 305.176 403.144C304.152 403.144 303.088 403.096 301.984 403V391H303.904V395.584ZM171.409 422.888C172.017 422.52 172.721 422.248 173.521 422.072C174.337 421.896 175.185 421.808 176.065 421.808C176.897 421.808 177.561 421.92 178.057 422.144C178.569 422.368 178.953 422.664 179.209 423.032C179.481 423.384 179.657 423.776 179.737 424.208C179.833 424.64 179.881 425.072 179.881 425.504C179.881 426.464 179.857 427.4 179.809 428.312C179.761 429.224 179.737 430.088 179.737 430.904C179.737 431.496 179.761 432.056 179.809 432.584C179.857 433.112 179.945 433.6 180.073 434.048H178.657L178.153 432.368H178.033C177.889 432.592 177.705 432.816 177.481 433.04C177.273 433.248 177.017 433.44 176.713 433.616C176.409 433.776 176.057 433.912 175.657 434.024C175.257 434.136 174.801 434.192 174.289 434.192C173.777 434.192 173.297 434.112 172.849 433.952C172.417 433.792 172.041 433.568 171.721 433.28C171.401 432.976 171.145 432.616 170.953 432.2C170.777 431.784 170.689 431.312 170.689 430.784C170.689 430.08 170.833 429.496 171.121 429.032C171.409 428.552 171.809 428.176 172.321 427.904C172.849 427.616 173.473 427.416 174.193 427.304C174.929 427.176 175.737 427.112 176.617 427.112C176.841 427.112 177.057 427.112 177.265 427.112C177.489 427.112 177.713 427.128 177.937 427.16C177.985 426.68 178.009 426.248 178.009 425.864C178.009 424.984 177.833 424.368 177.481 424.016C177.129 423.664 176.489 423.488 175.561 423.488C175.289 423.488 174.993 423.512 174.673 423.56C174.369 423.592 174.049 423.648 173.713 423.728C173.393 423.792 173.081 423.88 172.777 423.992C172.489 424.088 172.233 424.2 172.009 424.328L171.409 422.888ZM174.817 432.512C175.265 432.512 175.665 432.456 176.017 432.344C176.369 432.216 176.673 432.064 176.929 431.888C177.185 431.696 177.393 431.488 177.553 431.264C177.729 431.04 177.857 430.824 177.937 430.616V428.624C177.713 428.608 177.481 428.6 177.241 428.6C177.017 428.584 176.793 428.576 176.569 428.576C176.073 428.576 175.585 428.608 175.105 428.672C174.641 428.72 174.225 428.824 173.857 428.984C173.505 429.128 173.217 429.336 172.993 429.608C172.785 429.864 172.681 430.192 172.681 430.592C172.681 431.152 172.881 431.616 173.281 431.984C173.681 432.336 174.193 432.512 174.817 432.512ZM187.035 429.776L187.707 432.08H187.827L188.355 429.752L190.683 422H192.627L189.075 432.776C188.803 433.56 188.531 434.32 188.259 435.056C188.003 435.792 187.715 436.448 187.395 437.024C187.075 437.6 186.715 438.056 186.315 438.392C185.915 438.744 185.451 438.92 184.923 438.92C184.347 438.92 183.875 438.84 183.507 438.68L183.843 437.024C184.051 437.104 184.251 437.144 184.443 437.144C184.891 437.144 185.323 436.904 185.739 436.424C186.155 435.96 186.499 435.152 186.771 434L181.947 422H184.155L187.035 429.776ZM202.343 423.68H198.575V434H196.655V423.68H192.887V422H202.343V423.68ZM212.058 433.208C211.578 433.56 211.01 433.824 210.354 434C209.698 434.192 209.01 434.288 208.29 434.288C207.362 434.288 206.578 434.144 205.938 433.856C205.298 433.552 204.77 433.128 204.354 432.584C203.954 432.024 203.658 431.36 203.466 430.592C203.29 429.808 203.202 428.944 203.202 428C203.202 425.968 203.65 424.416 204.546 423.344C205.442 422.256 206.73 421.712 208.41 421.712C209.178 421.712 209.826 421.776 210.354 421.904C210.898 422.016 211.386 422.184 211.818 422.408L211.266 424.064C210.898 423.856 210.49 423.696 210.042 423.584C209.594 423.456 209.114 423.392 208.602 423.392C206.33 423.392 205.194 424.928 205.194 428C205.194 428.608 205.25 429.192 205.362 429.752C205.49 430.296 205.69 430.784 205.962 431.216C206.25 431.632 206.618 431.968 207.066 432.224C207.53 432.48 208.098 432.608 208.77 432.608C209.346 432.608 209.858 432.52 210.306 432.344C210.77 432.168 211.146 431.968 211.434 431.744L212.058 433.208ZM213.468 428C213.468 425.968 213.916 424.416 214.812 423.344C215.724 422.256 217.028 421.712 218.724 421.712C219.62 421.712 220.396 421.864 221.052 422.168C221.724 422.456 222.276 422.88 222.708 423.44C223.14 423.984 223.46 424.648 223.668 425.432C223.876 426.2 223.98 427.056 223.98 428C223.98 430.032 223.524 431.592 222.612 432.68C221.716 433.752 220.42 434.288 218.724 434.288C217.828 434.288 217.044 434.144 216.372 433.856C215.716 433.552 215.172 433.128 214.74 432.584C214.308 432.024 213.988 431.36 213.78 430.592C213.572 429.808 213.468 428.944 213.468 428ZM215.46 428C215.46 428.608 215.516 429.192 215.628 429.752C215.756 430.312 215.948 430.8 216.204 431.216C216.46 431.632 216.796 431.968 217.212 432.224C217.628 432.48 218.132 432.608 218.724 432.608C220.9 432.624 221.988 431.088 221.988 428C221.988 427.376 221.924 426.784 221.796 426.224C221.684 425.664 221.5 425.176 221.244 424.76C220.988 424.344 220.652 424.016 220.236 423.776C219.82 423.52 219.316 423.392 218.724 423.392C216.548 423.376 215.46 424.912 215.46 428ZM227.007 422H228.327L228.687 423.44H228.783C229.151 422.88 229.623 422.456 230.199 422.168C230.791 421.864 231.463 421.712 232.215 421.712C233.815 421.712 235.007 422.184 235.791 423.128C236.575 424.072 236.967 425.616 236.967 427.76C236.967 428.768 236.831 429.68 236.559 430.496C236.303 431.296 235.935 431.976 235.455 432.536C234.975 433.096 234.391 433.528 233.703 433.832C233.031 434.136 232.279 434.288 231.447 434.288C230.855 434.288 230.383 434.248 230.031 434.168C229.695 434.104 229.327 433.984 228.927 433.808V438.8H227.007V422ZM231.855 423.392C231.039 423.392 230.391 423.608 229.911 424.04C229.447 424.456 229.119 425.096 228.927 425.96V431.912C229.215 432.136 229.543 432.312 229.911 432.44C230.279 432.552 230.767 432.608 231.375 432.608C232.479 432.608 233.351 432.2 233.991 431.384C234.647 430.552 234.975 429.336 234.975 427.736C234.975 427.08 234.919 426.488 234.807 425.96C234.695 425.416 234.511 424.96 234.255 424.592C234.015 424.208 233.695 423.912 233.295 423.704C232.911 423.496 232.431 423.392 231.855 423.392ZM248.176 433.208C247.696 433.56 247.128 433.824 246.472 434C245.816 434.192 245.128 434.288 244.408 434.288C243.48 434.288 242.696 434.144 242.056 433.856C241.416 433.552 240.888 433.128 240.472 432.584C240.072 432.024 239.776 431.36 239.584 430.592C239.408 429.808 239.32 428.944 239.32 428C239.32 425.968 239.768 424.416 240.664 423.344C241.56 422.256 242.848 421.712 244.528 421.712C245.296 421.712 245.944 421.776 246.472 421.904C247.016 422.016 247.504 422.184 247.936 422.408L247.384 424.064C247.016 423.856 246.608 423.696 246.16 423.584C245.712 423.456 245.232 423.392 244.72 423.392C242.448 423.392 241.312 424.928 241.312 428C241.312 428.608 241.368 429.192 241.48 429.752C241.608 430.296 241.808 430.784 242.08 431.216C242.368 431.632 242.736 431.968 243.184 432.224C243.648 432.48 244.216 432.608 244.888 432.608C245.464 432.608 245.976 432.52 246.424 432.344C246.888 432.168 247.264 431.968 247.552 431.744L248.176 433.208ZM258.308 426.896L258.38 425.408H258.308L257.324 426.944L251.924 434H250.82V422H252.74V429.32L252.668 430.736H252.764L253.7 429.248L259.1 422H260.228V434H258.308V426.896ZM271.265 428.696H265.841V434H263.921V422H265.841V427.016H271.265V422H273.185V434H271.265V428.696ZM283.89 423.68H278.802V434H276.882V422H283.89V423.68ZM284.695 428C284.695 425.968 285.143 424.416 286.039 423.344C286.951 422.256 288.255 421.712 289.951 421.712C290.847 421.712 291.623 421.864 292.279 422.168C292.951 422.456 293.503 422.88 293.935 423.44C294.367 423.984 294.687 424.648 294.895 425.432C295.103 426.2 295.207 427.056 295.207 428C295.207 430.032 294.751 431.592 293.839 432.68C292.943 433.752 291.647 434.288 289.951 434.288C289.055 434.288 288.271 434.144 287.599 433.856C286.943 433.552 286.399 433.128 285.967 432.584C285.535 432.024 285.215 431.36 285.007 430.592C284.799 429.808 284.695 428.944 284.695 428ZM286.687 428C286.687 428.608 286.743 429.192 286.855 429.752C286.983 430.312 287.175 430.8 287.431 431.216C287.687 431.632 288.023 431.968 288.439 432.224C288.855 432.48 289.359 432.608 289.951 432.608C292.127 432.624 293.215 431.088 293.215 428C293.215 427.376 293.151 426.784 293.023 426.224C292.911 425.664 292.727 425.176 292.471 424.76C292.215 424.344 291.879 424.016 291.463 423.776C291.047 423.52 290.543 423.392 289.951 423.392C287.775 423.376 286.687 424.912 286.687 428ZM298.234 422.024C298.794 421.992 299.378 421.952 299.986 421.904C300.61 421.856 301.378 421.832 302.29 421.832C303.874 421.832 305.01 422.08 305.698 422.576C306.386 423.056 306.73 423.792 306.73 424.784C306.73 425.344 306.562 425.896 306.226 426.44C305.906 426.968 305.37 427.36 304.618 427.616V427.712C305.562 427.888 306.226 428.216 306.61 428.696C306.994 429.176 307.186 429.816 307.186 430.616C307.186 431.864 306.738 432.768 305.842 433.328C304.946 433.888 303.602 434.168 301.81 434.168C301.138 434.168 300.514 434.144 299.938 434.096C299.362 434.064 298.794 434.024 298.234 433.976V422.024ZM300.154 432.392C300.458 432.424 300.754 432.448 301.042 432.464C301.346 432.48 301.698 432.488 302.098 432.488C303.17 432.488 303.962 432.336 304.474 432.032C305.002 431.728 305.266 431.208 305.266 430.472C305.266 429.896 305.042 429.432 304.594 429.08C304.162 428.712 303.386 428.528 302.266 428.528H300.154V432.392ZM302.506 427.064C302.794 427.064 303.074 427.016 303.346 426.92C303.618 426.824 303.858 426.696 304.066 426.536C304.29 426.36 304.466 426.16 304.594 425.936C304.738 425.712 304.81 425.472 304.81 425.216C304.81 424.576 304.618 424.136 304.234 423.896C303.85 423.64 303.178 423.512 302.218 423.512C301.706 423.512 301.298 423.52 300.994 423.536C300.706 423.552 300.426 423.568 300.154 423.584V427.064H302.506ZM313.738 429.776L314.41 432.08H314.53L315.058 429.752L317.386 422H319.33L315.778 432.776C315.506 433.56 315.234 434.32 314.962 435.056C314.706 435.792 314.418 436.448 314.098 437.024C313.778 437.6 313.418 438.056 313.018 438.392C312.618 438.744 312.154 438.92 311.626 438.92C311.05 438.92 310.578 438.84 310.21 438.68L310.546 437.024C310.754 437.104 310.954 437.144 311.146 437.144C311.594 437.144 312.026 436.904 312.442 436.424C312.858 435.96 313.202 435.152 313.474 434L308.65 422H310.858L313.738 429.776ZM330.702 434.288C329.838 434.288 329.094 434.16 328.47 433.904C327.862 433.632 327.358 433.256 326.958 432.776C326.574 432.28 326.278 431.688 326.07 431C325.878 430.296 325.758 429.528 325.71 428.696H323.31V434H321.39V422H323.31V427.016H325.734C325.862 425.304 326.326 423.992 327.126 423.08C327.942 422.168 329.15 421.712 330.75 421.712C331.63 421.712 332.374 421.864 332.982 422.168C333.606 422.456 334.11 422.88 334.494 423.44C334.894 423.984 335.182 424.648 335.358 425.432C335.534 426.2 335.622 427.056 335.622 428C335.622 430.032 335.214 431.592 334.398 432.68C333.598 433.752 332.366 434.288 330.702 434.288ZM327.606 428C327.606 428.624 327.654 429.216 327.75 429.776C327.846 430.336 328.014 430.832 328.254 431.264C328.494 431.68 328.814 432.008 329.214 432.248C329.63 432.488 330.142 432.608 330.75 432.608C331.774 432.608 332.51 432.24 332.958 431.504C333.406 430.752 333.63 429.584 333.63 428C333.63 427.376 333.582 426.784 333.486 426.224C333.406 425.664 333.254 425.176 333.03 424.76C332.806 424.328 332.51 423.992 332.142 423.752C331.774 423.512 331.302 423.392 330.726 423.392C329.622 423.392 328.822 423.768 328.326 424.52C327.846 425.256 327.606 426.416 327.606 428ZM174.625 459.6H173.521V465H171.601V453H173.521V458.424L174.553 458.088L178.393 453H180.481L176.761 457.824L175.753 458.616L177.001 459.576L181.009 465H178.633L174.625 459.6ZM182.132 459C182.132 456.968 182.58 455.416 183.476 454.344C184.388 453.256 185.692 452.712 187.388 452.712C188.284 452.712 189.06 452.864 189.716 453.168C190.388 453.456 190.94 453.88 191.372 454.44C191.804 454.984 192.124 455.648 192.332 456.432C192.54 457.2 192.644 458.056 192.644 459C192.644 461.032 192.188 462.592 191.276 463.68C190.38 464.752 189.084 465.288 187.388 465.288C186.492 465.288 185.708 465.144 185.036 464.856C184.38 464.552 183.836 464.128 183.404 463.584C182.972 463.024 182.652 462.36 182.444 461.592C182.236 460.808 182.132 459.944 182.132 459ZM184.124 459C184.124 459.608 184.18 460.192 184.292 460.752C184.42 461.312 184.612 461.8 184.868 462.216C185.124 462.632 185.46 462.968 185.876 463.224C186.292 463.48 186.796 463.608 187.388 463.608C189.564 463.624 190.652 462.088 190.652 459C190.652 458.376 190.588 457.784 190.46 457.224C190.348 456.664 190.164 456.176 189.908 455.76C189.652 455.344 189.316 455.016 188.9 454.776C188.484 454.52 187.98 454.392 187.388 454.392C185.212 454.376 184.124 455.912 184.124 459ZM205.583 457.872L205.727 455.592H205.607L204.743 457.44L201.839 462.144H201.167L198.143 457.44L197.351 455.592H197.255L197.447 457.848V465H195.671V453H197.567L200.927 458.376L201.623 459.768H201.671L202.391 458.328L205.535 453H207.455V465H205.583V457.872ZM218.364 454.68H213.06V465H211.14V453H220.284V465H218.364V454.68ZM223.792 453.888C224.4 453.52 225.104 453.248 225.904 453.072C226.72 452.896 227.568 452.808 228.448 452.808C229.28 452.808 229.944 452.92 230.44 453.144C230.952 453.368 231.336 453.664 231.592 454.032C231.864 454.384 232.04 454.776 232.12 455.208C232.216 455.64 232.264 456.072 232.264 456.504C232.264 457.464 232.24 458.4 232.192 459.312C232.144 460.224 232.12 461.088 232.12 461.904C232.12 462.496 232.144 463.056 232.192 463.584C232.24 464.112 232.328 464.6 232.456 465.048H231.04L230.536 463.368H230.416C230.272 463.592 230.088 463.816 229.864 464.04C229.656 464.248 229.4 464.44 229.096 464.616C228.792 464.776 228.44 464.912 228.04 465.024C227.64 465.136 227.184 465.192 226.672 465.192C226.16 465.192 225.68 465.112 225.232 464.952C224.8 464.792 224.424 464.568 224.104 464.28C223.784 463.976 223.528 463.616 223.336 463.2C223.16 462.784 223.072 462.312 223.072 461.784C223.072 461.08 223.216 460.496 223.504 460.032C223.792 459.552 224.192 459.176 224.704 458.904C225.232 458.616 225.856 458.416 226.576 458.304C227.312 458.176 228.12 458.112 229 458.112C229.224 458.112 229.44 458.112 229.648 458.112C229.872 458.112 230.096 458.128 230.32 458.16C230.368 457.68 230.392 457.248 230.392 456.864C230.392 455.984 230.216 455.368 229.864 455.016C229.512 454.664 228.872 454.488 227.944 454.488C227.672 454.488 227.376 454.512 227.056 454.56C226.752 454.592 226.432 454.648 226.096 454.728C225.776 454.792 225.464 454.88 225.16 454.992C224.872 455.088 224.616 455.2 224.392 455.328L223.792 453.888ZM227.2 463.512C227.648 463.512 228.048 463.456 228.4 463.344C228.752 463.216 229.056 463.064 229.312 462.888C229.568 462.696 229.776 462.488 229.936 462.264C230.112 462.04 230.24 461.824 230.32 461.616V459.624C230.096 459.608 229.864 459.6 229.624 459.6C229.4 459.584 229.176 459.576 228.952 459.576C228.456 459.576 227.968 459.608 227.488 459.672C227.024 459.72 226.608 459.824 226.24 459.984C225.888 460.128 225.6 460.336 225.376 460.608C225.168 460.864 225.064 461.192 225.064 461.592C225.064 462.152 225.264 462.616 225.664 462.984C226.064 463.336 226.576 463.512 227.2 463.512ZM243.234 459.696H237.81V465H235.89V453H237.81V458.016H243.234V453H245.154V465H243.234V459.696ZM256.339 457.896L256.411 456.408H256.339L255.355 457.944L249.955 465H248.851V453H250.771V460.32L250.699 461.736H250.795L251.731 460.248L257.131 453H258.259V465H256.339V457.896ZM271.264 465.288C270.4 465.288 269.656 465.16 269.032 464.904C268.424 464.632 267.92 464.256 267.52 463.776C267.136 463.28 266.84 462.688 266.632 462C266.44 461.296 266.32 460.528 266.272 459.696H263.872V465H261.952V453H263.872V458.016H266.296C266.424 456.304 266.888 454.992 267.688 454.08C268.504 453.168 269.712 452.712 271.312 452.712C272.192 452.712 272.936 452.864 273.544 453.168C274.168 453.456 274.672 453.88 275.056 454.44C275.456 454.984 275.744 455.648 275.92 456.432C276.096 457.2 276.184 458.056 276.184 459C276.184 461.032 275.776 462.592 274.96 463.68C274.16 464.752 272.928 465.288 271.264 465.288ZM268.168 459C268.168 459.624 268.216 460.216 268.312 460.776C268.408 461.336 268.576 461.832 268.816 462.264C269.056 462.68 269.376 463.008 269.776 463.248C270.192 463.488 270.704 463.608 271.312 463.608C272.336 463.608 273.072 463.24 273.52 462.504C273.968 461.752 274.192 460.584 274.192 459C274.192 458.376 274.144 457.784 274.048 457.224C273.968 456.664 273.816 456.176 273.592 455.76C273.368 455.328 273.072 454.992 272.704 454.752C272.336 454.512 271.864 454.392 271.288 454.392C270.184 454.392 269.384 454.768 268.888 455.52C268.408 456.256 268.168 457.416 268.168 459Z" fill="#BBB5C4"/>
<path d="M142.732 193C113.709 189.5 98.6967 175 95.6943 146C96.6951 120.5 114.709 101.5 142.732 99C165.75 100.5 187.511 114 189.769 146C188.768 174.5 170.754 191 142.732 193ZM142.732 101.256C118.042 101.256 97.9519 121.33 97.9519 146C97.9519 170.67 118.042 190.744 142.732 190.744C167.421 190.744 187.511 170.67 187.511 146C187.511 121.33 167.421 101.256 142.732 101.256Z" fill="#8ED9CB"/>
<path d="M136.727 161C135.759 161 135.403 160.678 134.725 160L121.715 147.5C120.714 146.5 119.213 145 119.589 143.437C121.715 143 122.215 144.5 123.717 145.5L136.727 158L162.247 131.5C163.748 130.5 164.249 129 165.87 129.699C166.751 131 165.75 131.5 164.749 133L138.729 160.5C138.051 161.178 137.695 161 136.727 161Z" fill="#8ED9CB"/>
</svg>
