<svg width="481" height="541" viewBox="0 0 481 541" fill="none" xmlns="http://www.w3.org/2000/svg">
<line x1="143.5" y1="277" x2="143.5" y2="540.89" stroke="#D4B0B0"/>
<path d="M285.167 142.533C285.167 64.3664 221.554 1 143.083 1C64.6129 1 1 64.3664 1 142.533C1 220.699 64.6129 284.066 143.083 284.066" stroke="#D4B0B0"/>
<ellipse cx="143" cy="142.531" rx="121" ry="120.531" fill="#D5B0B0"/>
<ellipse cx="142.667" cy="143.311" rx="91.6667" ry="91.3115" fill="#203B5B"/>
<path d="M294.333 145.631C294.333 150.674 290.229 154.762 285.167 154.762C280.104 154.762 276 150.674 276 145.631C276 140.588 280.104 136.5 285.167 136.5C290.229 136.5 294.333 140.588 294.333 145.631Z" fill="#D4B0B0"/>
<ellipse cx="143.167" cy="284.131" rx="9.16667" ry="9.13115" fill="#D4B0B0"/>
<path d="M188.33 266.76C188.25 267.46 188.19 268.14 188.15 268.8C188.13 269.46 188.12 269.96 188.12 270.3C188.12 270.66 188.13 271.01 188.15 271.35C188.17 271.67 188.19 271.94 188.21 272.16H187.52C187.4 270.98 187.23 270.05 187.01 269.37C186.79 268.67 186.41 268.18 185.87 267.9C185.35 267.6 184.56 267.45 183.5 267.45H181.91C181.23 267.45 180.71 267.51 180.35 267.63C180.01 267.73 179.78 267.96 179.66 268.32C179.54 268.66 179.48 269.2 179.48 269.94V284.82C179.48 285.52 179.52 286.06 179.6 286.44C179.7 286.82 179.89 287.08 180.17 287.22C180.47 287.34 180.91 287.4 181.49 287.4C182.87 287.4 183.91 287.15 184.61 286.65C185.33 286.13 185.82 285.44 186.08 284.58C186.34 283.7 186.47 282.74 186.47 281.7C186.47 280.38 186.3 279.3 185.96 278.46C185.64 277.6 185.09 276.97 184.31 276.57C183.55 276.15 182.52 275.94 181.22 275.94C181 275.94 180.64 275.95 180.14 275.97C179.66 275.97 179.19 275.98 178.73 276C178.27 276 177.95 276 177.77 276L177.71 275.43C178.65 275.43 179.55 275.42 180.41 275.4C181.27 275.38 181.88 275.37 182.24 275.37C183.44 275.37 184.49 275.53 185.39 275.85C186.31 276.15 187.07 276.58 187.67 277.14C188.27 277.7 188.72 278.37 189.02 279.15C189.32 279.91 189.47 280.75 189.47 281.67C189.47 282.45 189.35 283.22 189.11 283.98C188.87 284.72 188.45 285.4 187.85 286.02C187.27 286.62 186.47 287.1 185.45 287.46C184.43 287.82 183.14 288 181.58 288C181.06 288 180.54 287.99 180.02 287.97C179.52 287.93 178.78 287.91 177.8 287.91C177.24 287.91 176.61 287.92 175.91 287.94C175.23 287.94 174.68 287.96 174.26 288V287.4C174.94 287.36 175.45 287.28 175.79 287.16C176.15 287.04 176.39 286.8 176.51 286.44C176.63 286.08 176.69 285.54 176.69 284.82V269.94C176.69 269.2 176.63 268.66 176.51 268.32C176.39 267.96 176.15 267.72 175.79 267.6C175.45 267.46 174.94 267.38 174.26 267.36V266.76C175 266.78 175.78 266.8 176.6 266.82C177.42 266.82 178.23 266.83 179.03 266.85C179.83 266.85 180.57 266.85 181.25 266.85C181.95 266.85 182.52 266.85 182.96 266.85C183.74 266.85 184.63 266.85 185.63 266.85C186.63 266.83 187.53 266.8 188.33 266.76ZM199.091 272.13C200.371 272.13 201.521 272.41 202.541 272.97C203.561 273.53 204.371 274.41 204.971 275.61C205.591 276.81 205.901 278.37 205.901 280.29C205.901 282.21 205.591 283.77 204.971 284.97C204.371 286.15 203.561 287.02 202.541 287.58C201.521 288.14 200.371 288.42 199.091 288.42C197.831 288.42 196.681 288.14 195.641 287.58C194.621 287.02 193.801 286.15 193.181 284.97C192.581 283.77 192.281 282.21 192.281 280.29C192.281 278.37 192.581 276.81 193.181 275.61C193.801 274.41 194.621 273.53 195.641 272.97C196.681 272.41 197.831 272.13 199.091 272.13ZM199.091 272.73C197.951 272.73 197.011 273.32 196.271 274.5C195.551 275.68 195.191 277.61 195.191 280.29C195.191 282.97 195.551 284.9 196.271 286.08C197.011 287.24 197.951 287.82 199.091 287.82C200.231 287.82 201.161 287.24 201.881 286.08C202.621 284.9 202.991 282.97 202.991 280.29C202.991 277.61 202.621 275.68 201.881 274.5C201.161 273.32 200.231 272.73 199.091 272.73ZM221.247 272.58V273.21C220.427 273.21 219.837 273.36 219.477 273.66C219.137 273.96 218.967 274.53 218.967 275.37V285.21C218.967 286.05 219.137 286.62 219.477 286.92C219.837 287.22 220.427 287.37 221.247 287.37V288C220.907 287.98 220.407 287.96 219.747 287.94C219.087 287.9 218.367 287.88 217.587 287.88C216.807 287.88 216.017 287.9 215.217 287.94C214.437 287.96 213.827 287.98 213.387 288V287.37C214.287 287.37 214.987 287.23 215.487 286.95C216.007 286.65 216.267 286.07 216.267 285.21V275.37C216.267 274.53 216.117 273.96 215.817 273.66C215.517 273.36 215.007 273.21 214.287 273.21H214.017C213.517 273.21 213.187 273.36 213.027 273.66C212.867 273.96 212.747 274.53 212.667 275.37C212.507 277.23 212.307 279.01 212.067 280.71C211.847 282.39 211.467 283.91 210.927 285.27C210.727 285.75 210.477 286.24 210.177 286.74C209.877 287.22 209.507 287.62 209.067 287.94C208.647 288.26 208.137 288.42 207.537 288.42C207.177 288.42 206.837 288.35 206.517 288.21C206.197 288.09 205.937 287.9 205.737 287.64C205.537 287.36 205.437 287.02 205.437 286.62C205.437 286.12 205.587 285.73 205.887 285.45C206.187 285.17 206.577 285.03 207.057 285.03C207.477 285.03 207.827 285.15 208.107 285.39C208.407 285.63 208.557 285.99 208.557 286.47C208.557 286.79 208.467 287.08 208.287 287.34C208.107 287.58 207.817 287.78 207.417 287.94C207.457 287.96 207.507 287.97 207.567 287.97C207.647 287.97 207.697 287.97 207.717 287.97C208.217 287.97 208.637 287.81 208.977 287.49C209.337 287.15 209.637 286.76 209.877 286.32C210.137 285.86 210.327 285.46 210.447 285.12C210.767 284.28 211.037 283.34 211.257 282.3C211.477 281.26 211.657 280.15 211.797 278.97C211.937 277.79 212.047 276.59 212.127 275.37C212.187 274.53 212.007 273.96 211.587 273.66C211.187 273.36 210.577 273.21 209.757 273.21V272.58C209.917 272.6 210.167 272.63 210.507 272.67C210.867 272.69 211.297 272.7 211.797 272.7C212.197 272.7 212.607 272.7 213.027 272.7C213.467 272.7 213.907 272.7 214.347 272.7C214.727 272.7 215.077 272.7 215.397 272.7C215.717 272.7 216.057 272.7 216.417 272.7C216.777 272.7 217.177 272.7 217.617 272.7C218.077 272.7 218.537 272.69 218.997 272.67C219.477 272.65 219.917 272.63 220.317 272.61C220.717 272.59 221.027 272.58 221.247 272.58ZM230.291 272.13C232.051 272.13 233.421 272.67 234.401 273.75C235.401 274.81 235.901 276.47 235.901 278.73H225.311L225.281 278.16H233.021C233.061 277.18 232.981 276.28 232.781 275.46C232.581 274.62 232.261 273.95 231.821 273.45C231.401 272.95 230.851 272.7 230.171 272.7C229.251 272.7 228.431 273.16 227.711 274.08C227.011 275 226.591 276.46 226.451 278.46L226.541 278.58C226.501 278.88 226.471 279.21 226.451 279.57C226.431 279.93 226.421 280.29 226.421 280.65C226.421 282.01 226.641 283.18 227.081 284.16C227.521 285.14 228.091 285.89 228.791 286.41C229.511 286.91 230.251 287.16 231.011 287.16C231.611 287.16 232.181 287.07 232.721 286.89C233.261 286.69 233.761 286.37 234.221 285.93C234.681 285.49 235.081 284.9 235.421 284.16L236.021 284.4C235.801 285.06 235.441 285.7 234.941 286.32C234.441 286.94 233.811 287.45 233.051 287.85C232.291 288.23 231.411 288.42 230.411 288.42C228.971 288.42 227.731 288.09 226.691 287.43C225.671 286.77 224.881 285.86 224.321 284.7C223.781 283.52 223.511 282.17 223.511 280.65C223.511 278.89 223.791 277.38 224.351 276.12C224.911 274.84 225.701 273.86 226.721 273.18C227.741 272.48 228.931 272.13 230.291 272.13ZM245.467 272.13C247.227 272.13 248.597 272.67 249.577 273.75C250.577 274.81 251.077 276.47 251.077 278.73H240.487L240.457 278.16H248.197C248.237 277.18 248.157 276.28 247.957 275.46C247.757 274.62 247.437 273.95 246.997 273.45C246.577 272.95 246.027 272.7 245.347 272.7C244.427 272.7 243.607 273.16 242.887 274.08C242.187 275 241.767 276.46 241.627 278.46L241.717 278.58C241.677 278.88 241.647 279.21 241.627 279.57C241.607 279.93 241.597 280.29 241.597 280.65C241.597 282.01 241.817 283.18 242.257 284.16C242.697 285.14 243.267 285.89 243.967 286.41C244.687 286.91 245.427 287.16 246.187 287.16C246.787 287.16 247.357 287.07 247.897 286.89C248.437 286.69 248.937 286.37 249.397 285.93C249.857 285.49 250.257 284.9 250.597 284.16L251.197 284.4C250.977 285.06 250.617 285.7 250.117 286.32C249.617 286.94 248.987 287.45 248.227 287.85C247.467 288.23 246.587 288.42 245.587 288.42C244.147 288.42 242.907 288.09 241.867 287.43C240.847 286.77 240.057 285.86 239.497 284.7C238.957 283.52 238.687 282.17 238.687 280.65C238.687 278.89 238.967 277.38 239.527 276.12C240.087 274.84 240.877 273.86 241.897 273.18C242.917 272.48 244.107 272.13 245.467 272.13ZM267.273 272.13C268.653 272.13 269.743 272.46 270.543 273.12C271.363 273.76 271.773 274.69 271.773 275.91C271.773 276.71 271.583 277.47 271.203 278.19C270.843 278.89 270.363 279.57 269.763 280.23C269.163 280.87 268.523 281.5 267.843 282.12C267.163 282.72 266.503 283.32 265.863 283.92C265.223 284.5 264.683 285.09 264.243 285.69H270.333C271.153 285.69 271.673 285.58 271.893 285.36C272.113 285.12 272.263 284.72 272.343 284.16H272.853C272.853 285.22 272.863 286.04 272.883 286.62C272.903 287.18 272.933 287.69 272.973 288.15C272.793 288.11 272.463 288.08 271.983 288.06C271.503 288.04 270.953 288.02 270.333 288C269.713 288 269.103 288 268.503 288H261.483V287.49C262.083 286.83 262.803 286.13 263.643 285.39C264.483 284.63 265.293 283.81 266.073 282.93C266.873 282.03 267.533 281.06 268.053 280.02C268.593 278.96 268.863 277.81 268.863 276.57C268.863 275.43 268.593 274.61 268.053 274.11C267.533 273.59 266.803 273.33 265.863 273.33C265.063 273.33 264.323 273.57 263.643 274.05C262.963 274.51 262.363 275.21 261.843 276.15L261.363 275.88C261.663 275.24 262.063 274.64 262.563 274.08C263.083 273.5 263.723 273.03 264.483 272.67C265.263 272.31 266.193 272.13 267.273 272.13ZM283.459 272.13C284.879 272.13 286.129 272.46 287.209 273.12C288.309 273.76 289.169 274.67 289.789 275.85C290.409 277.03 290.719 278.42 290.719 280.02C290.719 281.62 290.399 283.06 289.759 284.34C289.119 285.6 288.229 286.6 287.089 287.34C285.969 288.06 284.649 288.42 283.129 288.42C281.749 288.42 280.509 288.1 279.409 287.46C278.309 286.8 277.439 285.88 276.799 284.7C276.179 283.5 275.869 282.1 275.869 280.5C275.869 278.92 276.179 277.5 276.799 276.24C277.439 274.98 278.329 273.98 279.469 273.24C280.609 272.5 281.939 272.13 283.459 272.13ZM283.189 272.67C281.909 272.67 280.849 273.35 280.009 274.71C279.189 276.07 278.779 277.97 278.779 280.41C278.779 282.21 278.989 283.66 279.409 284.76C279.829 285.84 280.389 286.63 281.089 287.13C281.809 287.63 282.579 287.88 283.399 287.88C284.699 287.88 285.759 287.2 286.579 285.84C287.399 284.46 287.809 282.55 287.809 280.11C287.809 278.31 287.599 276.87 287.179 275.79C286.759 274.69 286.199 273.9 285.499 273.42C284.799 272.92 284.029 272.67 283.189 272.67ZM301.657 269.82V276.9H308.617V277.8H301.657V284.85H300.577V277.8H293.587V276.9H300.577V269.82H301.657ZM333.395 272.58V273.21C332.575 273.21 331.985 273.36 331.625 273.66C331.285 273.96 331.115 274.53 331.115 275.37V285.21C331.115 286.05 331.285 286.62 331.625 286.92C331.985 287.22 332.575 287.37 333.395 287.37V288C333.055 287.98 332.555 287.96 331.895 287.94C331.235 287.9 330.515 287.88 329.735 287.88C328.955 287.88 328.165 287.9 327.365 287.94C326.585 287.96 325.975 287.98 325.535 288V287.37C326.435 287.37 327.135 287.23 327.635 286.95C328.155 286.65 328.415 286.07 328.415 285.21V275.37C328.415 274.53 328.265 273.96 327.965 273.66C327.665 273.36 327.155 273.21 326.435 273.21H326.165C325.665 273.21 325.335 273.36 325.175 273.66C325.015 273.96 324.895 274.53 324.815 275.37C324.655 277.23 324.455 279.01 324.215 280.71C323.995 282.39 323.615 283.91 323.075 285.27C322.875 285.75 322.625 286.24 322.325 286.74C322.025 287.22 321.655 287.62 321.215 287.94C320.795 288.26 320.285 288.42 319.685 288.42C319.325 288.42 318.985 288.35 318.665 288.21C318.345 288.09 318.085 287.9 317.885 287.64C317.685 287.36 317.585 287.02 317.585 286.62C317.585 286.12 317.735 285.73 318.035 285.45C318.335 285.17 318.725 285.03 319.205 285.03C319.625 285.03 319.975 285.15 320.255 285.39C320.555 285.63 320.705 285.99 320.705 286.47C320.705 286.79 320.615 287.08 320.435 287.34C320.255 287.58 319.965 287.78 319.565 287.94C319.605 287.96 319.655 287.97 319.715 287.97C319.795 287.97 319.845 287.97 319.865 287.97C320.365 287.97 320.785 287.81 321.125 287.49C321.485 287.15 321.785 286.76 322.025 286.32C322.285 285.86 322.475 285.46 322.595 285.12C322.915 284.28 323.185 283.34 323.405 282.3C323.625 281.26 323.805 280.15 323.945 278.97C324.085 277.79 324.195 276.59 324.275 275.37C324.335 274.53 324.155 273.96 323.735 273.66C323.335 273.36 322.725 273.21 321.905 273.21V272.58C322.065 272.6 322.315 272.63 322.655 272.67C323.015 272.69 323.445 272.7 323.945 272.7C324.345 272.7 324.755 272.7 325.175 272.7C325.615 272.7 326.055 272.7 326.495 272.7C326.875 272.7 327.225 272.7 327.545 272.7C327.865 272.7 328.205 272.7 328.565 272.7C328.925 272.7 329.325 272.7 329.765 272.7C330.225 272.7 330.685 272.69 331.145 272.67C331.625 272.65 332.065 272.63 332.465 272.61C332.865 272.59 333.175 272.58 333.395 272.58ZM342.439 272.13C344.199 272.13 345.569 272.67 346.549 273.75C347.549 274.81 348.049 276.47 348.049 278.73H337.459L337.429 278.16H345.169C345.209 277.18 345.129 276.28 344.929 275.46C344.729 274.62 344.409 273.95 343.969 273.45C343.549 272.95 342.999 272.7 342.319 272.7C341.399 272.7 340.579 273.16 339.859 274.08C339.159 275 338.739 276.46 338.599 278.46L338.689 278.58C338.649 278.88 338.619 279.21 338.599 279.57C338.579 279.93 338.569 280.29 338.569 280.65C338.569 282.01 338.789 283.18 339.229 284.16C339.669 285.14 340.239 285.89 340.939 286.41C341.659 286.91 342.399 287.16 343.159 287.16C343.759 287.16 344.329 287.07 344.869 286.89C345.409 286.69 345.909 286.37 346.369 285.93C346.829 285.49 347.229 284.9 347.569 284.16L348.169 284.4C347.949 285.06 347.589 285.7 347.089 286.32C346.589 286.94 345.959 287.45 345.199 287.85C344.439 288.23 343.559 288.42 342.559 288.42C341.119 288.42 339.879 288.09 338.839 287.43C337.819 286.77 337.029 285.86 336.469 284.7C335.929 283.52 335.659 282.17 335.659 280.65C335.659 278.89 335.939 277.38 336.499 276.12C337.059 274.84 337.849 273.86 338.869 273.18C339.889 272.48 341.079 272.13 342.439 272.13ZM365.115 272.58C365.035 273.28 364.975 273.95 364.935 274.59C364.915 275.23 364.905 275.72 364.905 276.06C364.905 276.42 364.915 276.77 364.935 277.11C364.955 277.43 364.975 277.7 364.995 277.92H364.305C364.205 276.54 363.995 275.51 363.675 274.83C363.355 274.15 362.915 273.71 362.355 273.51C361.795 273.29 361.105 273.18 360.285 273.18H359.115V284.91C359.115 285.89 359.395 286.55 359.955 286.89C360.535 287.21 361.315 287.37 362.295 287.37V288C361.835 287.98 361.195 287.96 360.375 287.94C359.575 287.9 358.705 287.88 357.765 287.88C356.845 287.88 355.975 287.9 355.155 287.94C354.335 287.96 353.695 287.98 353.235 288V287.37C354.235 287.37 355.015 287.21 355.575 286.89C356.135 286.55 356.415 285.89 356.415 284.91V273.18H354.945C354.125 273.18 353.455 273.29 352.935 273.51C352.435 273.73 352.045 274.18 351.765 274.86C351.505 275.54 351.325 276.57 351.225 277.95H350.535C350.575 277.73 350.595 277.46 350.595 277.14C350.615 276.8 350.625 276.45 350.625 276.09C350.625 275.75 350.605 275.26 350.565 274.62C350.545 273.98 350.495 273.31 350.415 272.61H353.295C353.975 272.61 354.695 272.62 355.455 272.64C356.235 272.66 356.995 272.67 357.735 272.67C358.495 272.67 359.265 272.66 360.045 272.64C360.825 272.6 361.555 272.58 362.235 272.58H365.115ZM181.22 312.13C182.5 312.13 183.65 312.41 184.67 312.97C185.69 313.53 186.5 314.41 187.1 315.61C187.72 316.81 188.03 318.37 188.03 320.29C188.03 322.21 187.72 323.77 187.1 324.97C186.5 326.15 185.69 327.02 184.67 327.58C183.65 328.14 182.5 328.42 181.22 328.42C179.96 328.42 178.81 328.14 177.77 327.58C176.75 327.02 175.93 326.15 175.31 324.97C174.71 323.77 174.41 322.21 174.41 320.29C174.41 318.37 174.71 316.81 175.31 315.61C175.93 314.41 176.75 313.53 177.77 312.97C178.81 312.41 179.96 312.13 181.22 312.13ZM181.22 312.73C180.08 312.73 179.14 313.32 178.4 314.5C177.68 315.68 177.32 317.61 177.32 320.29C177.32 322.97 177.68 324.9 178.4 326.08C179.14 327.24 180.08 327.82 181.22 327.82C182.36 327.82 183.29 327.24 184.01 326.08C184.75 324.9 185.12 322.97 185.12 320.29C185.12 317.61 184.75 315.68 184.01 314.5C183.29 313.32 182.36 312.73 181.22 312.73ZM206.896 312.58V313.21C206.076 313.21 205.486 313.36 205.126 313.66C204.786 313.96 204.616 314.53 204.616 315.37V325.21C204.616 326.05 204.786 326.62 205.126 326.92C205.486 327.22 206.076 327.37 206.896 327.37V328C206.556 327.98 206.036 327.96 205.336 327.94C204.636 327.9 203.956 327.88 203.296 327.88C202.636 327.88 201.986 327.9 201.346 327.94C200.726 327.96 200.256 327.98 199.936 328V327.37C200.656 327.37 201.166 327.22 201.466 326.92C201.766 326.62 201.916 326.05 201.916 325.21V315.37C201.916 314.53 201.766 313.96 201.466 313.66C201.166 313.36 200.656 313.21 199.936 313.21H197.266C196.546 313.21 196.036 313.36 195.736 313.66C195.436 313.96 195.286 314.53 195.286 315.37V325.21C195.286 326.05 195.436 326.62 195.736 326.92C196.036 327.22 196.546 327.37 197.266 327.37V328C196.946 327.98 196.466 327.96 195.826 327.94C195.206 327.9 194.566 327.88 193.906 327.88C193.246 327.88 192.566 327.9 191.866 327.94C191.166 327.96 190.646 327.98 190.306 328V327.37C191.126 327.37 191.706 327.22 192.046 326.92C192.406 326.62 192.586 326.05 192.586 325.21V315.37C192.586 314.53 192.406 313.96 192.046 313.66C191.706 313.36 191.126 313.21 190.306 313.21V312.58C190.646 312.6 191.166 312.63 191.866 312.67C192.566 312.69 193.246 312.7 193.906 312.7C194.866 312.7 195.716 312.68 196.456 312.64C197.216 312.6 197.986 312.58 198.766 312.58C199.546 312.58 200.256 312.6 200.896 312.64C201.536 312.68 202.336 312.7 203.296 312.7C203.956 312.7 204.636 312.69 205.336 312.67C206.036 312.63 206.556 312.6 206.896 312.58ZM215.845 312.58V313.21C215.025 313.21 214.435 313.36 214.075 313.66C213.735 313.96 213.565 314.53 213.565 315.37V325.21C213.565 326.01 213.655 326.57 213.835 326.89C214.035 327.21 214.375 327.37 214.855 327.37C215.935 327.37 216.755 327.19 217.315 326.83C217.895 326.47 218.295 325.99 218.515 325.39C218.735 324.79 218.845 324.15 218.845 323.47C218.845 322.09 218.455 321.09 217.675 320.47C216.915 319.83 215.645 319.51 213.865 319.51C213.525 319.51 213.175 319.51 212.815 319.51C212.455 319.51 212.105 319.51 211.765 319.51L211.705 319C212.365 319 213.015 319 213.655 319C214.315 319 214.975 319 215.635 319C217.815 319 219.365 319.41 220.285 320.23C221.205 321.03 221.665 322.05 221.665 323.29C221.665 324.03 221.455 324.76 221.035 325.48C220.635 326.2 219.955 326.8 218.995 327.28C218.055 327.76 216.785 328 215.185 328C214.765 328 214.285 327.98 213.745 327.94C213.205 327.9 212.665 327.88 212.125 327.88C211.505 327.88 210.845 327.9 210.145 327.94C209.445 327.96 208.925 327.98 208.585 328V327.37C209.405 327.37 209.985 327.22 210.325 326.92C210.685 326.62 210.865 326.05 210.865 325.21V315.37C210.865 314.53 210.715 313.96 210.415 313.66C210.115 313.36 209.605 313.21 208.885 313.21V312.58C209.205 312.6 209.675 312.63 210.295 312.67C210.935 312.69 211.585 312.7 212.245 312.7C212.905 312.7 213.585 312.69 214.285 312.67C214.985 312.63 215.505 312.6 215.845 312.58ZM229.405 312.58V313.21C228.685 313.21 228.175 313.36 227.875 313.66C227.575 313.96 227.425 314.53 227.425 315.37V325.21C227.425 326.05 227.595 326.62 227.935 326.92C228.295 327.22 228.885 327.37 229.705 327.37V328C229.365 327.98 228.835 327.96 228.115 327.94C227.395 327.9 226.705 327.88 226.045 327.88C225.445 327.88 224.825 327.9 224.185 327.94C223.545 327.96 223.065 327.98 222.745 328V327.37C223.465 327.37 223.975 327.22 224.275 326.92C224.575 326.62 224.725 326.05 224.725 325.21V315.37C224.725 314.53 224.575 313.96 224.275 313.66C223.975 313.36 223.465 313.21 222.745 313.21V312.58C223.065 312.6 223.545 312.63 224.185 312.67C224.825 312.69 225.445 312.7 226.045 312.7C226.705 312.7 227.345 312.69 227.965 312.67C228.605 312.63 229.085 312.6 229.405 312.58ZM246.17 312.58C246.09 313.28 246.03 313.95 245.99 314.59C245.97 315.23 245.96 315.72 245.96 316.06C245.96 316.42 245.97 316.77 245.99 317.11C246.01 317.43 246.03 317.7 246.05 317.92H245.36C245.26 316.54 245.05 315.51 244.73 314.83C244.41 314.15 243.97 313.71 243.41 313.51C242.85 313.29 242.16 313.18 241.34 313.18H240.17V324.91C240.17 325.89 240.45 326.55 241.01 326.89C241.59 327.21 242.37 327.37 243.35 327.37V328C242.89 327.98 242.25 327.96 241.43 327.94C240.63 327.9 239.76 327.88 238.82 327.88C237.9 327.88 237.03 327.9 236.21 327.94C235.39 327.96 234.75 327.98 234.29 328V327.37C235.29 327.37 236.07 327.21 236.63 326.89C237.19 326.55 237.47 325.89 237.47 324.91V313.18H236C235.18 313.18 234.51 313.29 233.99 313.51C233.49 313.73 233.1 314.18 232.82 314.86C232.56 315.54 232.38 316.57 232.28 317.95H231.59C231.63 317.73 231.65 317.46 231.65 317.14C231.67 316.8 231.68 316.45 231.68 316.09C231.68 315.75 231.66 315.26 231.62 314.62C231.6 313.98 231.55 313.31 231.47 312.61H234.35C235.03 312.61 235.75 312.62 236.51 312.64C237.29 312.66 238.05 312.67 238.79 312.67C239.55 312.67 240.32 312.66 241.1 312.64C241.88 312.6 242.61 312.58 243.29 312.58H246.17ZM252.251 328.21C251.431 328.21 250.721 328.06 250.121 327.76C249.521 327.44 249.061 327 248.741 326.44C248.441 325.88 248.291 325.23 248.291 324.49C248.291 323.61 248.491 322.89 248.891 322.33C249.311 321.77 249.841 321.32 250.481 320.98C251.121 320.64 251.791 320.36 252.491 320.14C253.211 319.9 253.891 319.68 254.531 319.48C255.171 319.26 255.691 319.01 256.091 318.73C256.511 318.45 256.721 318.08 256.721 317.62V315.76C256.721 314.92 256.591 314.28 256.331 313.84C256.091 313.4 255.761 313.11 255.341 312.97C254.921 312.81 254.451 312.73 253.931 312.73C253.431 312.73 252.891 312.8 252.311 312.94C251.751 313.08 251.301 313.37 250.961 313.81C251.341 313.89 251.671 314.09 251.951 314.41C252.231 314.73 252.371 315.14 252.371 315.64C252.371 316.14 252.211 316.54 251.891 316.84C251.571 317.12 251.161 317.26 250.661 317.26C250.081 317.26 249.651 317.08 249.371 316.72C249.111 316.34 248.981 315.92 248.981 315.46C248.981 314.94 249.111 314.52 249.371 314.2C249.631 313.88 249.961 313.58 250.361 313.3C250.821 312.98 251.411 312.71 252.131 312.49C252.871 312.25 253.701 312.13 254.621 312.13C255.441 312.13 256.141 312.23 256.721 312.43C257.301 312.61 257.781 312.88 258.161 313.24C258.681 313.72 259.021 314.31 259.181 315.01C259.341 315.69 259.421 316.51 259.421 317.47V325.81C259.421 326.31 259.491 326.67 259.631 326.89C259.791 327.11 260.031 327.22 260.351 327.22C260.571 327.22 260.781 327.17 260.981 327.07C261.181 326.97 261.421 326.81 261.701 326.59L262.031 327.1C261.611 327.42 261.211 327.69 260.831 327.91C260.451 328.11 259.941 328.21 259.301 328.21C258.721 328.21 258.241 328.11 257.861 327.91C257.481 327.71 257.191 327.42 256.991 327.04C256.811 326.64 256.721 326.14 256.721 325.54C256.181 326.44 255.531 327.11 254.771 327.55C254.031 327.99 253.191 328.21 252.251 328.21ZM253.331 327.01C253.991 327.01 254.601 326.82 255.161 326.44C255.741 326.06 256.261 325.49 256.721 324.73V318.85C256.481 319.19 256.131 319.48 255.671 319.72C255.211 319.94 254.711 320.17 254.171 320.41C253.631 320.63 253.111 320.9 252.611 321.22C252.131 321.52 251.731 321.92 251.411 322.42C251.091 322.92 250.931 323.57 250.931 324.37C250.931 325.17 251.141 325.81 251.561 326.29C252.001 326.77 252.591 327.01 253.331 327.01ZM275.173 312.22V330.64C275.173 331.5 275.423 332.07 275.923 332.35C276.443 332.65 277.153 332.8 278.053 332.8V333.43C277.613 333.41 277.003 333.38 276.223 333.34C275.443 333.32 274.613 333.31 273.733 333.31C273.113 333.31 272.493 333.32 271.873 333.34C271.273 333.38 270.813 333.41 270.493 333.43V332.8C271.213 332.8 271.723 332.67 272.023 332.41C272.323 332.15 272.473 331.66 272.473 330.94V315.82C272.473 314.92 272.313 314.26 271.993 313.84C271.673 313.4 271.073 313.18 270.193 313.18V312.55C270.833 312.61 271.453 312.64 272.053 312.64C272.633 312.64 273.183 312.61 273.703 312.55C274.243 312.47 274.733 312.36 275.173 312.22ZM279.973 312.13C281.033 312.13 281.983 312.42 282.823 313C283.663 313.56 284.323 314.39 284.803 315.49C285.303 316.59 285.553 317.95 285.553 319.57C285.553 320.65 285.423 321.72 285.163 322.78C284.903 323.82 284.493 324.77 283.933 325.63C283.393 326.47 282.683 327.15 281.803 327.67C280.943 328.17 279.903 328.42 278.683 328.42C277.743 328.42 276.923 328.2 276.223 327.76C275.543 327.32 275.083 326.79 274.843 326.17L275.143 325.75C275.423 326.31 275.823 326.78 276.343 327.16C276.883 327.54 277.553 327.73 278.353 327.73C279.473 327.73 280.343 327.38 280.963 326.68C281.583 325.98 282.013 325.05 282.253 323.89C282.513 322.71 282.643 321.41 282.643 319.99C282.643 318.39 282.513 317.08 282.253 316.06C281.993 315.04 281.603 314.28 281.083 313.78C280.563 313.28 279.923 313.03 279.163 313.03C278.183 313.03 277.293 313.44 276.493 314.26C275.693 315.06 275.183 316.28 274.963 317.92L274.603 317.5C274.823 315.8 275.423 314.48 276.403 313.54C277.403 312.6 278.593 312.13 279.973 312.13ZM292.095 328.21C291.275 328.21 290.565 328.06 289.965 327.76C289.365 327.44 288.905 327 288.585 326.44C288.285 325.88 288.135 325.23 288.135 324.49C288.135 323.61 288.335 322.89 288.735 322.33C289.155 321.77 289.685 321.32 290.325 320.98C290.965 320.64 291.635 320.36 292.335 320.14C293.055 319.9 293.735 319.68 294.375 319.48C295.015 319.26 295.535 319.01 295.935 318.73C296.355 318.45 296.565 318.08 296.565 317.62V315.76C296.565 314.92 296.435 314.28 296.175 313.84C295.935 313.4 295.605 313.11 295.185 312.97C294.765 312.81 294.295 312.73 293.775 312.73C293.275 312.73 292.735 312.8 292.155 312.94C291.595 313.08 291.145 313.37 290.805 313.81C291.185 313.89 291.515 314.09 291.795 314.41C292.075 314.73 292.215 315.14 292.215 315.64C292.215 316.14 292.055 316.54 291.735 316.84C291.415 317.12 291.005 317.26 290.505 317.26C289.925 317.26 289.495 317.08 289.215 316.72C288.955 316.34 288.825 315.92 288.825 315.46C288.825 314.94 288.955 314.52 289.215 314.2C289.475 313.88 289.805 313.58 290.205 313.3C290.665 312.98 291.255 312.71 291.975 312.49C292.715 312.25 293.545 312.13 294.465 312.13C295.285 312.13 295.985 312.23 296.565 312.43C297.145 312.61 297.625 312.88 298.005 313.24C298.525 313.72 298.865 314.31 299.025 315.01C299.185 315.69 299.265 316.51 299.265 317.47V325.81C299.265 326.31 299.335 326.67 299.475 326.89C299.635 327.11 299.875 327.22 300.195 327.22C300.415 327.22 300.625 327.17 300.825 327.07C301.025 326.97 301.265 326.81 301.545 326.59L301.875 327.1C301.455 327.42 301.055 327.69 300.675 327.91C300.295 328.11 299.785 328.21 299.145 328.21C298.565 328.21 298.085 328.11 297.705 327.91C297.325 327.71 297.035 327.42 296.835 327.04C296.655 326.64 296.565 326.14 296.565 325.54C296.025 326.44 295.375 327.11 294.615 327.55C293.875 327.99 293.035 328.21 292.095 328.21ZM293.175 327.01C293.835 327.01 294.445 326.82 295.005 326.44C295.585 326.06 296.105 325.49 296.565 324.73V318.85C296.325 319.19 295.975 319.48 295.515 319.72C295.055 319.94 294.555 320.17 294.015 320.41C293.475 320.63 292.955 320.9 292.455 321.22C291.975 321.52 291.575 321.92 291.255 322.42C290.935 322.92 290.775 323.57 290.775 324.37C290.775 325.17 290.985 325.81 291.405 326.29C291.845 326.77 292.435 327.01 293.175 327.01ZM317.056 304.42L317.506 304.54C317.306 305.2 317.076 305.8 316.816 306.34C316.556 306.88 316.226 307.31 315.826 307.63C315.506 307.89 315.096 308.11 314.596 308.29C314.096 308.47 313.466 308.58 312.706 308.62C312.386 308.64 311.926 308.67 311.326 308.71C310.726 308.75 310.166 308.82 309.646 308.92C308.826 309.06 308.126 309.31 307.546 309.67C306.966 310.01 306.476 310.51 306.076 311.17C305.696 311.83 305.386 312.69 305.146 313.75C304.906 314.81 304.706 316.11 304.546 317.65L306.046 319.48L304.336 318.64C304.636 317.12 305.106 315.94 305.746 315.1C306.406 314.24 307.176 313.63 308.056 313.27C308.936 312.91 309.866 312.73 310.846 312.73C312.426 312.73 313.686 313.09 314.626 313.81C315.566 314.51 316.246 315.43 316.666 316.57C317.106 317.69 317.326 318.9 317.326 320.2C317.326 321.84 317.026 323.28 316.426 324.52C315.826 325.76 314.986 326.72 313.906 327.4C312.846 328.08 311.606 328.42 310.186 328.42C309.226 328.42 308.356 328.25 307.576 327.91C306.796 327.55 306.126 326.99 305.566 326.23C305.006 325.45 304.566 324.44 304.246 323.2C303.946 321.96 303.796 320.44 303.796 318.64C303.796 318.38 303.806 317.95 303.826 317.35C303.846 316.75 303.896 316.06 303.976 315.28C304.056 314.5 304.186 313.7 304.366 312.88C304.546 312.04 304.786 311.24 305.086 310.48C305.386 309.72 305.776 309.08 306.256 308.56C306.656 308.12 307.156 307.75 307.756 307.45C308.356 307.13 309.056 306.9 309.856 306.76C310.476 306.66 311.126 306.59 311.806 306.55C312.486 306.51 313.016 306.48 313.396 306.46C314.516 306.38 315.326 306.18 315.826 305.86C316.326 305.54 316.736 305.06 317.056 304.42ZM310.726 313.36C310.046 313.36 309.396 313.58 308.776 314.02C308.156 314.44 307.646 315.16 307.246 316.18C306.846 317.2 306.646 318.62 306.646 320.44C306.646 322.22 306.836 323.66 307.216 324.76C307.616 325.84 308.126 326.62 308.746 327.1C309.366 327.58 310.016 327.82 310.696 327.82C311.476 327.82 312.106 327.57 312.586 327.07C313.086 326.55 313.466 325.9 313.726 325.12C313.986 324.32 314.166 323.48 314.266 322.6C314.366 321.7 314.416 320.87 314.416 320.11C314.416 317.67 314.066 315.94 313.366 314.92C312.686 313.88 311.806 313.36 310.726 313.36ZM326.943 312.13C328.223 312.13 329.373 312.41 330.393 312.97C331.413 313.53 332.223 314.41 332.823 315.61C333.443 316.81 333.753 318.37 333.753 320.29C333.753 322.21 333.443 323.77 332.823 324.97C332.223 326.15 331.413 327.02 330.393 327.58C329.373 328.14 328.223 328.42 326.943 328.42C325.683 328.42 324.533 328.14 323.493 327.58C322.473 327.02 321.653 326.15 321.033 324.97C320.433 323.77 320.133 322.21 320.133 320.29C320.133 318.37 320.433 316.81 321.033 315.61C321.653 314.41 322.473 313.53 323.493 312.97C324.533 312.41 325.683 312.13 326.943 312.13ZM326.943 312.73C325.803 312.73 324.863 313.32 324.123 314.5C323.403 315.68 323.043 317.61 323.043 320.29C323.043 322.97 323.403 324.9 324.123 326.08C324.863 327.24 325.803 327.82 326.943 327.82C328.083 327.82 329.013 327.24 329.733 326.08C330.473 324.9 330.843 322.97 330.843 320.29C330.843 317.61 330.473 315.68 329.733 314.5C329.013 313.32 328.083 312.73 326.943 312.73ZM350.818 312.58C350.738 313.28 350.678 313.95 350.638 314.59C350.618 315.23 350.608 315.72 350.608 316.06C350.608 316.42 350.618 316.77 350.638 317.11C350.658 317.43 350.678 317.7 350.698 317.92H350.008C349.908 316.54 349.698 315.51 349.378 314.83C349.058 314.15 348.618 313.71 348.058 313.51C347.498 313.29 346.808 313.18 345.988 313.18H344.818V324.91C344.818 325.89 345.098 326.55 345.658 326.89C346.238 327.21 347.018 327.37 347.998 327.37V328C347.538 327.98 346.898 327.96 346.078 327.94C345.278 327.9 344.408 327.88 343.468 327.88C342.548 327.88 341.678 327.9 340.858 327.94C340.038 327.96 339.398 327.98 338.938 328V327.37C339.938 327.37 340.718 327.21 341.278 326.89C341.838 326.55 342.118 325.89 342.118 324.91V313.18H340.648C339.828 313.18 339.158 313.29 338.638 313.51C338.138 313.73 337.748 314.18 337.468 314.86C337.208 315.54 337.028 316.57 336.928 317.95H336.238C336.278 317.73 336.298 317.46 336.298 317.14C336.318 316.8 336.328 316.45 336.328 316.09C336.328 315.75 336.308 315.26 336.268 314.62C336.248 313.98 336.198 313.31 336.118 312.61H338.998C339.678 312.61 340.398 312.62 341.158 312.64C341.938 312.66 342.698 312.67 343.438 312.67C344.198 312.67 344.968 312.66 345.748 312.64C346.528 312.6 347.258 312.58 347.938 312.58H350.818ZM359.84 312.58V313.21C359.02 313.21 358.43 313.36 358.07 313.66C357.73 313.96 357.56 314.53 357.56 315.37V325.21C357.56 326.01 357.65 326.57 357.83 326.89C358.03 327.21 358.37 327.37 358.85 327.37C359.93 327.37 360.75 327.19 361.31 326.83C361.89 326.47 362.29 325.99 362.51 325.39C362.73 324.79 362.84 324.15 362.84 323.47C362.84 322.09 362.45 321.09 361.67 320.47C360.91 319.83 359.64 319.51 357.86 319.51C357.52 319.51 357.17 319.51 356.81 319.51C356.45 319.51 356.1 319.51 355.76 319.51L355.7 319C356.36 319 357.01 319 357.65 319C358.31 319 358.97 319 359.63 319C361.81 319 363.36 319.41 364.28 320.23C365.2 321.03 365.66 322.05 365.66 323.29C365.66 324.03 365.45 324.76 365.03 325.48C364.63 326.2 363.95 326.8 362.99 327.28C362.05 327.76 360.78 328 359.18 328C358.76 328 358.28 327.98 357.74 327.94C357.2 327.9 356.66 327.88 356.12 327.88C355.5 327.88 354.84 327.9 354.14 327.94C353.44 327.96 352.92 327.98 352.58 328V327.37C353.4 327.37 353.98 327.22 354.32 326.92C354.68 326.62 354.86 326.05 354.86 325.21V315.37C354.86 314.53 354.71 313.96 354.41 313.66C354.11 313.36 353.6 313.21 352.88 313.21V312.58C353.2 312.6 353.67 312.63 354.29 312.67C354.93 312.69 355.58 312.7 356.24 312.7C356.9 312.7 357.58 312.69 358.28 312.67C358.98 312.63 359.5 312.6 359.84 312.58ZM373.4 312.58V313.21C372.68 313.21 372.17 313.36 371.87 313.66C371.57 313.96 371.42 314.53 371.42 315.37V325.21C371.42 326.05 371.59 326.62 371.93 326.92C372.29 327.22 372.88 327.37 373.7 327.37V328C373.36 327.98 372.83 327.96 372.11 327.94C371.39 327.9 370.7 327.88 370.04 327.88C369.44 327.88 368.82 327.9 368.18 327.94C367.54 327.96 367.06 327.98 366.74 328V327.37C367.46 327.37 367.97 327.22 368.27 326.92C368.57 326.62 368.72 326.05 368.72 325.21V315.37C368.72 314.53 368.57 313.96 368.27 313.66C367.97 313.36 367.46 313.21 366.74 313.21V312.58C367.06 312.6 367.54 312.63 368.18 312.67C368.82 312.69 369.44 312.7 370.04 312.7C370.7 312.7 371.34 312.69 371.96 312.67C372.6 312.63 373.08 312.6 373.4 312.58Z" fill="#BBB5C4"/>
<path d="M174.344 368.6C174.344 365.8 174.936 363.656 176.12 362.168C177.304 360.664 178.992 359.912 181.184 359.912C182.368 359.912 183.392 360.12 184.256 360.536C185.12 360.952 185.832 361.544 186.392 362.312C186.968 363.064 187.392 363.976 187.664 365.048C187.936 366.104 188.072 367.288 188.072 368.6C188.072 371.4 187.472 373.552 186.272 375.056C185.088 376.544 183.392 377.288 181.184 377.288C180.016 377.288 179 377.08 178.136 376.664C177.288 376.248 176.576 375.664 176 374.912C175.44 374.144 175.024 373.232 174.752 372.176C174.48 371.104 174.344 369.912 174.344 368.6ZM176.456 368.6C176.456 369.528 176.544 370.408 176.72 371.24C176.912 372.072 177.2 372.808 177.584 373.448C177.968 374.072 178.456 374.576 179.048 374.96C179.656 375.328 180.368 375.512 181.184 375.512C182.672 375.512 183.84 374.952 184.688 373.832C185.536 372.696 185.96 370.952 185.96 368.6C185.96 367.688 185.864 366.816 185.672 365.984C185.496 365.136 185.208 364.4 184.808 363.776C184.424 363.136 183.928 362.632 183.32 362.264C182.728 361.88 182.016 361.688 181.184 361.688C179.712 361.688 178.552 362.256 177.704 363.392C176.872 364.512 176.456 366.248 176.456 368.6ZM198.478 366.68H193.174V377H191.254V365H200.398V377H198.478V366.68ZM206.018 375.32C206.61 375.416 207.178 375.464 207.722 375.464C208.73 375.464 209.434 375.272 209.834 374.888C210.234 374.488 210.434 373.928 210.434 373.208C210.434 372.568 210.234 372.04 209.834 371.624C209.45 371.208 208.77 371 207.794 371C207.522 371 207.226 371.008 206.906 371.024C206.586 371.04 206.29 371.088 206.018 371.168V375.32ZM206.018 369.584C206.402 369.52 206.77 369.48 207.122 369.464C207.474 369.432 207.81 369.416 208.13 369.416C208.946 369.416 209.626 369.512 210.17 369.704C210.73 369.88 211.178 370.128 211.514 370.448C211.85 370.768 212.082 371.152 212.21 371.6C212.354 372.032 212.426 372.496 212.426 372.992C212.426 374.448 212.018 375.504 211.202 376.16C210.402 376.816 209.098 377.144 207.29 377.144C206.266 377.144 205.202 377.096 204.098 377V365H206.018V369.584ZM214.322 365H216.242V377H214.322V365ZM227.598 366.68H223.83V377H221.91V366.68H218.142V365H227.598V366.68ZM235.153 365H236.473L236.833 366.44H236.929C237.297 365.88 237.769 365.456 238.345 365.168C238.937 364.864 239.609 364.712 240.361 364.712C241.961 364.712 243.153 365.184 243.937 366.128C244.721 367.072 245.113 368.616 245.113 370.76C245.113 371.768 244.977 372.68 244.705 373.496C244.449 374.296 244.081 374.976 243.601 375.536C243.121 376.096 242.537 376.528 241.849 376.832C241.177 377.136 240.425 377.288 239.593 377.288C239.001 377.288 238.529 377.248 238.177 377.168C237.841 377.104 237.473 376.984 237.073 376.808V381.8H235.153V365ZM240.001 366.392C239.185 366.392 238.537 366.608 238.057 367.04C237.593 367.456 237.265 368.096 237.073 368.96V374.912C237.361 375.136 237.689 375.312 238.057 375.44C238.425 375.552 238.913 375.608 239.521 375.608C240.625 375.608 241.497 375.2 242.137 374.384C242.793 373.552 243.121 372.336 243.121 370.736C243.121 370.08 243.065 369.488 242.953 368.96C242.841 368.416 242.657 367.96 242.401 367.592C242.161 367.208 241.841 366.912 241.441 366.704C241.057 366.496 240.577 366.392 240.001 366.392ZM247.945 365.888C248.553 365.52 249.257 365.248 250.057 365.072C250.873 364.896 251.721 364.808 252.601 364.808C253.433 364.808 254.097 364.92 254.593 365.144C255.105 365.368 255.489 365.664 255.745 366.032C256.017 366.384 256.193 366.776 256.273 367.208C256.369 367.64 256.417 368.072 256.417 368.504C256.417 369.464 256.393 370.4 256.345 371.312C256.297 372.224 256.273 373.088 256.273 373.904C256.273 374.496 256.297 375.056 256.345 375.584C256.393 376.112 256.481 376.6 256.609 377.048H255.193L254.689 375.368H254.569C254.425 375.592 254.241 375.816 254.017 376.04C253.809 376.248 253.553 376.44 253.249 376.616C252.945 376.776 252.593 376.912 252.193 377.024C251.793 377.136 251.337 377.192 250.825 377.192C250.313 377.192 249.833 377.112 249.385 376.952C248.953 376.792 248.577 376.568 248.257 376.28C247.937 375.976 247.681 375.616 247.489 375.2C247.313 374.784 247.225 374.312 247.225 373.784C247.225 373.08 247.369 372.496 247.657 372.032C247.945 371.552 248.345 371.176 248.857 370.904C249.385 370.616 250.009 370.416 250.729 370.304C251.465 370.176 252.273 370.112 253.153 370.112C253.377 370.112 253.593 370.112 253.801 370.112C254.025 370.112 254.249 370.128 254.473 370.16C254.521 369.68 254.545 369.248 254.545 368.864C254.545 367.984 254.369 367.368 254.017 367.016C253.665 366.664 253.025 366.488 252.097 366.488C251.825 366.488 251.529 366.512 251.209 366.56C250.905 366.592 250.585 366.648 250.249 366.728C249.929 366.792 249.617 366.88 249.313 366.992C249.025 367.088 248.769 367.2 248.545 367.328L247.945 365.888ZM251.353 375.512C251.801 375.512 252.201 375.456 252.553 375.344C252.905 375.216 253.209 375.064 253.465 374.888C253.721 374.696 253.929 374.488 254.089 374.264C254.265 374.04 254.393 373.824 254.473 373.616V371.624C254.249 371.608 254.017 371.6 253.777 371.6C253.553 371.584 253.329 371.576 253.105 371.576C252.609 371.576 252.121 371.608 251.641 371.672C251.177 371.72 250.761 371.824 250.393 371.984C250.041 372.128 249.753 372.336 249.529 372.608C249.321 372.864 249.217 373.192 249.217 373.592C249.217 374.152 249.417 374.616 249.817 374.984C250.217 375.336 250.729 375.512 251.353 375.512ZM261.147 367.136C261.675 366.368 262.259 365.832 262.899 365.528C263.539 365.208 264.339 365.048 265.299 365.048C266.771 365.048 267.899 365.528 268.683 366.488C269.483 367.448 269.883 368.864 269.883 370.736C269.883 372.896 269.419 374.528 268.491 375.632C267.579 376.736 266.299 377.288 264.651 377.288C262.891 377.288 261.571 376.68 260.691 375.464C259.811 374.248 259.371 372.336 259.371 369.728C259.371 368.352 259.435 367.176 259.563 366.2C259.707 365.224 259.907 364.4 260.163 363.728C260.435 363.056 260.755 362.52 261.123 362.12C261.507 361.72 261.931 361.408 262.395 361.184C262.875 360.944 263.395 360.776 263.955 360.68C264.515 360.584 265.115 360.504 265.755 360.44C266.587 360.36 267.235 360.272 267.699 360.176C268.179 360.064 268.563 359.872 268.851 359.6L269.067 361.328C268.907 361.472 268.731 361.592 268.539 361.688C268.347 361.784 268.115 361.864 267.843 361.928C267.571 361.992 267.243 362.048 266.859 362.096C266.491 362.144 266.059 362.184 265.563 362.216C264.875 362.264 264.267 362.352 263.739 362.48C263.227 362.592 262.779 362.824 262.395 363.176C262.027 363.512 261.731 364 261.507 364.64C261.299 365.264 261.155 366.096 261.075 367.136H261.147ZM261.363 371.024C261.363 371.632 261.427 372.216 261.555 372.776C261.683 373.336 261.875 373.832 262.131 374.264C262.403 374.68 262.747 375.008 263.163 375.248C263.579 375.488 264.067 375.608 264.627 375.608C265.731 375.608 266.547 375.216 267.075 374.432C267.619 373.632 267.891 372.456 267.891 370.904C267.891 370.296 267.835 369.736 267.723 369.224C267.611 368.712 267.435 368.272 267.195 367.904C266.955 367.52 266.651 367.232 266.283 367.04C265.915 366.832 265.475 366.728 264.963 366.728C263.715 366.712 262.803 367.08 262.227 367.832C261.651 368.568 261.363 369.632 261.363 371.024ZM272.239 371C272.239 368.968 272.687 367.416 273.583 366.344C274.495 365.256 275.799 364.712 277.495 364.712C278.391 364.712 279.167 364.864 279.823 365.168C280.495 365.456 281.047 365.88 281.479 366.44C281.911 366.984 282.231 367.648 282.439 368.432C282.647 369.2 282.751 370.056 282.751 371C282.751 373.032 282.295 374.592 281.383 375.68C280.487 376.752 279.191 377.288 277.495 377.288C276.599 377.288 275.815 377.144 275.143 376.856C274.487 376.552 273.943 376.128 273.511 375.584C273.079 375.024 272.759 374.36 272.551 373.592C272.343 372.808 272.239 371.944 272.239 371ZM274.23 371C274.23 371.608 274.287 372.192 274.399 372.752C274.527 373.312 274.719 373.8 274.975 374.216C275.231 374.632 275.567 374.968 275.983 375.224C276.399 375.48 276.903 375.608 277.495 375.608C279.671 375.624 280.759 374.088 280.759 371C280.759 370.376 280.695 369.784 280.567 369.224C280.455 368.664 280.271 368.176 280.015 367.76C279.759 367.344 279.423 367.016 279.007 366.776C278.591 366.52 278.087 366.392 277.495 366.392C275.319 366.376 274.23 367.912 274.23 371ZM293.059 366.68H289.291V377H287.371V366.68H283.603V365H293.059V366.68ZM296.885 375.32C297.477 375.416 298.045 375.464 298.589 375.464C299.597 375.464 300.301 375.272 300.701 374.888C301.101 374.488 301.301 373.928 301.301 373.208C301.301 372.568 301.101 372.04 300.701 371.624C300.317 371.208 299.637 371 298.661 371C298.389 371 298.093 371.008 297.773 371.024C297.453 371.04 297.157 371.088 296.885 371.168V375.32ZM296.885 369.584C297.269 369.52 297.637 369.48 297.989 369.464C298.341 369.432 298.677 369.416 298.997 369.416C299.813 369.416 300.493 369.512 301.037 369.704C301.597 369.88 302.045 370.128 302.381 370.448C302.717 370.768 302.949 371.152 303.077 371.6C303.221 372.032 303.293 372.496 303.293 372.992C303.293 374.448 302.885 375.504 302.069 376.16C301.269 376.816 299.965 377.144 298.157 377.144C297.133 377.144 296.069 377.096 294.965 377V365H296.885V369.584ZM305.189 365H307.109V377H305.189V365ZM174.848 396.024C175.408 395.992 175.992 395.952 176.6 395.904C177.224 395.856 177.992 395.832 178.904 395.832C180.488 395.832 181.624 396.08 182.312 396.576C183 397.056 183.344 397.792 183.344 398.784C183.344 399.344 183.176 399.896 182.84 400.44C182.52 400.968 181.984 401.36 181.232 401.616V401.712C182.176 401.888 182.84 402.216 183.224 402.696C183.608 403.176 183.8 403.816 183.8 404.616C183.8 405.864 183.352 406.768 182.456 407.328C181.56 407.888 180.216 408.168 178.424 408.168C177.752 408.168 177.128 408.144 176.552 408.096C175.976 408.064 175.408 408.024 174.848 407.976V396.024ZM176.768 406.392C177.072 406.424 177.368 406.448 177.656 406.464C177.96 406.48 178.312 406.488 178.712 406.488C179.784 406.488 180.576 406.336 181.088 406.032C181.616 405.728 181.88 405.208 181.88 404.472C181.88 403.896 181.656 403.432 181.208 403.08C180.776 402.712 180 402.528 178.88 402.528H176.768V406.392ZM179.12 401.064C179.408 401.064 179.688 401.016 179.96 400.92C180.232 400.824 180.472 400.696 180.68 400.536C180.904 400.36 181.08 400.16 181.208 399.936C181.352 399.712 181.424 399.472 181.424 399.216C181.424 398.576 181.232 398.136 180.848 397.896C180.464 397.64 179.792 397.512 178.832 397.512C178.32 397.512 177.912 397.52 177.608 397.536C177.32 397.552 177.04 397.568 176.768 397.584V401.064H179.12ZM200.231 397.68H195.143V408H193.223V396H200.231V397.68ZM201.035 402C201.035 399.968 201.483 398.416 202.379 397.344C203.291 396.256 204.595 395.712 206.291 395.712C207.187 395.712 207.963 395.864 208.619 396.168C209.291 396.456 209.843 396.88 210.275 397.44C210.707 397.984 211.027 398.648 211.235 399.432C211.443 400.2 211.547 401.056 211.547 402C211.547 404.032 211.091 405.592 210.179 406.68C209.283 407.752 207.987 408.288 206.291 408.288C205.395 408.288 204.611 408.144 203.939 407.856C203.283 407.552 202.739 407.128 202.307 406.584C201.875 406.024 201.555 405.36 201.347 404.592C201.139 403.808 201.035 402.944 201.035 402ZM203.027 402C203.027 402.608 203.083 403.192 203.195 403.752C203.323 404.312 203.515 404.8 203.771 405.216C204.027 405.632 204.363 405.968 204.779 406.224C205.195 406.48 205.699 406.608 206.291 406.608C208.467 406.624 209.555 405.088 209.555 402C209.555 401.376 209.491 400.784 209.363 400.224C209.251 399.664 209.067 399.176 208.811 398.76C208.555 398.344 208.219 398.016 207.803 397.776C207.387 397.52 206.883 397.392 206.291 397.392C204.115 397.376 203.027 398.912 203.027 402ZM222.759 407.208C222.279 407.56 221.711 407.824 221.055 408C220.399 408.192 219.711 408.288 218.991 408.288C218.063 408.288 217.279 408.144 216.639 407.856C215.999 407.552 215.471 407.128 215.055 406.584C214.655 406.024 214.359 405.36 214.167 404.592C213.991 403.808 213.903 402.944 213.903 402C213.903 399.968 214.351 398.416 215.247 397.344C216.143 396.256 217.431 395.712 219.111 395.712C219.879 395.712 220.527 395.776 221.055 395.904C221.599 396.016 222.087 396.184 222.519 396.408L221.967 398.064C221.599 397.856 221.191 397.696 220.743 397.584C220.295 397.456 219.815 397.392 219.303 397.392C217.031 397.392 215.895 398.928 215.895 402C215.895 402.608 215.951 403.192 216.063 403.752C216.191 404.296 216.391 404.784 216.663 405.216C216.951 405.632 217.319 405.968 217.767 406.224C218.231 406.48 218.799 406.608 219.471 406.608C220.047 406.608 220.559 406.52 221.007 406.344C221.471 406.168 221.847 405.968 222.135 405.744L222.759 407.208ZM228.603 403.776L229.275 406.08H229.395L229.923 403.752L232.251 396H234.195L230.643 406.776C230.371 407.56 230.099 408.32 229.827 409.056C229.571 409.792 229.283 410.448 228.963 411.024C228.643 411.6 228.283 412.056 227.883 412.392C227.483 412.744 227.019 412.92 226.491 412.92C225.915 412.92 225.443 412.84 225.075 412.68L225.411 411.024C225.619 411.104 225.819 411.144 226.011 411.144C226.459 411.144 226.891 410.904 227.307 410.424C227.723 409.96 228.067 409.152 228.339 408L223.515 396H225.723L228.603 403.776ZM246.534 411.048H245.238L244.878 408H235.854L235.494 411.048H234.198V406.32H235.614C235.742 406.144 235.91 405.832 236.118 405.384C236.326 404.92 236.526 404.28 236.718 403.464C236.926 402.632 237.102 401.608 237.246 400.392C237.406 399.16 237.502 397.696 237.534 396H244.782V406.32H246.534V411.048ZM242.862 406.32V397.68H239.262C239.23 398.352 239.174 399.088 239.094 399.888C239.014 400.672 238.902 401.464 238.758 402.264C238.63 403.048 238.462 403.792 238.254 404.496C238.046 405.2 237.806 405.808 237.534 406.32H242.862ZM248.719 396.888C249.327 396.52 250.031 396.248 250.831 396.072C251.647 395.896 252.495 395.808 253.375 395.808C254.207 395.808 254.871 395.92 255.367 396.144C255.879 396.368 256.263 396.664 256.519 397.032C256.791 397.384 256.967 397.776 257.047 398.208C257.143 398.64 257.191 399.072 257.191 399.504C257.191 400.464 257.167 401.4 257.119 402.312C257.071 403.224 257.047 404.088 257.047 404.904C257.047 405.496 257.071 406.056 257.119 406.584C257.167 407.112 257.255 407.6 257.383 408.048H255.967L255.463 406.368H255.343C255.199 406.592 255.015 406.816 254.791 407.04C254.583 407.248 254.327 407.44 254.023 407.616C253.719 407.776 253.367 407.912 252.967 408.024C252.567 408.136 252.111 408.192 251.599 408.192C251.087 408.192 250.607 408.112 250.159 407.952C249.727 407.792 249.351 407.568 249.031 407.28C248.711 406.976 248.455 406.616 248.263 406.2C248.087 405.784 247.999 405.312 247.999 404.784C247.999 404.08 248.143 403.496 248.431 403.032C248.719 402.552 249.119 402.176 249.631 401.904C250.159 401.616 250.783 401.416 251.503 401.304C252.239 401.176 253.047 401.112 253.927 401.112C254.151 401.112 254.367 401.112 254.575 401.112C254.799 401.112 255.023 401.128 255.247 401.16C255.295 400.68 255.319 400.248 255.319 399.864C255.319 398.984 255.143 398.368 254.791 398.016C254.439 397.664 253.799 397.488 252.871 397.488C252.599 397.488 252.303 397.512 251.983 397.56C251.679 397.592 251.359 397.648 251.023 397.728C250.703 397.792 250.391 397.88 250.087 397.992C249.799 398.088 249.543 398.2 249.319 398.328L248.719 396.888ZM252.127 406.512C252.575 406.512 252.975 406.456 253.327 406.344C253.679 406.216 253.983 406.064 254.239 405.888C254.495 405.696 254.703 405.488 254.863 405.264C255.039 405.04 255.167 404.824 255.247 404.616V402.624C255.023 402.608 254.791 402.6 254.551 402.6C254.327 402.584 254.103 402.576 253.879 402.576C253.383 402.576 252.895 402.608 252.415 402.672C251.951 402.72 251.535 402.824 251.167 402.984C250.815 403.128 250.527 403.336 250.303 403.608C250.095 403.864 249.991 404.192 249.991 404.592C249.991 405.152 250.191 405.616 250.59 405.984C250.991 406.336 251.503 406.512 252.127 406.512ZM260.817 396H262.137L262.497 397.44H262.593C262.961 396.88 263.433 396.456 264.009 396.168C264.601 395.864 265.273 395.712 266.025 395.712C267.625 395.712 268.817 396.184 269.601 397.128C270.385 398.072 270.777 399.616 270.777 401.76C270.777 402.768 270.641 403.68 270.369 404.496C270.113 405.296 269.745 405.976 269.265 406.536C268.785 407.096 268.201 407.528 267.513 407.832C266.841 408.136 266.089 408.288 265.257 408.288C264.665 408.288 264.193 408.248 263.841 408.168C263.505 408.104 263.137 407.984 262.737 407.808V412.8H260.817V396ZM265.665 397.392C264.849 397.392 264.201 397.608 263.721 398.04C263.257 398.456 262.929 399.096 262.737 399.96V405.912C263.025 406.136 263.353 406.312 263.721 406.44C264.089 406.552 264.577 406.608 265.185 406.608C266.289 406.608 267.161 406.2 267.801 405.384C268.457 404.552 268.785 403.336 268.785 401.736C268.785 401.08 268.729 400.488 268.617 399.96C268.505 399.416 268.321 398.96 268.065 398.592C267.825 398.208 267.505 397.912 267.105 397.704C266.721 397.496 266.241 397.392 265.665 397.392ZM281.985 407.208C281.505 407.56 280.937 407.824 280.281 408C279.625 408.192 278.937 408.288 278.217 408.288C277.289 408.288 276.505 408.144 275.865 407.856C275.225 407.552 274.697 407.128 274.281 406.584C273.881 406.024 273.585 405.36 273.393 404.592C273.217 403.808 273.129 402.944 273.129 402C273.129 399.968 273.577 398.416 274.473 397.344C275.369 396.256 276.657 395.712 278.337 395.712C279.105 395.712 279.753 395.776 280.281 395.904C280.825 396.016 281.313 396.184 281.745 396.408L281.193 398.064C280.825 397.856 280.417 397.696 279.969 397.584C279.521 397.456 279.041 397.392 278.529 397.392C276.257 397.392 275.121 398.928 275.121 402C275.121 402.608 275.177 403.192 275.289 403.752C275.417 404.296 275.617 404.784 275.889 405.216C276.177 405.632 276.545 405.968 276.993 406.224C277.457 406.48 278.025 406.608 278.697 406.608C279.273 406.608 279.785 406.52 280.233 406.344C280.697 406.168 281.073 405.968 281.361 405.744L281.985 407.208ZM291.91 397.68H288.142V408H286.222V397.68H282.454V396H291.91V397.68ZM293.817 396.024C294.377 395.992 294.961 395.952 295.569 395.904C296.193 395.856 296.961 395.832 297.873 395.832C299.457 395.832 300.593 396.08 301.281 396.576C301.969 397.056 302.313 397.792 302.313 398.784C302.313 399.344 302.145 399.896 301.809 400.44C301.489 400.968 300.953 401.36 300.201 401.616V401.712C301.145 401.888 301.809 402.216 302.193 402.696C302.577 403.176 302.769 403.816 302.769 404.616C302.769 405.864 302.321 406.768 301.425 407.328C300.529 407.888 299.185 408.168 297.393 408.168C296.721 408.168 296.097 408.144 295.521 408.096C294.945 408.064 294.377 408.024 293.817 407.976V396.024ZM295.737 406.392C296.041 406.424 296.337 406.448 296.625 406.464C296.929 406.48 297.281 406.488 297.681 406.488C298.753 406.488 299.545 406.336 300.057 406.032C300.585 405.728 300.849 405.208 300.849 404.472C300.849 403.896 300.625 403.432 300.177 403.08C299.745 402.712 298.969 402.528 297.849 402.528H295.737V406.392ZM298.089 401.064C298.377 401.064 298.657 401.016 298.929 400.92C299.201 400.824 299.441 400.696 299.649 400.536C299.873 400.36 300.049 400.16 300.177 399.936C300.321 399.712 300.393 399.472 300.393 399.216C300.393 398.576 300.201 398.136 299.817 397.896C299.433 397.64 298.761 397.512 297.801 397.512C297.289 397.512 296.881 397.52 296.577 397.536C296.289 397.552 296.009 397.568 295.737 397.584V401.064H298.089ZM314.553 407.04C314.073 407.424 313.465 407.728 312.729 407.952C312.009 408.176 311.241 408.288 310.425 408.288C309.513 408.288 308.721 408.144 308.049 407.856C307.377 407.552 306.825 407.128 306.393 406.584C305.961 406.024 305.641 405.36 305.433 404.592C305.225 403.824 305.121 402.96 305.121 402C305.121 399.952 305.577 398.392 306.489 397.32C307.401 396.248 308.705 395.712 310.401 395.712C310.945 395.712 311.489 395.776 312.033 395.904C312.577 396.016 313.065 396.24 313.497 396.576C313.929 396.912 314.281 397.392 314.553 398.016C314.825 398.624 314.961 399.432 314.961 400.44C314.961 400.968 314.913 401.552 314.817 402.192H307.113C307.113 402.896 307.185 403.52 307.329 404.064C307.473 404.608 307.697 405.072 308.001 405.456C308.305 405.824 308.697 406.112 309.177 406.32C309.673 406.512 310.273 406.608 310.977 406.608C311.521 406.608 312.065 406.512 312.609 406.32C313.153 406.128 313.561 405.904 313.833 405.648L314.553 407.04ZM310.425 397.392C309.481 397.392 308.721 397.64 308.145 398.136C307.585 398.632 307.249 399.48 307.137 400.68H313.089C313.089 399.464 312.857 398.616 312.393 398.136C311.929 397.64 311.273 397.392 310.425 397.392ZM325.325 402.696H319.901V408H317.981V396H319.901V401.016H325.325V396H327.245V408H325.325V402.696ZM338.286 402.696H332.862V408H330.942V396H332.862V401.016H338.286V396H340.206V408H338.286V402.696ZM345.823 406.32C346.415 406.416 346.983 406.464 347.527 406.464C348.535 406.464 349.239 406.272 349.639 405.888C350.039 405.488 350.239 404.928 350.239 404.208C350.239 403.568 350.039 403.04 349.639 402.624C349.255 402.208 348.575 402 347.599 402C347.327 402 347.031 402.008 346.711 402.024C346.391 402.04 346.095 402.088 345.823 402.168V406.32ZM345.823 400.584C346.207 400.52 346.575 400.48 346.927 400.464C347.279 400.432 347.615 400.416 347.935 400.416C348.751 400.416 349.431 400.512 349.975 400.704C350.535 400.88 350.983 401.128 351.319 401.448C351.655 401.768 351.887 402.152 352.015 402.6C352.159 403.032 352.231 403.496 352.231 403.992C352.231 405.448 351.823 406.504 351.007 407.16C350.207 407.816 348.903 408.144 347.095 408.144C346.071 408.144 345.007 408.096 343.903 408V396H345.823V400.584ZM354.127 396H356.047V408H354.127V396ZM362.89 401.856L358.858 396H361.21L363.49 399.312L364.162 400.68L364.858 399.312L367.186 396H369.346L365.29 401.76L369.586 408H367.306L364.762 404.352L364.042 402.912L363.298 404.352L360.706 408H358.57L362.89 401.856ZM182.336 431.896L182.408 430.408H182.336L181.352 431.944L175.952 439H174.848V427H176.768V434.32L176.696 435.736H176.792L177.728 434.248L183.128 427H184.256V439H182.336V431.896ZM195.596 427V430.264C195.596 430.696 195.62 431.088 195.668 431.44C195.716 431.776 195.812 432.072 195.956 432.328C196.1 432.568 196.308 432.76 196.58 432.904C196.852 433.032 197.212 433.096 197.66 433.096C198.38 433.096 198.972 433.016 199.436 432.856C199.9 432.696 200.252 432.52 200.492 432.328V427H202.412V439H200.492V433.96C200.236 434.12 199.852 434.296 199.34 434.488C198.844 434.68 198.156 434.776 197.276 434.776C196.684 434.776 196.164 434.712 195.716 434.584C195.268 434.456 194.892 434.232 194.588 433.912C194.284 433.592 194.052 433.168 193.892 432.64C193.748 432.112 193.676 431.448 193.676 430.648V427H195.596ZM205.922 427.888C206.53 427.52 207.234 427.248 208.034 427.072C208.85 426.896 209.698 426.808 210.578 426.808C211.41 426.808 212.074 426.92 212.57 427.144C213.082 427.368 213.466 427.664 213.722 428.032C213.994 428.384 214.17 428.776 214.25 429.208C214.346 429.64 214.394 430.072 214.394 430.504C214.394 431.464 214.37 432.4 214.322 433.312C214.274 434.224 214.25 435.088 214.25 435.904C214.25 436.496 214.274 437.056 214.322 437.584C214.37 438.112 214.458 438.6 214.586 439.048H213.17L212.666 437.368H212.546C212.402 437.592 212.218 437.816 211.994 438.04C211.786 438.248 211.53 438.44 211.226 438.616C210.922 438.776 210.57 438.912 210.17 439.024C209.77 439.136 209.314 439.192 208.802 439.192C208.29 439.192 207.81 439.112 207.362 438.952C206.93 438.792 206.554 438.568 206.234 438.28C205.914 437.976 205.658 437.616 205.466 437.2C205.29 436.784 205.202 436.312 205.202 435.784C205.202 435.08 205.346 434.496 205.634 434.032C205.922 433.552 206.322 433.176 206.834 432.904C207.362 432.616 207.986 432.416 208.706 432.304C209.442 432.176 210.25 432.112 211.13 432.112C211.354 432.112 211.57 432.112 211.778 432.112C212.002 432.112 212.226 432.128 212.45 432.16C212.498 431.68 212.522 431.248 212.522 430.864C212.522 429.984 212.346 429.368 211.994 429.016C211.642 428.664 211.002 428.488 210.074 428.488C209.802 428.488 209.506 428.512 209.186 428.56C208.882 428.592 208.562 428.648 208.226 428.728C207.906 428.792 207.594 428.88 207.29 428.992C207.002 429.088 206.746 429.2 206.522 429.328L205.922 427.888ZM209.33 437.512C209.778 437.512 210.178 437.456 210.53 437.344C210.882 437.216 211.186 437.064 211.442 436.888C211.698 436.696 211.906 436.488 212.066 436.264C212.242 436.04 212.37 435.824 212.45 435.616V433.624C212.226 433.608 211.994 433.6 211.754 433.6C211.53 433.584 211.306 433.576 211.082 433.576C210.586 433.576 210.098 433.608 209.618 433.672C209.154 433.72 208.738 433.824 208.37 433.984C208.018 434.128 207.73 434.336 207.506 434.608C207.298 434.864 207.194 435.192 207.194 435.592C207.194 436.152 207.394 436.616 207.794 436.984C208.194 437.336 208.706 437.512 209.33 437.512ZM226.204 438.208C225.724 438.56 225.156 438.824 224.5 439C223.844 439.192 223.156 439.288 222.436 439.288C221.508 439.288 220.724 439.144 220.084 438.856C219.444 438.552 218.916 438.128 218.5 437.584C218.1 437.024 217.804 436.36 217.612 435.592C217.436 434.808 217.348 433.944 217.348 433C217.348 430.968 217.796 429.416 218.692 428.344C219.588 427.256 220.876 426.712 222.556 426.712C223.324 426.712 223.972 426.776 224.5 426.904C225.044 427.016 225.532 427.184 225.964 427.408L225.412 429.064C225.044 428.856 224.636 428.696 224.188 428.584C223.74 428.456 223.26 428.392 222.748 428.392C220.476 428.392 219.34 429.928 219.34 433C219.34 433.608 219.396 434.192 219.508 434.752C219.636 435.296 219.836 435.784 220.108 436.216C220.396 436.632 220.764 436.968 221.212 437.224C221.676 437.48 222.244 437.608 222.916 437.608C223.492 437.608 224.004 437.52 224.452 437.344C224.916 437.168 225.292 436.968 225.58 436.744L226.204 438.208ZM236.129 428.68H232.361V439H230.441V428.68H226.673V427H236.129V428.68ZM245.38 433.696H239.956V439H238.036V427H239.956V432.016H245.38V427H247.3V439H245.38V433.696ZM252.916 437.32C253.508 437.416 254.076 437.464 254.62 437.464C255.628 437.464 256.332 437.272 256.732 436.888C257.132 436.488 257.332 435.928 257.332 435.208C257.332 434.568 257.132 434.04 256.732 433.624C256.348 433.208 255.668 433 254.692 433C254.42 433 254.124 433.008 253.804 433.024C253.484 433.04 253.188 433.088 252.916 433.168V437.32ZM252.916 431.584C253.3 431.52 253.668 431.48 254.02 431.464C254.372 431.432 254.708 431.416 255.028 431.416C255.844 431.416 256.524 431.512 257.068 431.704C257.628 431.88 258.076 432.128 258.412 432.448C258.748 432.768 258.98 433.152 259.108 433.6C259.252 434.032 259.324 434.496 259.324 434.992C259.324 436.448 258.916 437.504 258.1 438.16C257.3 438.816 255.996 439.144 254.188 439.144C253.164 439.144 252.1 439.096 250.996 439V427H252.916V431.584ZM261.22 427H263.14V439H261.22V427ZM269.984 432.856L265.952 427H268.304L270.584 430.312L271.256 431.68L271.952 430.312L274.28 427H276.44L272.384 432.76L276.68 439H274.4L271.856 435.352L271.136 433.912L270.392 435.352L267.8 439H265.664L269.984 432.856ZM292.158 428.68H286.854V439H284.934V427H294.078V439H292.158V428.68ZM297.778 427H299.098L299.458 428.44H299.554C299.922 427.88 300.394 427.456 300.97 427.168C301.562 426.864 302.234 426.712 302.986 426.712C304.586 426.712 305.778 427.184 306.562 428.128C307.346 429.072 307.738 430.616 307.738 432.76C307.738 433.768 307.602 434.68 307.33 435.496C307.074 436.296 306.706 436.976 306.226 437.536C305.746 438.096 305.162 438.528 304.474 438.832C303.802 439.136 303.05 439.288 302.218 439.288C301.626 439.288 301.154 439.248 300.802 439.168C300.466 439.104 300.098 438.984 299.698 438.808V443.8H297.778V427ZM302.626 428.392C301.81 428.392 301.162 428.608 300.682 429.04C300.218 429.456 299.89 430.096 299.698 430.96V436.912C299.986 437.136 300.314 437.312 300.682 437.44C301.05 437.552 301.538 437.608 302.146 437.608C303.25 437.608 304.122 437.2 304.762 436.384C305.418 435.552 305.746 434.336 305.746 432.736C305.746 432.08 305.69 431.488 305.578 430.96C305.466 430.416 305.282 429.96 305.026 429.592C304.786 429.208 304.466 428.912 304.066 428.704C303.682 428.496 303.202 428.392 302.626 428.392ZM319.522 438.04C319.042 438.424 318.434 438.728 317.698 438.952C316.978 439.176 316.21 439.288 315.394 439.288C314.482 439.288 313.69 439.144 313.018 438.856C312.346 438.552 311.794 438.128 311.362 437.584C310.93 437.024 310.61 436.36 310.402 435.592C310.194 434.824 310.09 433.96 310.09 433C310.09 430.952 310.546 429.392 311.458 428.32C312.37 427.248 313.674 426.712 315.37 426.712C315.914 426.712 316.458 426.776 317.002 426.904C317.546 427.016 318.034 427.24 318.466 427.576C318.898 427.912 319.25 428.392 319.522 429.016C319.794 429.624 319.93 430.432 319.93 431.44C319.93 431.968 319.882 432.552 319.786 433.192H312.082C312.082 433.896 312.154 434.52 312.298 435.064C312.442 435.608 312.666 436.072 312.97 436.456C313.274 436.824 313.666 437.112 314.146 437.32C314.642 437.512 315.242 437.608 315.946 437.608C316.49 437.608 317.034 437.512 317.578 437.32C318.122 437.128 318.53 436.904 318.802 436.648L319.522 438.04ZM315.394 428.392C314.45 428.392 313.69 428.64 313.114 429.136C312.554 429.632 312.218 430.48 312.106 431.68H318.058C318.058 430.464 317.826 429.616 317.362 429.136C316.898 428.64 316.242 428.392 315.394 428.392ZM333.019 442.048H331.723L331.363 439H322.339L321.979 442.048H320.683V437.32H322.099C322.227 437.144 322.395 436.832 322.603 436.384C322.811 435.92 323.011 435.28 323.203 434.464C323.411 433.632 323.587 432.608 323.73 431.392C323.891 430.16 323.987 428.696 324.019 427H331.267V437.32H333.019V442.048ZM329.347 437.32V428.68H325.747C325.715 429.352 325.659 430.088 325.579 430.888C325.499 431.672 325.387 432.464 325.243 433.264C325.115 434.048 324.947 434.792 324.739 435.496C324.531 436.2 324.291 436.808 324.019 437.32H329.347ZM342.619 428.68H337.315V439H335.395V427H344.539V439H342.619V428.68ZM348.239 427H349.559L349.919 428.44H350.015C350.383 427.88 350.855 427.456 351.431 427.168C352.023 426.864 352.695 426.712 353.447 426.712C355.047 426.712 356.239 427.184 357.023 428.128C357.807 429.072 358.199 430.616 358.199 432.76C358.199 433.768 358.063 434.68 357.791 435.496C357.535 436.296 357.167 436.976 356.687 437.536C356.207 438.096 355.623 438.528 354.935 438.832C354.263 439.136 353.511 439.288 352.679 439.288C352.087 439.288 351.615 439.248 351.263 439.168C350.927 439.104 350.559 438.984 350.159 438.808V443.8H348.239V427ZM353.087 428.392C352.271 428.392 351.623 428.608 351.143 429.04C350.679 429.456 350.351 430.096 350.159 430.96V436.912C350.447 437.136 350.775 437.312 351.143 437.44C351.511 437.552 351.999 437.608 352.607 437.608C353.711 437.608 354.583 437.2 355.223 436.384C355.879 435.552 356.207 434.336 356.207 432.736C356.207 432.08 356.151 431.488 356.039 430.96C355.927 430.416 355.743 429.96 355.487 429.592C355.247 429.208 354.927 428.912 354.527 428.704C354.143 428.496 353.663 428.392 353.087 428.392ZM368.711 431.896L368.783 430.408H368.711L367.727 431.944L362.327 439H361.223V427H363.143V434.32L363.071 435.736H363.167L364.103 434.248L369.503 427H370.631V439H368.711V431.896ZM380.301 434.032L378.453 434.32L375.285 439H372.957L375.837 434.896L376.797 434.008C375.965 433.88 375.253 433.544 374.661 433C374.085 432.456 373.797 431.72 373.797 430.792C373.797 430.072 373.917 429.456 374.157 428.944C374.413 428.432 374.773 428.008 375.237 427.672C375.701 427.336 376.253 427.096 376.893 426.952C377.533 426.792 378.253 426.712 379.053 426.712C379.645 426.712 380.197 426.752 380.709 426.832C381.221 426.912 381.725 427 382.221 427.096V439H380.301V434.032ZM380.301 428.632C380.093 428.552 379.861 428.496 379.605 428.464C379.349 428.416 379.125 428.392 378.933 428.392C377.909 428.392 377.125 428.576 376.581 428.944C376.053 429.312 375.789 429.896 375.789 430.696C375.789 431.416 376.069 431.976 376.629 432.376C377.205 432.76 377.957 432.952 378.885 432.952C378.901 432.952 378.925 432.952 378.957 432.952C378.989 432.952 379.053 432.952 379.149 432.952C379.245 432.952 379.381 432.952 379.557 432.952C379.733 432.936 379.981 432.92 380.301 432.904V428.632ZM393.371 428.68H389.603V439H387.683V428.68H383.915V427H393.371V428.68ZM402.766 431.896L402.838 430.408H402.766L401.782 431.944L396.382 439H395.278V427H397.198V434.32L397.126 435.736H397.222L398.158 434.248L403.558 427H404.686V439H402.766V431.896ZM414.355 434.032L412.507 434.32L409.339 439H407.011L409.891 434.896L410.851 434.008C410.019 433.88 409.307 433.544 408.715 433C408.139 432.456 407.851 431.72 407.851 430.792C407.851 430.072 407.971 429.456 408.211 428.944C408.467 428.432 408.827 428.008 409.291 427.672C409.755 427.336 410.307 427.096 410.947 426.952C411.587 426.792 412.307 426.712 413.107 426.712C413.699 426.712 414.251 426.752 414.763 426.832C415.275 426.912 415.779 427 416.275 427.096V439H414.355V434.032ZM414.355 428.632C414.147 428.552 413.915 428.496 413.659 428.464C413.403 428.416 413.179 428.392 412.987 428.392C411.963 428.392 411.179 428.576 410.635 428.944C410.107 429.312 409.843 429.896 409.843 430.696C409.843 431.416 410.123 431.976 410.683 432.376C411.259 432.76 412.011 432.952 412.939 432.952C412.955 432.952 412.979 432.952 413.011 432.952C413.043 432.952 413.107 432.952 413.203 432.952C413.299 432.952 413.435 432.952 413.611 432.952C413.787 432.936 414.035 432.92 414.355 432.904V428.632ZM422.914 432.856L418.882 427H421.234L423.514 430.312L424.186 431.68L424.882 430.312L427.21 427H429.37L425.314 432.76L429.61 439H427.33L424.786 435.352L424.066 433.912L423.322 435.352L420.73 439H418.594L422.914 432.856Z" fill="#BBB5C4"/>
<circle cx="144" cy="532" r="9" fill="#D4B0B0"/>
<path d="M170.402 190.305C167.838 190.305 164.547 189.482 160.435 187.063L145.967 178.498C144.467 177.627 141.564 177.627 140.112 178.498L125.597 187.063C117.032 192.143 112 190.111 109.726 188.466C107.5 186.821 104.016 182.611 106.291 172.934L109.726 158.079C110.113 156.531 109.339 153.87 108.178 152.708L96.1779 140.709C90.178 134.709 90.6618 129.58 91.4844 127.064C92.307 124.548 94.9198 120.096 103.242 118.693L118.677 116.128C120.129 115.887 122.21 114.338 122.839 113.032L131.403 95.9514C135.274 88.1613 140.354 87 143.016 87C145.677 87 150.757 88.1613 154.628 95.9514L163.144 112.983C163.822 114.29 165.902 115.838 167.354 116.08L182.789 118.645C191.16 120.048 193.773 124.499 194.547 127.015C195.321 129.532 195.805 134.66 189.853 140.66L177.854 152.708C176.692 153.87 175.966 156.483 176.305 158.079L179.741 172.934C181.966 182.611 178.531 186.821 176.305 188.466C175.096 189.337 173.16 190.305 170.402 190.305ZM142.895 175.405C145.265 175.405 145.974 175.782 147.861 176.895L162.01 185.338C169.956 190.801 173.907 187.057 174.923 186.331C175.939 185.605 178.967 179.65 177.903 174.908L174.438 159.512C173.519 155.496 173.402 153.524 176.305 150.572L188.345 138.652C190.716 136.281 193.057 132.196 192.318 128.719C191.567 123.753 188.09 121.766 183.124 120.773L167.231 118.289C163.505 117.66 163.257 117.296 161.271 114.316L152.331 97.4298C148.854 90.9733 144.588 89.4833 142.895 89.4833C139.418 89.9799 135.941 90.9733 133.458 97.4298L124.518 114.316C122.035 116.799 122.532 116.303 119.297 117.793L103.404 120.773C100.114 121.305 96.451 122.263 93.471 127.726C92.4777 133.189 95.57 136.33 97.9409 138.652L109.861 150.572C112.764 153.475 113.021 154.502 112.102 158.519L109.122 173.418C106.639 180.371 110.434 186.337 111.45 187.063C116.075 189.808 119.764 187.806 124.022 185.338L137.928 176.895C139.767 175.782 140.524 175.405 142.895 175.405Z" fill="#D4B0B0"/>
</svg>
