<svg width="481" height="541" viewBox="0 0 481 541" fill="none" xmlns="http://www.w3.org/2000/svg">
<line x1="143.5" y1="277" x2="143.5" y2="540.89" stroke="#D9FFF8"/>
<path d="M285.167 142.533C285.167 64.3664 221.554 1 143.083 1C64.6129 1 1 64.3664 1 142.533C1 220.699 64.6129 284.066 143.083 284.066" stroke="#8ED9CB"/>
<ellipse cx="143" cy="142.531" rx="121" ry="120.531" fill="#8ED9CB"/>
<path d="M233.833 143.311C233.833 193.463 193.018 234.123 142.667 234.123C92.3149 234.123 51.5 193.463 51.5 143.311C51.5 93.1595 92.3149 52.5 142.667 52.5C193.018 52.5 233.833 93.1595 233.833 143.311Z" fill="#203B5B" stroke="#8ED9CB"/>
<path d="M294.333 145.631C294.333 150.674 290.229 154.762 285.167 154.762C280.104 154.762 276 150.674 276 145.631C276 140.588 280.104 136.5 285.167 136.5C290.229 136.5 294.333 140.588 294.333 145.631Z" fill="#8ED9CB"/>
<ellipse cx="143.167" cy="284.131" rx="9.16667" ry="9.13115" fill="#8ED9CB"/>
<circle cx="144" cy="532" r="9" fill="#D9FFF8"/>
<path d="M183.8 303V302.4C184.48 302.36 184.99 302.28 185.33 302.16C185.69 302.04 185.93 301.8 186.05 301.44C186.17 301.08 186.23 300.54 186.23 299.82V284.94C186.23 284.2 186.17 283.66 186.05 283.32C185.93 282.96 185.69 282.72 185.33 282.6C184.99 282.46 184.48 282.38 183.8 282.36V281.76C184.26 281.78 184.84 281.8 185.54 281.82C186.24 281.84 186.93 281.85 187.61 281.85C188.39 281.85 189.12 281.84 189.8 281.82C190.48 281.8 191.03 281.78 191.45 281.76V282.36C190.77 282.38 190.25 282.46 189.89 282.6C189.55 282.72 189.32 282.96 189.2 283.32C189.08 283.66 189.02 284.2 189.02 284.94V299.82C189.02 300.54 189.08 301.08 189.2 301.44C189.32 301.8 189.55 302.04 189.89 302.16C190.25 302.28 190.77 302.36 191.45 302.4V303C191.03 302.96 190.48 302.94 189.8 302.94C189.12 302.92 188.39 302.91 187.61 302.91C186.93 302.91 186.24 302.92 185.54 302.94C184.84 302.94 184.26 302.96 183.8 303ZM171.26 303V302.4C171.94 302.36 172.45 302.28 172.79 302.16C173.15 302.04 173.39 301.8 173.51 301.44C173.63 301.08 173.69 300.54 173.69 299.82V284.94C173.69 284.2 173.63 283.66 173.51 283.32C173.39 282.96 173.15 282.72 172.79 282.6C172.45 282.46 171.94 282.38 171.26 282.36V281.76C171.68 281.78 172.23 281.8 172.91 281.82C173.59 281.84 174.32 281.85 175.1 281.85C175.8 281.85 176.49 281.84 177.17 281.82C177.87 281.8 178.45 281.78 178.91 281.76V282.36C178.23 282.38 177.71 282.46 177.35 282.6C177.01 282.72 176.78 282.96 176.66 283.32C176.54 283.66 176.48 284.2 176.48 284.94V299.82C176.48 300.54 176.54 301.08 176.66 301.44C176.78 301.8 177.01 302.04 177.35 302.16C177.71 302.28 178.23 302.36 178.91 302.4V303C178.45 302.96 177.87 302.94 177.17 302.94C176.49 302.92 175.8 302.91 175.1 302.91C174.32 302.91 173.59 302.92 172.91 302.94C172.23 302.94 171.68 302.96 171.26 303ZM175.43 292.62V292.02H187.28V292.62H175.43ZM200.338 287.13C202.098 287.13 203.468 287.67 204.448 288.75C205.448 289.81 205.948 291.47 205.948 293.73H195.358L195.328 293.16H203.068C203.108 292.18 203.028 291.28 202.828 290.46C202.628 289.62 202.308 288.95 201.868 288.45C201.448 287.95 200.898 287.7 200.218 287.7C199.298 287.7 198.478 288.16 197.758 289.08C197.058 290 196.638 291.46 196.498 293.46L196.588 293.58C196.548 293.88 196.518 294.21 196.498 294.57C196.478 294.93 196.468 295.29 196.468 295.65C196.468 297.01 196.688 298.18 197.128 299.16C197.568 300.14 198.138 300.89 198.838 301.41C199.558 301.91 200.298 302.16 201.058 302.16C201.658 302.16 202.228 302.07 202.768 301.89C203.308 301.69 203.808 301.37 204.268 300.93C204.728 300.49 205.128 299.9 205.468 299.16L206.068 299.4C205.848 300.06 205.488 300.7 204.988 301.32C204.488 301.94 203.858 302.45 203.098 302.85C202.338 303.23 201.458 303.42 200.458 303.42C199.018 303.42 197.778 303.09 196.738 302.43C195.718 301.77 194.928 300.86 194.368 299.7C193.828 298.52 193.558 297.17 193.558 295.65C193.558 293.89 193.838 292.38 194.398 291.12C194.958 289.84 195.748 288.86 196.768 288.18C197.788 287.48 198.978 287.13 200.338 287.13ZM232.284 287.58V288.21C231.464 288.21 230.874 288.36 230.514 288.66C230.174 288.96 230.004 289.53 230.004 290.37V300.21C230.004 301.05 230.174 301.62 230.514 301.92C230.874 302.22 231.464 302.37 232.284 302.37V303C231.944 302.98 231.424 302.96 230.724 302.94C230.024 302.9 229.344 302.88 228.684 302.88C228.024 302.88 227.374 302.9 226.734 302.94C226.114 302.96 225.644 302.98 225.324 303V302.37C226.044 302.37 226.554 302.22 226.854 301.92C227.154 301.62 227.304 301.05 227.304 300.21V290.37C227.304 289.53 227.154 288.96 226.854 288.66C226.554 288.36 226.044 288.21 225.324 288.21V287.58C225.644 287.6 226.114 287.63 226.734 287.67C227.374 287.69 228.024 287.7 228.684 287.7C229.344 287.7 230.024 287.69 230.724 287.67C231.424 287.63 231.944 287.6 232.284 287.58ZM222.654 287.58V288.21C221.934 288.21 221.424 288.36 221.124 288.66C220.824 288.96 220.674 289.53 220.674 290.37V300.21C220.674 301.05 220.824 301.62 221.124 301.92C221.424 302.22 221.934 302.37 222.654 302.37V303C222.334 302.98 221.854 302.96 221.214 302.94C220.594 302.9 219.954 302.88 219.294 302.88C218.634 302.88 217.954 302.9 217.254 302.94C216.554 302.96 216.034 302.98 215.694 303V302.37C216.514 302.37 217.094 302.22 217.434 301.92C217.794 301.62 217.974 301.05 217.974 300.21V290.37C217.974 289.53 217.794 288.96 217.434 288.66C217.094 288.36 216.514 288.21 215.694 288.21V287.58C216.034 287.6 216.554 287.63 217.254 287.67C217.954 287.69 218.634 287.7 219.294 287.7C219.954 287.7 220.594 287.69 221.214 287.67C221.854 287.63 222.334 287.6 222.654 287.58ZM228.144 294.75V295.35H219.684V294.75H228.144ZM238.294 303.21C237.474 303.21 236.764 303.06 236.164 302.76C235.564 302.44 235.104 302 234.784 301.44C234.484 300.88 234.334 300.23 234.334 299.49C234.334 298.61 234.534 297.89 234.934 297.33C235.354 296.77 235.884 296.32 236.524 295.98C237.164 295.64 237.834 295.36 238.534 295.14C239.254 294.9 239.934 294.68 240.574 294.48C241.214 294.26 241.734 294.01 242.134 293.73C242.554 293.45 242.764 293.08 242.764 292.62V290.76C242.764 289.92 242.634 289.28 242.374 288.84C242.134 288.4 241.804 288.11 241.384 287.97C240.964 287.81 240.494 287.73 239.974 287.73C239.474 287.73 238.934 287.8 238.354 287.94C237.794 288.08 237.344 288.37 237.004 288.81C237.384 288.89 237.714 289.09 237.994 289.41C238.274 289.73 238.414 290.14 238.414 290.64C238.414 291.14 238.254 291.54 237.934 291.84C237.614 292.12 237.204 292.26 236.704 292.26C236.124 292.26 235.694 292.08 235.414 291.72C235.154 291.34 235.024 290.92 235.024 290.46C235.024 289.94 235.154 289.52 235.414 289.2C235.674 288.88 236.004 288.58 236.404 288.3C236.864 287.98 237.454 287.71 238.174 287.49C238.914 287.25 239.744 287.13 240.664 287.13C241.484 287.13 242.184 287.23 242.764 287.43C243.344 287.61 243.824 287.88 244.204 288.24C244.724 288.72 245.064 289.31 245.224 290.01C245.384 290.69 245.464 291.51 245.464 292.47V300.81C245.464 301.31 245.534 301.67 245.674 301.89C245.834 302.11 246.074 302.22 246.394 302.22C246.614 302.22 246.824 302.17 247.024 302.07C247.224 301.97 247.464 301.81 247.744 301.59L248.074 302.1C247.654 302.42 247.254 302.69 246.874 302.91C246.494 303.11 245.984 303.21 245.344 303.21C244.764 303.21 244.284 303.11 243.904 302.91C243.524 302.71 243.234 302.42 243.034 302.04C242.854 301.64 242.764 301.14 242.764 300.54C242.224 301.44 241.574 302.11 240.814 302.55C240.074 302.99 239.234 303.21 238.294 303.21ZM239.374 302.01C240.034 302.01 240.644 301.82 241.204 301.44C241.784 301.06 242.304 300.49 242.764 299.73V293.85C242.524 294.19 242.174 294.48 241.714 294.72C241.254 294.94 240.754 295.17 240.214 295.41C239.674 295.63 239.154 295.9 238.654 296.22C238.174 296.52 237.774 296.92 237.454 297.42C237.134 297.92 236.974 298.57 236.974 299.37C236.974 300.17 237.184 300.81 237.604 301.29C238.044 301.77 238.634 302.01 239.374 302.01ZM262.835 287.58V288.21C262.015 288.21 261.425 288.36 261.065 288.66C260.725 288.96 260.555 289.53 260.555 290.37V300.21C260.555 301.05 260.715 301.62 261.035 301.92C261.375 302.22 262.085 302.37 263.165 302.37C263.085 303.07 263.025 303.74 262.985 304.38C262.965 305.02 262.955 305.51 262.955 305.85C262.955 306.21 262.965 306.55 262.985 306.87C263.005 307.21 263.025 307.49 263.045 307.71H262.355C262.255 306.53 262.115 305.58 261.935 304.86C261.775 304.16 261.485 303.65 261.065 303.33C260.665 303.03 260.055 302.88 259.235 302.88C258.755 302.88 258.305 302.89 257.885 302.91C257.465 302.91 257.005 302.92 256.505 302.94C256.025 302.96 255.445 302.98 254.765 303C254.085 303 253.245 303 252.245 303C251.425 303 250.805 303.14 250.385 303.42C249.985 303.72 249.695 304.21 249.515 304.89C249.355 305.59 249.225 306.53 249.125 307.71H248.435C248.475 307.49 248.495 307.21 248.495 306.87C248.515 306.55 248.525 306.21 248.525 305.85C248.525 305.51 248.505 305.02 248.465 304.38C248.445 303.74 248.395 303.07 248.315 302.37H255.875C256.595 302.37 257.105 302.22 257.405 301.92C257.705 301.62 257.855 301.05 257.855 300.21V290.37C257.855 289.53 257.705 288.96 257.405 288.66C257.105 288.36 256.595 288.21 255.875 288.21H255.605C254.885 288.21 254.395 288.36 254.135 288.66C253.875 288.96 253.705 289.53 253.625 290.37C253.545 291.45 253.435 292.59 253.295 293.79C253.175 294.97 253.005 296.12 252.785 297.24C252.565 298.36 252.265 299.37 251.885 300.27C251.665 300.81 251.375 301.33 251.015 301.83C250.655 302.31 250.155 302.61 249.515 302.73L248.885 302.37C249.525 302.37 250.055 302.14 250.475 301.68C250.895 301.2 251.205 300.68 251.405 300.12C251.745 299.24 252.015 298.27 252.215 297.21C252.435 296.15 252.615 295.04 252.755 293.88C252.895 292.72 253.005 291.55 253.085 290.37C253.145 289.53 252.965 288.96 252.545 288.66C252.145 288.36 251.535 288.21 250.715 288.21V287.58C250.875 287.6 251.125 287.63 251.465 287.67C251.825 287.69 252.255 287.7 252.755 287.7C253.255 287.7 253.765 287.68 254.285 287.64C254.825 287.6 255.375 287.58 255.935 287.58C256.495 287.58 257.005 287.6 257.465 287.64C257.945 287.68 258.525 287.7 259.205 287.7C259.905 287.7 260.595 287.69 261.275 287.67C261.975 287.63 262.495 287.6 262.835 287.58ZM272.058 287.13C273.338 287.13 274.488 287.41 275.508 287.97C276.528 288.53 277.338 289.41 277.938 290.61C278.558 291.81 278.868 293.37 278.868 295.29C278.868 297.21 278.558 298.77 277.938 299.97C277.338 301.15 276.528 302.02 275.508 302.58C274.488 303.14 273.338 303.42 272.058 303.42C270.798 303.42 269.648 303.14 268.608 302.58C267.588 302.02 266.768 301.15 266.148 299.97C265.548 298.77 265.248 297.21 265.248 295.29C265.248 293.37 265.548 291.81 266.148 290.61C266.768 289.41 267.588 288.53 268.608 287.97C269.648 287.41 270.798 287.13 272.058 287.13ZM272.058 287.73C270.918 287.73 269.978 288.32 269.238 289.5C268.518 290.68 268.158 292.61 268.158 295.29C268.158 297.97 268.518 299.9 269.238 301.08C269.978 302.24 270.918 302.82 272.058 302.82C273.198 302.82 274.128 302.24 274.848 301.08C275.588 299.9 275.958 297.97 275.958 295.29C275.958 292.61 275.588 290.68 274.848 289.5C274.128 288.32 273.198 287.73 272.058 287.73ZM305.204 287.58V288.21C304.384 288.21 303.794 288.36 303.434 288.66C303.094 288.96 302.924 289.53 302.924 290.37V300.21C302.924 301.05 303.094 301.62 303.434 301.92C303.794 302.22 304.384 302.37 305.204 302.37V303C304.864 302.98 304.344 302.96 303.644 302.94C302.944 302.9 302.264 302.88 301.604 302.88C300.944 302.88 300.294 302.9 299.654 302.94C299.034 302.96 298.564 302.98 298.244 303V302.37C298.964 302.37 299.474 302.22 299.774 301.92C300.074 301.62 300.224 301.05 300.224 300.21V290.37C300.224 289.53 300.074 288.96 299.774 288.66C299.474 288.36 298.964 288.21 298.244 288.21H295.574C294.854 288.21 294.344 288.36 294.044 288.66C293.744 288.96 293.594 289.53 293.594 290.37V300.21C293.594 301.05 293.744 301.62 294.044 301.92C294.344 302.22 294.854 302.37 295.574 302.37V303C295.254 302.98 294.774 302.96 294.134 302.94C293.514 302.9 292.874 302.88 292.214 302.88C291.554 302.88 290.874 302.9 290.174 302.94C289.474 302.96 288.954 302.98 288.614 303V302.37C289.434 302.37 290.014 302.22 290.354 301.92C290.714 301.62 290.894 301.05 290.894 300.21V290.37C290.894 289.53 290.714 288.96 290.354 288.66C290.014 288.36 289.434 288.21 288.614 288.21V287.58C288.954 287.6 289.474 287.63 290.174 287.67C290.874 287.69 291.554 287.7 292.214 287.7C293.174 287.7 294.024 287.68 294.764 287.64C295.524 287.6 296.294 287.58 297.074 287.58C297.854 287.58 298.564 287.6 299.204 287.64C299.844 287.68 300.644 287.7 301.604 287.7C302.264 287.7 302.944 287.69 303.644 287.67C304.344 287.63 304.864 287.6 305.204 287.58ZM322.104 287.58V288.21C321.284 288.21 320.694 288.36 320.334 288.66C319.994 288.96 319.824 289.53 319.824 290.37V300.21C319.824 301.05 319.994 301.62 320.334 301.92C320.694 302.22 321.284 302.37 322.104 302.37V303C321.764 302.98 321.264 302.96 320.604 302.94C319.944 302.9 319.224 302.88 318.444 302.88C317.664 302.88 316.874 302.9 316.074 302.94C315.294 302.96 314.684 302.98 314.244 303V302.37C315.144 302.37 315.844 302.23 316.344 301.95C316.864 301.65 317.124 301.07 317.124 300.21V290.37C317.124 289.53 316.974 288.96 316.674 288.66C316.374 288.36 315.864 288.21 315.144 288.21H314.874C314.374 288.21 314.044 288.36 313.884 288.66C313.724 288.96 313.604 289.53 313.524 290.37C313.364 292.23 313.164 294.01 312.924 295.71C312.704 297.39 312.324 298.91 311.784 300.27C311.584 300.75 311.334 301.24 311.034 301.74C310.734 302.22 310.364 302.62 309.924 302.94C309.504 303.26 308.994 303.42 308.394 303.42C308.034 303.42 307.694 303.35 307.374 303.21C307.054 303.09 306.794 302.9 306.594 302.64C306.394 302.36 306.294 302.02 306.294 301.62C306.294 301.12 306.444 300.73 306.744 300.45C307.044 300.17 307.434 300.03 307.914 300.03C308.334 300.03 308.684 300.15 308.964 300.39C309.264 300.63 309.414 300.99 309.414 301.47C309.414 301.79 309.324 302.08 309.144 302.34C308.964 302.58 308.674 302.78 308.274 302.94C308.314 302.96 308.364 302.97 308.424 302.97C308.504 302.97 308.554 302.97 308.574 302.97C309.074 302.97 309.494 302.81 309.834 302.49C310.194 302.15 310.494 301.76 310.734 301.32C310.994 300.86 311.184 300.46 311.304 300.12C311.624 299.28 311.894 298.34 312.114 297.3C312.334 296.26 312.514 295.15 312.654 293.97C312.794 292.79 312.904 291.59 312.984 290.37C313.044 289.53 312.864 288.96 312.444 288.66C312.044 288.36 311.434 288.21 310.614 288.21V287.58C310.774 287.6 311.024 287.63 311.364 287.67C311.724 287.69 312.154 287.7 312.654 287.7C313.054 287.7 313.464 287.7 313.884 287.7C314.324 287.7 314.764 287.7 315.204 287.7C315.584 287.7 315.934 287.7 316.254 287.7C316.574 287.7 316.914 287.7 317.274 287.7C317.634 287.7 318.034 287.7 318.474 287.7C318.934 287.7 319.394 287.69 319.854 287.67C320.334 287.65 320.774 287.63 321.174 287.61C321.574 287.59 321.884 287.58 322.104 287.58ZM328.118 303.21C327.298 303.21 326.588 303.06 325.988 302.76C325.388 302.44 324.928 302 324.608 301.44C324.308 300.88 324.158 300.23 324.158 299.49C324.158 298.61 324.358 297.89 324.758 297.33C325.178 296.77 325.708 296.32 326.348 295.98C326.988 295.64 327.658 295.36 328.358 295.14C329.078 294.9 329.758 294.68 330.398 294.48C331.038 294.26 331.558 294.01 331.958 293.73C332.378 293.45 332.588 293.08 332.588 292.62V290.76C332.588 289.92 332.458 289.28 332.198 288.84C331.958 288.4 331.628 288.11 331.208 287.97C330.788 287.81 330.318 287.73 329.798 287.73C329.298 287.73 328.758 287.8 328.178 287.94C327.618 288.08 327.168 288.37 326.828 288.81C327.208 288.89 327.538 289.09 327.818 289.41C328.098 289.73 328.238 290.14 328.238 290.64C328.238 291.14 328.078 291.54 327.758 291.84C327.438 292.12 327.028 292.26 326.528 292.26C325.948 292.26 325.518 292.08 325.238 291.72C324.978 291.34 324.848 290.92 324.848 290.46C324.848 289.94 324.978 289.52 325.238 289.2C325.498 288.88 325.828 288.58 326.228 288.3C326.688 287.98 327.278 287.71 327.998 287.49C328.738 287.25 329.568 287.13 330.488 287.13C331.308 287.13 332.008 287.23 332.588 287.43C333.168 287.61 333.648 287.88 334.028 288.24C334.548 288.72 334.888 289.31 335.048 290.01C335.208 290.69 335.288 291.51 335.288 292.47V300.81C335.288 301.31 335.358 301.67 335.498 301.89C335.658 302.11 335.898 302.22 336.218 302.22C336.438 302.22 336.648 302.17 336.848 302.07C337.048 301.97 337.288 301.81 337.568 301.59L337.898 302.1C337.478 302.42 337.078 302.69 336.698 302.91C336.318 303.11 335.808 303.21 335.168 303.21C334.588 303.21 334.108 303.11 333.728 302.91C333.348 302.71 333.058 302.42 332.858 302.04C332.678 301.64 332.588 301.14 332.588 300.54C332.048 301.44 331.398 302.11 330.638 302.55C329.898 302.99 329.058 303.21 328.118 303.21ZM329.198 302.01C329.858 302.01 330.468 301.82 331.028 301.44C331.608 301.06 332.128 300.49 332.588 299.73V293.85C332.348 294.19 331.998 294.48 331.538 294.72C331.078 294.94 330.578 295.17 330.038 295.41C329.498 295.63 328.978 295.9 328.478 296.22C327.998 296.52 327.598 296.92 327.278 297.42C326.958 297.92 326.798 298.57 326.798 299.37C326.798 300.17 327.008 300.81 327.428 301.29C327.868 301.77 328.458 302.01 329.198 302.01ZM353.59 287.58C353.51 288.28 353.45 288.95 353.41 289.59C353.39 290.23 353.38 290.72 353.38 291.06C353.38 291.42 353.39 291.77 353.41 292.11C353.43 292.43 353.45 292.7 353.47 292.92H352.78C352.68 291.54 352.47 290.51 352.15 289.83C351.83 289.15 351.39 288.71 350.83 288.51C350.27 288.29 349.58 288.18 348.76 288.18H347.59V299.91C347.59 300.89 347.87 301.55 348.43 301.89C349.01 302.21 349.79 302.37 350.77 302.37V303C350.31 302.98 349.67 302.96 348.85 302.94C348.05 302.9 347.18 302.88 346.24 302.88C345.32 302.88 344.45 302.9 343.63 302.94C342.81 302.96 342.17 302.98 341.71 303V302.37C342.71 302.37 343.49 302.21 344.05 301.89C344.61 301.55 344.89 300.89 344.89 299.91V288.18H343.42C342.6 288.18 341.93 288.29 341.41 288.51C340.91 288.73 340.52 289.18 340.24 289.86C339.98 290.54 339.8 291.57 339.7 292.95H339.01C339.05 292.73 339.07 292.46 339.07 292.14C339.09 291.8 339.1 291.45 339.1 291.09C339.1 290.75 339.08 290.26 339.04 289.62C339.02 288.98 338.97 288.31 338.89 287.61H341.77C342.45 287.61 343.17 287.62 343.93 287.64C344.71 287.66 345.47 287.67 346.21 287.67C346.97 287.67 347.74 287.66 348.52 287.64C349.3 287.6 350.03 287.58 350.71 287.58H353.59ZM372.451 287.58V288.21C371.631 288.21 371.041 288.36 370.681 288.66C370.341 288.96 370.171 289.53 370.171 290.37V300.21C370.171 301.05 370.341 301.62 370.681 301.92C371.041 302.22 371.631 302.37 372.451 302.37V303C372.111 302.98 371.591 302.96 370.891 302.94C370.191 302.9 369.511 302.88 368.851 302.88C368.191 302.88 367.541 302.9 366.901 302.94C366.281 302.96 365.811 302.98 365.491 303V302.37C366.211 302.37 366.721 302.22 367.021 301.92C367.321 301.62 367.471 301.05 367.471 300.21V290.37C367.471 289.53 367.321 288.96 367.021 288.66C366.721 288.36 366.211 288.21 365.491 288.21V287.58C365.811 287.6 366.281 287.63 366.901 287.67C367.541 287.69 368.191 287.7 368.851 287.7C369.511 287.7 370.191 287.69 370.891 287.67C371.591 287.63 372.111 287.6 372.451 287.58ZM362.371 287.58V288.21C361.651 288.21 361.141 288.36 360.841 288.66C360.541 288.96 360.391 289.53 360.391 290.37V300.21C360.391 301.05 360.541 301.62 360.841 301.92C361.141 302.22 361.651 302.37 362.371 302.37V303C362.051 302.98 361.571 302.96 360.931 302.94C360.311 302.9 359.671 302.88 359.011 302.88C358.351 302.88 357.671 302.9 356.971 302.94C356.271 302.96 355.751 302.98 355.411 303V302.37C356.231 302.37 356.811 302.22 357.151 301.92C357.511 301.62 357.691 301.05 357.691 300.21V290.37C357.691 289.53 357.511 288.96 357.151 288.66C356.811 288.36 356.231 288.21 355.411 288.21V287.58C355.751 287.6 356.271 287.63 356.971 287.67C357.671 287.69 358.351 287.7 359.011 287.7C359.671 287.7 360.311 287.69 360.931 287.67C361.571 287.63 362.051 287.6 362.371 287.58ZM367.771 289.68L368.251 290.01L360.001 301.41L359.521 301.05L367.771 289.68ZM388.98 287.58C388.9 288.28 388.84 288.95 388.8 289.59C388.78 290.23 388.77 290.72 388.77 291.06C388.77 291.42 388.78 291.77 388.8 292.11C388.82 292.43 388.84 292.7 388.86 292.92H388.17C388.07 291.54 387.86 290.51 387.54 289.83C387.22 289.15 386.78 288.71 386.22 288.51C385.66 288.29 384.97 288.18 384.15 288.18H382.98V299.91C382.98 300.89 383.26 301.55 383.82 301.89C384.4 302.21 385.18 302.37 386.16 302.37V303C385.7 302.98 385.06 302.96 384.24 302.94C383.44 302.9 382.57 302.88 381.63 302.88C380.71 302.88 379.84 302.9 379.02 302.94C378.2 302.96 377.56 302.98 377.1 303V302.37C378.1 302.37 378.88 302.21 379.44 301.89C380 301.55 380.28 300.89 380.28 299.91V288.18H378.81C377.99 288.18 377.32 288.29 376.8 288.51C376.3 288.73 375.91 289.18 375.63 289.86C375.37 290.54 375.19 291.57 375.09 292.95H374.4C374.44 292.73 374.46 292.46 374.46 292.14C374.48 291.8 374.49 291.45 374.49 291.09C374.49 290.75 374.47 290.26 374.43 289.62C374.41 288.98 374.36 288.31 374.28 287.61H377.16C377.84 287.61 378.56 287.62 379.32 287.64C380.1 287.66 380.86 287.67 381.6 287.67C382.36 287.67 383.13 287.66 383.91 287.64C384.69 287.6 385.42 287.58 386.1 287.58H388.98ZM398.002 287.58V288.21C397.182 288.21 396.592 288.36 396.232 288.66C395.892 288.96 395.722 289.53 395.722 290.37V300.21C395.722 301.01 395.882 301.57 396.202 301.89C396.542 302.21 397.112 302.37 397.912 302.37C398.992 302.37 399.812 302.19 400.372 301.83C400.952 301.47 401.352 300.99 401.572 300.39C401.792 299.79 401.902 299.15 401.902 298.47C401.902 297.09 401.512 296.09 400.732 295.47C399.972 294.83 398.702 294.51 396.922 294.51C396.422 294.51 395.922 294.51 395.422 294.51C394.922 294.51 394.422 294.51 393.922 294.51L393.862 294C394.682 294 395.492 294 396.292 294C397.092 294 397.892 294 398.692 294C400.872 294 402.422 294.41 403.342 295.23C404.262 296.03 404.722 297.05 404.722 298.29C404.722 299.03 404.512 299.76 404.092 300.48C403.692 301.2 403.012 301.8 402.052 302.28C401.112 302.76 399.842 303 398.242 303C397.682 303 397.062 302.98 396.382 302.94C395.702 302.9 395.002 302.88 394.282 302.88C393.662 302.88 393.002 302.9 392.302 302.94C391.602 302.96 391.082 302.98 390.742 303V302.37C391.562 302.37 392.142 302.22 392.482 301.92C392.842 301.62 393.022 301.05 393.022 300.21V290.37C393.022 289.53 392.872 288.96 392.572 288.66C392.272 288.36 391.762 288.21 391.042 288.21V287.58C391.362 287.6 391.832 287.63 392.452 287.67C393.092 287.69 393.742 287.7 394.402 287.7C395.062 287.7 395.742 287.69 396.442 287.67C397.142 287.63 397.662 287.6 398.002 287.58ZM178.37 327.13C179.01 327.13 179.63 327.21 180.23 327.37C180.83 327.53 181.37 327.77 181.85 328.09C182.31 328.39 182.66 328.74 182.9 329.14C183.14 329.52 183.26 329.94 183.26 330.4C183.26 330.94 183.11 331.36 182.81 331.66C182.51 331.94 182.13 332.08 181.67 332.08C181.23 332.08 180.84 331.95 180.5 331.69C180.18 331.43 180.02 331.06 180.02 330.58C180.02 330.12 180.14 329.75 180.38 329.47C180.64 329.19 180.94 329.01 181.28 328.93C181.08 328.57 180.72 328.27 180.2 328.03C179.7 327.79 179.16 327.67 178.58 327.67C178.08 327.67 177.58 327.79 177.08 328.03C176.58 328.27 176.12 328.67 175.7 329.23C175.28 329.77 174.94 330.52 174.68 331.48C174.42 332.42 174.29 333.6 174.29 335.02C174.29 336.78 174.49 338.18 174.89 339.22C175.29 340.26 175.81 341.01 176.45 341.47C177.11 341.91 177.83 342.13 178.61 342.13C179.13 342.13 179.66 342.03 180.2 341.83C180.74 341.63 181.25 341.31 181.73 340.87C182.21 340.41 182.62 339.8 182.96 339.04L183.53 339.25C183.33 339.89 183 340.54 182.54 341.2C182.08 341.84 181.48 342.37 180.74 342.79C180 343.21 179.09 343.42 178.01 343.42C176.77 343.42 175.65 343.1 174.65 342.46C173.65 341.82 172.85 340.91 172.25 339.73C171.67 338.53 171.38 337.11 171.38 335.47C171.38 333.83 171.67 332.39 172.25 331.15C172.85 329.89 173.68 328.91 174.74 328.21C175.8 327.49 177.01 327.13 178.37 327.13ZM200.25 327.58C200.17 328.28 200.11 328.95 200.07 329.59C200.05 330.23 200.04 330.72 200.04 331.06C200.04 331.42 200.05 331.77 200.07 332.11C200.09 332.43 200.11 332.7 200.13 332.92H199.44C199.34 331.54 199.13 330.51 198.81 329.83C198.49 329.15 198.05 328.71 197.49 328.51C196.93 328.29 196.24 328.18 195.42 328.18H194.25V339.91C194.25 340.89 194.53 341.55 195.09 341.89C195.67 342.21 196.45 342.37 197.43 342.37V343C196.97 342.98 196.33 342.96 195.51 342.94C194.71 342.9 193.84 342.88 192.9 342.88C191.98 342.88 191.11 342.9 190.29 342.94C189.47 342.96 188.83 342.98 188.37 343V342.37C189.37 342.37 190.15 342.21 190.71 341.89C191.27 341.55 191.55 340.89 191.55 339.91V328.18H190.08C189.26 328.18 188.59 328.29 188.07 328.51C187.57 328.73 187.18 329.18 186.9 329.86C186.64 330.54 186.46 331.57 186.36 332.95H185.67C185.71 332.73 185.73 332.46 185.73 332.14C185.75 331.8 185.76 331.45 185.76 331.09C185.76 330.75 185.74 330.26 185.7 329.62C185.68 328.98 185.63 328.31 185.55 327.61H188.43C189.11 327.61 189.83 327.62 190.59 327.64C191.37 327.66 192.13 327.67 192.87 327.67C193.63 327.67 194.4 327.66 195.18 327.64C195.96 327.6 196.69 327.58 197.37 327.58H200.25ZM206.841 327.22V345.64C206.841 346.5 207.091 347.07 207.591 347.35C208.111 347.65 208.821 347.8 209.721 347.8V348.43C209.281 348.41 208.671 348.38 207.891 348.34C207.111 348.32 206.281 348.31 205.401 348.31C204.781 348.31 204.161 348.32 203.541 348.34C202.941 348.38 202.481 348.41 202.161 348.43V347.8C202.881 347.8 203.391 347.67 203.691 347.41C203.991 347.15 204.141 346.66 204.141 345.94V330.82C204.141 329.92 203.981 329.26 203.661 328.84C203.341 328.4 202.741 328.18 201.861 328.18V327.55C202.501 327.61 203.121 327.64 203.721 327.64C204.301 327.64 204.851 327.61 205.371 327.55C205.911 327.47 206.401 327.36 206.841 327.22ZM211.641 327.13C212.701 327.13 213.651 327.42 214.491 328C215.331 328.56 215.991 329.39 216.471 330.49C216.971 331.59 217.221 332.95 217.221 334.57C217.221 335.65 217.091 336.72 216.831 337.78C216.571 338.82 216.161 339.77 215.601 340.63C215.061 341.47 214.351 342.15 213.471 342.67C212.611 343.17 211.571 343.42 210.351 343.42C209.411 343.42 208.591 343.2 207.891 342.76C207.211 342.32 206.751 341.79 206.511 341.17L206.811 340.75C207.091 341.31 207.491 341.78 208.011 342.16C208.551 342.54 209.221 342.73 210.021 342.73C211.141 342.73 212.011 342.38 212.631 341.68C213.251 340.98 213.681 340.05 213.921 338.89C214.181 337.71 214.311 336.41 214.311 334.99C214.311 333.39 214.181 332.08 213.921 331.06C213.661 330.04 213.271 329.28 212.751 328.78C212.231 328.28 211.591 328.03 210.831 328.03C209.851 328.03 208.961 328.44 208.161 329.26C207.361 330.06 206.851 331.28 206.631 332.92L206.271 332.5C206.491 330.8 207.091 329.48 208.071 328.54C209.071 327.6 210.261 327.13 211.641 327.13ZM223.763 343.21C222.943 343.21 222.233 343.06 221.633 342.76C221.033 342.44 220.573 342 220.253 341.44C219.953 340.88 219.803 340.23 219.803 339.49C219.803 338.61 220.003 337.89 220.403 337.33C220.823 336.77 221.353 336.32 221.993 335.98C222.633 335.64 223.303 335.36 224.003 335.14C224.723 334.9 225.403 334.68 226.043 334.48C226.683 334.26 227.203 334.01 227.603 333.73C228.023 333.45 228.233 333.08 228.233 332.62V330.76C228.233 329.92 228.103 329.28 227.843 328.84C227.603 328.4 227.273 328.11 226.853 327.97C226.433 327.81 225.963 327.73 225.443 327.73C224.943 327.73 224.403 327.8 223.823 327.94C223.263 328.08 222.813 328.37 222.473 328.81C222.853 328.89 223.183 329.09 223.463 329.41C223.743 329.73 223.883 330.14 223.883 330.64C223.883 331.14 223.723 331.54 223.403 331.84C223.083 332.12 222.673 332.26 222.173 332.26C221.593 332.26 221.163 332.08 220.883 331.72C220.623 331.34 220.493 330.92 220.493 330.46C220.493 329.94 220.623 329.52 220.883 329.2C221.143 328.88 221.473 328.58 221.873 328.3C222.333 327.98 222.923 327.71 223.643 327.49C224.383 327.25 225.213 327.13 226.133 327.13C226.953 327.13 227.653 327.23 228.233 327.43C228.813 327.61 229.293 327.88 229.673 328.24C230.193 328.72 230.533 329.31 230.693 330.01C230.853 330.69 230.933 331.51 230.933 332.47V340.81C230.933 341.31 231.003 341.67 231.143 341.89C231.303 342.11 231.543 342.22 231.863 342.22C232.083 342.22 232.293 342.17 232.493 342.07C232.693 341.97 232.933 341.81 233.213 341.59L233.543 342.1C233.123 342.42 232.723 342.69 232.343 342.91C231.963 343.11 231.453 343.21 230.813 343.21C230.233 343.21 229.753 343.11 229.373 342.91C228.993 342.71 228.703 342.42 228.503 342.04C228.323 341.64 228.233 341.14 228.233 340.54C227.693 341.44 227.043 342.11 226.283 342.55C225.543 342.99 224.703 343.21 223.763 343.21ZM224.843 342.01C225.503 342.01 226.113 341.82 226.673 341.44C227.253 341.06 227.773 340.49 228.233 339.73V333.85C227.993 334.19 227.643 334.48 227.183 334.72C226.723 334.94 226.223 335.17 225.683 335.41C225.143 335.63 224.623 335.9 224.123 336.22C223.643 336.52 223.243 336.92 222.923 337.42C222.603 337.92 222.443 338.57 222.443 339.37C222.443 340.17 222.653 340.81 223.073 341.29C223.513 341.77 224.103 342.01 224.843 342.01ZM239.934 327.55V328.18C239.554 328.18 239.234 328.27 238.974 328.45C238.714 328.63 238.684 328.88 238.884 329.2L246.894 340.87C247.234 341.37 247.534 341.73 247.794 341.95C248.054 342.15 248.374 342.29 248.754 342.37V343C248.554 342.98 248.244 342.96 247.824 342.94C247.424 342.9 247.024 342.88 246.624 342.88C246.004 342.88 245.334 342.9 244.614 342.94C243.914 342.96 243.404 342.98 243.084 343V342.37C243.484 342.37 243.814 342.28 244.074 342.1C244.334 341.9 244.354 341.65 244.134 341.35L236.124 329.68C235.724 329.1 235.404 328.72 235.164 328.54C234.924 328.34 234.624 328.22 234.264 328.18V327.55C234.464 327.57 234.774 327.6 235.194 327.64C235.614 327.66 236.014 327.67 236.394 327.67C237.034 327.67 237.704 327.66 238.404 327.64C239.104 327.6 239.614 327.57 239.934 327.55ZM240.744 335.17C240.744 335.17 240.764 335.24 240.804 335.38C240.844 335.5 240.884 335.63 240.924 335.77C240.984 335.91 241.014 335.98 241.014 335.98L238.524 339.22C238.004 339.9 237.724 340.47 237.684 340.93C237.664 341.39 237.854 341.74 238.254 341.98C238.654 342.2 239.204 342.34 239.904 342.4V343C239.564 342.98 239.184 342.97 238.764 342.97C238.344 342.95 237.934 342.94 237.534 342.94C237.154 342.92 236.804 342.91 236.484 342.91C236.024 342.91 235.604 342.92 235.224 342.94C234.864 342.94 234.524 342.96 234.204 343V342.4C234.584 342.36 234.974 342.19 235.374 341.89C235.794 341.57 236.284 341.04 236.844 340.3L240.744 335.17ZM248.154 327.55V328.15C247.774 328.19 247.354 328.39 246.894 328.75C246.454 329.09 245.994 329.59 245.514 330.25L242.064 335.02C242.064 335.02 242.044 334.96 242.004 334.84C241.964 334.7 241.924 334.57 241.884 334.45C241.844 334.31 241.824 334.24 241.824 334.24L244.164 330.97C244.604 330.35 244.884 329.84 245.004 329.44C245.124 329.04 245.054 328.74 244.794 328.54C244.554 328.32 244.074 328.19 243.354 328.15V327.55C243.874 327.57 244.304 327.59 244.644 327.61C245.004 327.63 245.414 327.64 245.874 327.64C246.334 327.64 246.744 327.63 247.104 327.61C247.484 327.59 247.834 327.57 248.154 327.55ZM256.853 327.13C258.133 327.13 259.283 327.41 260.303 327.97C261.323 328.53 262.133 329.41 262.733 330.61C263.353 331.81 263.663 333.37 263.663 335.29C263.663 337.21 263.353 338.77 262.733 339.97C262.133 341.15 261.323 342.02 260.303 342.58C259.283 343.14 258.133 343.42 256.853 343.42C255.593 343.42 254.443 343.14 253.403 342.58C252.383 342.02 251.563 341.15 250.943 339.97C250.343 338.77 250.043 337.21 250.043 335.29C250.043 333.37 250.343 331.81 250.943 330.61C251.563 329.41 252.383 328.53 253.403 327.97C254.443 327.41 255.593 327.13 256.853 327.13ZM256.853 327.73C255.713 327.73 254.773 328.32 254.033 329.5C253.313 330.68 252.953 332.61 252.953 335.29C252.953 337.97 253.313 339.9 254.033 341.08C254.773 342.24 255.713 342.82 256.853 342.82C257.993 342.82 258.923 342.24 259.643 341.08C260.383 339.9 260.753 337.97 260.753 335.29C260.753 332.61 260.383 330.68 259.643 329.5C258.923 328.32 257.993 327.73 256.853 327.73ZM273.408 327.58C274.888 327.58 276.048 327.73 276.888 328.03C277.748 328.33 278.358 328.76 278.718 329.32C279.078 329.86 279.258 330.49 279.258 331.21C279.258 332.25 278.708 333.16 277.608 333.94C276.528 334.72 274.888 335.11 272.688 335.11C272.688 335.11 272.638 335.09 272.538 335.05C272.458 335.01 272.368 334.97 272.268 334.93C272.168 334.89 272.118 334.87 272.118 334.87C273.318 334.85 274.228 334.72 274.848 334.48C275.488 334.22 275.918 333.84 276.138 333.34C276.378 332.84 276.498 332.21 276.498 331.45C276.498 330.83 276.408 330.28 276.228 329.8C276.068 329.3 275.738 328.91 275.238 328.63C274.758 328.35 274.048 328.21 273.108 328.21C272.308 328.21 271.738 328.37 271.398 328.69C271.078 328.99 270.918 329.55 270.918 330.37V340.21C270.918 341.05 271.078 341.62 271.398 341.92C271.738 342.22 272.338 342.37 273.198 342.37C274.318 342.37 275.178 342.2 275.778 341.86C276.398 341.52 276.818 341.07 277.038 340.51C277.278 339.95 277.398 339.34 277.398 338.68C277.398 337.4 277.038 336.53 276.318 336.07C275.618 335.61 274.718 335.38 273.618 335.38H269.058C269.058 335.38 269.058 335.3 269.058 335.14C269.058 334.96 269.058 334.87 269.058 334.87H273.348L273.618 334.93C275.218 334.93 276.498 335.08 277.458 335.38C278.438 335.66 279.138 336.08 279.558 336.64C279.998 337.18 280.218 337.85 280.218 338.65C280.218 339.45 279.998 340.18 279.558 340.84C279.138 341.5 278.438 342.03 277.458 342.43C276.478 342.81 275.158 343 273.498 343C272.878 343 272.238 342.98 271.578 342.94C270.918 342.9 270.218 342.88 269.478 342.88C268.858 342.88 268.198 342.9 267.498 342.94C266.798 342.96 266.278 342.98 265.938 343V342.37C266.758 342.37 267.338 342.22 267.678 341.92C268.038 341.62 268.218 341.05 268.218 340.21V330.37C268.218 329.53 268.038 328.96 267.678 328.66C267.338 328.36 266.758 328.21 265.938 328.21V327.58C266.278 327.6 266.798 327.63 267.498 327.67C268.198 327.69 268.858 327.7 269.478 327.7C270.198 327.7 270.898 327.68 271.578 327.64C272.258 327.6 272.868 327.58 273.408 327.58ZM289.515 327.58V328.21C288.695 328.21 288.105 328.36 287.745 328.66C287.405 328.96 287.235 329.53 287.235 330.37V340.21C287.235 341.01 287.325 341.57 287.505 341.89C287.705 342.21 288.045 342.37 288.525 342.37C289.605 342.37 290.425 342.19 290.985 341.83C291.565 341.47 291.965 340.99 292.185 340.39C292.405 339.79 292.515 339.15 292.515 338.47C292.515 337.09 292.125 336.09 291.345 335.47C290.585 334.83 289.315 334.51 287.535 334.51C287.195 334.51 286.845 334.51 286.485 334.51C286.125 334.51 285.775 334.51 285.435 334.51L285.375 334C286.035 334 286.685 334 287.325 334C287.985 334 288.645 334 289.305 334C291.485 334 293.035 334.41 293.955 335.23C294.875 336.03 295.335 337.05 295.335 338.29C295.335 339.03 295.125 339.76 294.705 340.48C294.305 341.2 293.625 341.8 292.665 342.28C291.725 342.76 290.455 343 288.855 343C288.435 343 287.955 342.98 287.415 342.94C286.875 342.9 286.335 342.88 285.795 342.88C285.175 342.88 284.515 342.9 283.815 342.94C283.115 342.96 282.595 342.98 282.255 343V342.37C283.075 342.37 283.655 342.22 283.995 341.92C284.355 341.62 284.535 341.05 284.535 340.21V330.37C284.535 329.53 284.385 328.96 284.085 328.66C283.785 328.36 283.275 328.21 282.555 328.21V327.58C282.875 327.6 283.345 327.63 283.965 327.67C284.605 327.69 285.255 327.7 285.915 327.7C286.575 327.7 287.255 327.69 287.955 327.67C288.655 327.63 289.175 327.6 289.515 327.58ZM303.075 327.58V328.21C302.355 328.21 301.845 328.36 301.545 328.66C301.245 328.96 301.095 329.53 301.095 330.37V340.21C301.095 341.05 301.265 341.62 301.605 341.92C301.965 342.22 302.555 342.37 303.375 342.37V343C303.035 342.98 302.505 342.96 301.785 342.94C301.065 342.9 300.375 342.88 299.715 342.88C299.115 342.88 298.495 342.9 297.855 342.94C297.215 342.96 296.735 342.98 296.415 343V342.37C297.135 342.37 297.645 342.22 297.945 341.92C298.245 341.62 298.395 341.05 298.395 340.21V330.37C298.395 329.53 298.245 328.96 297.945 328.66C297.645 328.36 297.135 328.21 296.415 328.21V327.58C296.735 327.6 297.215 327.63 297.855 327.67C298.495 327.69 299.115 327.7 299.715 327.7C300.375 327.7 301.015 327.69 301.635 327.67C302.275 327.63 302.755 327.6 303.075 327.58ZM312.34 327.13C314.1 327.13 315.47 327.67 316.45 328.75C317.45 329.81 317.95 331.47 317.95 333.73H307.36L307.33 333.16H315.07C315.11 332.18 315.03 331.28 314.83 330.46C314.63 329.62 314.31 328.95 313.87 328.45C313.45 327.95 312.9 327.7 312.22 327.7C311.3 327.7 310.48 328.16 309.76 329.08C309.06 330 308.64 331.46 308.5 333.46L308.59 333.58C308.55 333.88 308.52 334.21 308.5 334.57C308.48 334.93 308.47 335.29 308.47 335.65C308.47 337.01 308.69 338.18 309.13 339.16C309.57 340.14 310.14 340.89 310.84 341.41C311.56 341.91 312.3 342.16 313.06 342.16C313.66 342.16 314.23 342.07 314.77 341.89C315.31 341.69 315.81 341.37 316.27 340.93C316.73 340.49 317.13 339.9 317.47 339.16L318.07 339.4C317.85 340.06 317.49 340.7 316.99 341.32C316.49 341.94 315.86 342.45 315.1 342.85C314.34 343.23 313.46 343.42 312.46 343.42C311.02 343.42 309.78 343.09 308.74 342.43C307.72 341.77 306.93 340.86 306.37 339.7C305.83 338.52 305.56 337.17 305.56 335.65C305.56 333.89 305.84 332.38 306.4 331.12C306.96 329.84 307.75 328.86 308.77 328.18C309.79 327.48 310.98 327.13 312.34 327.13ZM335.166 327.58C336.646 327.58 337.806 327.73 338.646 328.03C339.506 328.33 340.116 328.76 340.476 329.32C340.836 329.86 341.016 330.49 341.016 331.21C341.016 332.25 340.466 333.16 339.366 333.94C338.286 334.72 336.646 335.11 334.446 335.11C334.446 335.11 334.396 335.09 334.296 335.05C334.216 335.01 334.126 334.97 334.026 334.93C333.926 334.89 333.876 334.87 333.876 334.87C335.076 334.85 335.986 334.72 336.606 334.48C337.246 334.22 337.676 333.84 337.896 333.34C338.136 332.84 338.256 332.21 338.256 331.45C338.256 330.83 338.166 330.28 337.986 329.8C337.826 329.3 337.496 328.91 336.996 328.63C336.516 328.35 335.806 328.21 334.866 328.21C334.066 328.21 333.496 328.37 333.156 328.69C332.836 328.99 332.676 329.55 332.676 330.37V340.21C332.676 341.05 332.836 341.62 333.156 341.92C333.496 342.22 334.096 342.37 334.956 342.37C336.076 342.37 336.936 342.2 337.536 341.86C338.156 341.52 338.576 341.07 338.796 340.51C339.036 339.95 339.156 339.34 339.156 338.68C339.156 337.4 338.796 336.53 338.076 336.07C337.376 335.61 336.476 335.38 335.376 335.38H330.816C330.816 335.38 330.816 335.3 330.816 335.14C330.816 334.96 330.816 334.87 330.816 334.87H335.106L335.376 334.93C336.976 334.93 338.256 335.08 339.216 335.38C340.196 335.66 340.896 336.08 341.316 336.64C341.756 337.18 341.976 337.85 341.976 338.65C341.976 339.45 341.756 340.18 341.316 340.84C340.896 341.5 340.196 342.03 339.216 342.43C338.236 342.81 336.916 343 335.256 343C334.636 343 333.996 342.98 333.336 342.94C332.676 342.9 331.976 342.88 331.236 342.88C330.616 342.88 329.956 342.9 329.256 342.94C328.556 342.96 328.036 342.98 327.696 343V342.37C328.516 342.37 329.096 342.22 329.436 341.92C329.796 341.62 329.976 341.05 329.976 340.21V330.37C329.976 329.53 329.796 328.96 329.436 328.66C329.096 328.36 328.516 328.21 327.696 328.21V327.58C328.036 327.6 328.556 327.63 329.256 327.67C329.956 327.69 330.616 327.7 331.236 327.7C331.956 327.7 332.656 327.68 333.336 327.64C334.016 327.6 334.626 327.58 335.166 327.58ZM350.733 327.13C351.633 327.13 352.413 327.28 353.073 327.58C353.733 327.88 354.243 328.29 354.603 328.81C354.963 329.33 355.143 329.94 355.143 330.64C355.143 331.46 354.903 332.15 354.423 332.71C353.943 333.25 353.353 333.69 352.653 334.03C351.953 334.35 351.263 334.59 350.583 334.75C351.683 334.79 352.633 334.97 353.433 335.29C354.253 335.59 354.883 336.03 355.323 336.61C355.783 337.17 356.013 337.88 356.013 338.74C356.013 339.7 355.713 340.53 355.113 341.23C354.513 341.93 353.713 342.47 352.713 342.85C351.733 343.23 350.673 343.42 349.533 343.42C348.673 343.42 347.923 343.31 347.283 343.09C346.663 342.89 346.123 342.64 345.663 342.34C345.263 342.06 344.923 341.75 344.643 341.41C344.383 341.07 344.253 340.68 344.253 340.24C344.253 339.76 344.403 339.37 344.703 339.07C345.003 338.77 345.383 338.62 345.843 338.62C346.303 338.62 346.693 338.76 347.013 339.04C347.333 339.32 347.493 339.72 347.493 340.24C347.493 340.66 347.373 341 347.133 341.26C346.913 341.52 346.613 341.69 346.233 341.77C346.413 342.07 346.843 342.34 347.523 342.58C348.203 342.8 348.883 342.91 349.563 342.91C350.783 342.91 351.703 342.54 352.323 341.8C352.943 341.06 353.253 340.12 353.253 338.98C353.253 337.86 352.973 336.93 352.413 336.19C351.873 335.43 351.103 335.04 350.103 335.02C349.903 335.12 349.693 335.21 349.473 335.29C349.273 335.37 349.063 335.41 348.843 335.41C348.403 335.41 348.183 335.24 348.183 334.9C348.183 334.58 348.413 334.42 348.873 334.42C349.073 334.42 349.283 334.44 349.503 334.48C349.723 334.52 349.933 334.56 350.133 334.6C351.053 334.32 351.673 333.85 351.993 333.19C352.313 332.53 352.473 331.8 352.473 331C352.473 330.02 352.283 329.23 351.903 328.63C351.523 328.01 350.933 327.7 350.133 327.7C349.413 327.7 348.723 327.92 348.063 328.36C347.403 328.78 346.863 329.38 346.443 330.16C346.043 330.94 345.853 331.85 345.873 332.89H345.183C345.223 331.93 345.233 331.1 345.213 330.4C345.193 329.68 345.163 329.07 345.123 328.57C345.103 328.07 345.073 327.67 345.033 327.37H345.723C345.783 327.81 345.853 328.14 345.933 328.36C346.033 328.58 346.183 328.69 346.383 328.69C346.503 328.69 346.643 328.64 346.803 328.54C346.983 328.44 347.183 328.32 347.403 328.18C347.763 327.94 348.193 327.71 348.693 327.49C349.213 327.25 349.893 327.13 350.733 327.13ZM374.667 327.58V328.21C373.847 328.21 373.257 328.36 372.897 328.66C372.557 328.96 372.387 329.53 372.387 330.37V340.21C372.387 341.05 372.557 341.62 372.897 341.92C373.257 342.22 373.847 342.37 374.667 342.37V343C374.327 342.98 373.807 342.96 373.107 342.94C372.407 342.9 371.727 342.88 371.067 342.88C370.407 342.88 369.757 342.9 369.117 342.94C368.497 342.96 368.027 342.98 367.707 343V342.37C368.427 342.37 368.937 342.22 369.237 341.92C369.537 341.62 369.687 341.05 369.687 340.21V330.37C369.687 329.53 369.537 328.96 369.237 328.66C368.937 328.36 368.427 328.21 367.707 328.21V327.58C368.027 327.6 368.497 327.63 369.117 327.67C369.757 327.69 370.407 327.7 371.067 327.7C371.727 327.7 372.407 327.69 373.107 327.67C373.807 327.63 374.327 327.6 374.667 327.58ZM365.037 327.58V328.21C364.317 328.21 363.807 328.36 363.507 328.66C363.207 328.96 363.057 329.53 363.057 330.37V340.21C363.057 341.05 363.207 341.62 363.507 341.92C363.807 342.22 364.317 342.37 365.037 342.37V343C364.717 342.98 364.237 342.96 363.597 342.94C362.977 342.9 362.337 342.88 361.677 342.88C361.017 342.88 360.337 342.9 359.637 342.94C358.937 342.96 358.417 342.98 358.077 343V342.37C358.897 342.37 359.477 342.22 359.817 341.92C360.177 341.62 360.357 341.05 360.357 340.21V330.37C360.357 329.53 360.177 328.96 359.817 328.66C359.477 328.36 358.897 328.21 358.077 328.21V327.58C358.417 327.6 358.937 327.63 359.637 327.67C360.337 327.69 361.017 327.7 361.677 327.7C362.337 327.7 362.977 327.69 363.597 327.67C364.237 327.63 364.717 327.6 365.037 327.58ZM370.527 334.75V335.35H362.067V334.75H370.527ZM383.767 327.13C385.047 327.13 386.197 327.41 387.217 327.97C388.237 328.53 389.047 329.41 389.647 330.61C390.267 331.81 390.577 333.37 390.577 335.29C390.577 337.21 390.267 338.77 389.647 339.97C389.047 341.15 388.237 342.02 387.217 342.58C386.197 343.14 385.047 343.42 383.767 343.42C382.507 343.42 381.357 343.14 380.317 342.58C379.297 342.02 378.477 341.15 377.857 339.97C377.257 338.77 376.957 337.21 376.957 335.29C376.957 333.37 377.257 331.81 377.857 330.61C378.477 329.41 379.297 328.53 380.317 327.97C381.357 327.41 382.507 327.13 383.767 327.13ZM383.767 327.73C382.627 327.73 381.687 328.32 380.947 329.5C380.227 330.68 379.867 332.61 379.867 335.29C379.867 337.97 380.227 339.9 380.947 341.08C381.687 342.24 382.627 342.82 383.767 342.82C384.907 342.82 385.837 342.24 386.557 341.08C387.297 339.9 387.667 337.97 387.667 335.29C387.667 332.61 387.297 330.68 386.557 329.5C385.837 328.32 384.907 327.73 383.767 327.73ZM400.352 327.13C400.992 327.13 401.612 327.21 402.212 327.37C402.812 327.53 403.352 327.77 403.832 328.09C404.292 328.39 404.642 328.74 404.882 329.14C405.122 329.52 405.242 329.94 405.242 330.4C405.242 330.94 405.092 331.36 404.792 331.66C404.492 331.94 404.112 332.08 403.652 332.08C403.212 332.08 402.822 331.95 402.482 331.69C402.162 331.43 402.002 331.06 402.002 330.58C402.002 330.12 402.122 329.75 402.362 329.47C402.622 329.19 402.922 329.01 403.262 328.93C403.062 328.57 402.702 328.27 402.182 328.03C401.682 327.79 401.142 327.67 400.562 327.67C400.062 327.67 399.562 327.79 399.062 328.03C398.562 328.27 398.102 328.67 397.682 329.23C397.262 329.77 396.922 330.52 396.662 331.48C396.402 332.42 396.272 333.6 396.272 335.02C396.272 336.78 396.472 338.18 396.872 339.22C397.272 340.26 397.792 341.01 398.432 341.47C399.092 341.91 399.812 342.13 400.592 342.13C401.112 342.13 401.642 342.03 402.182 341.83C402.722 341.63 403.232 341.31 403.712 340.87C404.192 340.41 404.602 339.8 404.942 339.04L405.512 339.25C405.312 339.89 404.982 340.54 404.522 341.2C404.062 341.84 403.462 342.37 402.722 342.79C401.982 343.21 401.072 343.42 399.992 343.42C398.752 343.42 397.632 343.1 396.632 342.46C395.632 341.82 394.832 340.91 394.232 339.73C393.652 338.53 393.362 337.11 393.362 335.47C393.362 333.83 393.652 332.39 394.232 331.15C394.832 329.89 395.662 328.91 396.722 328.21C397.782 327.49 398.992 327.13 400.352 327.13ZM414.642 327.58V328.21C413.822 328.21 413.232 328.36 412.872 328.66C412.532 328.96 412.362 329.53 412.362 330.37V340.21C412.362 341.01 412.452 341.57 412.632 341.89C412.832 342.21 413.172 342.37 413.652 342.37C414.732 342.37 415.552 342.19 416.112 341.83C416.692 341.47 417.092 340.99 417.312 340.39C417.532 339.79 417.642 339.15 417.642 338.47C417.642 337.09 417.252 336.09 416.472 335.47C415.712 334.83 414.442 334.51 412.662 334.51C412.322 334.51 411.972 334.51 411.612 334.51C411.252 334.51 410.902 334.51 410.562 334.51L410.502 334C411.162 334 411.812 334 412.452 334C413.112 334 413.772 334 414.432 334C416.612 334 418.162 334.41 419.082 335.23C420.002 336.03 420.462 337.05 420.462 338.29C420.462 339.03 420.252 339.76 419.832 340.48C419.432 341.2 418.752 341.8 417.792 342.28C416.852 342.76 415.582 343 413.982 343C413.562 343 413.082 342.98 412.542 342.94C412.002 342.9 411.462 342.88 410.922 342.88C410.302 342.88 409.642 342.9 408.942 342.94C408.242 342.96 407.722 342.98 407.382 343V342.37C408.202 342.37 408.782 342.22 409.122 341.92C409.482 341.62 409.662 341.05 409.662 340.21V330.37C409.662 329.53 409.512 328.96 409.212 328.66C408.912 328.36 408.402 328.21 407.682 328.21V327.58C408.002 327.6 408.472 327.63 409.092 327.67C409.732 327.69 410.382 327.7 411.042 327.7C411.702 327.7 412.382 327.69 413.082 327.67C413.782 327.63 414.302 327.6 414.642 327.58ZM428.202 327.58V328.21C427.482 328.21 426.972 328.36 426.672 328.66C426.372 328.96 426.222 329.53 426.222 330.37V340.21C426.222 341.05 426.392 341.62 426.732 341.92C427.092 342.22 427.682 342.37 428.502 342.37V343C428.162 342.98 427.632 342.96 426.912 342.94C426.192 342.9 425.502 342.88 424.842 342.88C424.242 342.88 423.622 342.9 422.982 342.94C422.342 342.96 421.862 342.98 421.542 343V342.37C422.262 342.37 422.772 342.22 423.072 341.92C423.372 341.62 423.522 341.05 423.522 340.21V330.37C423.522 329.53 423.372 328.96 423.072 328.66C422.772 328.36 422.262 328.21 421.542 328.21V327.58C421.862 327.6 422.342 327.63 422.982 327.67C423.622 327.69 424.242 327.7 424.842 327.7C425.502 327.7 426.142 327.69 426.762 327.67C427.402 327.63 427.882 327.6 428.202 327.58Z" fill="#BBB5C4"/>
<path d="M172.04 361.2H181.184V362.976H174.032V368.472H180.584V370.248H174.032V376.224H181.304V378H172.04V361.2ZM192.899 377.208C192.419 377.56 191.851 377.824 191.195 378C190.539 378.192 189.851 378.288 189.131 378.288C188.203 378.288 187.419 378.144 186.779 377.856C186.139 377.552 185.611 377.128 185.195 376.584C184.795 376.024 184.499 375.36 184.307 374.592C184.131 373.808 184.043 372.944 184.043 372C184.043 369.968 184.491 368.416 185.387 367.344C186.283 366.256 187.571 365.712 189.251 365.712C190.019 365.712 190.667 365.776 191.195 365.904C191.739 366.016 192.227 366.184 192.659 366.408L192.107 368.064C191.739 367.856 191.331 367.696 190.883 367.584C190.435 367.456 189.955 367.392 189.443 367.392C187.171 367.392 186.035 368.928 186.035 372C186.035 372.608 186.091 373.192 186.203 373.752C186.331 374.296 186.531 374.784 186.803 375.216C187.091 375.632 187.459 375.968 187.907 376.224C188.371 376.48 188.939 376.608 189.611 376.608C190.187 376.608 190.699 376.52 191.147 376.344C191.611 376.168 191.987 375.968 192.275 375.744L192.899 377.208ZM201.976 367.68H198.496C198.448 368.352 198.4 369.08 198.352 369.864C198.304 370.632 198.232 371.408 198.136 372.192C198.04 372.96 197.912 373.704 197.752 374.424C197.592 375.128 197.384 375.752 197.128 376.296C196.888 376.84 196.584 377.28 196.216 377.616C195.864 377.936 195.44 378.096 194.944 378.096C194.64 378.096 194.376 378.08 194.152 378.048C193.928 378.016 193.728 377.96 193.552 377.88L193.84 376.272C194.032 376.336 194.24 376.368 194.464 376.368C194.784 376.368 195.072 376.232 195.328 375.96C195.584 375.688 195.808 375.176 196 374.424C196.192 373.656 196.352 372.6 196.48 371.256C196.608 369.912 196.696 368.16 196.744 366H203.896V378H201.976V367.68ZM215.078 370.896L215.15 369.408H215.078L214.094 370.944L208.694 378H207.59V366H209.51V373.32L209.438 374.736H209.534L210.47 373.248L215.87 366H216.998V378H215.078V370.896ZM227.09 366.024C227.65 365.992 228.234 365.952 228.842 365.904C229.466 365.856 230.234 365.832 231.146 365.832C232.73 365.832 233.866 366.08 234.554 366.576C235.242 367.056 235.586 367.792 235.586 368.784C235.586 369.344 235.418 369.896 235.082 370.44C234.762 370.968 234.226 371.36 233.474 371.616V371.712C234.418 371.888 235.082 372.216 235.466 372.696C235.85 373.176 236.042 373.816 236.042 374.616C236.042 375.864 235.594 376.768 234.698 377.328C233.802 377.888 232.458 378.168 230.666 378.168C229.994 378.168 229.37 378.144 228.794 378.096C228.218 378.064 227.65 378.024 227.09 377.976V366.024ZM229.01 376.392C229.314 376.424 229.61 376.448 229.898 376.464C230.202 376.48 230.554 376.488 230.954 376.488C232.026 376.488 232.818 376.336 233.33 376.032C233.858 375.728 234.122 375.208 234.122 374.472C234.122 373.896 233.898 373.432 233.45 373.08C233.018 372.712 232.242 372.528 231.122 372.528H229.01V376.392ZM231.362 371.064C231.65 371.064 231.93 371.016 232.202 370.92C232.474 370.824 232.714 370.696 232.922 370.536C233.146 370.36 233.322 370.16 233.45 369.936C233.594 369.712 233.666 369.472 233.666 369.216C233.666 368.576 233.474 368.136 233.09 367.896C232.706 367.64 232.034 367.512 231.074 367.512C230.562 367.512 230.154 367.52 229.85 367.536C229.562 367.552 229.282 367.568 229.01 367.584V371.064H231.362ZM240.987 376.32C241.579 376.416 242.147 376.464 242.691 376.464C243.699 376.464 244.403 376.272 244.803 375.888C245.203 375.488 245.403 374.928 245.403 374.208C245.403 373.568 245.203 373.04 244.803 372.624C244.419 372.208 243.739 372 242.763 372C242.491 372 242.195 372.008 241.875 372.024C241.555 372.04 241.259 372.088 240.987 372.168V376.32ZM240.987 370.584C241.371 370.52 241.739 370.48 242.091 370.464C242.443 370.432 242.779 370.416 243.099 370.416C243.915 370.416 244.595 370.512 245.139 370.704C245.699 370.88 246.147 371.128 246.483 371.448C246.819 371.768 247.051 372.152 247.179 372.6C247.323 373.032 247.395 373.496 247.395 373.992C247.395 375.448 246.987 376.504 246.171 377.16C245.371 377.816 244.067 378.144 242.259 378.144C241.235 378.144 240.171 378.096 239.067 378V366H240.987V370.584ZM249.291 366H251.211V378H249.291V366ZM256.015 368.136C256.543 367.368 257.127 366.832 257.767 366.528C258.407 366.208 259.207 366.048 260.167 366.048C261.639 366.048 262.767 366.528 263.551 367.488C264.351 368.448 264.751 369.864 264.751 371.736C264.751 373.896 264.287 375.528 263.359 376.632C262.447 377.736 261.167 378.288 259.519 378.288C257.759 378.288 256.439 377.68 255.559 376.464C254.679 375.248 254.239 373.336 254.239 370.728C254.239 369.352 254.303 368.176 254.431 367.2C254.575 366.224 254.775 365.4 255.031 364.728C255.303 364.056 255.623 363.52 255.991 363.12C256.375 362.72 256.799 362.408 257.263 362.184C257.743 361.944 258.263 361.776 258.823 361.68C259.383 361.584 259.983 361.504 260.623 361.44C261.455 361.36 262.103 361.272 262.567 361.176C263.047 361.064 263.431 360.872 263.719 360.6L263.935 362.328C263.775 362.472 263.599 362.592 263.407 362.688C263.215 362.784 262.983 362.864 262.711 362.928C262.439 362.992 262.111 363.048 261.727 363.096C261.359 363.144 260.927 363.184 260.431 363.216C259.743 363.264 259.135 363.352 258.607 363.48C258.095 363.592 257.647 363.824 257.263 364.176C256.895 364.512 256.599 365 256.375 365.64C256.167 366.264 256.023 367.096 255.943 368.136H256.015ZM256.23 372.024C256.23 372.632 256.294 373.216 256.423 373.776C256.551 374.336 256.743 374.832 256.999 375.264C257.271 375.68 257.615 376.008 258.031 376.248C258.447 376.488 258.935 376.608 259.495 376.608C260.599 376.608 261.415 376.216 261.943 375.432C262.487 374.632 262.759 373.456 262.759 371.904C262.759 371.296 262.703 370.736 262.591 370.224C262.479 369.712 262.303 369.272 262.063 368.904C261.823 368.52 261.519 368.232 261.151 368.04C260.783 367.832 260.343 367.728 259.831 367.728C258.583 367.712 257.671 368.08 257.095 368.832C256.519 369.568 256.23 370.632 256.23 372.024ZM267.778 366H269.098L269.458 367.44H269.554C269.922 366.88 270.394 366.456 270.97 366.168C271.562 365.864 272.234 365.712 272.986 365.712C274.586 365.712 275.778 366.184 276.562 367.128C277.346 368.072 277.738 369.616 277.738 371.76C277.738 372.768 277.602 373.68 277.33 374.496C277.074 375.296 276.706 375.976 276.226 376.536C275.746 377.096 275.162 377.528 274.474 377.832C273.802 378.136 273.05 378.288 272.218 378.288C271.626 378.288 271.154 378.248 270.802 378.168C270.466 378.104 270.098 377.984 269.698 377.808V382.8H267.778V366ZM272.626 367.392C271.81 367.392 271.162 367.608 270.682 368.04C270.218 368.456 269.89 369.096 269.698 369.96V375.912C269.986 376.136 270.314 376.312 270.682 376.44C271.05 376.552 271.538 376.608 272.146 376.608C273.25 376.608 274.122 376.2 274.762 375.384C275.418 374.552 275.746 373.336 275.746 371.736C275.746 371.08 275.69 370.488 275.578 369.96C275.466 369.416 275.282 368.96 275.026 368.592C274.786 368.208 274.466 367.912 274.066 367.704C273.682 367.496 273.202 367.392 272.626 367.392ZM280.57 366.888C281.178 366.52 281.882 366.248 282.682 366.072C283.498 365.896 284.346 365.808 285.226 365.808C286.058 365.808 286.722 365.92 287.218 366.144C287.73 366.368 288.114 366.664 288.37 367.032C288.642 367.384 288.818 367.776 288.898 368.208C288.994 368.64 289.042 369.072 289.042 369.504C289.042 370.464 289.018 371.4 288.97 372.312C288.922 373.224 288.898 374.088 288.898 374.904C288.898 375.496 288.922 376.056 288.97 376.584C289.018 377.112 289.106 377.6 289.234 378.048H287.818L287.314 376.368H287.194C287.05 376.592 286.866 376.816 286.642 377.04C286.434 377.248 286.178 377.44 285.874 377.616C285.57 377.776 285.218 377.912 284.818 378.024C284.418 378.136 283.962 378.192 283.45 378.192C282.938 378.192 282.458 378.112 282.01 377.952C281.578 377.792 281.202 377.568 280.882 377.28C280.562 376.976 280.306 376.616 280.114 376.2C279.938 375.784 279.85 375.312 279.85 374.784C279.85 374.08 279.994 373.496 280.282 373.032C280.57 372.552 280.97 372.176 281.482 371.904C282.01 371.616 282.634 371.416 283.354 371.304C284.09 371.176 284.898 371.112 285.778 371.112C286.002 371.112 286.218 371.112 286.426 371.112C286.65 371.112 286.874 371.128 287.098 371.16C287.146 370.68 287.17 370.248 287.17 369.864C287.17 368.984 286.994 368.368 286.642 368.016C286.29 367.664 285.65 367.488 284.722 367.488C284.45 367.488 284.154 367.512 283.834 367.56C283.53 367.592 283.21 367.648 282.874 367.728C282.554 367.792 282.242 367.88 281.938 367.992C281.65 368.088 281.394 368.2 281.17 368.328L280.57 366.888ZM283.978 376.512C284.426 376.512 284.826 376.456 285.178 376.344C285.53 376.216 285.834 376.064 286.09 375.888C286.346 375.696 286.554 375.488 286.714 375.264C286.89 375.04 287.018 374.824 287.098 374.616V372.624C286.874 372.608 286.642 372.6 286.402 372.6C286.178 372.584 285.954 372.576 285.73 372.576C285.234 372.576 284.746 372.608 284.266 372.672C283.802 372.72 283.386 372.824 283.018 372.984C282.666 373.128 282.378 373.336 282.154 373.608C281.946 373.864 281.842 374.192 281.842 374.592C281.842 375.152 282.042 375.616 282.442 375.984C282.842 376.336 283.354 376.512 283.978 376.512ZM300.324 367.68H296.556V378H294.636V367.68H290.868V366H300.324V367.68ZM304.151 376.32C304.743 376.416 305.311 376.464 305.855 376.464C306.863 376.464 307.607 376.272 308.087 375.888C308.567 375.488 308.807 374.928 308.807 374.208C308.807 373.568 308.575 373.04 308.111 372.624C307.647 372.208 306.919 372 305.927 372C305.655 372 305.359 372.008 305.039 372.024C304.719 372.04 304.423 372.088 304.151 372.168V376.32ZM304.151 370.584C304.535 370.52 304.903 370.48 305.255 370.464C305.607 370.432 305.943 370.416 306.263 370.416C307.095 370.416 307.799 370.512 308.375 370.704C308.951 370.88 309.415 371.128 309.767 371.448C310.135 371.768 310.399 372.152 310.559 372.6C310.719 373.032 310.799 373.496 310.799 373.992C310.799 375.448 310.359 376.504 309.479 377.16C308.615 377.816 307.263 378.144 305.423 378.144C304.399 378.144 303.335 378.096 302.231 378V366H304.151V370.584ZM171.656 397.888C172.264 397.52 172.968 397.248 173.768 397.072C174.584 396.896 175.432 396.808 176.312 396.808C177.144 396.808 177.808 396.92 178.304 397.144C178.816 397.368 179.2 397.664 179.456 398.032C179.728 398.384 179.904 398.776 179.984 399.208C180.08 399.64 180.128 400.072 180.128 400.504C180.128 401.464 180.104 402.4 180.056 403.312C180.008 404.224 179.984 405.088 179.984 405.904C179.984 406.496 180.008 407.056 180.056 407.584C180.104 408.112 180.192 408.6 180.32 409.048H178.904L178.4 407.368H178.28C178.136 407.592 177.952 407.816 177.728 408.04C177.52 408.248 177.264 408.44 176.96 408.616C176.656 408.776 176.304 408.912 175.904 409.024C175.504 409.136 175.048 409.192 174.536 409.192C174.024 409.192 173.544 409.112 173.096 408.952C172.664 408.792 172.288 408.568 171.968 408.28C171.648 407.976 171.392 407.616 171.2 407.2C171.024 406.784 170.936 406.312 170.936 405.784C170.936 405.08 171.08 404.496 171.368 404.032C171.656 403.552 172.056 403.176 172.568 402.904C173.096 402.616 173.72 402.416 174.44 402.304C175.176 402.176 175.984 402.112 176.864 402.112C177.088 402.112 177.304 402.112 177.512 402.112C177.736 402.112 177.96 402.128 178.184 402.16C178.232 401.68 178.256 401.248 178.256 400.864C178.256 399.984 178.08 399.368 177.728 399.016C177.376 398.664 176.736 398.488 175.808 398.488C175.536 398.488 175.24 398.512 174.92 398.56C174.616 398.592 174.296 398.648 173.96 398.728C173.64 398.792 173.328 398.88 173.024 398.992C172.736 399.088 172.48 399.2 172.256 399.328L171.656 397.888ZM175.064 407.512C175.512 407.512 175.912 407.456 176.264 407.344C176.616 407.216 176.92 407.064 177.176 406.888C177.432 406.696 177.64 406.488 177.8 406.264C177.976 406.04 178.104 405.824 178.184 405.616V403.624C177.96 403.608 177.728 403.6 177.488 403.6C177.264 403.584 177.04 403.576 176.816 403.576C176.32 403.576 175.832 403.608 175.352 403.672C174.888 403.72 174.472 403.824 174.104 403.984C173.752 404.128 173.464 404.336 173.24 404.608C173.032 404.864 172.928 405.192 172.928 405.592C172.928 406.152 173.128 406.616 173.528 406.984C173.928 407.336 174.44 407.512 175.064 407.512ZM187.282 404.776L187.954 407.08H188.074L188.602 404.752L190.93 397H192.874L189.322 407.776C189.05 408.56 188.778 409.32 188.506 410.056C188.25 410.792 187.962 411.448 187.642 412.024C187.322 412.6 186.962 413.056 186.562 413.392C186.162 413.744 185.698 413.92 185.17 413.92C184.594 413.92 184.122 413.84 183.754 413.68L184.09 412.024C184.298 412.104 184.498 412.144 184.69 412.144C185.138 412.144 185.57 411.904 185.986 411.424C186.402 410.96 186.746 410.152 187.018 409L182.194 397H184.402L187.282 404.776ZM202.59 398.68H198.822V409H196.902V398.68H193.134V397H202.59V398.68ZM212.305 408.208C211.825 408.56 211.257 408.824 210.601 409C209.945 409.192 209.257 409.288 208.537 409.288C207.609 409.288 206.825 409.144 206.185 408.856C205.545 408.552 205.017 408.128 204.601 407.584C204.201 407.024 203.905 406.36 203.713 405.592C203.537 404.808 203.449 403.944 203.449 403C203.449 400.968 203.897 399.416 204.793 398.344C205.689 397.256 206.977 396.712 208.657 396.712C209.425 396.712 210.073 396.776 210.601 396.904C211.145 397.016 211.633 397.184 212.065 397.408L211.513 399.064C211.145 398.856 210.737 398.696 210.289 398.584C209.841 398.456 209.361 398.392 208.849 398.392C206.577 398.392 205.441 399.928 205.441 403C205.441 403.608 205.497 404.192 205.609 404.752C205.737 405.296 205.937 405.784 206.209 406.216C206.497 406.632 206.865 406.968 207.313 407.224C207.777 407.48 208.345 407.608 209.017 407.608C209.593 407.608 210.105 407.52 210.553 407.344C211.017 407.168 211.393 406.968 211.681 406.744L212.305 408.208ZM213.715 403C213.715 400.968 214.163 399.416 215.059 398.344C215.971 397.256 217.275 396.712 218.971 396.712C219.867 396.712 220.643 396.864 221.299 397.168C221.971 397.456 222.523 397.88 222.955 398.44C223.387 398.984 223.707 399.648 223.915 400.432C224.123 401.2 224.227 402.056 224.227 403C224.227 405.032 223.771 406.592 222.859 407.68C221.963 408.752 220.667 409.288 218.971 409.288C218.075 409.288 217.291 409.144 216.619 408.856C215.963 408.552 215.419 408.128 214.987 407.584C214.555 407.024 214.235 406.36 214.027 405.592C213.819 404.808 213.715 403.944 213.715 403ZM215.707 403C215.707 403.608 215.763 404.192 215.875 404.752C216.003 405.312 216.195 405.8 216.451 406.216C216.707 406.632 217.043 406.968 217.459 407.224C217.875 407.48 218.379 407.608 218.971 407.608C221.147 407.624 222.235 406.088 222.235 403C222.235 402.376 222.171 401.784 222.043 401.224C221.931 400.664 221.747 400.176 221.491 399.76C221.235 399.344 220.899 399.016 220.483 398.776C220.067 398.52 219.563 398.392 218.971 398.392C216.795 398.376 215.707 399.912 215.707 403ZM227.254 397H228.574L228.934 398.44H229.03C229.398 397.88 229.87 397.456 230.446 397.168C231.038 396.864 231.71 396.712 232.462 396.712C234.062 396.712 235.254 397.184 236.038 398.128C236.822 399.072 237.214 400.616 237.214 402.76C237.214 403.768 237.078 404.68 236.806 405.496C236.55 406.296 236.182 406.976 235.702 407.536C235.222 408.096 234.638 408.528 233.95 408.832C233.278 409.136 232.526 409.288 231.694 409.288C231.102 409.288 230.63 409.248 230.278 409.168C229.942 409.104 229.574 408.984 229.174 408.808V413.8H227.254V397ZM232.102 398.392C231.286 398.392 230.638 398.608 230.158 399.04C229.694 399.456 229.366 400.096 229.174 400.96V406.912C229.462 407.136 229.79 407.312 230.158 407.44C230.526 407.552 231.014 407.608 231.622 407.608C232.726 407.608 233.598 407.2 234.238 406.384C234.894 405.552 235.222 404.336 235.222 402.736C235.222 402.08 235.166 401.488 235.054 400.96C234.942 400.416 234.758 399.96 234.502 399.592C234.262 399.208 233.942 398.912 233.542 398.704C233.158 398.496 232.678 398.392 232.102 398.392ZM248.423 408.208C247.943 408.56 247.375 408.824 246.719 409C246.063 409.192 245.375 409.288 244.655 409.288C243.727 409.288 242.943 409.144 242.303 408.856C241.663 408.552 241.135 408.128 240.719 407.584C240.319 407.024 240.023 406.36 239.831 405.592C239.655 404.808 239.567 403.944 239.567 403C239.567 400.968 240.015 399.416 240.911 398.344C241.807 397.256 243.095 396.712 244.775 396.712C245.543 396.712 246.191 396.776 246.719 396.904C247.263 397.016 247.751 397.184 248.183 397.408L247.631 399.064C247.263 398.856 246.855 398.696 246.407 398.584C245.959 398.456 245.479 398.392 244.967 398.392C242.695 398.392 241.559 399.928 241.559 403C241.559 403.608 241.615 404.192 241.727 404.752C241.855 405.296 242.055 405.784 242.327 406.216C242.615 406.632 242.983 406.968 243.431 407.224C243.895 407.48 244.463 407.608 245.135 407.608C245.711 407.608 246.223 407.52 246.671 407.344C247.135 407.168 247.511 406.968 247.799 406.744L248.423 408.208ZM258.555 401.896L258.627 400.408H258.555L257.571 401.944L252.171 409H251.067V397H252.987V404.32L252.915 405.736H253.011L253.947 404.248L259.347 397H260.475V409H258.555V401.896ZM271.512 403.696H266.088V409H264.168V397H266.088V402.016H271.512V397H273.432V409H271.512V403.696ZM284.137 398.68H279.049V409H277.129V397H284.137V398.68ZM284.942 403C284.942 400.968 285.39 399.416 286.286 398.344C287.198 397.256 288.502 396.712 290.198 396.712C291.094 396.712 291.87 396.864 292.526 397.168C293.198 397.456 293.75 397.88 294.182 398.44C294.614 398.984 294.934 399.648 295.142 400.432C295.35 401.2 295.454 402.056 295.454 403C295.454 405.032 294.998 406.592 294.086 407.68C293.19 408.752 291.894 409.288 290.198 409.288C289.302 409.288 288.518 409.144 287.846 408.856C287.19 408.552 286.646 408.128 286.214 407.584C285.782 407.024 285.462 406.36 285.254 405.592C285.046 404.808 284.942 403.944 284.942 403ZM286.934 403C286.934 403.608 286.99 404.192 287.102 404.752C287.23 405.312 287.422 405.8 287.678 406.216C287.934 406.632 288.27 406.968 288.686 407.224C289.102 407.48 289.606 407.608 290.198 407.608C292.374 407.624 293.462 406.088 293.462 403C293.462 402.376 293.398 401.784 293.27 401.224C293.158 400.664 292.974 400.176 292.718 399.76C292.462 399.344 292.126 399.016 291.71 398.776C291.294 398.52 290.79 398.392 290.198 398.392C288.022 398.376 286.934 399.912 286.934 403ZM298.481 397.024C299.041 396.992 299.625 396.952 300.233 396.904C300.857 396.856 301.625 396.832 302.537 396.832C304.121 396.832 305.257 397.08 305.945 397.576C306.633 398.056 306.977 398.792 306.977 399.784C306.977 400.344 306.809 400.896 306.473 401.44C306.153 401.968 305.617 402.36 304.865 402.616V402.712C305.809 402.888 306.473 403.216 306.857 403.696C307.241 404.176 307.433 404.816 307.433 405.616C307.433 406.864 306.985 407.768 306.089 408.328C305.193 408.888 303.849 409.168 302.057 409.168C301.385 409.168 300.761 409.144 300.185 409.096C299.609 409.064 299.041 409.024 298.481 408.976V397.024ZM300.401 407.392C300.705 407.424 301.001 407.448 301.289 407.464C301.593 407.48 301.945 407.488 302.345 407.488C303.417 407.488 304.209 407.336 304.721 407.032C305.249 406.728 305.513 406.208 305.513 405.472C305.513 404.896 305.289 404.432 304.841 404.08C304.409 403.712 303.633 403.528 302.513 403.528H300.401V407.392ZM302.753 402.064C303.041 402.064 303.321 402.016 303.593 401.92C303.865 401.824 304.105 401.696 304.313 401.536C304.537 401.36 304.713 401.16 304.841 400.936C304.985 400.712 305.057 400.472 305.057 400.216C305.057 399.576 304.865 399.136 304.481 398.896C304.097 398.64 303.425 398.512 302.465 398.512C301.953 398.512 301.545 398.52 301.241 398.536C300.953 398.552 300.673 398.568 300.401 398.584V402.064H302.753ZM313.985 404.776L314.657 407.08H314.777L315.305 404.752L317.633 397H319.577L316.025 407.776C315.753 408.56 315.481 409.32 315.209 410.056C314.953 410.792 314.665 411.448 314.345 412.024C314.025 412.6 313.665 413.056 313.265 413.392C312.865 413.744 312.401 413.92 311.873 413.92C311.297 413.92 310.825 413.84 310.457 413.68L310.793 412.024C311.001 412.104 311.201 412.144 311.393 412.144C311.841 412.144 312.273 411.904 312.689 411.424C313.105 410.96 313.449 410.152 313.721 409L308.897 397H311.105L313.985 404.776ZM330.949 409.288C330.085 409.288 329.341 409.16 328.717 408.904C328.109 408.632 327.605 408.256 327.205 407.776C326.821 407.28 326.525 406.688 326.317 406C326.125 405.296 326.005 404.528 325.957 403.696H323.557V409H321.637V397H323.557V402.016H325.981C326.109 400.304 326.573 398.992 327.373 398.08C328.189 397.168 329.397 396.712 330.997 396.712C331.877 396.712 332.621 396.864 333.229 397.168C333.853 397.456 334.357 397.88 334.741 398.44C335.141 398.984 335.429 399.648 335.605 400.432C335.781 401.2 335.869 402.056 335.869 403C335.869 405.032 335.461 406.592 334.645 407.68C333.845 408.752 332.613 409.288 330.949 409.288ZM327.853 403C327.853 403.624 327.901 404.216 327.997 404.776C328.093 405.336 328.261 405.832 328.501 406.264C328.741 406.68 329.061 407.008 329.461 407.248C329.877 407.488 330.389 407.608 330.997 407.608C332.021 407.608 332.757 407.24 333.205 406.504C333.653 405.752 333.877 404.584 333.877 403C333.877 402.376 333.829 401.784 333.733 401.224C333.653 400.664 333.501 400.176 333.277 399.76C333.053 399.328 332.757 398.992 332.389 398.752C332.021 398.512 331.549 398.392 330.973 398.392C329.869 398.392 329.069 398.768 328.573 399.52C328.093 400.256 327.853 401.416 327.853 403ZM174.872 434.6H173.768V440H171.848V428H173.768V433.424L174.8 433.088L178.64 428H180.728L177.008 432.824L176 433.616L177.248 434.576L181.256 440H178.88L174.872 434.6ZM182.379 434C182.379 431.968 182.827 430.416 183.723 429.344C184.635 428.256 185.939 427.712 187.635 427.712C188.531 427.712 189.307 427.864 189.963 428.168C190.635 428.456 191.187 428.88 191.619 429.44C192.051 429.984 192.371 430.648 192.579 431.432C192.787 432.2 192.891 433.056 192.891 434C192.891 436.032 192.435 437.592 191.523 438.68C190.627 439.752 189.331 440.288 187.635 440.288C186.739 440.288 185.955 440.144 185.283 439.856C184.627 439.552 184.083 439.128 183.651 438.584C183.219 438.024 182.899 437.36 182.691 436.592C182.483 435.808 182.379 434.944 182.379 434ZM184.371 434C184.371 434.608 184.427 435.192 184.539 435.752C184.667 436.312 184.859 436.8 185.115 437.216C185.371 437.632 185.707 437.968 186.123 438.224C186.539 438.48 187.043 438.608 187.635 438.608C189.811 438.624 190.899 437.088 190.899 434C190.899 433.376 190.835 432.784 190.707 432.224C190.595 431.664 190.411 431.176 190.155 430.76C189.899 430.344 189.563 430.016 189.147 429.776C188.731 429.52 188.227 429.392 187.635 429.392C185.459 429.376 184.371 430.912 184.371 434ZM205.83 432.872L205.974 430.592H205.854L204.99 432.44L202.086 437.144H201.414L198.39 432.44L197.598 430.592H197.502L197.694 432.848V440H195.918V428H197.814L201.174 433.376L201.87 434.768H201.918L202.638 433.328L205.782 428H207.702V440H205.83V432.872ZM218.611 429.68H213.307V440H211.387V428H220.531V440H218.611V429.68ZM224.039 428.888C224.647 428.52 225.351 428.248 226.151 428.072C226.967 427.896 227.815 427.808 228.695 427.808C229.527 427.808 230.191 427.92 230.687 428.144C231.199 428.368 231.583 428.664 231.839 429.032C232.111 429.384 232.287 429.776 232.367 430.208C232.463 430.64 232.511 431.072 232.511 431.504C232.511 432.464 232.487 433.4 232.439 434.312C232.391 435.224 232.367 436.088 232.367 436.904C232.367 437.496 232.391 438.056 232.439 438.584C232.487 439.112 232.575 439.6 232.703 440.048H231.287L230.783 438.368H230.663C230.519 438.592 230.335 438.816 230.111 439.04C229.903 439.248 229.647 439.44 229.343 439.616C229.039 439.776 228.687 439.912 228.287 440.024C227.887 440.136 227.431 440.192 226.919 440.192C226.407 440.192 225.927 440.112 225.479 439.952C225.047 439.792 224.671 439.568 224.351 439.28C224.031 438.976 223.775 438.616 223.583 438.2C223.407 437.784 223.319 437.312 223.319 436.784C223.319 436.08 223.463 435.496 223.751 435.032C224.039 434.552 224.439 434.176 224.951 433.904C225.479 433.616 226.103 433.416 226.823 433.304C227.559 433.176 228.367 433.112 229.247 433.112C229.471 433.112 229.687 433.112 229.895 433.112C230.119 433.112 230.343 433.128 230.567 433.16C230.615 432.68 230.639 432.248 230.639 431.864C230.639 430.984 230.463 430.368 230.111 430.016C229.759 429.664 229.119 429.488 228.191 429.488C227.919 429.488 227.623 429.512 227.303 429.56C226.999 429.592 226.679 429.648 226.343 429.728C226.023 429.792 225.711 429.88 225.407 429.992C225.119 430.088 224.863 430.2 224.639 430.328L224.039 428.888ZM227.447 438.512C227.895 438.512 228.295 438.456 228.647 438.344C228.999 438.216 229.303 438.064 229.559 437.888C229.815 437.696 230.023 437.488 230.183 437.264C230.359 437.04 230.487 436.824 230.567 436.616V434.624C230.343 434.608 230.111 434.6 229.871 434.6C229.647 434.584 229.423 434.576 229.199 434.576C228.703 434.576 228.215 434.608 227.735 434.672C227.271 434.72 226.855 434.824 226.487 434.984C226.135 435.128 225.847 435.336 225.623 435.608C225.415 435.864 225.311 436.192 225.311 436.592C225.311 437.152 225.511 437.616 225.911 437.984C226.311 438.336 226.823 438.512 227.447 438.512ZM243.481 434.696H238.057V440H236.137V428H238.057V433.016H243.481V428H245.401V440H243.481V434.696ZM256.586 432.896L256.658 431.408H256.586L255.602 432.944L250.202 440H249.098V428H251.018V435.32L250.946 436.736H251.042L251.978 435.248L257.378 428H258.506V440H256.586V432.896ZM271.512 440.288C270.648 440.288 269.904 440.16 269.28 439.904C268.672 439.632 268.168 439.256 267.768 438.776C267.384 438.28 267.088 437.688 266.88 437C266.688 436.296 266.568 435.528 266.52 434.696H264.12V440H262.2V428H264.12V433.016H266.544C266.672 431.304 267.136 429.992 267.936 429.08C268.752 428.168 269.96 427.712 271.56 427.712C272.44 427.712 273.184 427.864 273.792 428.168C274.416 428.456 274.92 428.88 275.304 429.44C275.704 429.984 275.992 430.648 276.168 431.432C276.344 432.2 276.432 433.056 276.432 434C276.432 436.032 276.024 437.592 275.208 438.68C274.408 439.752 273.176 440.288 271.512 440.288ZM268.416 434C268.416 434.624 268.464 435.216 268.56 435.776C268.656 436.336 268.824 436.832 269.064 437.264C269.304 437.68 269.624 438.008 270.024 438.248C270.44 438.488 270.952 438.608 271.56 438.608C272.584 438.608 273.32 438.24 273.768 437.504C274.216 436.752 274.44 435.584 274.44 434C274.44 433.376 274.392 432.784 274.296 432.224C274.216 431.664 274.064 431.176 273.84 430.76C273.616 430.328 273.32 429.992 272.952 429.752C272.584 429.512 272.112 429.392 271.536 429.392C270.432 429.392 269.632 429.768 269.136 430.52C268.656 431.256 268.416 432.416 268.416 434Z" fill="#BBB5C4"/>
<path d="M143 193C114 189.5 99 175 96 146C97 120.5 115 101.5 143 99C166 100.5 187.744 114 190 146C189 174.5 171 191 143 193ZM143 101.256C118.33 101.256 98.2558 121.33 98.2558 146C98.2558 170.67 118.33 190.744 143 190.744C167.67 190.744 187.744 170.67 187.744 146C187.744 121.33 167.67 101.256 143 101.256Z" fill="#8ED9CB"/>
<path d="M137 161C136.033 161 135.677 160.678 135 160L122 147.5C121 146.5 119.5 145 119.876 143.437C122 143 122.5 144.5 124 145.5L137 158L162.5 131.5C164 130.5 164.5 129 166.12 129.699C167 131 166 131.5 165 133L139 160.5C138.323 161.178 137.968 161 137 161Z" fill="#8ED9CB"/>
</svg>
